<svg width="292" height="180" viewBox="0 0 292 180" fill="none" xmlns="http://www.w3.org/2000/svg">
<path d="M246.823 99.7992C243.824 99.3881 243.182 104.046 246.185 104.458C249.187 104.869 249.829 100.211 246.823 99.7992Z" fill="#FBB03B"/>
<path d="M269.899 166.639C268.681 168.152 267.155 169.388 265.422 170.265C263.689 171.142 261.789 171.64 259.849 171.726C258.825 171.763 257.801 171.708 256.788 171.563C260.56 171.186 263.998 170.036 266.549 167.476C271.48 162.515 271.539 154.039 266.686 148.579C264.528 146.149 261.51 144.662 258.613 144.594C255.321 144.52 251.629 146.789 250.38 149.657C249.939 150.678 249.782 151.799 249.925 152.902C250.069 154.006 250.507 155.05 251.195 155.924C251.755 156.644 252.51 157.187 253.37 157.489C254.231 157.791 255.16 157.84 256.047 157.629C257.401 157.357 259.356 156.035 259.844 154.743C259.925 154.559 259.95 154.354 259.915 154.156C259.881 153.957 259.789 153.773 259.651 153.626C259.4 153.295 259.238 152.906 259.183 152.495C259.127 152.084 259.178 151.665 259.332 151.28C259.486 150.894 259.737 150.555 260.061 150.296C260.385 150.037 260.77 149.865 261.18 149.799C261.231 150.389 261.337 150.973 261.495 151.543C261.888 152.922 262.016 154.361 261.873 155.787C261.68 157.202 260.948 158.595 259.725 159.331C258.9 159.769 257.992 160.027 257.061 160.089C256.119 160.231 255.162 160.228 254.221 160.081C253.386 159.894 252.597 159.542 251.9 159.044C251.204 158.547 250.614 157.915 250.166 157.186C249.27 155.72 248.817 154.027 248.86 152.31C248.872 149.11 250.439 145.843 253.211 144.245C254.662 143.474 256.27 143.042 257.912 142.981C260.307 142.824 262.792 143.171 264.859 144.39C267.375 145.874 269.008 148.471 270.375 151.056C271.195 152.509 271.836 154.056 272.287 155.662C272.741 157.554 272.763 159.523 272.349 161.424C271.936 163.325 271.098 165.107 269.899 166.639Z" fill="#F7931E"/>
<path d="M75.8021 25.3741C75.763 25.6598 75.7243 25.942 75.6652 26.2214C74.8194 30.7484 72.2237 34.7597 68.4406 37.386C64.6575 40.0122 59.9918 41.0418 55.4548 40.2516C50.9178 39.4614 46.8749 36.915 44.2025 33.1644C41.5301 29.4137 40.4434 24.761 41.1779 20.2147C41.9125 15.6683 44.4091 11.5946 48.1267 8.87635C51.8443 6.15814 56.4833 5.01448 61.0383 5.69324C65.5934 6.372 69.6974 8.81849 72.461 12.5025C75.2246 16.1864 76.425 20.8111 75.8021 25.3741Z" fill="#FBB03B"/>
<path d="M75.6653 26.2219C75.2126 28.6441 74.253 30.9433 72.8493 32.9685C71.4456 34.9938 69.6295 36.6994 67.5203 37.9734C65.4111 39.2475 63.0563 40.0612 60.6105 40.3612C58.1647 40.6613 55.6831 40.4408 53.3285 39.7143C50.9739 38.9878 48.7995 37.7717 46.9479 36.1457C45.0963 34.5198 43.6094 32.5208 42.5847 30.2798C41.56 28.0388 41.0207 25.6065 41.0022 23.1424C40.9836 20.6783 41.4862 18.2382 42.477 15.982C42.4991 16.0993 42.5318 16.2147 42.5631 16.3402C42.8403 17.2745 43.3121 18.1397 43.9474 18.8787C45.5267 20.7269 47.8587 21.7601 50.1949 22.4336C54.6718 23.7157 59.3749 23.8787 64.0142 24.2788C67.9508 24.5553 71.8521 25.2059 75.6653 26.2219Z" fill="#F7931E"/>
<path d="M71.0653 24.725C70.6965 27.4547 69.4453 29.989 67.5023 31.9415C66.8647 32.5838 66.1614 33.1574 65.404 33.6529C62.9739 35.2324 60.0766 35.9333 57.1933 35.6389C54.3099 35.3446 51.6139 34.0728 49.5531 32.0348C47.4923 29.9968 46.1906 27.3152 45.8643 24.4353C45.5379 21.5554 46.2064 18.6505 47.7589 16.2029C49.3114 13.7554 51.6543 11.9126 54.3987 10.9805C57.1431 10.0484 60.1237 10.083 62.8457 11.0787C65.5676 12.0745 67.8671 13.9713 69.3622 16.4542C70.8573 18.9372 71.4581 21.8569 71.0648 24.7284L71.0653 24.725Z" fill="#A30404"/>
<path d="M67.5024 31.9417C66.8648 32.5841 66.1615 33.1577 65.404 33.6531C64.2245 33.3621 63.0511 33.0512 61.8839 32.7204C57.0773 31.3411 52.3261 29.5329 47.3536 29.1113C45.982 26.6122 45.4912 23.7243 45.9601 20.9124C46.429 18.1005 47.8304 15.5281 49.9387 13.6093C49.18 14.8953 48.6421 16.2994 48.3475 17.7632C48.0921 19.0026 47.9918 20.269 48.0491 21.5331C48.1054 22.7152 48.2856 23.9282 48.9059 24.9382C49.5992 26.0725 50.7612 26.8207 51.9293 27.4484C56.7324 30.0155 62.0926 31.0203 67.5024 31.9417Z" fill="#8E0404"/>
<path d="M52.2004 15.4326C53.2151 16.6009 54.3465 17.6625 55.577 18.6009L56.5441 13.44L57.5471 17.9009C58.2637 16.7731 59.0727 15.7066 59.9656 14.7126C59.7271 16.0656 59.4882 17.4128 59.249 18.7542C61.4224 17.2331 63.7024 15.8703 66.0713 14.6763L59.3759 21.0131C60.8566 21.1988 62.3577 21.1412 63.8198 20.8426C62.6777 21.6582 61.372 22.2157 59.993 22.4764C63.2487 24.0099 66.6371 25.2441 70.1163 26.164C66.7308 25.673 63.4215 24.7539 60.2678 23.4287C60.9833 24.3951 61.47 25.5113 61.6912 26.6932L59.4862 23.4948C59.7973 26.2449 59.7657 29.0229 59.3922 31.7652C58.619 30.3289 58.3789 28.6678 58.3075 27.0401C58.2361 25.4125 58.3597 23.7769 58.2359 22.1525C57.4871 25.2406 56.6849 28.4148 54.8356 30.9883C55.2387 28.1369 56.1162 25.3731 57.432 22.8114C55.3649 24.6483 53.1552 26.49 50.4817 27.1906L57.7208 22.3972C54.86 23.219 51.8595 23.4366 48.91 23.0363L52.6975 22.1696C53.6003 21.9779 54.491 21.7332 55.365 21.4369C55.6344 21.3422 56.3646 21.1963 56.3796 20.8588C56.3908 20.6005 55.7077 20.0739 55.5339 19.9011C54.2699 18.532 53.1526 17.0343 52.2004 15.4326Z" fill="#8E0404"/>
<path d="M58.9793 17.9423C54.8987 17.3832 54.0277 23.7387 58.1083 24.2979C62.1889 24.857 63.0768 18.5039 58.9793 17.9423Z" fill="#FBB03B"/>
<path d="M259.784 104.974C259.743 105.273 259.702 105.572 259.631 105.864C258.929 109.337 256.901 112.4 253.979 114.403C251.056 116.406 247.468 117.193 243.975 116.596C240.483 115.999 237.36 114.065 235.269 111.204C233.178 108.344 232.283 104.781 232.774 101.272C232.83 100.864 232.902 100.465 232.995 100.069C233.789 96.6571 235.866 93.6817 238.796 91.7603C241.725 89.8389 245.282 89.119 248.728 89.7499C252.174 90.3807 255.245 92.314 257.303 95.1486C259.362 97.9832 260.25 101.502 259.784 104.974Z" fill="#FBB03B"/>
<path d="M259.624 105.863C258.922 109.336 256.894 112.398 253.972 114.402C251.049 116.405 247.461 117.192 243.969 116.595C240.476 115.998 237.353 114.064 235.262 111.203C233.171 108.343 232.276 104.78 232.767 101.271C232.823 100.863 232.895 100.464 232.988 100.068C235.813 101.076 238.73 101.801 241.699 102.232C247.04 103.095 252.493 103.496 257.644 105.144C258.325 105.356 258.987 105.585 259.624 105.863Z" fill="#F7931E"/>
<path d="M256.091 104.468C256.082 104.532 256.074 104.597 256.065 104.661C255.93 105.532 255.678 106.379 255.314 107.181C254.291 109.457 252.446 111.263 250.148 112.237C247.85 113.211 245.27 113.281 242.922 112.434C240.575 111.587 238.634 109.885 237.487 107.668C236.341 105.452 236.074 102.884 236.74 100.479C237.406 98.0736 238.955 96.0085 241.078 94.6966C243.201 93.3847 245.741 92.9228 248.19 93.4033C250.638 93.8838 252.816 95.2712 254.285 97.288C255.755 99.3048 256.409 101.802 256.117 104.281C256.108 104.345 256.1 104.403 256.091 104.468Z" fill="#A30404"/>
<path d="M255.311 107.18C254.759 108.408 253.963 109.51 252.971 110.419C251.978 111.328 250.811 112.026 249.541 112.469C248.27 112.912 246.922 113.092 245.58 112.996C244.238 112.901 242.929 112.534 241.733 111.916C240.538 111.298 239.481 110.443 238.627 109.403C237.773 108.363 237.14 107.159 236.767 105.866C236.393 104.574 236.287 103.218 236.455 101.883C236.623 100.548 237.062 99.2608 237.744 98.1007C237.66 98.487 237.606 98.8793 237.583 99.2739C237.546 100.063 237.627 100.853 237.823 101.618C238.632 104.666 241.078 107.163 244.019 108.304C246.96 109.445 250.321 109.285 253.266 108.151C253.97 107.878 254.654 107.554 255.311 107.18Z" fill="#8E0404"/>
<path d="M256.091 104.467C256.083 104.532 256.074 104.597 256.065 104.661C253.839 104.574 251.655 103.974 249.422 103.64C249.214 103.612 248.953 103.6 248.835 103.778C248.717 103.956 248.858 104.242 249.013 104.426L251.023 106.922L248.452 105.458C248.424 105.436 248.392 105.42 248.357 105.41C248.323 105.401 248.287 105.398 248.252 105.402C248.151 105.43 248.114 105.546 248.093 105.647C247.926 106.487 247.939 107.358 247.857 108.203C247.821 109.062 247.545 109.895 247.061 110.605C246.223 108.932 246.705 106.933 246.59 105.067C246.126 105.316 245.92 105.859 245.741 106.354C245.274 107.629 244.731 108.874 244.115 110.084C244.081 110.181 244.012 110.262 243.921 110.31C243.848 110.328 243.771 110.318 243.705 110.28C243.64 110.243 243.592 110.182 243.571 110.11C243.534 109.966 243.535 109.814 243.575 109.671C243.894 107.985 244.311 106.32 244.824 104.683C243.155 105.206 241.868 106.558 240.252 107.227C240.095 106.575 240.71 106.011 241.27 105.634C242.552 104.811 243.909 104.11 245.323 103.543C243.849 103.805 242.377 104.054 240.914 104.39C241.751 104.054 242.569 103.674 243.364 103.25C242.598 103.215 241.836 103.119 241.086 102.962C242.012 102.672 242.955 102.437 243.909 102.258C243.144 101.869 242.351 101.539 241.536 101.271C242.316 101.11 243.122 101.125 243.896 101.313C243.388 100.912 242.97 100.407 242.672 99.8327L244.056 100.549C244.084 100.566 244.115 100.576 244.147 100.581C244.179 100.585 244.212 100.583 244.243 100.575C244.331 100.542 244.347 100.426 244.346 100.329C244.351 99.7857 244.332 99.2427 244.286 98.6993L244.842 99.2398C244.894 99.3026 244.964 99.3483 245.042 99.3711C245.246 99.3991 245.382 99.1891 245.46 98.9989C246.005 97.6704 246.667 96.3931 247.439 95.182C247.528 95.0315 247.682 94.869 247.848 94.9229C248.014 94.9768 248.023 95.1408 248.033 95.2946C248.112 96.6358 247.415 97.9815 247.627 99.2889C247.628 99.3506 247.652 99.4099 247.695 99.454C247.769 99.5196 247.889 99.4806 247.975 99.4301C248.857 98.9343 249.198 97.765 250.09 97.2949C249.698 98.098 249.307 98.9001 248.915 99.7009C248.832 99.8801 248.759 100.13 248.924 100.246C248.989 100.283 249.064 100.3 249.139 100.293C249.831 100.298 250.543 99.8824 251.215 100.085C251.115 100.456 250.704 100.629 250.369 100.822C250.034 101.015 249.718 101.425 249.927 101.748C250.022 101.871 250.152 101.964 250.299 102.014C252.193 102.879 254.134 103.636 256.114 104.28C256.108 104.345 256.1 104.403 256.091 104.467Z" fill="#8E0404"/>
<path d="M256.329 116.154C255.78 116.16 255.234 116.078 254.71 115.912C252.395 115.411 249.956 116.327 248.101 117.777C245.285 119.997 243.176 123.377 241.114 126.267L241.112 126.284C238.924 129.331 236.748 132.418 234.068 135.061C230.001 139.076 225.418 143.603 220.346 146.965C218.028 148.544 215.518 149.823 212.879 150.771C203.165 154.131 191.835 151.864 181.97 150.367C170.125 148.571 158.234 147.114 146.345 145.644C130.838 143.727 115.315 141.801 99.9205 139.088C86.2709 136.688 69.935 134.979 58.6651 126.16C54.5596 122.95 52.3099 118.385 50.8218 113.469C48.2536 105.059 48.3763 96.124 48.4047 87.3978L48.406 86.7051C48.4282 75.6222 49.2373 64.5606 48.5636 53.5001C48.4177 51.0759 48.2101 48.6467 47.8576 46.2391C47.5097 43.6761 46.9441 41.1474 46.167 38.6804C45.2623 35.9027 43.7533 32.8586 40.8434 31.7704C39.1564 31.1374 41.1084 29.3817 41.9334 28.6703C43.7472 27.1139 46.6034 27.4568 48.8035 27.6821C58.6743 28.7125 68.4888 30.785 77.5909 34.7449C85.7353 38.286 93.4863 42.6255 101.385 46.6942C109.284 50.7629 117.038 54.9261 124.813 59.1407C130.056 61.9863 135.869 64.217 140.186 68.311C141.516 70.8387 141.832 73.5357 142.686 76.9369C143.955 81.9886 145.802 87.0641 149.429 90.9353C151.197 92.8034 153.219 94.4145 155.435 95.7216C157.762 98.0217 160.395 99.9901 163.259 101.571C170.043 105.362 177.687 107.266 185.209 109.211C194.172 111.53 203.175 113.987 212.424 114.828C216.188 115.171 219.833 115.238 223.454 113.943C226.839 112.73 229.142 109.65 232.538 108.481C237.472 106.784 243.258 107.715 248.601 109.296C251.167 110.063 253.633 110.983 255.85 111.838C257.516 112.503 259.202 115.845 256.329 116.154Z" fill="#A30404"/>
<path d="M220.334 146.977C218.016 148.556 215.506 149.835 212.867 150.783C203.153 154.142 191.823 151.876 181.958 150.379C170.113 148.582 158.222 147.126 146.333 145.656C130.826 143.739 115.303 141.813 99.9085 139.1C86.2588 136.7 69.923 134.991 58.653 126.172C54.5476 122.962 52.2979 118.396 50.8098 113.481C48.2536 105.059 48.3764 96.1237 48.4047 87.3975L48.7321 87.9412C54.3797 97.2894 62.3932 105.098 71.3652 111.271C76.4578 114.768 81.8718 117.772 87.5337 120.242C108.822 129.572 132.304 132.295 155.308 135.627C177.085 138.782 198.76 142.565 220.334 146.977Z" fill="#8E0404"/>
<path d="M256.329 116.154C255.78 116.16 255.234 116.078 254.71 115.912C252.395 115.411 249.956 116.327 248.101 117.777C245.285 119.997 243.176 123.377 241.114 126.267L241.112 126.284C212.657 120.386 182.583 120.966 155.751 109.82C147.93 106.572 140.222 102.1 135.554 95.0308C133.188 91.4431 131.706 87.3392 129.431 83.6913C124.465 75.7148 116.126 70.505 107.785 66.1748C88.9828 56.4222 68.7623 49.6904 47.8663 46.2265C47.5184 43.6634 46.9528 41.1347 46.1756 38.6677C45.2623 35.9027 43.7533 32.8586 40.8434 31.7704C39.1564 31.1374 41.1084 29.3817 41.9334 28.6703C43.7472 27.1139 46.6034 27.4568 48.8035 27.6821C58.6743 28.7125 68.4888 30.785 77.5909 34.7449C85.7353 38.286 93.4863 42.6255 101.385 46.6942C109.284 50.7629 117.038 54.9261 124.813 59.1407C130.056 61.9863 135.869 64.217 140.186 68.311C141.516 70.8387 141.832 73.5357 142.686 76.9369C143.955 81.9886 145.802 87.0641 149.429 90.9353C151.197 92.8034 153.219 94.4145 155.435 95.7216C157.762 98.0217 160.395 99.9901 163.259 101.571C170.043 105.362 177.687 107.266 185.209 109.211C194.172 111.53 203.175 113.987 212.424 114.828C216.188 115.171 219.833 115.238 223.454 113.943C226.839 112.73 229.142 109.65 232.538 108.481C237.472 106.784 243.258 107.715 248.601 109.296C251.167 110.063 253.633 110.983 255.85 111.838C257.516 112.503 259.202 115.845 256.329 116.154Z" fill="#8E0404"/>
<path d="M262.179 126.888C259.336 131.099 253.701 131.72 249.828 128.535C248.963 127.865 248.321 126.95 247.984 125.909C247.846 125.399 247.834 124.864 247.948 124.348C248.062 123.832 248.299 123.351 248.64 122.947C249.576 121.801 251.204 121.272 252.661 122.272C253.528 122.869 253.74 124.183 254.897 124.335C256.423 124.544 257.428 122.62 257.458 121.343C257.493 119.899 256.739 118.421 255.742 117.407C254.082 115.718 251.788 114.662 249.585 113.875C245.86 112.544 241.933 111.895 238.037 111.254C236.652 111.022 235.192 110.805 233.875 111.29C232.109 111.945 231.196 113.645 229.855 114.837C228.578 116.033 227.014 116.878 225.313 117.291C222.787 117.828 220.231 117.142 217.752 116.646C215.444 116.184 213.135 115.713 210.827 115.233C206.293 114.293 201.765 113.314 197.243 112.298C189.776 110.621 182.332 108.844 174.912 106.968C167.802 105.176 160.205 103.737 153.793 100.017C148.93 97.2771 145.117 92.9971 142.954 87.8514C140.949 83.0142 141.852 77.0303 138.861 72.6156C137.331 70.3585 134.904 68.9069 132.557 67.5253C110.432 54.5471 87.7421 41.8693 62.9759 35.167C56.8897 33.5188 50.6464 32.2337 44.3273 32.2096C40.8353 32.2091 36.9011 32.8063 34.7721 35.6012C34.2151 36.3287 33.8067 37.2358 33.9424 38.1412C34.0782 39.0467 34.9275 39.8768 35.8325 39.7444C36.7375 39.6121 37.3162 38.6001 38.0989 38.0457C38.4135 37.8228 38.7765 37.6778 39.1581 37.6227C39.8431 37.5371 40.5378 37.6666 41.146 37.9933C41.7541 38.3199 42.2457 38.8275 42.5527 39.4459C43.3012 41.0624 42.688 43.0847 41.398 44.3075C40.108 45.5303 38.28 46.0524 36.5023 46.1067C33.6729 46.2005 30.7227 45.1033 29.0046 42.8516C27.5374 40.9184 27.1 38.2706 27.6183 35.8785C28.5749 31.4262 32.5741 28.1046 36.9224 26.7604C41.2708 25.4163 45.9508 25.7216 50.4627 26.3191C52.8857 26.6373 55.297 27.0324 57.6966 27.5044C72.2594 30.3454 86.1774 35.7932 99.4978 42.24C113.081 48.813 125.842 56.7697 139.147 63.8554C140.377 64.509 141.889 65.1804 142.777 66.2617C143.665 67.343 144.219 68.8843 144.71 70.1538C145.75 72.9083 146.323 75.8068 146.97 78.6704C147.775 82.2452 148.766 85.9111 150.885 88.9522C153.004 91.9933 156.069 94.2252 159.471 95.7445C165.978 98.6455 173.242 100.015 180.132 101.714C187.607 103.567 195.114 105.285 202.63 106.918C206.395 107.739 210.162 108.54 213.93 109.322C216.426 109.841 218.795 110.931 221.364 111.148C222.391 111.204 223.418 111.031 224.37 110.642C225.322 110.252 226.176 109.655 226.869 108.895C228.555 107.138 229.911 105.81 232.391 105.204C234.682 104.641 237.08 104.765 239.422 105.041C243.51 105.532 247.527 106.495 251.393 107.912C254.23 108.952 257.019 110.262 259.304 112.242C260.691 113.446 261.816 114.92 262.612 116.575C264.178 119.831 264.348 123.676 262.179 126.888Z" fill="#FBB03B"/>
<path d="M261.541 124.133C260.301 125.373 258.593 126.056 256.867 126.34C254.126 126.796 251.004 126.146 249.297 123.962C249.052 123.643 248.834 123.303 248.646 122.947C249.583 121.801 251.211 121.272 252.668 122.272C253.535 122.869 253.746 124.183 254.904 124.335C256.43 124.544 257.435 122.621 257.465 121.343C257.5 119.9 256.746 118.421 255.749 117.408C254.089 115.718 251.795 114.663 249.592 113.876C245.866 112.544 241.94 111.895 238.044 111.254C236.659 111.023 235.199 110.805 233.882 111.29C232.115 111.945 231.203 113.646 229.862 114.837C228.585 116.033 227.02 116.879 225.32 117.291C222.794 117.828 220.238 117.142 217.759 116.647C215.451 116.185 213.142 115.714 210.834 115.233C206.299 114.293 201.772 113.315 197.25 112.298C189.782 110.621 182.338 108.844 174.919 106.969C167.809 105.177 160.212 103.737 153.8 100.018C148.937 97.2775 145.124 92.9975 142.961 87.8518C140.956 83.0145 141.859 77.0306 138.868 72.616C137.338 70.3588 134.911 68.9073 132.564 67.5256C110.439 54.5475 87.749 41.8696 62.9828 35.1673C56.8966 33.5191 50.6533 32.234 44.3342 32.2099C40.8354 32.2085 36.9012 32.8057 34.7721 35.6006C34.2152 36.328 33.8068 37.2352 33.9425 38.1406C34.0783 39.0461 34.9276 39.8762 35.8326 39.7438C36.7376 39.6115 37.3163 38.5995 38.099 38.0451C38.4135 37.8222 38.7766 37.6772 39.1581 37.6221C39.2186 39.709 38.1111 41.951 36.118 42.5405C34.0265 43.1651 31.6777 41.648 30.9815 39.5744C30.2852 37.5009 31.045 35.1419 32.4826 33.4993C33.9202 31.8567 35.9625 30.8582 38.0283 30.1679C42.229 28.8139 46.7256 28.6887 51.0776 29.2643C55.4296 29.8399 59.6669 31.0753 63.8572 32.4013C73.3087 35.4044 82.6332 38.8786 91.5468 43.2284C104.156 49.3769 116.794 55.266 128.768 62.5675C131.926 64.4969 135.064 66.4998 137.791 69.0005C140.517 71.5013 142.831 74.5413 143.994 78.0611C145.157 81.5809 145.148 85.4943 146.499 89.0019C150.442 99.1627 164.054 101.589 174.648 104.143C185.242 106.696 196.207 107.928 206.417 111.742C210.543 113.285 214.591 114.487 218.994 114.36C222.512 114.251 225.923 113.126 228.816 111.122C229.963 110.334 231.016 109.401 232.302 108.891C234.224 108.139 236.383 108.411 238.409 108.817C242.014 109.508 245.559 110.489 249.125 111.369C252.849 112.306 256.678 113.205 259.88 115.32C261.358 116.292 262.731 117.623 263.115 119.346C263.499 121.068 262.784 122.9 261.541 124.133Z" fill="#F7931E"/>
<path d="M270.277 145.379C267.2 141.919 262.987 139.876 258.717 139.787C253.468 139.663 247.99 143.084 245.966 147.739C245.175 149.568 244.895 151.578 245.157 153.553C245.418 155.528 246.211 157.396 247.45 158.956C248.569 160.354 250.055 161.412 251.743 162.011C253.431 162.609 255.252 162.725 257.001 162.343C259.685 161.797 263.171 159.541 264.341 156.438C264.711 155.494 264.827 154.469 264.677 153.466C264.527 152.463 264.116 151.517 263.486 150.722C263.1 150.215 262.529 149.881 261.898 149.794C261.267 149.708 260.627 149.876 260.119 150.261C259.611 150.646 259.278 151.217 259.191 151.849C259.105 152.48 259.273 153.12 259.658 153.627C259.796 153.774 259.888 153.959 259.922 154.157C259.957 154.356 259.932 154.56 259.851 154.745C259.362 156.036 257.414 157.359 256.054 157.63C255.167 157.841 254.238 157.793 253.377 157.491C252.517 157.189 251.762 156.645 251.202 155.926C250.514 155.051 250.076 154.007 249.932 152.904C249.789 151.801 249.946 150.679 250.387 149.658C251.636 146.791 255.328 144.522 258.619 144.596C261.517 144.663 264.535 146.151 266.693 148.581C271.546 154.041 271.486 162.517 266.556 167.477C264.005 170.038 260.567 171.188 256.794 171.565C251.947 172.051 246.554 171.263 241.812 170.572L222.11 167.716L220.741 165.069L214.432 152.959C214.799 152.812 215.197 152.665 215.576 152.502C223.474 149.168 230.316 142.397 235.891 136.904C236.351 136.422 236.606 135.778 236.6 135.111C236.595 134.443 236.329 133.804 235.861 133.329C235.392 132.854 234.756 132.58 234.089 132.566C233.422 132.551 232.775 132.797 232.286 133.251C230.872 134.647 229.373 136.126 227.799 137.604L174.691 146.73C165.636 145.458 156.534 144.328 147.659 143.233L146.639 143.094L145.106 142.904C140.497 142.335 135.844 141.76 131.164 141.15L131.14 141.146C122.178 139.984 113.112 138.717 104.07 137.201L50.9966 83.4506C51.0256 80.7108 51.107 77.9678 51.1766 75.2855L51.1863 74.684C51.1959 74.3472 51.1387 74.0118 51.0182 73.6971C50.8976 73.3824 50.7161 73.0946 50.484 72.8503C50.2518 72.606 49.9737 72.41 49.6656 72.2736C49.3574 72.1371 49.0254 72.0629 48.6885 72.0553C48.2562 72.0412 47.8276 72.1388 47.4441 72.3386C47.0351 72.5479 46.6904 72.8639 46.4462 73.253C46.202 73.6421 46.0674 74.09 46.0568 74.5493L46.0412 75.143C45.9721 78.1752 45.8914 81.2925 45.847 84.3974C45.8414 84.4382 45.8353 84.4824 45.8467 84.5255C45.8378 85.2483 45.8327 85.9682 45.8305 86.692L45.8243 88.3297C45.8123 92.4368 45.8012 96.6133 46.0789 100.781C46.0765 100.798 46.0751 100.808 46.0733 100.822C46.3713 105.321 47.0022 109.818 48.3403 114.21C50.2806 120.605 53.0504 125.041 57.0549 128.177C58.0657 128.967 59.112 129.7 60.1891 130.384L47.8298 143.57L35.1506 141.95L35.0757 141.94C30.4285 141.345 25.6209 140.731 21.246 139.21C17.5487 137.927 10.9814 134.734 8.54422 127.769C6.51221 121.968 8.08344 115.331 12.3605 111.625C15.1915 109.169 19.1282 108.503 22.1582 109.978C25.0993 111.42 27.1802 114.993 27.1989 118.699C27.2189 120.753 26.0276 123.025 24.379 124.108C23.8628 124.47 23.2594 124.686 22.6313 124.736C22.0033 124.786 21.3733 124.667 20.8066 124.391C19.7817 123.932 19.1909 123.314 18.9872 122.5C18.6874 121.25 19.2761 119.456 20.4931 117.933C20.6906 117.686 20.8376 117.403 20.9255 117.099C21.0134 116.795 21.0405 116.478 21.0054 116.163C20.9702 115.849 20.8734 115.545 20.7206 115.269C20.5677 114.992 20.3618 114.748 20.1146 114.551C19.9421 114.416 19.7525 114.304 19.5506 114.218C19.0677 114.013 18.5309 113.971 18.0222 114.1C17.5135 114.228 17.0609 114.52 16.7335 114.93C14.555 117.656 13.6552 120.91 14.3144 123.633C14.7016 125.232 15.798 127.419 18.8367 128.781C20.1379 129.39 21.5748 129.65 23.0069 129.538C24.439 129.425 25.8174 128.942 27.0072 128.137C30.0496 126.16 32.0403 122.352 32.01 118.655C31.9633 113.106 28.8443 107.88 24.2518 105.647C19.4412 103.311 13.5333 104.23 9.20019 107.991C3.50568 112.965 1.36571 121.755 4.02938 129.368C6.32892 135.946 11.8917 141.06 19.6964 143.768C24.5314 145.445 29.5906 146.094 34.4832 146.719L34.5546 146.729C39.0896 147.309 43.7237 147.899 48.4283 148.505L48.4487 148.508L64.5668 150.592C73.1741 151.716 81.9559 152.882 90.8006 154.094C103.059 155.774 115.444 157.544 127.66 159.408C145.168 162.074 162.996 164.472 180.256 166.792C193.271 168.541 206.731 170.351 219.945 172.266L240.076 175.177L241.096 175.317C242 175.441 242.936 175.59 243.902 175.722C252.522 176.903 263.174 177.67 269.952 170.86C276.646 164.128 276.786 152.715 270.277 145.379ZM50.959 90.7275L73.0982 113.162L95.4033 135.75L95.1074 135.71C92.5163 135.278 89.847 134.836 87.1656 134.33C86.6992 134.246 86.2302 134.154 85.7579 134.061L51.1486 99.4559C50.9859 96.5478 50.9605 93.6239 50.9609 90.7139L50.959 90.7275ZM60.2351 124.158C57.1068 121.706 54.8843 118.079 53.2602 112.74C52.7593 111.061 52.3558 109.353 52.052 107.627L76.2403 131.794C70.3551 130.069 64.7929 127.707 60.237 124.145L60.2351 124.158ZM64.2924 145.718L56.8286 144.744L53.7202 144.346L64.5212 132.824C68.5016 134.732 72.6624 136.237 76.9417 137.319L73.0165 139.923L64.2924 145.718ZM126.754 154.417C108.37 151.631 89.6476 149.058 71.558 146.673L79.6369 141.287L83.3982 138.792C87.075 139.542 90.7442 140.146 94.2833 140.738C96.0786 141.036 97.7757 141.317 99.4637 141.614C100.478 141.795 101.477 141.966 102.489 142.136C109.223 143.281 115.96 144.277 122.655 145.194C124.417 145.435 126.168 145.675 127.919 145.915L126.754 154.417ZM140.74 156.011L131.898 154.799L133.026 146.574C135.994 146.955 138.946 147.327 141.88 147.69L140.74 156.011ZM219.901 144.174C217.492 145.932 214.849 147.346 212.05 148.375C205.608 150.61 198.115 150.127 190.955 149.16L219.901 144.174ZM191.113 163.402L180.885 162.025C169.319 160.468 157.53 158.88 145.734 157.208L146.952 148.319L147.024 148.329C158.361 149.73 170.09 151.178 181.561 152.92C182.462 153.043 183.373 153.196 184.292 153.343C186.093 153.624 187.938 153.912 189.811 154.172L197.584 163.177L198.674 164.432C196.158 164.084 193.637 163.741 191.113 163.402ZM205.457 164.911L203.896 163.103L196.838 154.923C201.141 155.222 205.489 155.149 209.676 154.296L214.673 163.87L216.005 166.432L205.457 164.911Z" fill="#FBB03B"/>
<path d="M60.9652 133.165C57.7208 136.464 54.3644 139.645 50.8961 142.708C50.2083 143.391 49.4001 143.94 48.5123 144.328C47.4171 144.736 46.1836 144.636 45.0186 144.542C35.0195 143.64 24.7763 142.673 15.7256 138.363C12.2781 136.723 8.90866 134.463 7.17094 131.066C5.33456 127.478 5.5968 123.163 6.57634 119.25C7.12207 117.063 7.89022 114.896 9.16197 113.023C11.4156 109.697 15.37 107.537 19.3965 107.631C23.423 107.726 27.353 110.218 28.9851 113.906C30.6172 117.594 29.7276 122.291 26.7241 124.97C25.4984 126.111 23.9152 126.791 22.2442 126.895C21.4107 126.933 20.5805 126.767 19.8253 126.413C19.07 126.058 18.4122 125.525 17.9086 124.86C16.309 122.628 17.1273 119.463 18.5512 117.112C18.9942 116.407 19.4654 115.699 19.5942 114.885C19.6286 114.663 19.6268 114.437 19.5889 114.216C19.7908 114.302 19.9805 114.414 20.1529 114.549C20.402 114.747 20.6094 114.991 20.7633 115.269C20.9172 115.547 21.0145 115.853 21.0495 116.168C21.0846 116.484 21.0567 116.803 20.9674 117.108C20.8782 117.413 20.7293 117.697 20.5296 117.944C19.3126 119.468 18.7239 121.262 19.0237 122.512C19.224 123.326 19.8149 123.943 20.8431 124.403C21.4098 124.679 22.0398 124.798 22.6679 124.748C23.2959 124.698 23.8993 124.481 24.4155 124.12C26.0675 123.037 27.2588 120.765 27.2354 118.711C27.2065 115.003 25.1172 111.416 22.1947 109.99C19.1647 108.514 15.228 109.18 12.397 111.637C8.10974 115.341 6.53852 121.979 8.57393 127.78C11.0111 134.744 17.575 137.937 21.2758 139.22C25.6404 140.74 30.448 141.354 35.1054 141.951L35.1803 141.961L47.8595 143.581L60.2188 130.395C59.1417 129.71 58.0954 128.978 57.0846 128.188C53.0801 125.052 50.3103 120.615 48.37 114.221C47.0319 109.828 46.401 105.332 46.103 100.832C46.103 100.832 46.1062 100.809 46.1086 100.792C45.8309 96.624 45.8429 92.4407 45.854 88.3404L45.8602 86.7027C45.8624 85.9789 45.8675 85.259 45.8765 84.5362C45.882 84.4954 45.8881 84.4512 45.8767 84.4081C45.9118 81.295 45.9912 78.1879 46.0709 75.1537L46.0865 74.56C46.0972 74.1007 46.2317 73.6528 46.4759 73.2637C46.7201 72.8746 47.0648 72.5586 47.4738 72.3493C48.1357 74.5326 48.3029 76.8361 47.9632 79.0921C47.22 83.9339 47.7597 88.8441 48.3561 93.6685C48.6564 96.1035 48.9737 98.5409 49.1609 100.992C49.4624 104.986 49.4747 109.093 50.5633 112.98C52.2688 119.065 56.4233 124.748 60.9486 129.064C61.4908 129.582 62.0873 130.159 62.158 130.907C62.2422 131.784 61.5814 132.536 60.9652 133.165Z" fill="#F7931E"/>
<path d="M214.402 152.954C214.768 152.807 215.166 152.66 215.545 152.497C214.704 152.541 213.861 152.651 213.037 152.746C191.266 155.285 169.638 147.776 147.748 146.629C141.116 146.285 134.473 146.525 127.832 146.554L126.756 154.402C108.372 151.616 89.6495 149.044 71.5599 146.658L79.637 141.287C78.547 141.075 77.4536 140.863 76.3612 140.644C75.2688 140.425 74.1267 140.189 73.0266 139.899L64.2962 145.69L56.8286 144.743C56.2343 145.642 55.9154 146.655 56.5205 147.473C57.1965 148.379 58.5517 148.298 59.6724 148.185C69.1404 147.2 78.5235 150.044 87.8487 151.946C94.3704 153.273 100.974 154.15 107.572 155.023L155.208 161.336C163.255 162.401 171.323 163.468 179.44 163.617C183.324 163.692 187.222 163.558 191.115 163.412L180.887 162.035C169.322 160.478 157.532 158.89 145.736 157.218L146.956 148.319L147.027 148.329C158.364 149.73 170.094 151.178 181.564 152.919C182.466 153.043 183.377 153.196 184.295 153.342C186.096 153.624 187.941 153.911 189.815 154.171L197.588 163.177C199.695 163.119 201.793 163.081 203.892 163.105L196.838 154.922C201.141 155.221 205.489 155.148 209.676 154.295L214.673 163.869C215.445 163.975 216.216 164.108 216.986 164.255C218.235 164.492 219.475 164.773 220.718 165.058L214.402 152.954ZM140.731 155.995L131.89 154.784L133.015 146.571C135.984 146.953 138.936 147.325 141.87 147.688L140.731 155.995Z" fill="#F7931E"/>
<path d="M100.012 137.888C96.7728 138.26 93.4921 138.002 90.3504 137.129C89.731 136.991 89.1438 136.735 88.621 136.376C87.9467 135.861 87.5524 135.072 87.1719 134.31C89.8532 134.816 92.5226 135.258 95.1137 135.689L95.4095 135.73L73.1044 113.141C75.3417 114.688 77.7694 115.984 79.7966 117.8C82.0307 119.8 83.6757 122.357 85.7279 124.547C87.1993 126.043 88.7476 127.461 90.3664 128.796C93.7112 131.691 96.9265 134.722 100.012 137.888Z" fill="#F7931E"/>
<path d="M101.347 89.4214C101.25 89.6133 101.124 89.7889 100.974 89.942C100.842 90.0728 100.689 90.1806 100.521 90.261C100.367 90.3328 100.197 90.3666 100.026 90.3595C99.8509 90.3548 99.6792 90.3087 99.5251 90.225C99.3492 90.1368 99.197 90.0079 99.0812 89.8489C98.9722 89.6856 98.8995 89.5008 98.8679 89.3069C99.1272 89.263 99.3721 89.1576 99.5821 88.9995C99.8051 88.8368 99.9871 88.6246 100.114 88.3795C100.194 88.2473 100.247 88.1 100.268 87.9467C100.289 87.7935 100.278 87.6375 100.236 87.4886C100.183 87.3409 100.1 87.2054 99.9932 87.0902C99.8864 86.975 99.7576 86.8824 99.6144 86.8179C99.4295 86.7201 99.226 86.6627 99.0173 86.6495C98.8201 86.6384 98.6227 86.668 98.4373 86.7363C98.2471 86.8121 98.0731 86.9235 97.9246 87.0644C97.7586 87.2202 97.6219 87.4044 97.5209 87.6084C97.3537 87.9269 97.2715 88.2832 97.2822 88.6427C97.2935 89.0305 97.3452 89.4161 97.4363 89.7932C97.5304 90.1941 97.6439 90.6046 97.7725 91.031C97.9017 91.46 98.0015 91.8973 98.0712 92.3399C98.1422 92.7868 98.1602 93.2404 98.1251 93.6915C98.0814 94.1667 97.9427 94.6284 97.7173 95.049C97.4824 95.5132 97.1425 95.9162 96.7246 96.226C96.3139 96.5302 95.8429 96.7432 95.3433 96.8508C94.8138 96.9652 94.2679 96.9831 93.732 96.9037C93.1436 96.8155 92.5742 96.6285 92.0479 96.3507C91.6162 96.1276 91.221 95.8398 90.8762 95.4973C90.5793 95.2023 90.3414 94.8534 90.1752 94.4693C90.0296 94.1107 89.9643 93.7245 89.9838 93.338C90.0026 92.9304 90.1128 92.5323 90.3062 92.1731C90.4642 91.8622 90.6774 91.5827 90.9355 91.3482C91.1713 91.1304 91.445 90.9577 91.7432 90.8388C92.0273 90.7258 92.3318 90.6731 92.6374 90.6842C92.9467 90.6924 93.25 90.7719 93.5236 90.9165C93.8378 91.066 94.0946 91.314 94.2548 91.6229C94.3992 91.9121 94.4231 92.2468 94.3212 92.5536C94.089 92.4281 93.837 92.3432 93.5762 92.3025C93.3501 92.2656 93.119 92.2752 92.8968 92.3306C92.6864 92.3866 92.4906 92.4874 92.3228 92.6261C92.1456 92.7819 92.0017 92.972 91.8998 93.1848C91.7914 93.3648 91.7208 93.5649 91.6923 93.773C91.6638 93.9812 91.6779 94.1929 91.7339 94.3954C91.8015 94.5928 91.9087 94.7743 92.049 94.9288C92.1892 95.0832 92.3596 95.2074 92.5496 95.2936C92.7924 95.4251 93.0601 95.5042 93.3354 95.526C93.5821 95.5499 93.8311 95.5264 94.0689 95.4567C94.315 95.3725 94.5424 95.2413 94.7385 95.0704C94.9518 94.8874 95.1272 94.6642 95.2546 94.4136C95.3908 94.1521 95.4811 93.8692 95.5217 93.5772C95.5587 93.2791 95.5639 92.9779 95.5374 92.6786C95.5076 92.3634 95.4591 92.0502 95.3923 91.7407C95.322 91.4193 95.2488 91.094 95.179 90.7692C95.1092 90.4443 95.0262 90.1143 94.9666 89.7908C94.9008 89.4738 94.8557 89.1529 94.8315 88.83C94.809 88.5195 94.8204 88.2074 94.8655 87.8993C94.9133 87.5914 95.0115 87.2936 95.1561 87.0176C95.3449 86.6486 95.619 86.3299 95.9556 86.0879C96.2905 85.8453 96.6738 85.6781 97.0794 85.5975C97.5179 85.5115 97.9682 85.504 98.4093 85.5753C98.9036 85.6546 99.3815 85.8149 99.8236 86.0498C100.188 86.234 100.523 86.4714 100.818 86.7542C101.068 86.9947 101.272 87.2785 101.421 87.592C101.556 87.8846 101.621 88.2049 101.61 88.5271C101.599 88.8493 101.512 89.1644 101.357 89.4471L101.347 89.4214Z" fill="white"/>
<path d="M106.127 100.373C105.69 100.778 105.206 101.128 104.685 101.415C104.324 101.61 103.935 101.746 103.531 101.819C103.234 101.872 102.928 101.862 102.635 101.789C102.4 101.726 102.174 101.635 101.962 101.517C101.684 101.371 101.438 101.171 101.238 100.929C101.086 100.737 100.98 100.513 100.927 100.273C100.88 100.045 100.884 99.8089 100.938 99.5821C100.988 99.3509 101.073 99.1289 101.191 98.9239C101.358 98.6402 101.553 98.3745 101.774 98.1308C102.025 97.843 102.287 97.5531 102.559 97.2579C102.832 96.9627 103.09 96.6724 103.339 96.3948C103.551 96.1598 103.741 95.905 103.904 95.6338C104.18 95.1415 104.147 94.7976 103.799 94.6044C103.671 94.5304 103.525 94.4946 103.377 94.5015C103.216 94.5115 103.057 94.5484 102.908 94.6105C102.735 94.6847 102.571 94.7784 102.419 94.8899C102.248 95.0136 102.085 95.1486 101.931 95.2942L98.3554 99.3425L96.2863 98.1859L103.876 89.6194L106.176 90.5338L103.36 93.7128C103.585 93.6333 103.817 93.5803 104.054 93.555C104.248 93.5348 104.444 93.5384 104.638 93.5657C104.799 93.5872 104.958 93.6275 105.11 93.6858C105.239 93.7348 105.364 93.7936 105.484 93.8618C105.702 93.9807 105.9 94.1329 106.07 94.3128C106.232 94.4772 106.352 94.678 106.421 94.8983C106.49 95.1186 106.505 95.3521 106.465 95.5794C106.415 95.8623 106.315 96.1338 106.168 96.3806C106.048 96.5878 105.914 96.7859 105.765 96.9731C105.606 97.1731 105.432 97.3745 105.249 97.578C105.065 97.7814 104.882 97.9781 104.696 98.1743L104.158 98.738C103.988 98.9191 103.836 99.0888 103.7 99.2503C103.58 99.3875 103.473 99.5352 103.379 99.6914C103.286 99.8429 103.242 100.02 103.255 100.197C103.277 100.291 103.321 100.378 103.383 100.452C103.445 100.525 103.524 100.583 103.612 100.621C103.752 100.702 103.909 100.75 104.071 100.76C104.229 100.763 104.386 100.735 104.533 100.677C104.703 100.611 104.865 100.525 105.015 100.421C105.179 100.309 105.353 100.18 105.532 100.035L106.127 100.373Z" fill="white"/>
<path d="M113.502 104.923C113.178 105.194 112.83 105.436 112.464 105.647C112.174 105.814 111.867 105.951 111.549 106.055C111.291 106.141 111.023 106.193 110.752 106.209C110.522 106.223 110.291 106.21 110.064 106.171C109.875 106.136 109.69 106.083 109.511 106.012C109.362 105.949 109.218 105.876 109.08 105.793C108.721 105.598 108.452 105.272 108.329 104.883C108.235 104.468 108.295 104.033 108.496 103.659C108.278 103.75 108.056 103.829 107.83 103.897C107.599 103.966 107.36 104.009 107.119 104.024C106.869 104.043 106.617 104.025 106.371 103.974C106.102 103.915 105.846 103.81 105.614 103.662C105.379 103.517 105.17 103.334 104.995 103.12C104.819 102.904 104.696 102.65 104.636 102.378C104.571 102.062 104.574 101.735 104.646 101.42C104.747 101.01 104.917 100.621 105.15 100.269C105.364 99.9259 105.607 99.6011 105.875 99.2983C106.173 98.9694 106.497 98.6662 106.845 98.3919C107.201 98.1066 107.583 97.8562 107.987 97.6442C108.38 97.4333 108.8 97.2775 109.235 97.1812C109.657 97.0866 110.092 97.0666 110.521 97.122C110.968 97.1825 111.397 97.3381 111.779 97.5783C112.097 97.7416 112.355 97.9999 112.519 98.3173C112.571 98.4262 112.594 98.5461 112.586 98.6662C112.579 98.7863 112.541 98.9026 112.477 99.0044L112.415 99.1067L113.024 98.4522L115.047 99.6926L111.11 103.847C111.041 103.908 110.978 103.975 110.92 104.046C110.866 104.115 110.815 104.187 110.77 104.261C110.707 104.334 110.663 104.419 110.639 104.512C110.616 104.605 110.615 104.701 110.636 104.794C110.657 104.888 110.699 104.975 110.76 105.048C110.82 105.122 110.897 105.181 110.985 105.219C111.119 105.302 111.274 105.346 111.431 105.346C111.6 105.346 111.767 105.316 111.925 105.258C112.107 105.187 112.279 105.095 112.438 104.982C112.614 104.861 112.782 104.728 112.939 104.583L113.502 104.923ZM111.909 99.5847C111.941 99.5316 111.964 99.474 111.978 99.414C111.996 99.3375 112.001 99.2585 111.992 99.1804C111.983 99.0913 111.953 99.0055 111.905 98.9295C111.844 98.8332 111.76 98.7538 111.66 98.6984C111.458 98.5765 111.222 98.5236 110.988 98.5474C110.713 98.5733 110.444 98.6454 110.193 98.7606C109.899 98.8933 109.619 99.0558 109.357 99.2455C109.076 99.4457 108.808 99.6635 108.554 99.8976C108.307 100.128 108.073 100.372 107.855 100.63C107.664 100.852 107.49 101.089 107.335 101.338C107.201 101.538 107.098 101.758 107.031 101.989C106.994 102.132 106.987 102.281 107.013 102.427C107.033 102.53 107.087 102.624 107.167 102.694C107.23 102.752 107.298 102.804 107.37 102.85C107.487 102.919 107.617 102.962 107.752 102.975C107.911 102.995 108.073 102.986 108.23 102.95C108.416 102.906 108.596 102.836 108.764 102.743C108.962 102.631 109.143 102.49 109.299 102.324L111.909 99.5847Z" fill="white"/>
<path d="M110.754 106.698L116.761 100.783L118.74 102.094L118.002 102.828L118.577 102.754C118.767 102.735 118.959 102.731 119.15 102.743C119.337 102.749 119.523 102.774 119.704 102.818C119.889 102.869 120.064 102.949 120.223 103.056C120.369 103.144 120.492 103.268 120.579 103.416C120.658 103.545 120.709 103.689 120.729 103.839C120.746 103.989 120.733 104.142 120.691 104.287C120.65 104.44 120.584 104.586 120.497 104.718C120.414 104.835 120.314 104.938 120.199 105.024C120.082 105.116 119.948 105.183 119.804 105.223C119.641 105.264 119.471 105.27 119.306 105.24C119.14 105.21 118.983 105.145 118.844 105.049C118.735 104.989 118.647 104.897 118.589 104.786C118.551 104.7 118.535 104.606 118.544 104.513C118.55 104.42 118.572 104.33 118.608 104.245C118.645 104.156 118.677 104.074 118.701 103.994C118.724 103.924 118.735 103.85 118.731 103.776C118.731 103.743 118.721 103.71 118.704 103.682C118.686 103.653 118.662 103.63 118.632 103.614C118.448 103.485 118.23 103.414 118.005 103.41C117.764 103.416 117.524 103.439 117.286 103.478L112.741 107.979L110.754 106.698Z" fill="white"/>
<path d="M123.716 111.943C123.297 112.129 122.865 112.285 122.423 112.41C121.972 112.537 121.509 112.611 121.041 112.629C120.566 112.649 120.091 112.599 119.631 112.481C119.138 112.354 118.674 112.136 118.26 111.839C117.962 111.637 117.697 111.391 117.474 111.108C117.28 110.86 117.144 110.571 117.077 110.264C117.011 109.945 117.024 109.615 117.115 109.302C117.23 108.914 117.412 108.549 117.651 108.222C117.865 107.924 118.102 107.642 118.359 107.38C118.663 107.068 118.991 106.78 119.34 106.517C119.711 106.236 120.109 105.991 120.528 105.786C120.948 105.579 121.395 105.432 121.856 105.348C122.314 105.266 122.783 105.268 123.24 105.354C123.748 105.454 124.228 105.664 124.646 105.969C124.902 106.139 125.128 106.351 125.311 106.597C125.445 106.777 125.535 106.985 125.575 107.205C125.603 107.398 125.584 107.596 125.517 107.779C125.448 107.966 125.355 108.143 125.24 108.306C124.978 108.683 124.629 108.992 124.223 109.206C123.818 109.422 123.375 109.557 122.918 109.602C122.444 109.652 121.964 109.622 121.499 109.515C121.02 109.408 120.562 109.222 120.144 108.966L119.92 109.236C119.852 109.324 119.789 109.406 119.733 109.484C119.596 109.671 119.485 109.875 119.401 110.09C119.34 110.241 119.317 110.405 119.336 110.566C119.363 110.704 119.427 110.833 119.52 110.938C119.633 111.072 119.764 111.189 119.909 111.286C120.154 111.463 120.425 111.599 120.713 111.69C120.976 111.772 121.249 111.819 121.525 111.829C121.806 111.838 122.087 111.819 122.365 111.771C122.652 111.721 122.947 111.664 123.251 111.595L123.716 111.943ZM120.705 108.412C120.977 108.575 121.28 108.678 121.595 108.714C121.921 108.751 122.251 108.73 122.57 108.654C122.897 108.575 123.209 108.441 123.49 108.257C123.777 108.073 124.025 107.835 124.22 107.557C124.322 107.422 124.394 107.268 124.431 107.104C124.44 107.039 124.429 106.973 124.401 106.914C124.373 106.855 124.328 106.805 124.273 106.77C124.172 106.709 124.059 106.67 123.942 106.654C123.825 106.638 123.706 106.646 123.593 106.677C123.275 106.74 122.968 106.846 122.68 106.992C122.325 107.169 121.987 107.378 121.669 107.616C121.331 107.858 121.008 108.121 120.702 108.405L120.705 108.412Z" fill="white"/>
<path d="M131.045 116.353C130.729 116.635 130.389 116.889 130.027 117.11C129.734 117.286 129.424 117.43 129.102 117.541C128.837 117.632 128.562 117.687 128.282 117.706C128.046 117.724 127.807 117.715 127.573 117.678C127.374 117.649 127.179 117.599 126.99 117.529C126.835 117.469 126.684 117.4 126.537 117.322C126.332 117.213 126.146 117.07 125.989 116.9C125.838 116.733 125.73 116.533 125.674 116.316C125.613 116.082 125.603 115.837 125.644 115.599C125.7 115.301 125.807 115.016 125.96 114.755C126.044 114.612 126.134 114.472 126.232 114.339C126.339 114.194 126.463 114.024 126.6 113.876L129.727 110.324L129.247 110.058L129.691 109.55L130.161 109.812L131.709 108.07L134.01 108.975L132.243 110.974L133.109 111.46L132.687 111.96L131.825 111.474L128.492 115.268C128.426 115.333 128.367 115.404 128.314 115.479C128.264 115.55 128.218 115.624 128.176 115.7C128.125 115.77 128.09 115.851 128.074 115.937C128.057 116.023 128.06 116.111 128.081 116.196C128.161 116.358 128.295 116.486 128.46 116.56C128.603 116.639 128.761 116.685 128.923 116.696C129.098 116.707 129.273 116.687 129.44 116.638C129.625 116.583 129.802 116.505 129.968 116.406C130.148 116.295 130.316 116.164 130.468 116.017L131.045 116.353Z" fill="white"/>
<path d="M139.026 119.923C138.631 120.369 138.182 120.765 137.69 121.102C137.35 121.331 136.975 121.505 136.58 121.618C136.289 121.699 135.985 121.717 135.686 121.672C135.447 121.634 135.213 121.566 134.99 121.47C134.699 121.353 134.435 121.178 134.215 120.955C134.043 120.779 133.914 120.566 133.84 120.332C133.772 120.113 133.752 119.882 133.78 119.655C133.811 119.425 133.875 119.2 133.968 118.988C134.105 118.689 134.273 118.406 134.469 118.142C134.692 117.826 134.926 117.512 135.166 117.198C135.407 116.885 135.637 116.57 135.857 116.253C136.046 115.999 136.21 115.727 136.346 115.44C136.574 114.924 136.505 114.586 136.139 114.425C136.003 114.365 135.854 114.344 135.707 114.366C135.548 114.39 135.394 114.443 135.253 114.522C135.087 114.612 134.933 114.721 134.792 114.846C134.634 114.986 134.485 115.136 134.346 115.295L131.186 119.677L129.014 118.714L135.735 109.436L138.099 110.107L135.612 113.545C135.826 113.442 136.053 113.366 136.287 113.319C136.477 113.279 136.671 113.264 136.865 113.274C137.028 113.277 137.19 113.299 137.348 113.34C137.482 113.375 137.614 113.421 137.741 113.477C137.973 113.575 138.188 113.707 138.38 113.869C138.553 114.016 138.69 114.201 138.781 114.409C138.873 114.625 138.912 114.86 138.895 115.093C138.876 115.38 138.802 115.66 138.678 115.919C138.582 116.138 138.467 116.349 138.335 116.548C138.195 116.764 138.044 116.979 137.899 117.202C137.754 117.425 137.573 117.639 137.405 117.851C137.237 118.064 137.078 118.267 136.924 118.478C136.77 118.689 136.636 118.861 136.502 119.03C136.396 119.179 136.304 119.337 136.226 119.502C136.151 119.661 136.126 119.841 136.156 120.015C136.184 120.109 136.235 120.194 136.304 120.264C136.373 120.334 136.458 120.386 136.551 120.416C136.698 120.484 136.858 120.516 137.02 120.511C137.178 120.499 137.332 120.455 137.474 120.383C137.635 120.306 137.786 120.21 137.925 120.098C138.078 119.967 138.24 119.823 138.404 119.661L139.026 119.923Z" fill="white"/>
<path d="M145.316 121.935C144.965 122.233 144.593 122.505 144.203 122.749C143.807 122.998 143.383 123.2 142.939 123.348C142.489 123.5 142.02 123.587 141.546 123.608C141.037 123.625 140.53 123.547 140.049 123.378C139.702 123.27 139.373 123.109 139.076 122.899C138.818 122.717 138.605 122.48 138.454 122.204C138.308 121.915 138.233 121.596 138.235 121.273C138.235 120.867 138.305 120.464 138.443 120.082C138.564 119.736 138.711 119.399 138.883 119.075C139.087 118.69 139.319 118.32 139.578 117.968C139.857 117.594 140.17 117.247 140.514 116.932C140.857 116.615 141.244 116.347 141.662 116.137C142.081 115.926 142.536 115.795 143.004 115.749C143.519 115.707 144.038 115.778 144.524 115.958C144.818 116.046 145.095 116.186 145.34 116.371C145.516 116.507 145.658 116.682 145.755 116.882C145.838 117.058 145.874 117.253 145.861 117.447C145.848 117.646 145.81 117.842 145.747 118.031C145.602 118.47 145.353 118.869 145.023 119.193C144.695 119.514 144.307 119.768 143.881 119.94C143.44 120.122 142.973 120.229 142.497 120.256C142.007 120.29 141.515 120.242 141.04 120.116C140.993 120.23 140.948 120.335 140.902 120.443C140.856 120.551 140.823 120.64 140.793 120.733C140.714 120.95 140.664 121.176 140.645 121.406C140.632 121.568 140.66 121.732 140.726 121.881C140.789 122.011 140.887 122.121 141.008 122.2C141.154 122.295 141.313 122.369 141.48 122.421C141.765 122.521 142.063 122.576 142.365 122.584C142.64 122.587 142.915 122.555 143.182 122.488C143.454 122.415 143.718 122.315 143.971 122.191C144.234 122.064 144.5 121.917 144.769 121.773L145.316 121.935ZM141.424 119.392C141.731 119.472 142.052 119.484 142.365 119.428C142.688 119.374 143 119.262 143.283 119.096C143.577 118.929 143.841 118.713 144.063 118.458C144.287 118.202 144.459 117.904 144.568 117.582C144.626 117.423 144.649 117.254 144.636 117.085C144.629 117.019 144.601 116.957 144.557 116.908C144.513 116.858 144.454 116.824 144.39 116.809C144.276 116.777 144.158 116.768 144.041 116.783C143.924 116.798 143.811 116.836 143.709 116.896C143.423 117.048 143.158 117.238 142.922 117.46C142.632 117.73 142.366 118.025 142.129 118.342C141.873 118.678 141.637 119.028 141.424 119.392Z" fill="white"/>
<path d="M157.162 127.636L159.612 120.575L155.155 127.24L152.938 126.808L154.685 119.574L150.559 126.343L149.267 126.09L155.53 115.779C154.709 115.854 153.938 116.206 153.344 116.776C152.749 117.347 152.365 118.102 152.256 118.919C152.216 119.091 152.192 119.267 152.184 119.443C152.18 119.551 152.185 119.66 152.198 119.767C152.205 119.83 152.219 119.892 152.239 119.953C152.253 119.992 152.258 120.034 152.253 120.076C152.011 120.031 151.776 119.957 151.552 119.855C151.364 119.771 151.196 119.649 151.058 119.496C150.927 119.349 150.838 119.169 150.8 118.976C150.756 118.747 150.758 118.512 150.808 118.284C150.88 117.934 151.019 117.6 151.216 117.301C151.432 116.971 151.692 116.672 151.989 116.413C152.308 116.134 152.656 115.891 153.028 115.689C153.413 115.474 153.819 115.297 154.239 115.162C154.658 115.033 155.088 114.949 155.524 114.912C155.949 114.878 156.375 114.901 156.794 114.979C157.212 115.064 157.611 115.223 157.973 115.449L155.943 123.894L161.172 116.071L163.5 116.525L159.489 128.1L157.162 127.636Z" fill="white"/>
<path d="M171.179 126.418C171 126.801 170.79 127.169 170.551 127.517C170.361 127.793 170.142 128.049 169.899 128.28C169.701 128.467 169.481 128.628 169.244 128.762C169.046 128.872 168.837 128.96 168.619 129.023C168.433 129.074 168.241 129.106 168.048 129.118C167.887 129.124 167.726 129.121 167.565 129.107C167.158 129.086 166.776 128.91 166.496 128.614C166.233 128.279 166.098 127.861 166.117 127.436C165.961 127.612 165.795 127.779 165.619 127.936C165.44 128.099 165.243 128.24 165.031 128.358C164.813 128.481 164.579 128.573 164.335 128.633C164.068 128.696 163.791 128.711 163.518 128.677C163.24 128.649 162.968 128.574 162.714 128.456C162.46 128.334 162.239 128.154 162.069 127.931C161.876 127.674 161.739 127.379 161.668 127.065C161.577 126.655 161.559 126.231 161.614 125.814C161.661 125.412 161.742 125.014 161.857 124.625C161.981 124.197 162.141 123.781 162.335 123.381C162.537 122.972 162.776 122.582 163.049 122.217C163.313 121.858 163.625 121.538 163.977 121.264C164.313 120.998 164.693 120.792 165.099 120.655C165.529 120.518 165.982 120.474 166.43 120.526C166.789 120.536 167.136 120.659 167.421 120.877C167.513 120.952 167.585 121.048 167.63 121.158C167.676 121.268 167.693 121.387 167.682 121.505L167.665 121.624L167.935 120.77L170.297 121.025L168.513 126.462C168.479 126.547 168.45 126.635 168.428 126.724C168.412 126.809 168.4 126.896 168.393 126.982C168.329 127.452 168.539 127.712 168.98 127.756C169.136 127.771 169.294 127.745 169.437 127.68C169.588 127.606 169.726 127.508 169.844 127.389C169.979 127.252 170.096 127.098 170.191 126.931C170.298 126.746 170.392 126.554 170.471 126.356L171.179 126.418ZM167.447 122.283C167.451 122.221 167.446 122.159 167.434 122.098C167.419 122.02 167.39 121.946 167.35 121.878C167.302 121.802 167.237 121.738 167.161 121.69C167.062 121.625 166.947 121.589 166.829 121.585C166.593 121.561 166.356 121.615 166.153 121.739C165.915 121.879 165.702 122.06 165.525 122.273C165.317 122.519 165.133 122.785 164.977 123.067C164.81 123.37 164.662 123.683 164.533 124.004C164.408 124.318 164.303 124.639 164.218 124.965C164.14 125.248 164.085 125.535 164.051 125.826C164.016 126.07 164.019 126.319 164.061 126.562C164.089 126.707 164.147 126.845 164.231 126.966C164.295 127.05 164.384 127.111 164.484 127.143C164.568 127.161 164.653 127.172 164.739 127.178C164.874 127.19 165.01 127.173 165.137 127.129C165.29 127.077 165.433 126.999 165.56 126.899C165.713 126.781 165.849 126.642 165.963 126.486C166.093 126.3 166.194 126.096 166.264 125.88L167.447 122.283Z" fill="white"/>
<path d="M176.402 130.907C176.292 131.405 176.096 131.88 175.821 132.31C175.616 132.632 175.35 132.909 175.037 133.128C174.774 133.31 174.476 133.435 174.162 133.496C173.879 133.551 173.59 133.572 173.302 133.558C173.061 133.55 172.823 133.504 172.596 133.424C172.388 133.352 172.195 133.242 172.027 133.1C171.866 132.956 171.739 132.779 171.655 132.581C171.561 132.357 171.522 132.114 171.541 131.873C171.549 131.552 171.649 131.241 171.83 130.977C172.007 130.718 172.232 130.495 172.491 130.319C172.767 130.13 173.065 129.975 173.379 129.859C173.694 129.738 174.016 129.635 174.343 129.551L174.585 128.694C174.327 128.941 174.03 129.144 173.706 129.294C173.346 129.449 172.955 129.514 172.564 129.484C172.286 129.471 172.012 129.411 171.754 129.307C171.492 129.201 171.26 129.035 171.075 128.822C170.868 128.577 170.715 128.29 170.626 127.981C170.512 127.576 170.469 127.154 170.499 126.734C170.52 126.33 170.575 125.929 170.663 125.534C170.864 124.653 171.22 123.815 171.713 123.059C171.957 122.685 172.25 122.347 172.585 122.052C172.91 121.767 173.282 121.54 173.685 121.382C174.106 121.22 174.556 121.15 175.005 121.175C175.361 121.166 175.71 121.267 176.005 121.464C176.098 121.536 176.173 121.629 176.223 121.735C176.273 121.841 176.297 121.958 176.292 122.075L176.279 122.17L176.495 121.327L178.866 121.441L176.865 128.996C177.107 128.929 177.341 128.837 177.564 128.721C177.777 128.605 177.973 128.459 178.146 128.288C178.334 128.1 178.498 127.89 178.634 127.662C178.8 127.373 178.94 127.07 179.053 126.756L179.741 126.788C179.583 127.261 179.363 127.711 179.087 128.126C178.87 128.447 178.61 128.737 178.314 128.986C178.068 129.194 177.792 129.362 177.494 129.484C177.232 129.587 176.962 129.666 176.686 129.72L176.402 130.907ZM176.116 122.879C176.117 122.819 176.109 122.76 176.092 122.703C176.073 122.628 176.04 122.558 175.995 122.495C175.935 122.413 175.856 122.347 175.764 122.301C175.673 122.256 175.572 122.234 175.47 122.236C175.233 122.227 175 122.294 174.806 122.429C174.577 122.584 174.376 122.777 174.212 122.999C174.016 123.257 173.848 123.535 173.71 123.828C173.415 124.445 173.197 125.095 173.06 125.765C173 126.051 172.96 126.341 172.941 126.632C172.921 126.878 172.938 127.126 172.993 127.367C173.029 127.51 173.096 127.643 173.189 127.758C173.256 127.839 173.348 127.897 173.45 127.922C173.534 127.94 173.62 127.952 173.705 127.957C173.828 127.958 173.949 127.935 174.061 127.888C174.204 127.833 174.337 127.757 174.456 127.661C174.595 127.552 174.716 127.423 174.817 127.277C174.931 127.111 175.018 126.928 175.075 126.734L176.116 122.879ZM174.137 130.371C173.919 130.442 173.711 130.518 173.513 130.601C173.33 130.675 173.155 130.767 172.99 130.876C172.847 130.973 172.721 131.094 172.619 131.234C172.522 131.363 172.468 131.519 172.464 131.68C172.461 131.743 172.468 131.807 172.487 131.867C172.506 131.932 172.537 131.994 172.576 132.049C172.623 132.105 172.68 132.152 172.745 132.187C172.822 132.223 172.907 132.243 172.993 132.245C173.16 132.268 173.353 132.145 173.534 131.914C173.773 131.591 173.941 131.223 174.029 130.831L174.137 130.371Z" fill="white"/>
<path d="M184.356 126.758C184.217 127.159 184.04 127.545 183.827 127.912C183.656 128.208 183.455 128.484 183.226 128.738C183.037 128.946 182.822 129.128 182.587 129.281C182.387 129.407 182.175 129.514 181.954 129.599C181.764 129.668 181.568 129.717 181.369 129.748C181.204 129.769 181.038 129.781 180.872 129.783C180.642 129.783 180.413 129.743 180.195 129.666C179.985 129.591 179.795 129.469 179.638 129.309C179.474 129.132 179.348 128.922 179.268 128.694C179.175 128.405 179.131 128.103 179.138 127.8C179.142 127.65 179.155 127.486 179.175 127.306C179.199 127.126 179.226 126.932 179.275 126.724L180.431 121.447L182.806 121.464L181.582 127.054C181.556 127.142 181.538 127.232 181.528 127.324C181.516 127.412 181.504 127.497 181.513 127.585C181.503 127.671 181.512 127.759 181.539 127.842C181.567 127.925 181.612 128.001 181.672 128.064C181.82 128.166 181.998 128.215 182.177 128.202C182.34 128.201 182.501 128.164 182.649 128.094C182.807 128.024 182.95 127.927 183.073 127.806C183.209 127.668 183.326 127.513 183.42 127.344C183.527 127.16 183.613 126.965 183.677 126.762L184.356 126.758ZM183.386 119.278C183.386 119.454 183.349 119.628 183.278 119.789C183.209 119.943 183.111 120.081 182.99 120.197C182.867 120.312 182.724 120.404 182.568 120.468C182.403 120.535 182.226 120.569 182.048 120.567C181.87 120.565 181.694 120.528 181.53 120.458C181.377 120.391 181.237 120.296 181.118 120.179C180.992 120.064 180.894 119.923 180.828 119.765C180.76 119.605 180.726 119.431 180.728 119.256C180.73 119.08 180.765 118.907 180.833 118.744C180.9 118.589 180.996 118.448 181.115 118.329C181.234 118.206 181.376 118.108 181.532 118.04C181.694 117.97 181.869 117.935 182.045 117.937C182.22 117.938 182.393 117.975 182.554 118.045C182.708 118.116 182.85 118.214 182.971 118.334C183.093 118.456 183.191 118.6 183.26 118.758C183.338 118.92 183.381 119.097 183.386 119.278Z" fill="white"/>
<path d="M190.696 126.581C190.47 126.982 190.216 127.366 189.936 127.731C189.648 128.099 189.32 128.434 188.957 128.729C188.586 129.026 188.175 129.268 187.736 129.449C187.265 129.642 186.762 129.744 186.253 129.751C185.893 129.766 185.533 129.726 185.185 129.633C184.881 129.549 184.6 129.398 184.362 129.191C184.121 128.974 183.934 128.703 183.819 128.399C183.681 128.018 183.609 127.616 183.608 127.21C183.603 126.842 183.625 126.475 183.672 126.11C183.73 125.675 183.823 125.245 183.949 124.825C184.083 124.378 184.258 123.945 184.473 123.531C184.685 123.115 184.955 122.731 185.277 122.391C185.601 122.054 185.982 121.776 186.401 121.568C186.864 121.348 187.369 121.232 187.882 121.227C188.187 121.216 188.492 121.258 188.783 121.351C188.996 121.42 189.192 121.533 189.358 121.682C189.496 121.814 189.6 121.978 189.66 122.16C189.717 122.337 189.749 122.521 189.754 122.707C189.757 122.884 189.733 123.06 189.683 123.23C189.648 123.367 189.588 123.496 189.506 123.611C189.433 123.71 189.338 123.79 189.228 123.844C189.124 123.895 189.01 123.923 188.894 123.926C188.686 123.925 188.483 123.863 188.309 123.749C188.427 123.435 188.486 123.103 188.485 122.768C188.486 122.598 188.442 122.431 188.357 122.283C188.321 122.225 188.269 122.177 188.207 122.146C188.145 122.115 188.076 122.102 188.007 122.107C187.813 122.122 187.632 122.21 187.499 122.353C187.311 122.538 187.15 122.749 187.022 122.98C186.86 123.267 186.721 123.567 186.608 123.876C186.48 124.218 186.373 124.568 186.288 124.923C186.199 125.279 186.13 125.64 186.081 126.004C186.037 126.333 186.019 126.665 186.024 126.997C186.025 127.229 186.057 127.46 186.121 127.682C186.162 127.84 186.244 127.984 186.358 128.1C186.462 128.2 186.591 128.271 186.732 128.303C186.903 128.34 187.078 128.356 187.252 128.35C187.553 128.345 187.852 128.293 188.136 128.194C188.4 128.105 188.651 127.98 188.88 127.822C189.111 127.661 189.325 127.478 189.52 127.275C189.722 127.064 189.926 126.842 190.124 126.606L190.696 126.581Z" fill="white"/>
</svg>
