<svg width="176" height="186" viewBox="0 0 176 186" fill="none" xmlns="http://www.w3.org/2000/svg">
<g style="mix-blend-mode:multiply" opacity="0.4">
<path d="M176 63.5747V132.984C176 162.269 152.185 186 122.815 186H53.1854C23.815 186 0 162.269 0 132.984V63.5747C0 43.7469 10.9268 26.4585 27.1055 17.3752C27.1789 17.3206 27.2523 17.2834 27.3344 17.2474C30.9921 15.2092 34.9148 13.5928 39.0403 12.4589C39.1137 12.4316 39.1959 12.413 39.2693 12.3944C43.706 11.1972 48.3717 10.5584 53.1842 10.5584H122.815C125.794 10.5584 128.709 10.8052 131.551 11.2804C131.633 11.2804 131.707 11.299 131.78 11.3176C138.316 12.4142 144.439 14.708 149.921 17.9607C150.003 18.0066 150.087 18.0525 150.16 18.0972C165.643 27.3716 176.001 44.2667 176.001 63.5747H176Z" fill="url(#paint0_linear_163_15901)"/>
</g>
<path d="M176 63.5747V132.984C176 162.269 152.185 186 122.815 186H53.1854C23.815 186 0 162.269 0 132.984V63.5747C0 43.7469 10.9268 26.4585 27.1055 17.3752C27.1789 17.3206 27.2523 17.2834 27.3344 17.2474C30.9921 15.2092 34.9148 13.5928 39.0403 12.4589C39.1137 12.4316 39.1959 12.413 39.2693 12.3944C43.706 11.1972 48.3717 10.5584 53.1842 10.5584H122.815C125.794 10.5584 128.709 10.8052 131.551 11.2804C131.633 11.2804 131.707 11.299 131.78 11.3176C138.316 12.4142 144.439 14.708 149.921 17.9607C150.003 18.0066 150.087 18.0525 150.16 18.0972C165.643 27.3716 176.001 44.2667 176.001 63.5747H176Z" fill="url(#paint1_linear_163_15901)"/>
<path style="mix-blend-mode:screen" d="M176 54.0993V123.508C176 152.794 152.185 176.525 122.815 176.525H53.1854C23.815 176.523 0 152.794 0 123.508V54.0993C0 34.2703 10.9268 16.9819 27.1055 7.89985C27.1789 7.84526 27.2523 7.80805 27.3344 7.77207C30.9921 5.73384 34.9148 4.1174 39.0403 2.98353C39.1137 2.95624 39.1959 2.93763 39.2693 2.91902C43.706 1.72189 48.3717 1.08176 53.1842 1.08176H122.815C125.794 1.08176 128.709 1.32863 131.551 1.80377C131.633 1.80377 131.707 1.82237 131.78 1.83974C138.316 2.93639 144.439 5.23018 149.921 8.48291C150.003 8.52881 150.087 8.57471 150.16 8.61937C165.643 17.8938 176.001 34.7889 176.001 54.0968L176 54.0993Z" fill="url(#paint2_linear_163_15901)"/>
<path d="M176 53.0163V122.425C176 151.711 152.185 175.442 122.815 175.442H53.1854C23.815 175.44 0 151.711 0 122.425V53.0163C0 33.1873 10.9268 15.8989 27.1055 6.81684C27.1789 6.76226 27.2523 6.72504 27.3344 6.68907C30.9921 4.65084 34.9148 3.0344 39.0403 1.90053C39.1137 1.87324 39.1959 1.85463 39.2693 1.83602C43.7072 0.640126 48.3729 0 53.1854 0H122.816C125.795 0 128.71 0.24687 131.552 0.722003C131.634 0.722003 131.708 0.740611 131.781 0.757979C138.317 1.85463 144.44 4.14841 149.923 7.40115C150.005 7.44705 150.088 7.49295 150.161 7.53761C165.644 16.812 176.003 33.7071 176.003 53.0151L176 53.0163Z" fill="url(#paint3_linear_163_15901)"/>
<path d="M171.93 54.6241V120.816C171.93 148.741 149.216 171.384 121.202 171.384H54.7983C26.7844 171.384 4.06958 148.741 4.06958 120.816V54.6241C4.06958 36.8879 13.2366 21.2817 27.1055 12.2629C27.1789 12.2083 27.261 12.1624 27.3345 12.1165C30.946 9.78673 34.8787 7.90357 39.0403 6.56129C39.1138 6.52407 39.1959 6.50671 39.2693 6.4881C44.164 4.91632 49.3797 4.06654 54.7971 4.06654H121.2C124.749 4.06654 128.213 4.4325 131.55 5.11729C131.632 5.13589 131.705 5.15326 131.779 5.17187C138.397 6.56997 144.539 9.24709 149.92 12.9477C150.002 13.0022 150.076 13.0568 150.159 13.1127C163.313 22.2407 171.93 37.4275 171.93 54.6241Z" fill="#D10000"/>
<g style="mix-blend-mode:multiply">
<path d="M121.174 10.5608H54.8245C30.3956 10.5608 10.592 30.3014 10.592 54.6526V120.792C10.592 145.143 30.3956 164.883 54.8245 164.883H121.174C145.603 164.883 165.407 145.143 165.407 120.792V54.6526C165.407 30.3014 145.603 10.5608 121.174 10.5608Z" fill="#D10000"/>
</g>
<g style="mix-blend-mode:multiply">
<path d="M120.185 18.2771H55.8151C35.1142 18.2771 18.3329 35.0051 18.3329 55.6401V119.805C18.3329 140.44 35.1142 157.168 55.8151 157.168H120.185C140.886 157.168 157.667 140.44 157.667 119.805V55.6401C157.667 35.0051 140.886 18.2771 120.185 18.2771Z" fill="#D10000"/>
</g>
<path d="M89.5763 75.8413C88.8159 76.8201 87.9858 77.6339 87.1221 78.2541V82.3827C87.1221 84.0996 88.2421 85.4841 89.6322 85.4841C91.0224 85.4841 92.0317 84.1604 92.0317 82.5266V78.2604C91.1667 77.6326 90.3379 76.8201 89.5763 75.8413Z" fill="white"/>
<path d="M108.744 67.6673C107.548 64.9244 105.604 62.0017 103.378 59.2513C101.898 59.2303 100.321 58.2589 98.8553 57.0866C97.8871 59.5751 96.3799 60.3678 95.2039 60.5601C93.3297 60.8777 91.2488 59.8369 89.575 57.8024C88.0952 59.595 86.3044 60.6147 84.6168 60.6147C84.3891 60.6147 84.1676 60.6011 83.946 60.5601C82.7638 60.3666 81.2629 59.5739 80.2884 57.0866C78.8149 58.2515 77.2394 59.2303 75.7659 59.2513C73.5394 62.0017 71.5955 64.9244 70.3995 67.6673C68.885 71.1346 68.8227 73.705 70.2191 75.2979C70.5377 75.6564 70.8824 75.8351 71.3192 75.8636C73.2482 75.9802 76.4018 73.2026 77.446 72.2858C77.716 72.0452 78.0956 71.9683 78.449 72.0787C78.795 72.1891 79.0576 72.4719 79.141 72.823C79.6114 74.8215 80.5996 77.2754 82.6119 77.614C83.9747 77.841 85.6411 77.0285 87.1208 75.4976C87.6808 74.9257 88.2135 74.2496 88.6976 73.4917C88.8843 73.1877 89.2165 73.0091 89.5762 73.0091C89.9359 73.0091 90.2607 73.1877 90.4474 73.4917C90.9315 74.2571 91.4704 74.9319 92.0304 75.5038C93.5101 77.0272 95.1765 77.841 96.5392 77.6128C98.5516 77.2754 99.5335 74.8215 100.004 72.8218C100.087 72.4707 100.35 72.1878 100.702 72.0774C101.048 71.967 101.428 72.0427 101.698 72.2846C102.742 73.2014 105.902 75.9926 107.824 75.8624C108.26 75.8351 108.612 75.6552 108.925 75.2967C110.321 73.705 110.259 71.1334 108.744 67.666V67.6673Z" fill="white"/>
<path d="M75.0204 56.8931C75.1996 57.0791 75.3863 57.1623 75.629 57.1821C75.8094 57.1895 76.0098 57.1685 76.2164 57.099C77.2057 56.8372 78.4428 55.9205 79.314 55.2109C79.6599 54.928 79.9437 54.6737 80.1366 54.5075C80.4066 54.2656 80.7862 54.1899 81.1396 54.3003C81.4856 54.4107 81.7482 54.6935 81.8316 55.0446C82.3157 57.1052 83.1943 58.3395 84.287 58.5256C85.6361 58.7526 87.3983 57.5257 88.6988 55.4788C88.8855 55.1823 89.2178 54.9962 89.5774 54.9962C89.9371 54.9962 90.2619 55.1823 90.4486 55.4788C91.7491 57.5257 93.5263 58.7464 94.8604 58.5256C95.9593 58.3395 96.8317 57.1052 97.3146 55.0446C97.3979 54.6935 97.6605 54.4107 98.0127 54.3003C98.3587 54.1899 98.7383 54.2656 99.0083 54.5075C99.2025 54.6725 99.485 54.928 99.831 55.2109C100.71 55.9205 101.947 56.8372 102.929 57.099C103.143 57.161 103.337 57.1883 103.516 57.1821C103.757 57.161 103.944 57.0791 104.125 56.8931C104.146 56.8794 104.173 56.8583 104.194 56.831C105.439 55.4106 104.782 53.0126 104.015 51.2547C103.255 49.5105 102.113 47.6981 100.793 45.9538C100.392 46.326 99.8944 46.5332 99.3481 46.5679C98.2903 46.6374 97.1764 46.037 96.1323 45.2579C95.5374 46.5121 94.7422 47.0778 94.0851 47.3259C93.8772 47.4016 93.6905 47.45 93.525 47.4772C93.3595 47.5045 93.1865 47.5182 93.0135 47.5182C92.7995 47.5182 92.5916 47.4971 92.3776 47.4562H92.3701C91.6583 47.3185 90.9526 46.9661 90.2893 46.4153C90.0466 46.2156 89.8052 45.9886 89.5774 45.7405C89.3497 45.9886 89.1145 46.2156 88.8718 46.4153C88.201 46.9674 87.4891 47.3247 86.776 47.4562C86.3815 47.5318 86.002 47.5393 85.6211 47.4772C85.4556 47.45 85.2689 47.4016 85.0611 47.3259C84.404 47.0778 83.6088 46.5121 83.0139 45.2579C81.976 46.037 80.8634 46.6362 79.7981 46.5679C79.2517 46.5332 78.7539 46.3273 78.3532 45.9613C77.0328 47.7055 75.8915 49.5118 75.1312 51.2547C74.3633 53.0126 73.7062 55.4118 74.9582 56.831C74.9793 56.8583 74.9992 56.8794 75.0204 56.8931Z" fill="white"/>
<path d="M79.6873 44.3759C79.7906 44.4863 79.8603 44.4999 79.9362 44.5074C80.3021 44.521 81.1122 44.2456 82.8272 42.7358C83.0972 42.4952 83.4768 42.4121 83.8302 42.5225C84.1762 42.6329 84.4388 42.9219 84.5222 43.2742C84.7014 44.026 85.1233 45.3013 85.9671 45.439C86.7623 45.5705 87.8824 44.7642 88.6988 43.4814C88.8854 43.1775 89.2177 42.9988 89.5774 42.9988C89.9371 42.9988 90.2619 43.1775 90.4486 43.4814C91.2712 44.7629 92.3912 45.5705 93.1803 45.439C94.0303 45.3013 94.4522 44.026 94.6251 43.2742C94.7085 42.9232 94.9711 42.6329 95.3233 42.5225C95.6693 42.4121 96.0489 42.4952 96.3189 42.7358C98.0413 44.2456 98.8428 44.521 99.2161 44.5074C99.2858 44.4999 99.3543 44.4863 99.4588 44.3759C99.4725 44.3622 99.48 44.3486 99.4937 44.3349C99.7563 44.0111 99.8596 43.5968 99.867 43.1564C99.8745 42.4877 99.653 41.7496 99.4103 41.1368C99.3966 41.1095 99.3891 41.0822 99.3754 41.0537C97.4253 36.311 91.0497 30.5834 89.5774 30.3551C88.0977 30.5821 81.722 36.311 79.7794 41.0537C79.7657 41.0809 79.7582 41.1082 79.7445 41.1368C79.4956 41.7508 79.2741 42.4952 79.2816 43.1638C79.289 43.6055 79.3985 44.0111 79.6549 44.3362C79.6686 44.3498 79.6761 44.3635 79.6898 44.3771L79.6873 44.3759Z" fill="white"/>
<path d="M128.025 83.3293L128.736 86.4691L131.95 86.1726L129.175 87.8164L130.451 90.7726L128.025 88.65L125.598 90.7726L126.875 87.8164L124.1 86.1726L127.315 86.4691L128.025 83.3293Z" fill="url(#paint4_linear_163_15901)"/>
<path d="M128.129 5.05402V84.3391H127.923V5.00564C127.997 5.02176 128.063 5.03789 128.129 5.05402Z" fill="url(#paint5_linear_163_15901)"/>
<path d="M112.165 25.2999L112.876 28.4397L116.09 28.1432L113.315 29.7869L114.592 32.7432L112.165 30.6206L109.74 32.7432L111.015 29.7869L108.24 28.1432L111.455 28.4397L112.165 25.2999Z" fill="url(#paint6_linear_163_15901)"/>
<path d="M112.272 4.06654H112.06V26.3146H112.272V4.06654Z" fill="url(#paint7_linear_163_15901)"/>
<path d="M144.444 47.9908L145.155 51.1307L148.369 50.8342L145.595 52.4779L146.871 55.4342L144.444 53.3116L142.019 55.4342L143.294 52.4779L140.519 50.8342L143.734 51.1307L144.444 47.9908Z" fill="url(#paint8_linear_163_15901)"/>
<path d="M144.551 12.1487V49.0031H144.339V12.0024C144.412 12.0507 144.478 12.1004 144.551 12.1487Z" fill="url(#paint9_linear_163_15901)"/>
<path d="M62.7208 61.0105L63.4315 64.1491L66.646 63.8538L63.8708 65.4975L65.1464 68.4538L62.7208 66.3299L60.294 68.4538L61.5709 65.4975L58.7957 63.8538L62.0102 64.1491L62.7208 61.0105Z" fill="url(#paint10_linear_163_15901)"/>
<path d="M62.8267 4.06654H62.6213V62.0265H62.8267V4.06654Z" fill="url(#paint11_linear_163_15901)"/>
<path d="M45.3687 29.7646L46.0793 32.9032L49.2939 32.6067L46.5186 34.2505L47.7942 37.2067L45.3687 35.0841L42.9419 37.2067L44.2187 34.2505L41.4435 32.6067L44.6581 32.9032L45.3687 29.7646Z" fill="url(#paint12_linear_163_15901)"/>
<path d="M45.4695 6.23006V30.7806H45.2642V6.29581C45.3301 6.26356 45.4035 6.24743 45.4695 6.23006Z" fill="url(#paint13_linear_163_15901)"/>
<path d="M34.7007 74.0971L35.4113 77.2357L38.6259 76.9392L35.8506 78.5829L37.1263 81.5391L34.7007 79.4166L32.2751 81.5391L33.5508 78.5829L30.7755 76.9392L33.9901 77.2357L34.7007 74.0971Z" fill="url(#paint14_linear_163_15901)"/>
<path d="M34.8052 11.2593V75.1143H34.5999V11.3895C34.6658 11.3411 34.7392 11.3002 34.8052 11.2593Z" fill="url(#paint15_linear_163_15901)"/>
<path style="mix-blend-mode:screen" d="M87.1892 4.25758C123.904 4.25758 153.665 31.4902 153.665 65.0832C153.665 98.6762 123.904 125.909 87.1892 125.909C50.4749 125.909 20.7136 98.6762 20.7136 65.0832C20.7136 31.4902 50.4711 4.25758 87.1892 4.25758Z" fill="url(#paint16_radial_163_15901)"/>
<path style="mix-blend-mode:screen" d="M87.1867 4.25758C117.486 4.25758 142.048 31.4902 142.048 65.0832C142.048 98.6762 117.486 125.909 87.1867 125.909C56.8878 125.909 32.3336 98.6762 32.3336 65.0832C32.3336 31.4902 56.8891 4.25758 87.1867 4.25758Z" fill="url(#paint17_radial_163_15901)"/>
<path d="M52.7345 131.08C53.1398 130.781 53.4598 130.387 53.6945 129.896C53.9292 129.405 54.0465 128.893 54.0465 128.36C54.0465 127.848 53.9292 127.421 53.6945 127.08C53.4812 126.717 53.1612 126.451 52.7345 126.28L50.9425 134.088L51.6785 134.888C52.5105 135.763 53.1825 136.541 53.6945 137.224C54.2278 137.885 54.6652 138.632 55.0065 139.464C55.3692 140.296 55.5505 141.192 55.5505 142.152C55.5505 143.496 55.1878 144.733 54.4625 145.864C53.7372 146.995 52.7558 147.901 51.5185 148.584C50.2812 149.245 48.9158 149.576 47.4225 149.576L46.4945 153.576H44.8945L45.8225 149.48C44.2012 149.224 42.9105 148.595 41.9505 147.592C40.9905 146.589 40.5105 145.352 40.5105 143.88C40.5105 142.621 40.8412 141.587 41.5025 140.776C42.1638 139.965 43.0172 139.56 44.0625 139.56C44.7665 139.56 45.3745 139.763 45.8865 140.168C46.3985 140.552 46.7078 141.053 46.8145 141.672C45.9185 141.672 45.1932 141.939 44.6385 142.472C44.0838 142.984 43.8065 143.667 43.8065 144.52C43.8065 145.267 44.0305 145.885 44.4785 146.376C44.9265 146.867 45.5452 147.165 46.3345 147.272L48.4785 137.8C48.0945 137.352 47.8918 137.117 47.8705 137.096C46.7185 135.731 45.8545 134.568 45.2785 133.608C44.7025 132.627 44.4145 131.571 44.4145 130.44C44.4145 129.331 44.7132 128.339 45.3105 127.464C45.9292 126.568 46.7718 125.864 47.8385 125.352C48.9052 124.84 50.0998 124.584 51.4225 124.584H51.4865L52.2225 121.384H53.8545L53.0865 124.744C54.3452 124.979 55.3265 125.48 56.0305 126.248C56.7558 127.016 57.1185 127.955 57.1185 129.064C57.1185 129.96 56.8945 130.685 56.4465 131.24C55.9985 131.795 55.4118 132.072 54.6865 132.072C53.8758 132.072 53.2252 131.741 52.7345 131.08ZM48.5105 129.352C48.5105 130.376 48.9052 131.443 49.6945 132.552L51.1345 126.184C50.3452 126.312 49.7052 126.664 49.2145 127.24C48.7452 127.816 48.5105 128.52 48.5105 129.352ZM51.2305 143.336C51.2305 142.077 50.7292 140.765 49.7265 139.4L47.9345 147.272C48.9372 147.101 49.7372 146.664 50.3345 145.96C50.9318 145.235 51.2305 144.36 51.2305 143.336ZM62.4898 129.032H59.4498L59.8338 127.56C61.0071 127.56 62.2231 127.4 63.4818 127.08C64.7404 126.76 66.2338 126.088 67.9618 125.064L62.8738 149H58.2658L62.4898 129.032ZM75.0423 149.32C72.6956 149.32 71.0316 148.605 70.0503 147.176C69.0689 145.747 68.5783 143.795 68.5783 141.32C68.5783 138.376 69.0369 135.645 69.9543 133.128C70.8716 130.611 72.1516 128.605 73.7943 127.112C75.4583 125.597 77.3463 124.84 79.4583 124.84C81.5063 124.84 83.0423 125.523 84.0662 126.888C85.1116 128.253 85.6343 130.131 85.6343 132.52C85.6343 134.888 85.2716 137.373 84.5463 139.976C83.8209 142.557 82.6583 144.765 81.0583 146.6C79.4796 148.413 77.4743 149.32 75.0423 149.32ZM75.4583 146.92C76.4609 146.92 77.4103 146.152 78.3063 144.616C79.2023 143.08 79.9169 141.107 80.4503 138.696C81.0049 136.285 81.2823 133.853 81.2823 131.4C81.2823 130.056 81.1223 128.947 80.8023 128.072C80.4823 127.176 80.0236 126.728 79.4263 126.728C78.4449 126.728 77.4849 127.507 76.5463 129.064C75.6076 130.621 74.8396 132.605 74.2423 135.016C73.6449 137.427 73.3463 139.795 73.3463 142.12C73.3463 145.32 74.0503 146.92 75.4583 146.92ZM99.7045 155.624C98.1472 155.624 96.8885 155.219 95.9285 154.408C94.9898 153.619 94.5205 152.573 94.5205 151.272C94.5205 150.461 94.7125 149.715 95.0965 149.032C95.4805 148.349 96.0032 147.816 96.6645 147.432C97.3258 147.027 98.0512 146.824 98.8405 146.824C99.6512 146.824 100.302 147.027 100.793 147.432C101.305 147.837 101.561 148.371 101.561 149.032C101.561 149.544 101.443 149.949 101.209 150.248C101.017 149.992 100.75 149.789 100.409 149.64C100.089 149.491 99.7472 149.416 99.3845 149.416C98.7445 149.416 98.2218 149.629 97.8165 150.056C97.4112 150.483 97.2085 151.037 97.2085 151.72C97.2085 152.403 97.4005 152.957 97.7845 153.384C98.1898 153.811 98.6912 154.024 99.2885 154.024C100.035 154.024 100.675 153.693 101.209 153.032C101.742 152.371 102.147 151.389 102.425 150.088L104.025 143.016H103.897C103.321 143.827 102.617 144.445 101.785 144.872C100.974 145.299 100.078 145.512 99.0965 145.512C97.8592 145.512 96.7712 145.181 95.8325 144.52C94.8938 143.859 94.1685 142.92 93.6565 141.704C93.1658 140.467 92.9205 139.037 92.9205 137.416C92.9205 135.069 93.4325 132.936 94.4565 131.016C95.4805 129.075 96.8885 127.549 98.6805 126.44C100.473 125.331 102.446 124.776 104.601 124.776C106.414 124.776 107.843 125.171 108.889 125.96C109.955 126.749 110.489 127.827 110.489 129.192C110.489 130.109 110.265 130.845 109.817 131.4C109.369 131.955 108.782 132.232 108.057 132.232C107.651 132.232 107.267 132.147 106.905 131.976C106.563 131.805 106.275 131.56 106.041 131.24C106.425 130.984 106.745 130.579 107.001 130.024C107.278 129.448 107.417 128.872 107.417 128.296C107.417 127.656 107.225 127.165 106.841 126.824C106.478 126.461 105.955 126.28 105.273 126.28C104.035 126.28 102.841 126.835 101.689 127.944C100.537 129.032 99.6085 130.461 98.9045 132.232C98.2005 134.003 97.8485 135.859 97.8485 137.8C97.8485 139.4 98.1045 140.627 98.6165 141.48C99.1285 142.312 99.8645 142.728 100.825 142.728C101.977 142.728 102.99 142.12 103.865 140.904C104.761 139.688 105.475 137.917 106.009 135.592L109.785 135.624L107.449 146.376C106.766 149.555 105.795 151.891 104.537 153.384C103.299 154.877 101.689 155.624 99.7045 155.624ZM116.157 131.272C115.453 131.272 114.855 131.027 114.365 130.536C113.874 130.045 113.629 129.448 113.629 128.744C113.629 128.04 113.874 127.443 114.365 126.952C114.855 126.44 115.453 126.184 116.157 126.184C116.861 126.184 117.458 126.44 117.949 126.952C118.461 127.443 118.717 128.04 118.717 128.744C118.717 129.448 118.461 130.045 117.949 130.536C117.458 131.027 116.861 131.272 116.157 131.272ZM113.981 149.192C112.957 149.192 112.125 148.872 111.485 148.232C110.866 147.592 110.556 146.632 110.556 145.352C110.556 144.819 110.642 144.125 110.812 143.272L112.989 133H117.597L115.293 143.88C115.207 144.2 115.165 144.541 115.165 144.904C115.165 145.331 115.261 145.64 115.453 145.832C115.666 146.003 116.007 146.088 116.477 146.088C117.095 146.088 117.671 145.832 118.205 145.32C118.738 144.787 119.122 144.104 119.357 143.272H120.701C119.911 145.576 118.898 147.144 117.661 147.976C116.423 148.787 115.197 149.192 113.981 149.192ZM116.432 157C115.429 157 114.554 156.669 113.808 156.008C113.04 155.368 112.656 154.547 112.656 153.544C112.656 152.627 112.89 151.869 113.36 151.272C113.829 150.675 114.448 150.195 115.216 149.832C115.962 149.491 116.954 149.128 118.192 148.744L122.032 130.472C122.458 128.424 123.205 127.005 124.272 126.216C125.36 125.427 126.554 125.032 127.856 125.032C129.157 125.032 130.416 125.213 131.632 125.576C132.869 125.939 134.437 126.493 136.336 127.24L135.12 133H137.04L136.784 134.28H134.832L132.816 143.88C132.73 144.2 132.688 144.541 132.688 144.904C132.688 145.331 132.784 145.64 132.976 145.832C133.189 146.003 133.53 146.088 134 146.088C134.618 146.088 135.194 145.832 135.728 145.32C136.261 144.787 136.645 144.104 136.88 143.272H138.224C137.434 145.576 136.421 147.144 135.184 147.976C133.946 148.787 132.72 149.192 131.504 149.192C130.48 149.192 129.648 148.872 129.008 148.232C128.389 147.592 128.08 146.632 128.08 145.352C128.08 144.819 128.165 144.125 128.336 143.272L130.224 134.28H125.904L122.256 151.56C121.829 153.608 121.072 155.027 119.984 155.816C118.917 156.605 117.733 157 116.432 157ZM130.512 133L131.664 127.56C131.28 127.411 130.81 127.293 130.256 127.208C129.722 127.101 129.317 127.048 129.04 127.048C128.592 127.048 128.165 127.229 127.76 127.592C127.354 127.955 127.056 128.616 126.864 129.576L126.16 133H130.512ZM115.696 154.152C116.08 154.152 116.442 153.949 116.784 153.544C117.125 153.16 117.392 152.531 117.584 151.656L117.968 149.8C116.837 150.184 115.962 150.621 115.344 151.112C114.725 151.624 114.416 152.285 114.416 153.096C114.416 153.352 114.544 153.587 114.8 153.8C115.056 154.035 115.354 154.152 115.696 154.152Z" fill="white"/>
<path d="M31.1126 98.112C30.1793 98.112 29.3766 97.8833 28.7046 97.426C28.0326 96.9687 27.5193 96.3573 27.1646 95.592C26.8193 94.8173 26.6466 93.9727 26.6466 93.058C26.6466 92.134 26.8193 91.2893 27.1646 90.524C27.5193 89.7587 28.0326 89.1473 28.7046 88.69C29.3766 88.2327 30.1793 88.004 31.1126 88.004C32.2513 88.004 33.1846 88.3307 33.9126 88.984C34.6406 89.6373 35.1166 90.496 35.3406 91.56H33.4646C33.3339 91.0187 33.0586 90.5753 32.6386 90.23C32.2279 89.8753 31.7286 89.698 31.1406 89.698C30.3286 89.698 29.7126 90.006 29.2926 90.622C28.8726 91.238 28.6626 92.05 28.6626 93.058C28.6626 94.066 28.8726 94.878 29.2926 95.494C29.7126 96.11 30.3286 96.418 31.1406 96.418C31.7193 96.418 32.2046 96.2547 32.5966 95.928C32.9886 95.592 33.2593 95.1767 33.4086 94.682H35.2846C35.0606 95.69 34.5893 96.516 33.8706 97.16C33.1519 97.7947 32.2326 98.112 31.1126 98.112ZM36.7017 90.608H38.6197V91.784H38.7177C38.839 91.4573 39.063 91.182 39.3897 90.958C39.7163 90.7247 40.1363 90.608 40.6497 90.608C40.8457 90.608 41.0137 90.6267 41.1537 90.664L41.0697 92.442C40.8363 92.3767 40.589 92.344 40.3277 92.344C39.749 92.344 39.3197 92.498 39.0397 92.806C38.7597 93.1047 38.6197 93.604 38.6197 94.304V98H36.7017V90.608ZM45.3227 98.112C44.548 98.112 43.8947 97.9347 43.3627 97.58C42.8307 97.216 42.434 96.7447 42.1727 96.166C41.9207 95.578 41.7947 94.948 41.7947 94.276C41.7947 93.604 41.9207 92.9787 42.1727 92.4C42.434 91.812 42.8307 91.336 43.3627 90.972C43.8947 90.608 44.5527 90.426 45.3367 90.426C46.3727 90.426 47.194 90.7573 47.8007 91.42C48.4167 92.0827 48.7247 93.0393 48.7247 94.29V94.822H43.6567V94.934C43.6567 95.382 43.8107 95.7693 44.1187 96.096C44.4267 96.4133 44.814 96.572 45.2807 96.572C45.6447 96.572 45.9527 96.488 46.2047 96.32C46.4567 96.152 46.6387 95.9233 46.7507 95.634H48.6547C48.4587 96.362 48.076 96.9593 47.5067 97.426C46.9374 97.8833 46.2094 98.112 45.3227 98.112ZM46.8627 93.562C46.844 92.974 46.6947 92.54 46.4147 92.26C46.1347 91.98 45.766 91.84 45.3087 91.84C44.8234 91.84 44.4407 91.994 44.1607 92.302C43.8807 92.61 43.7314 93.03 43.7127 93.562H46.8627ZM52.7031 98.112C51.7884 98.112 51.0744 97.762 50.5611 97.062C50.0478 96.362 49.7911 95.438 49.7911 94.29C49.7911 93.1233 50.0478 92.19 50.5611 91.49C51.0838 90.7807 51.8118 90.426 52.7451 90.426C53.3704 90.426 53.8604 90.5707 54.2151 90.86C54.5698 91.14 54.8218 91.4387 54.9711 91.756H55.0831V90.608H57.0291V98H55.0831V96.726H54.9711C54.8031 97.0713 54.5418 97.3887 54.1871 97.678C53.8324 97.9673 53.3378 98.112 52.7031 98.112ZM53.4171 96.544C53.9678 96.544 54.3831 96.32 54.6631 95.872C54.9431 95.424 55.0831 94.8873 55.0831 94.262C55.0831 93.6367 54.9431 93.1047 54.6631 92.666C54.3924 92.2273 53.9771 92.008 53.4171 92.008C52.8571 92.008 52.4418 92.2273 52.1711 92.666C51.9004 93.1047 51.7651 93.6367 51.7651 94.262C51.7651 94.8967 51.9004 95.438 52.1711 95.886C52.4418 96.3247 52.8571 96.544 53.4171 96.544ZM61.5934 92.12V95.41C61.5934 95.7367 61.6074 95.9793 61.6354 96.138C61.6728 96.2967 61.7661 96.4227 61.9154 96.516C62.0648 96.6093 62.3074 96.656 62.6434 96.656C62.8394 96.656 63.0401 96.6373 63.2454 96.6V97.944C63.1428 97.9627 62.9561 97.986 62.6854 98.014C62.4241 98.042 62.1674 98.056 61.9154 98.056C61.2341 98.056 60.7254 97.958 60.3894 97.762C60.0628 97.5567 59.8574 97.3047 59.7734 97.006C59.6894 96.698 59.6474 96.306 59.6474 95.83V92.12H58.4154V90.608H59.6614V88.2H61.5934V90.608H63.2454V92.12H61.5934ZM68.018 98.112C67.2433 98.112 66.59 97.9347 66.058 97.58C65.526 97.216 65.1293 96.7447 64.868 96.166C64.616 95.578 64.49 94.948 64.49 94.276C64.49 93.604 64.616 92.9787 64.868 92.4C65.1293 91.812 65.526 91.336 66.058 90.972C66.59 90.608 67.248 90.426 68.032 90.426C69.068 90.426 69.8893 90.7573 70.496 91.42C71.112 92.0827 71.42 93.0393 71.42 94.29V94.822H66.352V94.934C66.352 95.382 66.506 95.7693 66.814 96.096C67.122 96.4133 67.5093 96.572 67.976 96.572C68.34 96.572 68.648 96.488 68.9 96.32C69.152 96.152 69.334 95.9233 69.446 95.634H71.35C71.154 96.362 70.7713 96.9593 70.202 97.426C69.6327 97.8833 68.9047 98.112 68.018 98.112ZM69.558 93.562C69.5393 92.974 69.39 92.54 69.11 92.26C68.83 91.98 68.4613 91.84 68.004 91.84C67.5187 91.84 67.136 91.994 66.856 92.302C66.576 92.61 66.4267 93.03 66.408 93.562H69.558ZM76.007 88.2H78.891L81.061 94.234H81.103L83.273 88.2H86.157V98H84.253V90.972H84.183L81.719 98H80.459L77.981 90.972H77.911V98H76.007V88.2ZM90.3691 98.112C89.4545 98.112 88.7405 97.762 88.2271 97.062C87.7138 96.362 87.4571 95.438 87.4571 94.29C87.4571 93.1233 87.7138 92.19 88.2271 91.49C88.7498 90.7807 89.4778 90.426 90.4111 90.426C91.0365 90.426 91.5265 90.5707 91.8811 90.86C92.2358 91.14 92.4878 91.4387 92.6371 91.756H92.7491V90.608H94.6951V98H92.7491V96.726H92.6371C92.4691 97.0713 92.2078 97.3887 91.8531 97.678C91.4985 97.9673 91.0038 98.112 90.3691 98.112ZM91.0831 96.544C91.6338 96.544 92.0491 96.32 92.3291 95.872C92.6091 95.424 92.7491 94.8873 92.7491 94.262C92.7491 93.6367 92.6091 93.1047 92.3291 92.666C92.0585 92.2273 91.6431 92.008 91.0831 92.008C90.5231 92.008 90.1078 92.2273 89.8371 92.666C89.5665 93.1047 89.4311 93.6367 89.4311 94.262C89.4311 94.8967 89.5665 95.438 89.8371 95.886C90.1078 96.3247 90.5231 96.544 91.0831 96.544ZM99.9748 101.108C99.6294 101.108 99.3681 101.085 99.1908 101.038C99.0134 101.001 98.8361 100.949 98.6588 100.884V99.33C98.7521 99.358 98.9014 99.386 99.1068 99.414C99.3214 99.4513 99.5268 99.47 99.7228 99.47C100.376 99.47 100.833 99.2833 101.095 98.91C101.365 98.546 101.501 98.0887 101.501 97.538V96.558H101.389C101.239 96.894 100.978 97.2067 100.605 97.496C100.231 97.7853 99.7368 97.93 99.1208 97.93C98.5234 97.93 98.0054 97.776 97.5668 97.468C97.1281 97.1507 96.7921 96.712 96.5588 96.152C96.3254 95.5827 96.2088 94.9293 96.2088 94.192C96.2088 93.436 96.3254 92.778 96.5588 92.218C96.7921 91.6487 97.1281 91.21 97.5668 90.902C98.0148 90.5847 98.5374 90.426 99.1348 90.426C99.7601 90.426 100.259 90.58 100.633 90.888C101.006 91.1867 101.258 91.504 101.389 91.84H101.501V90.608H103.447V97.538C103.447 98.014 103.358 98.518 103.181 99.05C103.013 99.5913 102.672 100.067 102.159 100.478C101.645 100.898 100.917 101.108 99.9748 101.108ZM99.8488 96.362C100.39 96.362 100.801 96.1427 101.081 95.704C101.361 95.2653 101.501 94.752 101.501 94.164C101.501 93.5853 101.361 93.0813 101.081 92.652C100.81 92.2133 100.399 91.994 99.8488 91.994C99.2981 91.994 98.8828 92.2133 98.6028 92.652C98.3228 93.0813 98.1828 93.5853 98.1828 94.164C98.1828 94.752 98.3181 95.2653 98.5888 95.704C98.8688 96.1427 99.2888 96.362 99.8488 96.362ZM105.27 90.608H107.202V98H105.27V90.608ZM106.222 89.334C105.914 89.334 105.657 89.2313 105.452 89.026C105.247 88.8113 105.144 88.5547 105.144 88.256C105.144 87.948 105.247 87.6913 105.452 87.486C105.657 87.2807 105.914 87.178 106.222 87.178C106.53 87.178 106.787 87.2853 106.992 87.5C107.197 87.7053 107.3 87.9573 107.3 88.256C107.3 88.5547 107.197 88.8113 106.992 89.026C106.787 89.2313 106.53 89.334 106.222 89.334ZM112.343 98.126C111.559 98.126 110.901 97.944 110.369 97.58C109.837 97.216 109.44 96.74 109.179 96.152C108.927 95.564 108.801 94.934 108.801 94.262C108.801 93.5993 108.927 92.9787 109.179 92.4C109.44 91.812 109.837 91.336 110.369 90.972C110.901 90.608 111.559 90.426 112.343 90.426C113.332 90.426 114.111 90.7107 114.681 91.28C115.259 91.84 115.609 92.5493 115.731 93.408H113.841C113.775 92.988 113.617 92.652 113.365 92.4C113.122 92.1387 112.786 92.008 112.357 92.008C111.787 92.008 111.367 92.2273 111.097 92.666C110.835 93.1047 110.705 93.6367 110.705 94.262C110.705 94.906 110.835 95.4473 111.097 95.886C111.367 96.3247 111.787 96.544 112.357 96.544C112.777 96.544 113.113 96.418 113.365 96.166C113.617 95.9047 113.775 95.564 113.841 95.144H115.731C115.609 96.0027 115.259 96.7167 114.681 97.286C114.111 97.846 113.332 98.126 112.343 98.126ZM120.277 88.2H122.531L126.535 95.004H126.563V88.2H128.495V98.014H126.227L122.251 91.406H122.209V98.014H120.277V88.2ZM133.397 98.112C132.622 98.112 131.969 97.9393 131.437 97.594C130.914 97.2393 130.522 96.7727 130.261 96.194C130 95.6153 129.869 94.9807 129.869 94.29C129.869 93.5993 129.995 92.9647 130.247 92.386C130.508 91.798 130.905 91.3267 131.437 90.972C131.969 90.6173 132.622 90.44 133.397 90.44C134.172 90.44 134.825 90.6173 135.357 90.972C135.889 91.3173 136.286 91.7793 136.547 92.358C136.808 92.9367 136.939 93.5713 136.939 94.262C136.939 94.9527 136.808 95.592 136.547 96.18C136.286 96.7587 135.889 97.2253 135.357 97.58C134.825 97.9347 134.172 98.112 133.397 98.112ZM133.397 96.544C133.938 96.544 134.344 96.3293 134.615 95.9C134.895 95.4613 135.035 94.9153 135.035 94.262C135.035 93.6087 134.895 93.072 134.615 92.652C134.344 92.2227 133.938 92.008 133.397 92.008C132.856 92.008 132.45 92.2227 132.179 92.652C131.908 93.072 131.773 93.6087 131.773 94.262C131.773 94.9153 131.908 95.4613 132.179 95.9C132.459 96.3293 132.865 96.544 133.397 96.544ZM137.696 90.608H139.502L140.762 95.9H140.832L142.33 90.608H144.024L145.564 95.9H145.634L146.852 90.608H148.658L146.768 98H144.43L143.24 93.548H143.142L141.966 98H139.628L137.696 90.608ZM54.5886 108.2H56.5346L58.2286 115.466H58.3126L60.5526 108.2H62.2466L64.4866 115.466H64.5706L66.2786 108.2H68.2246L65.7046 118.014H63.3666L61.4486 111.672H61.3646L59.4466 118.014H57.1086L54.5886 108.2ZM69.4019 110.608H71.3339V118H69.4019V110.608ZM70.3539 109.334C70.0459 109.334 69.7892 109.231 69.5839 109.026C69.3785 108.811 69.2759 108.555 69.2759 108.256C69.2759 107.948 69.3785 107.691 69.5839 107.486C69.7892 107.281 70.0459 107.178 70.3539 107.178C70.6619 107.178 70.9185 107.285 71.1239 107.5C71.3292 107.705 71.4319 107.957 71.4319 108.256C71.4319 108.555 71.3292 108.811 71.1239 109.026C70.9185 109.231 70.6619 109.334 70.3539 109.334ZM75.9284 112.12V115.41C75.9284 115.737 75.9424 115.979 75.9704 116.138C76.0077 116.297 76.1011 116.423 76.2504 116.516C76.3997 116.609 76.6424 116.656 76.9784 116.656C77.1744 116.656 77.3751 116.637 77.5804 116.6V117.944C77.4777 117.963 77.2911 117.986 77.0204 118.014C76.7591 118.042 76.5024 118.056 76.2504 118.056C75.5691 118.056 75.0604 117.958 74.7244 117.762C74.3977 117.557 74.1924 117.305 74.1084 117.006C74.0244 116.698 73.9824 116.306 73.9824 115.83V112.12H72.7504V110.608H73.9964V108.2H75.9284V110.608H77.5804V112.12H75.9284ZM79.09 107.598H81.05V111.742H81.148C81.316 111.378 81.5867 111.07 81.96 110.818C82.3333 110.557 82.786 110.426 83.318 110.426C84.2793 110.426 84.956 110.734 85.348 111.35C85.7493 111.966 85.95 112.666 85.95 113.45V118H84.018V113.772C84.018 113.231 83.8873 112.806 83.626 112.498C83.374 112.19 83.01 112.036 82.534 112.036C82.0673 112.036 81.7033 112.195 81.442 112.512C81.1807 112.829 81.05 113.249 81.05 113.772V118H79.09V107.598ZM94.9948 118.112C94.0334 118.112 93.2121 117.893 92.5308 117.454C91.8588 117.006 91.3501 116.404 91.0048 115.648C90.6688 114.883 90.5008 114.033 90.5008 113.1C90.5008 112.157 90.6734 111.303 91.0188 110.538C91.3641 109.763 91.8728 109.147 92.5448 108.69C93.2261 108.233 94.0428 108.004 94.9948 108.004C95.9468 108.004 96.7588 108.233 97.4308 108.69C98.1028 109.138 98.6114 109.749 98.9568 110.524C99.3021 111.289 99.4748 112.148 99.4748 113.1C99.4748 114.043 99.3021 114.897 98.9568 115.662C98.6114 116.418 98.0981 117.015 97.4168 117.454C96.7448 117.893 95.9374 118.112 94.9948 118.112ZM94.9948 116.376C95.7601 116.376 96.3528 116.068 96.7728 115.452C97.1928 114.827 97.4028 114.033 97.4028 113.072C97.4028 112.456 97.3094 111.896 97.1228 111.392C96.9454 110.888 96.6748 110.487 96.3108 110.188C95.9468 109.889 95.5081 109.74 94.9948 109.74C94.4814 109.74 94.0381 109.894 93.6648 110.202C93.3008 110.501 93.0254 110.902 92.8388 111.406C92.6521 111.91 92.5588 112.47 92.5588 113.086C92.5588 114.029 92.7688 114.813 93.1888 115.438C93.6181 116.063 94.2201 116.376 94.9948 116.376ZM100.883 110.608H102.843V111.742H102.941C103.109 111.378 103.38 111.07 103.753 110.818C104.126 110.557 104.579 110.426 105.111 110.426C106.072 110.426 106.749 110.734 107.141 111.35C107.542 111.966 107.743 112.666 107.743 113.45V118H105.811V113.772C105.811 113.231 105.68 112.806 105.419 112.498C105.167 112.19 104.808 112.036 104.341 112.036C103.846 112.036 103.473 112.199 103.221 112.526C102.969 112.843 102.843 113.259 102.843 113.772V118H100.883V110.608ZM111.753 118.056C111.062 118.056 110.549 117.953 110.213 117.748C109.886 117.533 109.681 117.272 109.597 116.964C109.522 116.647 109.485 116.245 109.485 115.76V107.5H111.417V115.368C111.417 115.704 111.431 115.956 111.459 116.124C111.496 116.283 111.59 116.413 111.739 116.516C111.898 116.609 112.145 116.656 112.481 116.656C112.593 116.656 112.724 116.647 112.873 116.628V117.972C112.397 118.028 112.024 118.056 111.753 118.056ZM117.249 119.05C117.118 119.395 116.978 119.699 116.829 119.96C116.679 120.231 116.413 120.492 116.031 120.744C115.657 120.996 115.163 121.122 114.547 121.122C114.285 121.122 114.061 121.099 113.875 121.052C113.688 121.015 113.571 120.991 113.525 120.982V119.624C113.674 119.661 113.875 119.68 114.127 119.68C114.435 119.68 114.682 119.629 114.869 119.526C115.055 119.423 115.205 119.288 115.317 119.12C115.429 118.952 115.541 118.719 115.653 118.42L115.891 117.832L113.231 110.608H115.191L116.787 115.69H116.871L118.551 110.608H120.511L117.249 119.05Z" fill="white"/>
<defs>
<linearGradient id="paint0_linear_163_15901" x1="142.411" y1="43.335" x2="-42.7681" y2="231.549" gradientUnits="userSpaceOnUse">
<stop stop-color="#FFD86E"/>
<stop offset="0.08" stop-color="#FFE682"/>
<stop offset="0.2" stop-color="#FFF79A"/>
<stop offset="0.3" stop-color="#F8E284"/>
<stop offset="0.4" stop-color="#F2CB6C"/>
<stop offset="0.41" stop-color="#F0C96A"/>
<stop offset="0.55" stop-color="#C08E37"/>
<stop offset="0.62" stop-color="#AE7723"/>
<stop offset="0.65" stop-color="#96611B"/>
<stop offset="0.69" stop-color="#814D14"/>
<stop offset="0.72" stop-color="#7A4712"/>
<stop offset="0.76" stop-color="#88561C"/>
<stop offset="0.85" stop-color="#AE8036"/>
<stop offset="0.96" stop-color="#EBC260"/>
<stop offset="1" stop-color="#FFD86E"/>
</linearGradient>
<linearGradient id="paint1_linear_163_15901" x1="142.411" y1="43.335" x2="-42.7681" y2="231.549" gradientUnits="userSpaceOnUse">
<stop stop-color="#FFD86E"/>
<stop offset="0.08" stop-color="#FFE682"/>
<stop offset="0.2" stop-color="#FFF79A"/>
<stop offset="0.3" stop-color="#F8E284"/>
<stop offset="0.4" stop-color="#F2CB6C"/>
<stop offset="0.41" stop-color="#F0C96A"/>
<stop offset="0.55" stop-color="#C08E37"/>
<stop offset="0.62" stop-color="#AE7723"/>
<stop offset="0.65" stop-color="#96611B"/>
<stop offset="0.69" stop-color="#814D14"/>
<stop offset="0.72" stop-color="#7A4712"/>
<stop offset="0.76" stop-color="#88561C"/>
<stop offset="0.85" stop-color="#AE8036"/>
<stop offset="0.96" stop-color="#EBC260"/>
<stop offset="1" stop-color="#FFD86E"/>
</linearGradient>
<linearGradient id="paint2_linear_163_15901" x1="64.9224" y1="173.869" x2="110.517" y2="4.73769" gradientUnits="userSpaceOnUse">
<stop stop-color="#FFD86E"/>
<stop offset="0.08" stop-color="#FFE682"/>
<stop offset="0.2" stop-color="#FFF79A"/>
<stop offset="0.3" stop-color="#F8E284"/>
<stop offset="0.4" stop-color="#F2CB6C"/>
<stop offset="0.41" stop-color="#F0C96A"/>
<stop offset="0.55" stop-color="#C08E37"/>
<stop offset="0.62" stop-color="#AE7723"/>
<stop offset="0.65" stop-color="#96611B"/>
<stop offset="0.69" stop-color="#814D14"/>
<stop offset="0.72" stop-color="#7A4712"/>
<stop offset="0.76" stop-color="#88561C"/>
<stop offset="0.85" stop-color="#AE8036"/>
<stop offset="0.96" stop-color="#EBC260"/>
<stop offset="1" stop-color="#FFD86E"/>
</linearGradient>
<linearGradient id="paint3_linear_163_15901" x1="64.9224" y1="172.786" x2="110.517" y2="3.65468" gradientUnits="userSpaceOnUse">
<stop stop-color="#FFD86E"/>
<stop offset="0.08" stop-color="#FFE682"/>
<stop offset="0.2" stop-color="#FFF79A"/>
<stop offset="0.3" stop-color="#F8E284"/>
<stop offset="0.4" stop-color="#F2CB6C"/>
<stop offset="0.41" stop-color="#F0C96A"/>
<stop offset="0.55" stop-color="#C08E37"/>
<stop offset="0.62" stop-color="#AE7723"/>
<stop offset="0.65" stop-color="#96611B"/>
<stop offset="0.69" stop-color="#814D14"/>
<stop offset="0.72" stop-color="#7A4712"/>
<stop offset="0.76" stop-color="#88561C"/>
<stop offset="0.85" stop-color="#AE8036"/>
<stop offset="0.96" stop-color="#EBC260"/>
<stop offset="1" stop-color="#FFD86E"/>
</linearGradient>
<linearGradient id="paint4_linear_163_15901" x1="111.926" y1="26.5206" x2="147.751" y2="160.112" gradientUnits="userSpaceOnUse">
<stop stop-color="#FFD86E"/>
<stop offset="0.08" stop-color="#FFE682"/>
<stop offset="0.2" stop-color="#FFF79A"/>
<stop offset="0.3" stop-color="#F8E284"/>
<stop offset="0.4" stop-color="#F2CB6C"/>
<stop offset="0.41" stop-color="#F0C96A"/>
<stop offset="0.55" stop-color="#C08E37"/>
<stop offset="0.62" stop-color="#AE7723"/>
<stop offset="0.65" stop-color="#96611B"/>
<stop offset="0.69" stop-color="#814D14"/>
<stop offset="0.72" stop-color="#7A4712"/>
<stop offset="0.76" stop-color="#88561C"/>
<stop offset="0.85" stop-color="#AE8036"/>
<stop offset="0.96" stop-color="#EBC260"/>
<stop offset="1" stop-color="#FFD86E"/>
</linearGradient>
<linearGradient id="paint5_linear_163_15901" x1="122.365" y1="23.7206" x2="158.19" y2="157.313" gradientUnits="userSpaceOnUse">
<stop stop-color="#FFD86E"/>
<stop offset="0.08" stop-color="#FFE682"/>
<stop offset="0.2" stop-color="#FFF79A"/>
<stop offset="0.3" stop-color="#F8E284"/>
<stop offset="0.4" stop-color="#F2CB6C"/>
<stop offset="0.41" stop-color="#F0C96A"/>
<stop offset="0.55" stop-color="#C08E37"/>
<stop offset="0.62" stop-color="#AE7723"/>
<stop offset="0.65" stop-color="#96611B"/>
<stop offset="0.69" stop-color="#814D14"/>
<stop offset="0.72" stop-color="#7A4712"/>
<stop offset="0.76" stop-color="#88561C"/>
<stop offset="0.85" stop-color="#AE8036"/>
<stop offset="0.96" stop-color="#EBC260"/>
<stop offset="1" stop-color="#FFD86E"/>
</linearGradient>
<linearGradient id="paint6_linear_163_15901" x1="111.741" y1="26.5702" x2="147.566" y2="160.162" gradientUnits="userSpaceOnUse">
<stop stop-color="#FFD86E"/>
<stop offset="0.08" stop-color="#FFE682"/>
<stop offset="0.2" stop-color="#FFF79A"/>
<stop offset="0.3" stop-color="#F8E284"/>
<stop offset="0.4" stop-color="#F2CB6C"/>
<stop offset="0.41" stop-color="#F0C96A"/>
<stop offset="0.55" stop-color="#C08E37"/>
<stop offset="0.62" stop-color="#AE7723"/>
<stop offset="0.65" stop-color="#96611B"/>
<stop offset="0.69" stop-color="#814D14"/>
<stop offset="0.72" stop-color="#7A4712"/>
<stop offset="0.76" stop-color="#88561C"/>
<stop offset="0.85" stop-color="#AE8036"/>
<stop offset="0.96" stop-color="#EBC260"/>
<stop offset="1" stop-color="#FFD86E"/>
</linearGradient>
<linearGradient id="paint7_linear_163_15901" x1="115" y1="25.6956" x2="150.825" y2="159.288" gradientUnits="userSpaceOnUse">
<stop stop-color="#FFD86E"/>
<stop offset="0.08" stop-color="#FFE682"/>
<stop offset="0.2" stop-color="#FFF79A"/>
<stop offset="0.3" stop-color="#F8E284"/>
<stop offset="0.4" stop-color="#F2CB6C"/>
<stop offset="0.41" stop-color="#F0C96A"/>
<stop offset="0.55" stop-color="#C08E37"/>
<stop offset="0.62" stop-color="#AE7723"/>
<stop offset="0.65" stop-color="#96611B"/>
<stop offset="0.69" stop-color="#814D14"/>
<stop offset="0.72" stop-color="#7A4712"/>
<stop offset="0.76" stop-color="#88561C"/>
<stop offset="0.85" stop-color="#AE8036"/>
<stop offset="0.96" stop-color="#EBC260"/>
<stop offset="1" stop-color="#FFD86E"/>
</linearGradient>
<linearGradient id="paint8_linear_163_15901" x1="136.131" y1="20.0287" x2="171.956" y2="153.622" gradientUnits="userSpaceOnUse">
<stop stop-color="#FFD86E"/>
<stop offset="0.08" stop-color="#FFE682"/>
<stop offset="0.2" stop-color="#FFF79A"/>
<stop offset="0.3" stop-color="#F8E284"/>
<stop offset="0.4" stop-color="#F2CB6C"/>
<stop offset="0.41" stop-color="#F0C96A"/>
<stop offset="0.55" stop-color="#C08E37"/>
<stop offset="0.62" stop-color="#AE7723"/>
<stop offset="0.65" stop-color="#96611B"/>
<stop offset="0.69" stop-color="#814D14"/>
<stop offset="0.72" stop-color="#7A4712"/>
<stop offset="0.76" stop-color="#88561C"/>
<stop offset="0.85" stop-color="#AE8036"/>
<stop offset="0.96" stop-color="#EBC260"/>
<stop offset="1" stop-color="#FFD86E"/>
</linearGradient>
<linearGradient id="paint9_linear_163_15901" x1="141.23" y1="18.6617" x2="177.054" y2="152.254" gradientUnits="userSpaceOnUse">
<stop stop-color="#FFD86E"/>
<stop offset="0.08" stop-color="#FFE682"/>
<stop offset="0.2" stop-color="#FFF79A"/>
<stop offset="0.3" stop-color="#F8E284"/>
<stop offset="0.4" stop-color="#F2CB6C"/>
<stop offset="0.41" stop-color="#F0C96A"/>
<stop offset="0.55" stop-color="#C08E37"/>
<stop offset="0.62" stop-color="#AE7723"/>
<stop offset="0.65" stop-color="#96611B"/>
<stop offset="0.69" stop-color="#814D14"/>
<stop offset="0.72" stop-color="#7A4712"/>
<stop offset="0.76" stop-color="#88561C"/>
<stop offset="0.85" stop-color="#AE8036"/>
<stop offset="0.96" stop-color="#EBC260"/>
<stop offset="1" stop-color="#FFD86E"/>
</linearGradient>
<linearGradient id="paint10_linear_163_15901" x1="56.6464" y1="41.3439" x2="92.4715" y2="174.937" gradientUnits="userSpaceOnUse">
<stop stop-color="#FFD86E"/>
<stop offset="0.08" stop-color="#FFE682"/>
<stop offset="0.2" stop-color="#FFF79A"/>
<stop offset="0.3" stop-color="#F8E284"/>
<stop offset="0.4" stop-color="#F2CB6C"/>
<stop offset="0.41" stop-color="#F0C96A"/>
<stop offset="0.55" stop-color="#C08E37"/>
<stop offset="0.62" stop-color="#AE7723"/>
<stop offset="0.65" stop-color="#96611B"/>
<stop offset="0.69" stop-color="#814D14"/>
<stop offset="0.72" stop-color="#7A4712"/>
<stop offset="0.76" stop-color="#88561C"/>
<stop offset="0.85" stop-color="#AE8036"/>
<stop offset="0.96" stop-color="#EBC260"/>
<stop offset="1" stop-color="#FFD86E"/>
</linearGradient>
<linearGradient id="paint11_linear_163_15901" x1="64.401" y1="39.2648" x2="100.226" y2="172.858" gradientUnits="userSpaceOnUse">
<stop stop-color="#FFD86E"/>
<stop offset="0.08" stop-color="#FFE682"/>
<stop offset="0.2" stop-color="#FFF79A"/>
<stop offset="0.3" stop-color="#F8E284"/>
<stop offset="0.4" stop-color="#F2CB6C"/>
<stop offset="0.41" stop-color="#F0C96A"/>
<stop offset="0.55" stop-color="#C08E37"/>
<stop offset="0.62" stop-color="#AE7723"/>
<stop offset="0.65" stop-color="#96611B"/>
<stop offset="0.69" stop-color="#814D14"/>
<stop offset="0.72" stop-color="#7A4712"/>
<stop offset="0.76" stop-color="#88561C"/>
<stop offset="0.85" stop-color="#AE8036"/>
<stop offset="0.96" stop-color="#EBC260"/>
<stop offset="1" stop-color="#FFD86E"/>
</linearGradient>
<linearGradient id="paint12_linear_163_15901" x1="48.3281" y1="43.5745" x2="84.1532" y2="177.166" gradientUnits="userSpaceOnUse">
<stop stop-color="#FFD86E"/>
<stop offset="0.08" stop-color="#FFE682"/>
<stop offset="0.2" stop-color="#FFF79A"/>
<stop offset="0.3" stop-color="#F8E284"/>
<stop offset="0.4" stop-color="#F2CB6C"/>
<stop offset="0.41" stop-color="#F0C96A"/>
<stop offset="0.55" stop-color="#C08E37"/>
<stop offset="0.62" stop-color="#AE7723"/>
<stop offset="0.65" stop-color="#96611B"/>
<stop offset="0.69" stop-color="#814D14"/>
<stop offset="0.72" stop-color="#7A4712"/>
<stop offset="0.76" stop-color="#88561C"/>
<stop offset="0.85" stop-color="#AE8036"/>
<stop offset="0.96" stop-color="#EBC260"/>
<stop offset="1" stop-color="#FFD86E"/>
</linearGradient>
<linearGradient id="paint13_linear_163_15901" x1="51.8762" y1="42.623" x2="87.7014" y2="176.216" gradientUnits="userSpaceOnUse">
<stop stop-color="#FFD86E"/>
<stop offset="0.08" stop-color="#FFE682"/>
<stop offset="0.2" stop-color="#FFF79A"/>
<stop offset="0.3" stop-color="#F8E284"/>
<stop offset="0.4" stop-color="#F2CB6C"/>
<stop offset="0.41" stop-color="#F0C96A"/>
<stop offset="0.55" stop-color="#C08E37"/>
<stop offset="0.62" stop-color="#AE7723"/>
<stop offset="0.65" stop-color="#96611B"/>
<stop offset="0.69" stop-color="#814D14"/>
<stop offset="0.72" stop-color="#7A4712"/>
<stop offset="0.76" stop-color="#88561C"/>
<stop offset="0.85" stop-color="#AE8036"/>
<stop offset="0.96" stop-color="#EBC260"/>
<stop offset="1" stop-color="#FFD86E"/>
</linearGradient>
<linearGradient id="paint14_linear_163_15901" x1="27.2237" y1="49.2338" x2="63.0488" y2="182.827" gradientUnits="userSpaceOnUse">
<stop stop-color="#FFD86E"/>
<stop offset="0.08" stop-color="#FFE682"/>
<stop offset="0.2" stop-color="#FFF79A"/>
<stop offset="0.3" stop-color="#F8E284"/>
<stop offset="0.4" stop-color="#F2CB6C"/>
<stop offset="0.41" stop-color="#F0C96A"/>
<stop offset="0.55" stop-color="#C08E37"/>
<stop offset="0.62" stop-color="#AE7723"/>
<stop offset="0.65" stop-color="#96611B"/>
<stop offset="0.69" stop-color="#814D14"/>
<stop offset="0.72" stop-color="#7A4712"/>
<stop offset="0.76" stop-color="#88561C"/>
<stop offset="0.85" stop-color="#AE8036"/>
<stop offset="0.96" stop-color="#EBC260"/>
<stop offset="1" stop-color="#FFD86E"/>
</linearGradient>
<linearGradient id="paint15_linear_163_15901" x1="35.7199" y1="46.9562" x2="71.5446" y2="180.548" gradientUnits="userSpaceOnUse">
<stop stop-color="#FFD86E"/>
<stop offset="0.08" stop-color="#FFE682"/>
<stop offset="0.2" stop-color="#FFF79A"/>
<stop offset="0.3" stop-color="#F8E284"/>
<stop offset="0.4" stop-color="#F2CB6C"/>
<stop offset="0.41" stop-color="#F0C96A"/>
<stop offset="0.55" stop-color="#C08E37"/>
<stop offset="0.62" stop-color="#AE7723"/>
<stop offset="0.65" stop-color="#96611B"/>
<stop offset="0.69" stop-color="#814D14"/>
<stop offset="0.72" stop-color="#7A4712"/>
<stop offset="0.76" stop-color="#88561C"/>
<stop offset="0.85" stop-color="#AE8036"/>
<stop offset="0.96" stop-color="#EBC260"/>
<stop offset="1" stop-color="#FFD86E"/>
</linearGradient>
<radialGradient id="paint16_radial_163_15901" cx="0" cy="0" r="1" gradientUnits="userSpaceOnUse" gradientTransform="translate(92.5505 62.8782) rotate(-90) scale(61.093 66.3252)">
<stop stop-color="#FFB900"/>
<stop offset="0.03" stop-color="#FF7D00"/>
<stop offset="0.07" stop-color="#D36700"/>
<stop offset="0.13" stop-color="#A24F00"/>
<stop offset="0.18" stop-color="#763A00"/>
<stop offset="0.24" stop-color="#522800"/>
<stop offset="0.3" stop-color="#341900"/>
<stop offset="0.37" stop-color="#1D0E00"/>
<stop offset="0.43" stop-color="#0C0600"/>
<stop offset="0.51" stop-color="#030100"/>
<stop offset="0.61"/>
</radialGradient>
<radialGradient id="paint17_radial_163_15901" cx="0" cy="0" r="1" gradientUnits="userSpaceOnUse" gradientTransform="translate(99.7655 62.8782) rotate(-90) scale(61.0894 54.5681)">
<stop stop-color="#FFB900"/>
<stop offset="0.03" stop-color="#FF7D00"/>
<stop offset="0.04" stop-color="#F57800"/>
<stop offset="0.08" stop-color="#C76200"/>
<stop offset="0.12" stop-color="#9C4C00"/>
<stop offset="0.17" stop-color="#773A00"/>
<stop offset="0.22" stop-color="#562A00"/>
<stop offset="0.28" stop-color="#3B1D00"/>
<stop offset="0.34" stop-color="#251200"/>
<stop offset="0.42" stop-color="#140A00"/>
<stop offset="0.51" stop-color="#080400"/>
<stop offset="0.64" stop-color="#010000"/>
<stop offset="1"/>
</radialGradient>
</defs>
</svg>
