<svg width="245" height="108" viewBox="0 0 245 108" fill="none" xmlns="http://www.w3.org/2000/svg">
<g filter="url(#filter0_dd_160_3)">
<rect x="28" y="12" width="189" height="52" rx="26" fill="url(#paint0_linear_160_3)"/>
<rect x="30" y="14" width="185" height="48" rx="24" stroke="url(#paint1_linear_160_3)" stroke-width="4"/>
</g>
<path d="M55.2093 45.2C53.9693 45.2 52.8826 44.9867 51.9493 44.56C51.0159 44.1333 50.2359 43.56 49.6093 42.84C48.9959 42.1067 48.5359 41.2933 48.2293 40.4C47.9226 39.4933 47.7693 38.5667 47.7693 37.62C47.7693 36.6733 47.9226 35.7467 48.2293 34.84C48.5493 33.9333 49.0159 33.12 49.6293 32.4C50.2559 31.6667 51.0426 31.0867 51.9893 30.66C52.9359 30.22 54.0426 30 55.3093 30C56.2959 30 57.1426 30.1267 57.8493 30.38C58.5693 30.62 59.1693 30.94 59.6493 31.34C60.1293 31.7267 60.5093 32.14 60.7893 32.58C61.0826 33.02 61.3026 33.44 61.4493 33.84C61.6093 34.2267 61.7093 34.5467 61.7493 34.8C61.8026 35.04 61.8293 35.16 61.8293 35.16H58.7693C58.7693 35.16 58.7293 35.04 58.6493 34.8C58.5693 34.56 58.4093 34.28 58.1693 33.96C57.9293 33.6267 57.5759 33.34 57.1093 33.1C56.6559 32.8467 56.0559 32.72 55.3093 32.72C54.3359 32.72 53.5226 32.96 52.8693 33.44C52.2293 33.9067 51.7426 34.5133 51.4093 35.26C51.0893 35.9933 50.9293 36.76 50.9293 37.56C50.9293 38.3867 51.0959 39.18 51.4293 39.94C51.7626 40.6867 52.2493 41.3 52.8893 41.78C53.5426 42.2467 54.3559 42.48 55.3293 42.48C56.3959 42.48 57.2359 42.2067 57.8493 41.66C58.4759 41.1133 58.8493 40.3733 58.9693 39.44H55.1293V37.02H62.0093V38.16C62.0093 39.7067 61.7093 41.0067 61.1093 42.06C60.5226 43.1 59.7159 43.8867 58.6893 44.42C57.6759 44.94 56.5159 45.2 55.2093 45.2ZM65.73 32.96C65.1967 32.96 64.7634 32.7933 64.43 32.46C64.0967 32.1133 63.93 31.7067 63.93 31.24C63.93 30.7467 64.0967 30.3333 64.43 30C64.7634 29.6533 65.1967 29.48 65.73 29.48C66.2367 29.48 66.6634 29.6533 67.01 30C67.3567 30.3333 67.53 30.7467 67.53 31.24C67.53 31.7067 67.3567 32.1133 67.01 32.46C66.6634 32.7933 66.2367 32.96 65.73 32.96ZM64.21 45V34.4H67.25V45H64.21ZM73.028 45L69.148 34.4H72.188L74.668 41.58L77.048 34.4H80.108L76.208 45H73.028ZM86.4757 45.2C85.5423 45.2 84.7357 45.0467 84.0557 44.74C83.3757 44.42 82.8157 44 82.3757 43.48C81.9357 42.9467 81.6023 42.3533 81.3757 41.7C81.1623 41.0467 81.0557 40.3733 81.0557 39.68C81.0557 39.0133 81.1557 38.36 81.3557 37.72C81.569 37.0667 81.889 36.4733 82.3157 35.94C82.7557 35.4067 83.309 34.9867 83.9757 34.68C84.6557 34.36 85.4557 34.2 86.3757 34.2C87.349 34.2 88.209 34.4133 88.9557 34.84C89.7157 35.2667 90.309 35.9 90.7357 36.74C91.1623 37.5667 91.3757 38.5733 91.3757 39.76V40.5H84.1157C84.1557 41.14 84.3757 41.6933 84.7757 42.16C85.189 42.6267 85.7557 42.86 86.4757 42.86C86.889 42.86 87.2223 42.8 87.4757 42.68C87.7423 42.5467 87.949 42.4 88.0957 42.24C88.2423 42.0667 88.3423 41.9133 88.3957 41.78C88.449 41.6467 88.4757 41.58 88.4757 41.58H91.2757C91.2757 41.58 91.2423 41.7067 91.1757 41.96C91.1223 42.2 91.0023 42.5 90.8157 42.86C90.629 43.22 90.3557 43.58 89.9957 43.94C89.649 44.3 89.189 44.6 88.6157 44.84C88.0423 45.08 87.329 45.2 86.4757 45.2ZM84.1157 38.66H88.4557C88.4157 37.9267 88.1957 37.38 87.7957 37.02C87.3957 36.66 86.9023 36.48 86.3157 36.48C85.729 36.48 85.229 36.6733 84.8157 37.06C84.4023 37.4333 84.169 37.9667 84.1157 38.66ZM102.688 34.2C103.368 34.2 103.928 34.3133 104.368 34.54C104.808 34.7533 105.142 34.9867 105.368 35.24C105.608 35.4933 105.755 35.6667 105.808 35.76H105.968V34.4H109.008V45H105.968V43.64H105.808C105.755 43.7333 105.608 43.9067 105.368 44.16C105.142 44.4133 104.808 44.6533 104.368 44.88C103.928 45.0933 103.368 45.2 102.688 45.2C101.902 45.2 101.215 45.0467 100.628 44.74C100.055 44.42 99.575 44 99.1883 43.48C98.8017 42.9467 98.5083 42.3533 98.3083 41.7C98.1217 41.0467 98.0283 40.38 98.0283 39.7C98.0283 39.02 98.1217 38.3533 98.3083 37.7C98.5083 37.0467 98.8017 36.46 99.1883 35.94C99.575 35.4067 100.055 34.9867 100.628 34.68C101.215 34.36 101.902 34.2 102.688 34.2ZM103.568 36.66C103.022 36.66 102.562 36.8133 102.188 37.12C101.828 37.4133 101.555 37.7933 101.368 38.26C101.195 38.7267 101.108 39.2067 101.108 39.7C101.108 40.1933 101.195 40.6733 101.368 41.14C101.555 41.6067 101.828 41.9933 102.188 42.3C102.562 42.5933 103.022 42.74 103.568 42.74C104.115 42.74 104.568 42.5933 104.928 42.3C105.302 41.9933 105.575 41.6067 105.748 41.14C105.935 40.6733 106.028 40.1933 106.028 39.7C106.028 39.2067 105.935 38.7267 105.748 38.26C105.575 37.7933 105.302 37.4133 104.928 37.12C104.568 36.8133 104.115 36.66 103.568 36.66ZM120.702 46.92V45.2C119.688 45.12 118.855 44.9067 118.202 44.56C117.562 44.2 117.062 43.7867 116.702 43.32C116.342 42.84 116.082 42.3733 115.922 41.92C115.762 41.4533 115.662 41.0733 115.622 40.78C115.595 40.4733 115.582 40.32 115.582 40.32H118.502C118.502 40.32 118.515 40.4267 118.542 40.64C118.582 40.84 118.668 41.0867 118.802 41.38C118.935 41.6733 119.148 41.9467 119.442 42.2C119.748 42.4533 120.168 42.6333 120.702 42.74V38.58L120.562 38.56C120.028 38.44 119.488 38.2867 118.942 38.1C118.408 37.9133 117.915 37.6667 117.462 37.36C117.022 37.0533 116.662 36.66 116.382 36.18C116.115 35.7 115.982 35.1 115.982 34.38C115.982 33.5133 116.188 32.7733 116.602 32.16C117.028 31.5333 117.595 31.04 118.302 30.68C119.022 30.32 119.822 30.1 120.702 30.02V28.32H122.302V30.06C123.168 30.1533 123.882 30.3667 124.442 30.7C125.015 31.02 125.468 31.3933 125.802 31.82C126.135 32.2333 126.382 32.6467 126.542 33.06C126.702 33.46 126.802 33.7933 126.842 34.06C126.895 34.3267 126.922 34.46 126.922 34.46H124.042C124.042 34.46 124.022 34.38 123.982 34.22C123.955 34.06 123.882 33.8667 123.762 33.64C123.655 33.4 123.482 33.1733 123.242 32.96C123.015 32.7333 122.702 32.5667 122.302 32.46V36.32L122.562 36.38C123.015 36.4867 123.502 36.6267 124.022 36.8C124.555 36.96 125.048 37.1933 125.502 37.5C125.968 37.8067 126.342 38.22 126.622 38.74C126.915 39.2467 127.062 39.8867 127.062 40.66C127.062 41.4867 126.862 42.2267 126.462 42.88C126.075 43.52 125.522 44.04 124.802 44.44C124.095 44.84 123.262 45.0867 122.302 45.18V46.92H120.702ZM118.822 34.26C118.822 34.7 118.975 35.0533 119.282 35.32C119.588 35.5733 120.062 35.7867 120.702 35.96V32.36C120.115 32.4667 119.655 32.6933 119.322 33.04C118.988 33.3867 118.822 33.7933 118.822 34.26ZM124.202 40.72C124.202 40.2267 124.035 39.8467 123.702 39.58C123.382 39.3133 122.915 39.1 122.302 38.94V42.74C122.875 42.62 123.335 42.38 123.682 42.02C124.028 41.66 124.202 41.2267 124.202 40.72ZM134.55 30.2V45H131.47V34.4L128.61 34.42V32.56L129.07 32.42C129.91 32.18 130.59 31.9067 131.11 31.6C131.63 31.2933 132.13 30.8867 132.61 30.38L132.75 30.2H134.55ZM143.383 45.2C142.397 45.2 141.517 45 140.743 44.6C139.983 44.2 139.337 43.6533 138.803 42.96C138.27 42.2533 137.863 41.44 137.583 40.52C137.317 39.6 137.183 38.6267 137.183 37.6C137.183 36.56 137.317 35.58 137.583 34.66C137.863 33.74 138.27 32.9333 138.803 32.24C139.337 31.5333 139.983 30.9867 140.743 30.6C141.517 30.2 142.397 30 143.383 30C144.37 30 145.243 30.2 146.003 30.6C146.777 30.9867 147.43 31.5333 147.963 32.24C148.497 32.9333 148.897 33.74 149.163 34.66C149.443 35.58 149.583 36.56 149.583 37.6C149.583 38.6267 149.443 39.6 149.163 40.52C148.897 41.44 148.497 42.2533 147.963 42.96C147.43 43.6533 146.777 44.2 146.003 44.6C145.243 45 144.37 45.2 143.383 45.2ZM143.383 42.46C144.263 42.46 144.983 42.0533 145.543 41.24C146.117 40.4267 146.403 39.2133 146.403 37.6C146.403 35.9867 146.117 34.7733 145.543 33.96C144.983 33.1467 144.263 32.74 143.383 32.74C142.503 32.74 141.777 33.1467 141.203 33.96C140.643 34.7733 140.363 35.9867 140.363 37.6C140.363 39.2133 140.643 40.4267 141.203 41.24C141.777 42.0533 142.503 42.46 143.383 42.46ZM163.237 45.2C161.997 45.2 160.91 44.9867 159.977 44.56C159.043 44.1333 158.263 43.56 157.637 42.84C157.023 42.1067 156.563 41.2933 156.257 40.4C155.95 39.4933 155.797 38.5667 155.797 37.62C155.797 36.6733 155.95 35.7467 156.257 34.84C156.577 33.9333 157.043 33.12 157.657 32.4C158.283 31.6667 159.07 31.0867 160.017 30.66C160.963 30.22 162.07 30 163.337 30C164.323 30 165.17 30.1267 165.877 30.38C166.597 30.62 167.197 30.94 167.677 31.34C168.157 31.7267 168.537 32.14 168.817 32.58C169.11 33.02 169.33 33.44 169.477 33.84C169.637 34.2267 169.737 34.5467 169.777 34.8C169.83 35.04 169.857 35.16 169.857 35.16H166.797C166.797 35.16 166.757 35.04 166.677 34.8C166.597 34.56 166.437 34.28 166.197 33.96C165.957 33.6267 165.603 33.34 165.137 33.1C164.683 32.8467 164.083 32.72 163.337 32.72C162.363 32.72 161.55 32.96 160.897 33.44C160.257 33.9067 159.77 34.5133 159.437 35.26C159.117 35.9933 158.957 36.76 158.957 37.56C158.957 38.3867 159.123 39.18 159.457 39.94C159.79 40.6867 160.277 41.3 160.917 41.78C161.57 42.2467 162.383 42.48 163.357 42.48C164.423 42.48 165.263 42.2067 165.877 41.66C166.503 41.1133 166.877 40.3733 166.997 39.44H163.157V37.02H170.037V38.16C170.037 39.7067 169.737 41.0067 169.137 42.06C168.55 43.1 167.743 43.8867 166.717 44.42C165.703 44.94 164.543 45.2 163.237 45.2ZM173.757 32.96C173.224 32.96 172.791 32.7933 172.457 32.46C172.124 32.1133 171.957 31.7067 171.957 31.24C171.957 30.7467 172.124 30.3333 172.457 30C172.791 29.6533 173.224 29.48 173.757 29.48C174.264 29.48 174.691 29.6533 175.037 30C175.384 30.3333 175.557 30.7467 175.557 31.24C175.557 31.7067 175.384 32.1133 175.037 32.46C174.691 32.7933 174.264 32.96 173.757 32.96ZM172.237 45V34.4H175.277V45H172.237ZM179.115 45V36.82H177.435V34.4H179.115V33.56C179.115 33.1733 179.169 32.7533 179.275 32.3C179.382 31.8467 179.569 31.4133 179.835 31C180.115 30.5867 180.502 30.2533 180.995 30C181.489 29.7333 182.122 29.6 182.895 29.6C183.322 29.6 183.669 29.6333 183.935 29.7C184.215 29.7533 184.355 29.78 184.355 29.78V31.92C184.355 31.92 184.275 31.9067 184.115 31.88C183.955 31.8533 183.789 31.84 183.615 31.84C183.069 31.84 182.689 32 182.475 32.32C182.262 32.64 182.155 33.0533 182.155 33.56V34.4H184.295V36.82H182.155V45H179.115ZM190.94 45.2C190.114 45.2 189.454 45.08 188.96 44.84C188.467 44.5867 188.094 44.2733 187.84 43.9C187.587 43.5133 187.42 43.1067 187.34 42.68C187.26 42.2533 187.22 41.86 187.22 41.5V36.82H185.42V34.4H187.22V31.78H190.26V34.4H192.52V36.82H190.26V41.42C190.26 41.86 190.374 42.2 190.6 42.44C190.84 42.68 191.234 42.8 191.78 42.8C192.02 42.8 192.24 42.78 192.44 42.74C192.64 42.7 192.74 42.68 192.74 42.68V45.02C192.74 45.02 192.56 45.0467 192.2 45.1C191.84 45.1667 191.42 45.2 190.94 45.2Z" fill="white"/>
<defs>
<filter id="filter0_dd_160_3" x="0" y="0" width="245" height="108" filterUnits="userSpaceOnUse" color-interpolation-filters="sRGB">
<feFlood flood-opacity="0" result="BackgroundImageFix"/>
<feColorMatrix in="SourceAlpha" type="matrix" values="0 0 0 0 0 0 0 0 0 0 0 0 0 0 0 0 0 0 127 0" result="hardAlpha"/>
<feMorphology radius="4" operator="erode" in="SourceAlpha" result="effect1_dropShadow_160_3"/>
<feOffset dy="4"/>
<feGaussianBlur stdDeviation="2"/>
<feComposite in2="hardAlpha" operator="out"/>
<feColorMatrix type="matrix" values="0 0 0 0 0.0470588 0 0 0 0 0.0470588 0 0 0 0 0.0509804 0 0 0 0.05 0"/>
<feBlend mode="normal" in2="BackgroundImageFix" result="effect1_dropShadow_160_3"/>
<feColorMatrix in="SourceAlpha" type="matrix" values="0 0 0 0 0 0 0 0 0 0 0 0 0 0 0 0 0 0 127 0" result="hardAlpha"/>
<feMorphology radius="4" operator="erode" in="SourceAlpha" result="effect2_dropShadow_160_3"/>
<feOffset dy="16"/>
<feGaussianBlur stdDeviation="16"/>
<feComposite in2="hardAlpha" operator="out"/>
<feColorMatrix type="matrix" values="0 0 0 0 0.0470588 0 0 0 0 0.0470588 0 0 0 0 0.0509804 0 0 0 0.1 0"/>
<feBlend mode="normal" in2="effect1_dropShadow_160_3" result="effect2_dropShadow_160_3"/>
<feBlend mode="normal" in="SourceGraphic" in2="effect2_dropShadow_160_3" result="shape"/>
</filter>
<linearGradient id="paint0_linear_160_3" x1="122.5" y1="12" x2="122.5" y2="64" gradientUnits="userSpaceOnUse">
<stop stop-color="#590310"/>
<stop offset="1" stop-color="#EA0025"/>
</linearGradient>
<linearGradient id="paint1_linear_160_3" x1="78.7243" y1="-0.0487805" x2="79.9423" y2="60.2966" gradientUnits="userSpaceOnUse">
<stop stop-color="#8C421D"/>
<stop offset="0.325272" stop-color="#FBE67B"/>
<stop offset="0.535488" stop-color="#FCFBE7"/>
<stop offset="0.769917" stop-color="#F7D14E"/>
<stop offset="1" stop-color="#D4A041"/>
</linearGradient>
</defs>
</svg>
