<svg width="214" height="234" viewBox="0 0 214 234" fill="none" xmlns="http://www.w3.org/2000/svg">
<g style="mix-blend-mode:multiply" opacity="0.4">
<path d="M213.997 79.9811V167.302C213.997 204.146 185.041 234 149.329 234H64.6677C28.9564 234 0 204.146 0 167.302V79.9811C0 55.0365 13.2858 33.2867 32.9573 21.8592C33.0466 21.7906 33.1359 21.7437 33.2357 21.6985C37.683 19.1343 42.4526 17.1007 47.4688 15.6742C47.5581 15.6399 47.6579 15.6164 47.7472 15.593C53.1418 14.087 58.8147 13.2832 64.6662 13.2832H149.329C152.952 13.2832 156.496 13.5938 159.952 14.1915C160.052 14.1915 160.141 14.2149 160.23 14.2384C168.178 15.618 175.622 18.5037 182.288 22.5959C182.388 22.6536 182.489 22.7114 182.579 22.7676C201.404 34.4353 213.998 55.6905 213.998 79.9811H213.997Z" fill="url(#paint0_linear_163_15902)"/>
</g>
<path d="M213.997 79.9811V167.302C213.997 204.146 185.041 234 149.329 234H64.6677C28.9564 234 0 204.146 0 167.302V79.9811C0 55.0365 13.2858 33.2867 32.9573 21.8592C33.0466 21.7906 33.1359 21.7437 33.2357 21.6985C37.683 19.1343 42.4526 17.1007 47.4688 15.6742C47.5581 15.6399 47.6579 15.6164 47.7472 15.593C53.1418 14.087 58.8147 13.2832 64.6662 13.2832H149.329C152.952 13.2832 156.496 13.5938 159.952 14.1915C160.052 14.1915 160.141 14.2149 160.23 14.2384C168.178 15.618 175.622 18.5037 182.288 22.5959C182.388 22.6536 182.489 22.7114 182.579 22.7676C201.404 34.4353 213.998 55.6905 213.998 79.9811H213.997Z" fill="url(#paint1_linear_163_15902)"/>
<path style="mix-blend-mode:screen" d="M213.997 68.0604V155.381C213.997 192.225 185.041 222.079 149.329 222.079H64.6677C28.9564 222.078 0 192.225 0 155.381V68.0604C0 43.1142 13.2858 21.3643 32.9573 9.93843C33.0466 9.86976 33.1359 9.82294 33.2357 9.77768C37.683 7.21345 42.4526 5.17987 47.4688 3.75339C47.5581 3.71905 47.6579 3.69564 47.7472 3.67223C53.1418 2.16616 58.8147 1.36084 64.6662 1.36084H149.329C152.952 1.36084 156.496 1.67142 159.952 2.26917C160.052 2.26917 160.141 2.29258 160.23 2.31443C168.178 3.69408 175.622 6.57981 182.288 10.672C182.388 10.7297 182.489 10.7875 182.579 10.8436C201.404 22.5114 213.998 43.7665 213.998 68.0572L213.997 68.0604Z" fill="url(#paint2_linear_163_15902)"/>
<path d="M213.997 66.6979V154.019C213.997 190.862 185.041 220.717 149.329 220.717H64.6677C28.9564 220.715 0 190.862 0 154.019V66.6979C0 41.7518 13.2858 20.0019 32.9573 8.57603C33.0466 8.50736 33.1359 8.46054 33.2357 8.41528C37.683 5.85105 42.4526 3.81746 47.4688 2.39099C47.5581 2.35665 47.658 2.33324 47.7472 2.30983C53.1433 0.80532 58.8162 0 64.6677 0H149.331C152.953 0 156.497 0.310579 159.953 0.908326C160.053 0.908326 160.143 0.931736 160.232 0.953586C168.179 2.33324 175.624 5.21897 182.29 9.31112C182.389 9.36886 182.491 9.42661 182.58 9.48279C201.406 21.1506 214 42.4057 214 66.6964L213.997 66.6979Z" fill="url(#paint3_linear_163_15902)"/>
<path d="M209.049 68.7209V151.995C209.049 187.126 181.43 215.612 147.368 215.612H66.6288C32.5669 215.612 4.94812 187.126 4.94812 151.995V68.7209C4.94812 46.4076 16.0943 26.774 32.9573 15.4277C33.0466 15.3591 33.1464 15.3013 33.2357 15.2436C37.627 12.3126 42.4087 9.94345 47.4688 8.25477C47.5581 8.20795 47.6579 8.1861 47.7472 8.16269C53.6986 6.18529 60.0404 5.11621 66.6273 5.11621H147.367C151.681 5.11621 155.893 5.57662 159.95 6.43812C160.05 6.46153 160.139 6.48338 160.229 6.50679C168.276 8.2657 175.743 11.6337 182.287 16.2892C182.386 16.3579 182.476 16.4266 182.577 16.4968C198.571 27.9804 209.049 47.0865 209.049 68.7209Z" fill="#D10000"/>
<g style="mix-blend-mode:multiply">
<path d="M147.335 13.2861H66.6606C36.9577 13.2861 12.8788 38.121 12.8788 68.7564V151.963C12.8788 182.599 36.9577 207.434 66.6606 207.434H147.335C177.038 207.434 201.117 182.599 201.117 151.963V68.7564C201.117 38.121 177.038 13.2861 147.335 13.2861Z" fill="#D10000"/>
</g>
<g style="mix-blend-mode:multiply">
<path d="M146.132 22.9937H67.8651C42.6951 22.9937 22.2908 44.0385 22.2908 69.9987V150.723C22.2908 176.683 42.6951 197.728 67.8651 197.728H146.132C171.302 197.728 191.706 176.683 191.706 150.723V69.9987C191.706 44.0385 171.302 22.9937 146.132 22.9937Z" fill="#D10000"/>
</g>
<path d="M108.915 95.4133C107.99 96.6447 106.981 97.6685 105.931 98.4489V103.643C105.931 105.803 107.293 107.545 108.983 107.545C110.673 107.545 111.901 105.879 111.901 103.824V98.4567C110.849 97.667 109.841 96.6447 108.915 95.4133Z" fill="white"/>
<path d="M132.221 85.1298C130.767 81.6791 128.403 78.0021 125.696 74.542C123.897 74.5155 121.98 73.2935 120.197 71.8186C119.02 74.9494 117.188 75.9466 115.758 76.1886C113.479 76.5881 110.949 75.2787 108.913 72.7191C107.114 74.9743 104.937 76.2572 102.885 76.2572C102.608 76.2572 102.339 76.2401 102.069 76.1886C100.632 75.9451 98.8069 74.9478 97.622 71.8186C95.8304 73.2841 93.9147 74.5155 92.1231 74.542C89.416 78.0021 87.0524 81.6791 85.5982 85.1298C83.7567 89.4919 83.681 92.7257 85.3788 94.7296C85.7662 95.1807 86.1853 95.4054 86.7165 95.4413C89.0619 95.588 92.8963 92.0936 94.1659 90.9403C94.4943 90.6375 94.9558 90.5407 95.3855 90.6796C95.8062 90.8185 96.1255 91.1744 96.2269 91.616C96.7988 94.1303 98.0003 97.2174 100.447 97.6435C102.104 97.9291 104.13 96.9068 105.929 94.9809C106.61 94.2614 107.258 93.4108 107.847 92.4573C108.074 92.0749 108.478 91.8502 108.915 91.8502C109.352 91.8502 109.747 92.0749 109.974 92.4573C110.563 93.4202 111.218 94.2692 111.899 94.9887C113.698 96.9052 115.724 97.9291 117.381 97.6419C119.828 97.2174 121.022 94.1303 121.594 91.6145C121.695 91.1728 122.015 90.817 122.443 90.6781C122.864 90.5392 123.325 90.6344 123.653 90.9387C124.923 92.0921 128.765 95.6036 131.103 95.4398C131.632 95.4054 132.061 95.1791 132.441 94.7281C134.138 92.7257 134.063 89.4904 132.221 85.1282V85.1298Z" fill="white"/>
<path d="M91.2167 71.5753C91.4346 71.8094 91.6616 71.9139 91.9567 71.9389C92.1761 71.9483 92.4197 71.9218 92.6709 71.8344C93.8739 71.505 95.378 70.3517 96.4372 69.459C96.8579 69.1031 97.2029 68.7832 97.4374 68.5741C97.7658 68.2697 98.2273 68.1745 98.6571 68.3134C99.0777 68.4523 99.397 68.8082 99.4984 69.2498C100.087 71.8422 101.155 73.3951 102.484 73.6292C104.124 73.9148 106.267 72.3712 107.848 69.7961C108.075 69.4231 108.479 69.189 108.917 69.189C109.354 69.189 109.749 69.4231 109.976 69.7961C111.557 72.3712 113.718 73.907 115.34 73.6292C116.676 73.3951 117.737 71.8422 118.324 69.2498C118.425 68.8082 118.745 68.4523 119.173 68.3134C119.594 68.1745 120.055 68.2697 120.383 68.5741C120.62 68.7816 120.963 69.1031 121.384 69.459C122.452 70.3517 123.956 71.505 125.15 71.8344C125.41 71.9124 125.646 71.9467 125.864 71.9389C126.158 71.9124 126.385 71.8094 126.604 71.5753C126.63 71.5581 126.663 71.5316 126.689 71.4972C128.202 69.7102 127.403 66.6934 126.471 64.4819C125.546 62.2876 124.159 60.0074 122.553 57.813C122.066 58.2813 121.461 58.5419 120.797 58.5856C119.51 58.673 118.156 57.9176 116.886 56.9375C116.163 58.5154 115.196 59.227 114.397 59.5392C114.145 59.6344 113.918 59.6952 113.716 59.7296C113.515 59.7639 113.305 59.7811 113.094 59.7811C112.834 59.7811 112.581 59.7546 112.321 59.7031H112.312C111.447 59.5298 110.589 59.0866 109.782 58.3936C109.487 58.1424 109.193 57.8567 108.917 57.5446C108.64 57.8567 108.354 58.1424 108.059 58.3936C107.243 59.0881 106.377 59.5376 105.51 59.7031C105.031 59.7983 104.569 59.8076 104.106 59.7296C103.905 59.6952 103.678 59.6344 103.425 59.5392C102.626 59.227 101.659 58.5154 100.936 56.9375C99.6739 57.9176 98.3211 58.6714 97.0258 58.5856C96.3616 58.5419 95.7563 58.2828 95.269 57.8224C93.6635 60.0168 92.2759 62.2891 91.3514 64.4819C90.4177 66.6934 89.6188 69.7118 91.141 71.4972C91.1668 71.5316 91.191 71.5581 91.2167 71.5753Z" fill="white"/>
<path d="M96.8911 55.8277C97.0167 55.9666 97.1014 55.9838 97.1937 55.9932C97.6386 56.0103 98.6237 55.6638 100.709 53.7645C101.037 53.4617 101.499 53.3571 101.929 53.496C102.349 53.6349 102.668 53.9986 102.77 54.4418C102.988 55.3876 103.501 56.992 104.527 57.1652C105.494 57.3307 106.855 56.3162 107.848 54.7025C108.075 54.3201 108.479 54.0953 108.916 54.0953C109.354 54.0953 109.749 54.3201 109.976 54.7025C110.976 56.3147 112.338 57.3307 113.297 57.1652C114.331 56.992 114.844 55.3876 115.054 54.4418C115.155 54.0001 115.475 53.6349 115.903 53.496C116.324 53.3571 116.785 53.4617 117.113 53.7645C119.208 55.6638 120.182 56.0103 120.636 55.9932C120.721 55.9838 120.804 55.9666 120.931 55.8277C120.948 55.8106 120.957 55.7934 120.974 55.7762C121.293 55.3689 121.418 54.8476 121.428 54.2936C121.437 53.4523 121.167 52.5237 120.872 51.7527C120.856 51.7184 120.846 51.6841 120.83 51.6482C118.459 45.6816 110.707 38.4759 108.916 38.1887C107.117 38.4743 99.3652 45.6816 97.0031 51.6482C96.9864 51.6825 96.9774 51.7168 96.9607 51.7527C96.6581 52.5253 96.3887 53.4617 96.3978 54.3029C96.4069 54.8585 96.54 55.3689 96.8518 55.7778C96.8684 55.7949 96.8775 55.8121 96.8941 55.8293L96.8911 55.8277Z" fill="white"/>
<path d="M155.665 104.834L156.529 108.784L160.438 108.411L157.063 110.479L158.614 114.198L155.665 111.528L152.714 114.198L154.267 110.479L150.892 108.411L154.801 108.784L155.665 104.834Z" fill="url(#paint4_linear_163_15902)"/>
<path d="M155.79 6.35848V106.104H155.541V6.29761C155.63 6.3179 155.71 6.33819 155.79 6.35848Z" fill="url(#paint5_linear_163_15902)"/>
<path d="M136.381 31.8291L137.245 35.7792L141.153 35.4062L137.779 37.4741L139.332 41.1933L136.381 38.5229L133.432 41.1933L134.983 37.4741L131.608 35.4062L135.517 35.7792L136.381 31.8291Z" fill="url(#paint6_linear_163_15902)"/>
<path d="M136.511 5.11621H136.252V33.1058H136.511V5.11621Z" fill="url(#paint7_linear_163_15902)"/>
<path d="M175.629 60.3757L176.493 64.3259L180.401 63.9528L177.028 66.0208L178.579 69.7399L175.629 67.0696L172.679 69.7399L174.23 66.0208L170.856 63.9528L174.765 64.3259L175.629 60.3757Z" fill="url(#paint8_linear_163_15902)"/>
<path d="M175.759 15.284V61.6492H175.5V15.0999C175.589 15.1607 175.669 15.2231 175.759 15.284Z" fill="url(#paint9_linear_163_15902)"/>
<path d="M76.2617 76.7551L77.1258 80.7037L81.0343 80.3322L77.6599 82.4002L79.2109 86.1193L76.2617 83.4474L73.311 86.1193L74.8635 82.4002L71.4891 80.3322L75.3977 80.7037L76.2617 76.7551Z" fill="url(#paint10_linear_163_15902)"/>
<path d="M76.3904 5.11621H76.1407V78.0335H76.3904V5.11621Z" fill="url(#paint11_linear_163_15902)"/>
<path d="M55.1633 37.446L56.0274 41.3946L59.936 41.0216L56.5615 43.0895L58.1126 46.8087L55.1633 44.1383L52.2126 46.8087L53.7652 43.0895L50.3907 41.0216L54.2993 41.3946L55.1633 37.446Z" fill="url(#paint12_linear_163_15902)"/>
<path d="M55.2861 7.83813V38.7243H55.0364V7.92085C55.1166 7.88027 55.2059 7.85998 55.2861 7.83813Z" fill="url(#paint13_linear_163_15902)"/>
<path d="M42.1923 93.219L43.0563 97.1676L46.9649 96.7946L43.5905 98.8625L45.1415 102.582L42.1923 99.9113L39.2431 102.582L40.7941 98.8625L37.4197 96.7946L41.3282 97.1676L42.1923 93.219Z" fill="url(#paint14_linear_163_15902)"/>
<path d="M42.3194 14.1648V94.4986H42.0697V14.3287C42.1499 14.2678 42.2392 14.2163 42.3194 14.1648Z" fill="url(#paint15_linear_163_15902)"/>
<path style="mix-blend-mode:screen" d="M106.013 5.3562C150.653 5.3562 186.84 39.6166 186.84 81.8787C186.84 124.141 150.653 158.401 106.013 158.401C61.372 158.401 25.1855 124.141 25.1855 81.8787C25.1855 39.6166 61.3675 5.3562 106.013 5.3562Z" fill="url(#paint16_radial_163_15902)"/>
<path style="mix-blend-mode:screen" d="M106.01 5.3562C142.85 5.3562 172.716 39.6166 172.716 81.8787C172.716 124.141 142.85 158.401 106.01 158.401C69.1695 158.401 39.3142 124.141 39.3142 81.8787C39.3142 39.6166 69.171 5.3562 106.01 5.3562Z" fill="url(#paint17_radial_163_15902)"/>
<path d="M69.7345 171.08C70.1398 170.781 70.4598 170.387 70.6945 169.896C70.9292 169.405 71.0465 168.893 71.0465 168.36C71.0465 167.848 70.9292 167.421 70.6945 167.08C70.4812 166.717 70.1612 166.451 69.7345 166.28L67.9425 174.088L68.6785 174.888C69.5105 175.763 70.1825 176.541 70.6945 177.224C71.2278 177.885 71.6652 178.632 72.0065 179.464C72.3692 180.296 72.5505 181.192 72.5505 182.152C72.5505 183.496 72.1878 184.733 71.4625 185.864C70.7372 186.995 69.7558 187.901 68.5185 188.584C67.2812 189.245 65.9158 189.576 64.4225 189.576L63.4945 193.576H61.8945L62.8225 189.48C61.2012 189.224 59.9105 188.595 58.9505 187.592C57.9905 186.589 57.5105 185.352 57.5105 183.88C57.5105 182.621 57.8412 181.587 58.5025 180.776C59.1638 179.965 60.0172 179.56 61.0625 179.56C61.7665 179.56 62.3745 179.763 62.8865 180.168C63.3985 180.552 63.7078 181.053 63.8145 181.672C62.9185 181.672 62.1932 181.939 61.6385 182.472C61.0838 182.984 60.8065 183.667 60.8065 184.52C60.8065 185.267 61.0305 185.885 61.4785 186.376C61.9265 186.867 62.5452 187.165 63.3345 187.272L65.4785 177.8C65.0945 177.352 64.8918 177.117 64.8705 177.096C63.7185 175.731 62.8545 174.568 62.2785 173.608C61.7025 172.627 61.4145 171.571 61.4145 170.44C61.4145 169.331 61.7132 168.339 62.3105 167.464C62.9292 166.568 63.7718 165.864 64.8385 165.352C65.9052 164.84 67.0998 164.584 68.4225 164.584H68.4865L69.2225 161.384H70.8545L70.0865 164.744C71.3452 164.979 72.3265 165.48 73.0305 166.248C73.7558 167.016 74.1185 167.955 74.1185 169.064C74.1185 169.96 73.8945 170.685 73.4465 171.24C72.9985 171.795 72.4118 172.072 71.6865 172.072C70.8758 172.072 70.2252 171.741 69.7345 171.08ZM65.5105 169.352C65.5105 170.376 65.9052 171.443 66.6945 172.552L68.1345 166.184C67.3452 166.312 66.7052 166.664 66.2145 167.24C65.7452 167.816 65.5105 168.52 65.5105 169.352ZM68.2305 183.336C68.2305 182.077 67.7292 180.765 66.7265 179.4L64.9345 187.272C65.9372 187.101 66.7372 186.664 67.3345 185.96C67.9318 185.235 68.2305 184.36 68.2305 183.336ZM79.4898 169.032H76.4498L76.8338 167.56C78.0071 167.56 79.2231 167.4 80.4818 167.08C81.7404 166.76 83.2338 166.088 84.9618 165.064L79.8738 189H75.2658L79.4898 169.032ZM92.0423 189.32C89.6956 189.32 88.0316 188.605 87.0503 187.176C86.0689 185.747 85.5783 183.795 85.5783 181.32C85.5783 178.376 86.0369 175.645 86.9543 173.128C87.8716 170.611 89.1516 168.605 90.7943 167.112C92.4583 165.597 94.3463 164.84 96.4583 164.84C98.5063 164.84 100.042 165.523 101.066 166.888C102.112 168.253 102.634 170.131 102.634 172.52C102.634 174.888 102.272 177.373 101.546 179.976C100.821 182.557 99.6583 184.765 98.0583 186.6C96.4796 188.413 94.4743 189.32 92.0423 189.32ZM92.4583 186.92C93.4609 186.92 94.4103 186.152 95.3063 184.616C96.2023 183.08 96.9169 181.107 97.4503 178.696C98.0049 176.285 98.2823 173.853 98.2823 171.4C98.2823 170.056 98.1223 168.947 97.8023 168.072C97.4823 167.176 97.0236 166.728 96.4263 166.728C95.4449 166.728 94.4849 167.507 93.5463 169.064C92.6076 170.621 91.8396 172.605 91.2423 175.016C90.6449 177.427 90.3463 179.795 90.3463 182.12C90.3463 185.32 91.0503 186.92 92.4583 186.92ZM116.705 195.624C115.147 195.624 113.889 195.219 112.929 194.408C111.99 193.619 111.521 192.573 111.521 191.272C111.521 190.461 111.713 189.715 112.097 189.032C112.481 188.349 113.003 187.816 113.665 187.432C114.326 187.027 115.051 186.824 115.841 186.824C116.651 186.824 117.302 187.027 117.793 187.432C118.305 187.837 118.561 188.371 118.561 189.032C118.561 189.544 118.443 189.949 118.209 190.248C118.017 189.992 117.75 189.789 117.409 189.64C117.089 189.491 116.747 189.416 116.385 189.416C115.745 189.416 115.222 189.629 114.817 190.056C114.411 190.483 114.209 191.037 114.209 191.72C114.209 192.403 114.401 192.957 114.785 193.384C115.19 193.811 115.691 194.024 116.289 194.024C117.035 194.024 117.675 193.693 118.209 193.032C118.742 192.371 119.147 191.389 119.425 190.088L121.025 183.016H120.897C120.321 183.827 119.617 184.445 118.785 184.872C117.974 185.299 117.078 185.512 116.097 185.512C114.859 185.512 113.771 185.181 112.833 184.52C111.894 183.859 111.169 182.92 110.657 181.704C110.166 180.467 109.921 179.037 109.921 177.416C109.921 175.069 110.433 172.936 111.457 171.016C112.481 169.075 113.889 167.549 115.681 166.44C117.473 165.331 119.446 164.776 121.601 164.776C123.414 164.776 124.843 165.171 125.889 165.96C126.955 166.749 127.489 167.827 127.489 169.192C127.489 170.109 127.265 170.845 126.817 171.4C126.369 171.955 125.782 172.232 125.057 172.232C124.651 172.232 124.267 172.147 123.905 171.976C123.563 171.805 123.275 171.56 123.041 171.24C123.425 170.984 123.745 170.579 124.001 170.024C124.278 169.448 124.417 168.872 124.417 168.296C124.417 167.656 124.225 167.165 123.841 166.824C123.478 166.461 122.955 166.28 122.273 166.28C121.035 166.28 119.841 166.835 118.689 167.944C117.537 169.032 116.609 170.461 115.905 172.232C115.201 174.003 114.849 175.859 114.849 177.8C114.849 179.4 115.105 180.627 115.617 181.48C116.129 182.312 116.865 182.728 117.825 182.728C118.977 182.728 119.99 182.12 120.865 180.904C121.761 179.688 122.475 177.917 123.009 175.592L126.785 175.624L124.449 186.376C123.766 189.555 122.795 191.891 121.537 193.384C120.299 194.877 118.689 195.624 116.705 195.624ZM133.157 171.272C132.453 171.272 131.855 171.027 131.365 170.536C130.874 170.045 130.629 169.448 130.629 168.744C130.629 168.04 130.874 167.443 131.365 166.952C131.855 166.44 132.453 166.184 133.157 166.184C133.861 166.184 134.458 166.44 134.949 166.952C135.461 167.443 135.717 168.04 135.717 168.744C135.717 169.448 135.461 170.045 134.949 170.536C134.458 171.027 133.861 171.272 133.157 171.272ZM130.981 189.192C129.957 189.192 129.125 188.872 128.485 188.232C127.866 187.592 127.556 186.632 127.556 185.352C127.556 184.819 127.642 184.125 127.812 183.272L129.989 173H134.597L132.293 183.88C132.207 184.2 132.165 184.541 132.165 184.904C132.165 185.331 132.261 185.64 132.453 185.832C132.666 186.003 133.007 186.088 133.477 186.088C134.095 186.088 134.671 185.832 135.205 185.32C135.738 184.787 136.122 184.104 136.357 183.272H137.701C136.911 185.576 135.898 187.144 134.661 187.976C133.423 188.787 132.197 189.192 130.981 189.192ZM133.432 197C132.429 197 131.554 196.669 130.808 196.008C130.04 195.368 129.656 194.547 129.656 193.544C129.656 192.627 129.89 191.869 130.36 191.272C130.829 190.675 131.448 190.195 132.216 189.832C132.962 189.491 133.954 189.128 135.192 188.744L139.032 170.472C139.458 168.424 140.205 167.005 141.272 166.216C142.36 165.427 143.554 165.032 144.856 165.032C146.157 165.032 147.416 165.213 148.632 165.576C149.869 165.939 151.437 166.493 153.336 167.24L152.12 173H154.04L153.784 174.28H151.832L149.816 183.88C149.73 184.2 149.688 184.541 149.688 184.904C149.688 185.331 149.784 185.64 149.976 185.832C150.189 186.003 150.53 186.088 151 186.088C151.618 186.088 152.194 185.832 152.728 185.32C153.261 184.787 153.645 184.104 153.88 183.272H155.224C154.434 185.576 153.421 187.144 152.184 187.976C150.946 188.787 149.72 189.192 148.504 189.192C147.48 189.192 146.648 188.872 146.008 188.232C145.389 187.592 145.08 186.632 145.08 185.352C145.08 184.819 145.165 184.125 145.336 183.272L147.224 174.28H142.904L139.256 191.56C138.829 193.608 138.072 195.027 136.984 195.816C135.917 196.605 134.733 197 133.432 197ZM147.512 173L148.664 167.56C148.28 167.411 147.81 167.293 147.256 167.208C146.722 167.101 146.317 167.048 146.04 167.048C145.592 167.048 145.165 167.229 144.76 167.592C144.354 167.955 144.056 168.616 143.864 169.576L143.16 173H147.512ZM132.696 194.152C133.08 194.152 133.442 193.949 133.784 193.544C134.125 193.16 134.392 192.531 134.584 191.656L134.968 189.8C133.837 190.184 132.962 190.621 132.344 191.112C131.725 191.624 131.416 192.285 131.416 193.096C131.416 193.352 131.544 193.587 131.8 193.8C132.056 194.035 132.354 194.152 132.696 194.152Z" fill="white"/>
<path d="M21.7933 133.112C20.8599 133.112 20.0573 132.883 19.3853 132.426C18.7133 131.969 18.1999 131.357 17.8453 130.592C17.4999 129.817 17.3273 128.973 17.3273 128.058C17.3273 127.134 17.4999 126.289 17.8453 125.524C18.1999 124.759 18.7133 124.147 19.3853 123.69C20.0573 123.233 20.8599 123.004 21.7933 123.004C22.9319 123.004 23.8653 123.331 24.5933 123.984C25.3213 124.637 25.7973 125.496 26.0213 126.56H24.1453C24.0146 126.019 23.7393 125.575 23.3193 125.23C22.9086 124.875 22.4093 124.698 21.8213 124.698C21.0093 124.698 20.3933 125.006 19.9733 125.622C19.5533 126.238 19.3433 127.05 19.3433 128.058C19.3433 129.066 19.5533 129.878 19.9733 130.494C20.3933 131.11 21.0093 131.418 21.8213 131.418C22.3999 131.418 22.8853 131.255 23.2773 130.928C23.6693 130.592 23.9399 130.177 24.0893 129.682H25.9653C25.7413 130.69 25.2699 131.516 24.5513 132.16C23.8326 132.795 22.9133 133.112 21.7933 133.112ZM27.3823 125.608H29.3003V126.784H29.3983C29.5197 126.457 29.7437 126.182 30.0703 125.958C30.397 125.725 30.817 125.608 31.3303 125.608C31.5263 125.608 31.6943 125.627 31.8343 125.664L31.7503 127.442C31.517 127.377 31.2697 127.344 31.0083 127.344C30.4297 127.344 30.0003 127.498 29.7203 127.806C29.4403 128.105 29.3003 128.604 29.3003 129.304V133H27.3823V125.608ZM36.0034 133.112C35.2287 133.112 34.5754 132.935 34.0434 132.58C33.5114 132.216 33.1147 131.745 32.8534 131.166C32.6014 130.578 32.4754 129.948 32.4754 129.276C32.4754 128.604 32.6014 127.979 32.8534 127.4C33.1147 126.812 33.5114 126.336 34.0434 125.972C34.5754 125.608 35.2334 125.426 36.0174 125.426C37.0534 125.426 37.8747 125.757 38.4814 126.42C39.0974 127.083 39.4054 128.039 39.4054 129.29V129.822H34.3374V129.934C34.3374 130.382 34.4914 130.769 34.7994 131.096C35.1074 131.413 35.4947 131.572 35.9614 131.572C36.3254 131.572 36.6334 131.488 36.8854 131.32C37.1374 131.152 37.3194 130.923 37.4314 130.634H39.3354C39.1394 131.362 38.7567 131.959 38.1874 132.426C37.618 132.883 36.89 133.112 36.0034 133.112ZM37.5434 128.562C37.5247 127.974 37.3754 127.54 37.0954 127.26C36.8154 126.98 36.4467 126.84 35.9894 126.84C35.504 126.84 35.1214 126.994 34.8414 127.302C34.5614 127.61 34.412 128.03 34.3934 128.562H37.5434ZM43.3838 133.112C42.4691 133.112 41.7551 132.762 41.2418 132.062C40.7284 131.362 40.4718 130.438 40.4718 129.29C40.4718 128.123 40.7284 127.19 41.2418 126.49C41.7644 125.781 42.4924 125.426 43.4258 125.426C44.0511 125.426 44.5411 125.571 44.8958 125.86C45.2504 126.14 45.5024 126.439 45.6518 126.756H45.7638V125.608H47.7098V133H45.7638V131.726H45.6518C45.4838 132.071 45.2224 132.389 44.8678 132.678C44.5131 132.967 44.0184 133.112 43.3838 133.112ZM44.0978 131.544C44.6484 131.544 45.0638 131.32 45.3438 130.872C45.6238 130.424 45.7638 129.887 45.7638 129.262C45.7638 128.637 45.6238 128.105 45.3438 127.666C45.0731 127.227 44.6578 127.008 44.0978 127.008C43.5378 127.008 43.1224 127.227 42.8518 127.666C42.5811 128.105 42.4458 128.637 42.4458 129.262C42.4458 129.897 42.5811 130.438 42.8518 130.886C43.1224 131.325 43.5378 131.544 44.0978 131.544ZM52.2741 127.12V130.41C52.2741 130.737 52.2881 130.979 52.3161 131.138C52.3534 131.297 52.4468 131.423 52.5961 131.516C52.7454 131.609 52.9881 131.656 53.3241 131.656C53.5201 131.656 53.7208 131.637 53.9261 131.6V132.944C53.8234 132.963 53.6368 132.986 53.3661 133.014C53.1048 133.042 52.8481 133.056 52.5961 133.056C51.9148 133.056 51.4061 132.958 51.0701 132.762C50.7434 132.557 50.5381 132.305 50.4541 132.006C50.3701 131.698 50.3281 131.306 50.3281 130.83V127.12H49.0961V125.608H50.3421V123.2H52.2741V125.608H53.9261V127.12H52.2741ZM58.6987 133.112C57.924 133.112 57.2707 132.935 56.7387 132.58C56.2067 132.216 55.81 131.745 55.5487 131.166C55.2967 130.578 55.1707 129.948 55.1707 129.276C55.1707 128.604 55.2967 127.979 55.5487 127.4C55.81 126.812 56.2067 126.336 56.7387 125.972C57.2707 125.608 57.9287 125.426 58.7127 125.426C59.7487 125.426 60.57 125.757 61.1767 126.42C61.7927 127.083 62.1007 128.039 62.1007 129.29V129.822H57.0327V129.934C57.0327 130.382 57.1867 130.769 57.4947 131.096C57.8027 131.413 58.19 131.572 58.6567 131.572C59.0207 131.572 59.3287 131.488 59.5807 131.32C59.8327 131.152 60.0147 130.923 60.1267 130.634H62.0307C61.8347 131.362 61.452 131.959 60.8827 132.426C60.3133 132.883 59.5853 133.112 58.6987 133.112ZM60.2387 128.562C60.22 127.974 60.0707 127.54 59.7907 127.26C59.5107 126.98 59.142 126.84 58.6847 126.84C58.1993 126.84 57.8167 126.994 57.5367 127.302C57.2567 127.61 57.1073 128.03 57.0887 128.562H60.2387ZM66.6876 123.2H69.5716L71.7416 129.234H71.7836L73.9536 123.2H76.8376V133H74.9336V125.972H74.8636L72.3996 133H71.1396L68.6616 125.972H68.5916V133H66.6876V123.2ZM81.0498 133.112C80.1351 133.112 79.4211 132.762 78.9078 132.062C78.3945 131.362 78.1378 130.438 78.1378 129.29C78.1378 128.123 78.3945 127.19 78.9078 126.49C79.4305 125.781 80.1585 125.426 81.0918 125.426C81.7171 125.426 82.2071 125.571 82.5618 125.86C82.9165 126.14 83.1685 126.439 83.3178 126.756H83.4298V125.608H85.3758V133H83.4298V131.726H83.3178C83.1498 132.071 82.8885 132.389 82.5338 132.678C82.1791 132.967 81.6845 133.112 81.0498 133.112ZM81.7638 131.544C82.3145 131.544 82.7298 131.32 83.0098 130.872C83.2898 130.424 83.4298 129.887 83.4298 129.262C83.4298 128.637 83.2898 128.105 83.0098 127.666C82.7391 127.227 82.3238 127.008 81.7638 127.008C81.2038 127.008 80.7885 127.227 80.5178 127.666C80.2471 128.105 80.1118 128.637 80.1118 129.262C80.1118 129.897 80.2471 130.438 80.5178 130.886C80.7885 131.325 81.2038 131.544 81.7638 131.544ZM90.6554 136.108C90.3101 136.108 90.0488 136.085 89.8714 136.038C89.6941 136.001 89.5168 135.949 89.3394 135.884V134.33C89.4328 134.358 89.5821 134.386 89.7874 134.414C90.0021 134.451 90.2074 134.47 90.4034 134.47C91.0568 134.47 91.5141 134.283 91.7754 133.91C92.0461 133.546 92.1814 133.089 92.1814 132.538V131.558H92.0694C91.9201 131.894 91.6588 132.207 91.2854 132.496C90.9121 132.785 90.4174 132.93 89.8014 132.93C89.2041 132.93 88.6861 132.776 88.2474 132.468C87.8088 132.151 87.4728 131.712 87.2394 131.152C87.0061 130.583 86.8894 129.929 86.8894 129.192C86.8894 128.436 87.0061 127.778 87.2394 127.218C87.4728 126.649 87.8088 126.21 88.2474 125.902C88.6954 125.585 89.2181 125.426 89.8154 125.426C90.4408 125.426 90.9401 125.58 91.3134 125.888C91.6868 126.187 91.9388 126.504 92.0694 126.84H92.1814V125.608H94.1274V132.538C94.1274 133.014 94.0388 133.518 93.8614 134.05C93.6934 134.591 93.3528 135.067 92.8394 135.478C92.3261 135.898 91.5981 136.108 90.6554 136.108ZM90.5294 131.362C91.0708 131.362 91.4814 131.143 91.7614 130.704C92.0414 130.265 92.1814 129.752 92.1814 129.164C92.1814 128.585 92.0414 128.081 91.7614 127.652C91.4908 127.213 91.0801 126.994 90.5294 126.994C89.9788 126.994 89.5634 127.213 89.2834 127.652C89.0034 128.081 88.8634 128.585 88.8634 129.164C88.8634 129.752 88.9988 130.265 89.2694 130.704C89.5494 131.143 89.9694 131.362 90.5294 131.362ZM95.9507 125.608H97.8827V133H95.9507V125.608ZM96.9027 124.334C96.5947 124.334 96.338 124.231 96.1327 124.026C95.9274 123.811 95.8247 123.555 95.8247 123.256C95.8247 122.948 95.9274 122.691 96.1327 122.486C96.338 122.281 96.5947 122.178 96.9027 122.178C97.2107 122.178 97.4674 122.285 97.6727 122.5C97.878 122.705 97.9807 122.957 97.9807 123.256C97.9807 123.555 97.878 123.811 97.6727 124.026C97.4674 124.231 97.2107 124.334 96.9027 124.334ZM103.023 133.126C102.239 133.126 101.581 132.944 101.049 132.58C100.517 132.216 100.121 131.74 99.8592 131.152C99.6072 130.564 99.4812 129.934 99.4812 129.262C99.4812 128.599 99.6072 127.979 99.8592 127.4C100.121 126.812 100.517 126.336 101.049 125.972C101.581 125.608 102.239 125.426 103.023 125.426C104.013 125.426 104.792 125.711 105.361 126.28C105.94 126.84 106.29 127.549 106.411 128.408H104.521C104.456 127.988 104.297 127.652 104.045 127.4C103.803 127.139 103.467 127.008 103.037 127.008C102.468 127.008 102.048 127.227 101.777 127.666C101.516 128.105 101.385 128.637 101.385 129.262C101.385 129.906 101.516 130.447 101.777 130.886C102.048 131.325 102.468 131.544 103.037 131.544C103.457 131.544 103.793 131.418 104.045 131.166C104.297 130.905 104.456 130.564 104.521 130.144H106.411C106.29 131.003 105.94 131.717 105.361 132.286C104.792 132.846 104.013 133.126 103.023 133.126ZM110.957 123.2H113.211L117.215 130.004H117.243V123.2H119.175V133.014H116.907L112.931 126.406H112.889V133.014H110.957V123.2ZM124.078 133.112C123.303 133.112 122.65 132.939 122.118 132.594C121.595 132.239 121.203 131.773 120.942 131.194C120.68 130.615 120.55 129.981 120.55 129.29C120.55 128.599 120.676 127.965 120.928 127.386C121.189 126.798 121.586 126.327 122.118 125.972C122.65 125.617 123.303 125.44 124.078 125.44C124.852 125.44 125.506 125.617 126.038 125.972C126.57 126.317 126.966 126.779 127.228 127.358C127.489 127.937 127.62 128.571 127.62 129.262C127.62 129.953 127.489 130.592 127.228 131.18C126.966 131.759 126.57 132.225 126.038 132.58C125.506 132.935 124.852 133.112 124.078 133.112ZM124.078 131.544C124.619 131.544 125.025 131.329 125.296 130.9C125.576 130.461 125.716 129.915 125.716 129.262C125.716 128.609 125.576 128.072 125.296 127.652C125.025 127.223 124.619 127.008 124.078 127.008C123.536 127.008 123.13 127.223 122.86 127.652C122.589 128.072 122.454 128.609 122.454 129.262C122.454 129.915 122.589 130.461 122.86 130.9C123.14 131.329 123.546 131.544 124.078 131.544ZM128.377 125.608H130.183L131.443 130.9H131.513L133.011 125.608H134.705L136.245 130.9H136.315L137.533 125.608H139.339L137.449 133H135.111L133.921 128.548H133.823L132.647 133H130.309L128.377 125.608ZM147.189 133.126C146.405 133.126 145.728 132.972 145.159 132.664C144.599 132.347 144.174 131.941 143.885 131.446C143.595 130.951 143.451 130.429 143.451 129.878V129.794H145.579V129.878C145.579 130.111 145.635 130.349 145.747 130.592C145.868 130.825 146.05 131.021 146.293 131.18C146.545 131.339 146.853 131.418 147.217 131.418C147.674 131.418 148.043 131.301 148.323 131.068C148.612 130.835 148.757 130.522 148.757 130.13C148.757 129.794 148.635 129.528 148.393 129.332C148.159 129.127 147.87 128.991 147.525 128.926L146.335 128.674C145.719 128.553 145.126 128.291 144.557 127.89C143.987 127.479 143.703 126.812 143.703 125.888C143.703 125.291 143.847 124.777 144.137 124.348C144.426 123.909 144.827 123.578 145.341 123.354C145.854 123.121 146.437 123.004 147.091 123.004C147.837 123.004 148.477 123.149 149.009 123.438C149.55 123.727 149.956 124.101 150.227 124.558C150.507 125.015 150.647 125.501 150.647 126.014V126.07H148.519V126.028C148.519 125.692 148.397 125.379 148.155 125.09C147.921 124.791 147.543 124.642 147.021 124.642C146.591 124.642 146.255 124.759 146.013 124.992C145.77 125.216 145.649 125.505 145.649 125.86C145.649 126.196 145.77 126.462 146.013 126.658C146.265 126.854 146.573 126.989 146.937 127.064L148.113 127.316C148.831 127.475 149.457 127.769 149.989 128.198C150.521 128.627 150.787 129.257 150.787 130.088C150.787 130.685 150.633 131.217 150.325 131.684C150.017 132.141 149.587 132.496 149.037 132.748C148.495 133 147.879 133.126 147.189 133.126ZM154.868 127.12V130.41C154.868 130.737 154.882 130.979 154.91 131.138C154.947 131.297 155.041 131.423 155.19 131.516C155.339 131.609 155.582 131.656 155.918 131.656C156.114 131.656 156.315 131.637 156.52 131.6V132.944C156.417 132.963 156.231 132.986 155.96 133.014C155.699 133.042 155.442 133.056 155.19 133.056C154.509 133.056 154 132.958 153.664 132.762C153.337 132.557 153.132 132.305 153.048 132.006C152.964 131.698 152.922 131.306 152.922 130.83V127.12H151.69V125.608H152.936V123.2H154.868V125.608H156.52V127.12H154.868ZM160.606 133.112C159.692 133.112 158.978 132.762 158.464 132.062C157.951 131.362 157.694 130.438 157.694 129.29C157.694 128.123 157.951 127.19 158.464 126.49C158.987 125.781 159.715 125.426 160.648 125.426C161.274 125.426 161.764 125.571 162.118 125.86C162.473 126.14 162.725 126.439 162.874 126.756H162.986V125.608H164.932V133H162.986V131.726H162.874C162.706 132.071 162.445 132.389 162.09 132.678C161.736 132.967 161.241 133.112 160.606 133.112ZM161.32 131.544C161.871 131.544 162.286 131.32 162.566 130.872C162.846 130.424 162.986 129.887 162.986 129.262C162.986 128.637 162.846 128.105 162.566 127.666C162.296 127.227 161.88 127.008 161.32 127.008C160.76 127.008 160.345 127.227 160.074 127.666C159.804 128.105 159.668 128.637 159.668 129.262C159.668 129.897 159.804 130.438 160.074 130.886C160.345 131.325 160.76 131.544 161.32 131.544ZM166.685 125.608H168.603V126.784H168.701C168.822 126.457 169.046 126.182 169.373 125.958C169.7 125.725 170.12 125.608 170.633 125.608C170.829 125.608 170.997 125.627 171.137 125.664L171.053 127.442C170.82 127.377 170.572 127.344 170.311 127.344C169.732 127.344 169.303 127.498 169.023 127.806C168.743 128.105 168.603 128.604 168.603 129.304V133H166.685V125.608ZM174.815 127.12V130.41C174.815 130.737 174.829 130.979 174.857 131.138C174.894 131.297 174.988 131.423 175.137 131.516C175.286 131.609 175.529 131.656 175.865 131.656C176.061 131.656 176.262 131.637 176.467 131.6V132.944C176.364 132.963 176.178 132.986 175.907 133.014C175.646 133.042 175.389 133.056 175.137 133.056C174.456 133.056 173.947 132.958 173.611 132.762C173.284 132.557 173.079 132.305 172.995 132.006C172.911 131.698 172.869 131.306 172.869 130.83V127.12H171.637V125.608H172.883V123.2H174.815V125.608H176.467V127.12H174.815ZM178.16 125.608H180.092V133H178.16V125.608ZM179.112 124.334C178.804 124.334 178.547 124.231 178.342 124.026C178.136 123.811 178.034 123.555 178.034 123.256C178.034 122.948 178.136 122.691 178.342 122.486C178.547 122.281 178.804 122.178 179.112 122.178C179.42 122.178 179.676 122.285 179.882 122.5C180.087 122.705 180.19 122.957 180.19 123.256C180.19 123.555 180.087 123.811 179.882 124.026C179.676 124.231 179.42 124.334 179.112 124.334ZM182.01 125.608H183.97V126.742H184.068C184.236 126.378 184.507 126.07 184.88 125.818C185.253 125.557 185.706 125.426 186.238 125.426C187.199 125.426 187.876 125.734 188.268 126.35C188.669 126.966 188.87 127.666 188.87 128.45V133H186.938V128.772C186.938 128.231 186.807 127.806 186.546 127.498C186.294 127.19 185.935 127.036 185.468 127.036C184.973 127.036 184.6 127.199 184.348 127.526C184.096 127.843 183.97 128.259 183.97 128.772V133H182.01V125.608ZM193.987 136.108C193.642 136.108 193.381 136.085 193.203 136.038C193.026 136.001 192.849 135.949 192.671 135.884V134.33C192.765 134.358 192.914 134.386 193.119 134.414C193.334 134.451 193.539 134.47 193.735 134.47C194.389 134.47 194.846 134.283 195.107 133.91C195.378 133.546 195.513 133.089 195.513 132.538V131.558H195.401C195.252 131.894 194.991 132.207 194.617 132.496C194.244 132.785 193.749 132.93 193.133 132.93C192.536 132.93 192.018 132.776 191.579 132.468C191.141 132.151 190.805 131.712 190.571 131.152C190.338 130.583 190.221 129.929 190.221 129.192C190.221 128.436 190.338 127.778 190.571 127.218C190.805 126.649 191.141 126.21 191.579 125.902C192.027 125.585 192.55 125.426 193.147 125.426C193.773 125.426 194.272 125.58 194.645 125.888C195.019 126.187 195.271 126.504 195.401 126.84H195.513V125.608H197.459V132.538C197.459 133.014 197.371 133.518 197.193 134.05C197.025 134.591 196.685 135.067 196.171 135.478C195.658 135.898 194.93 136.108 193.987 136.108ZM193.861 131.362C194.403 131.362 194.813 131.143 195.093 130.704C195.373 130.265 195.513 129.752 195.513 129.164C195.513 128.585 195.373 128.081 195.093 127.652C194.823 127.213 194.412 126.994 193.861 126.994C193.311 126.994 192.895 127.213 192.615 127.652C192.335 128.081 192.195 128.585 192.195 129.164C192.195 129.752 192.331 130.265 192.601 130.704C192.881 131.143 193.301 131.362 193.861 131.362ZM68.2517 143.2H70.1977L71.8917 150.466H71.9757L74.2157 143.2H75.9097L78.1497 150.466H78.2337L79.9417 143.2H81.8877L79.3677 153.014H77.0297L75.1117 146.672H75.0277L73.1097 153.014H70.7717L68.2517 143.2ZM83.065 145.608H84.997V153H83.065V145.608ZM84.017 144.334C83.709 144.334 83.4523 144.231 83.247 144.026C83.0416 143.811 82.939 143.555 82.939 143.256C82.939 142.948 83.0416 142.691 83.247 142.486C83.4523 142.281 83.709 142.178 84.017 142.178C84.325 142.178 84.5816 142.285 84.787 142.5C84.9923 142.705 85.095 142.957 85.095 143.256C85.095 143.555 84.9923 143.811 84.787 144.026C84.5816 144.231 84.325 144.334 84.017 144.334ZM89.5915 147.12V150.41C89.5915 150.737 89.6055 150.979 89.6335 151.138C89.6708 151.297 89.7642 151.423 89.9135 151.516C90.0628 151.609 90.3055 151.656 90.6415 151.656C90.8375 151.656 91.0382 151.637 91.2435 151.6V152.944C91.1408 152.963 90.9542 152.986 90.6835 153.014C90.4222 153.042 90.1655 153.056 89.9135 153.056C89.2322 153.056 88.7235 152.958 88.3875 152.762C88.0608 152.557 87.8555 152.305 87.7715 152.006C87.6875 151.698 87.6455 151.306 87.6455 150.83V147.12H86.4135V145.608H87.6595V143.2H89.5915V145.608H91.2435V147.12H89.5915ZM92.7531 142.598H94.7131V146.742H94.8111C94.9791 146.378 95.2497 146.07 95.6231 145.818C95.9964 145.557 96.4491 145.426 96.9811 145.426C97.9424 145.426 98.6191 145.734 99.0111 146.35C99.4124 146.966 99.6131 147.666 99.6131 148.45V153H97.6811V148.772C97.6811 148.231 97.5504 147.806 97.2891 147.498C97.0371 147.19 96.6731 147.036 96.1971 147.036C95.7304 147.036 95.3664 147.195 95.1051 147.512C94.8437 147.829 94.7131 148.249 94.7131 148.772V153H92.7531V142.598ZM108.658 153.112C107.697 153.112 106.875 152.893 106.194 152.454C105.522 152.006 105.013 151.404 104.668 150.648C104.332 149.883 104.164 149.033 104.164 148.1C104.164 147.157 104.337 146.303 104.682 145.538C105.027 144.763 105.536 144.147 106.208 143.69C106.889 143.233 107.706 143.004 108.658 143.004C109.61 143.004 110.422 143.233 111.094 143.69C111.766 144.138 112.275 144.749 112.62 145.524C112.965 146.289 113.138 147.148 113.138 148.1C113.138 149.043 112.965 149.897 112.62 150.662C112.275 151.418 111.761 152.015 111.08 152.454C110.408 152.893 109.601 153.112 108.658 153.112ZM108.658 151.376C109.423 151.376 110.016 151.068 110.436 150.452C110.856 149.827 111.066 149.033 111.066 148.072C111.066 147.456 110.973 146.896 110.786 146.392C110.609 145.888 110.338 145.487 109.974 145.188C109.61 144.889 109.171 144.74 108.658 144.74C108.145 144.74 107.701 144.894 107.328 145.202C106.964 145.501 106.689 145.902 106.502 146.406C106.315 146.91 106.222 147.47 106.222 148.086C106.222 149.029 106.432 149.813 106.852 150.438C107.281 151.063 107.883 151.376 108.658 151.376ZM114.546 145.608H116.506V146.742H116.604C116.772 146.378 117.043 146.07 117.416 145.818C117.789 145.557 118.242 145.426 118.774 145.426C119.735 145.426 120.412 145.734 120.804 146.35C121.205 146.966 121.406 147.666 121.406 148.45V153H119.474V148.772C119.474 148.231 119.343 147.806 119.082 147.498C118.83 147.19 118.471 147.036 118.004 147.036C117.509 147.036 117.136 147.199 116.884 147.526C116.632 147.843 116.506 148.259 116.506 148.772V153H114.546V145.608ZM125.416 153.056C124.725 153.056 124.212 152.953 123.876 152.748C123.549 152.533 123.344 152.272 123.26 151.964C123.185 151.647 123.148 151.245 123.148 150.76V142.5H125.08V150.368C125.08 150.704 125.094 150.956 125.122 151.124C125.159 151.283 125.253 151.413 125.402 151.516C125.561 151.609 125.808 151.656 126.144 151.656C126.256 151.656 126.387 151.647 126.536 151.628V152.972C126.06 153.028 125.687 153.056 125.416 153.056ZM130.912 154.05C130.781 154.395 130.641 154.699 130.492 154.96C130.342 155.231 130.076 155.492 129.694 155.744C129.32 155.996 128.826 156.122 128.21 156.122C127.948 156.122 127.724 156.099 127.538 156.052C127.351 156.015 127.234 155.991 127.188 155.982V154.624C127.337 154.661 127.538 154.68 127.79 154.68C128.098 154.68 128.345 154.629 128.532 154.526C128.718 154.423 128.868 154.288 128.98 154.12C129.092 153.952 129.204 153.719 129.316 153.42L129.554 152.832L126.894 145.608H128.854L130.45 150.69H130.534L132.214 145.608H134.174L130.912 154.05ZM143.881 150.592H140.521L139.737 153H137.777L141.305 143.2H143.125L146.639 153H144.679L143.881 150.592ZM143.391 149.094L142.229 145.608H142.145L141.011 149.094H143.391Z" fill="white"/>
<defs>
<linearGradient id="paint0_linear_163_15902" x1="173.156" y1="54.5184" x2="-59.8046" y2="283.36" gradientUnits="userSpaceOnUse">
<stop stop-color="#FFD86E"/>
<stop offset="0.08" stop-color="#FFE682"/>
<stop offset="0.2" stop-color="#FFF79A"/>
<stop offset="0.3" stop-color="#F8E284"/>
<stop offset="0.4" stop-color="#F2CB6C"/>
<stop offset="0.41" stop-color="#F0C96A"/>
<stop offset="0.55" stop-color="#C08E37"/>
<stop offset="0.62" stop-color="#AE7723"/>
<stop offset="0.65" stop-color="#96611B"/>
<stop offset="0.69" stop-color="#814D14"/>
<stop offset="0.72" stop-color="#7A4712"/>
<stop offset="0.76" stop-color="#88561C"/>
<stop offset="0.85" stop-color="#AE8036"/>
<stop offset="0.96" stop-color="#EBC260"/>
<stop offset="1" stop-color="#FFD86E"/>
</linearGradient>
<linearGradient id="paint1_linear_163_15902" x1="173.156" y1="54.5184" x2="-59.8046" y2="283.36" gradientUnits="userSpaceOnUse">
<stop stop-color="#FFD86E"/>
<stop offset="0.08" stop-color="#FFE682"/>
<stop offset="0.2" stop-color="#FFF79A"/>
<stop offset="0.3" stop-color="#F8E284"/>
<stop offset="0.4" stop-color="#F2CB6C"/>
<stop offset="0.41" stop-color="#F0C96A"/>
<stop offset="0.55" stop-color="#C08E37"/>
<stop offset="0.62" stop-color="#AE7723"/>
<stop offset="0.65" stop-color="#96611B"/>
<stop offset="0.69" stop-color="#814D14"/>
<stop offset="0.72" stop-color="#7A4712"/>
<stop offset="0.76" stop-color="#88561C"/>
<stop offset="0.85" stop-color="#AE8036"/>
<stop offset="0.96" stop-color="#EBC260"/>
<stop offset="1" stop-color="#FFD86E"/>
</linearGradient>
<linearGradient id="paint2_linear_163_15902" x1="78.9386" y1="218.738" x2="138.007" y2="6.97276" gradientUnits="userSpaceOnUse">
<stop stop-color="#FFD86E"/>
<stop offset="0.08" stop-color="#FFE682"/>
<stop offset="0.2" stop-color="#FFF79A"/>
<stop offset="0.3" stop-color="#F8E284"/>
<stop offset="0.4" stop-color="#F2CB6C"/>
<stop offset="0.41" stop-color="#F0C96A"/>
<stop offset="0.55" stop-color="#C08E37"/>
<stop offset="0.62" stop-color="#AE7723"/>
<stop offset="0.65" stop-color="#96611B"/>
<stop offset="0.69" stop-color="#814D14"/>
<stop offset="0.72" stop-color="#7A4712"/>
<stop offset="0.76" stop-color="#88561C"/>
<stop offset="0.85" stop-color="#AE8036"/>
<stop offset="0.96" stop-color="#EBC260"/>
<stop offset="1" stop-color="#FFD86E"/>
</linearGradient>
<linearGradient id="paint3_linear_163_15902" x1="78.9386" y1="217.375" x2="138.007" y2="5.61035" gradientUnits="userSpaceOnUse">
<stop stop-color="#FFD86E"/>
<stop offset="0.08" stop-color="#FFE682"/>
<stop offset="0.2" stop-color="#FFF79A"/>
<stop offset="0.3" stop-color="#F8E284"/>
<stop offset="0.4" stop-color="#F2CB6C"/>
<stop offset="0.41" stop-color="#F0C96A"/>
<stop offset="0.55" stop-color="#C08E37"/>
<stop offset="0.62" stop-color="#AE7723"/>
<stop offset="0.65" stop-color="#96611B"/>
<stop offset="0.69" stop-color="#814D14"/>
<stop offset="0.72" stop-color="#7A4712"/>
<stop offset="0.76" stop-color="#88561C"/>
<stop offset="0.85" stop-color="#AE8036"/>
<stop offset="0.96" stop-color="#EBC260"/>
<stop offset="1" stop-color="#FFD86E"/>
</linearGradient>
<linearGradient id="paint4_linear_163_15902" x1="136.09" y1="33.365" x2="182.504" y2="200.64" gradientUnits="userSpaceOnUse">
<stop stop-color="#FFD86E"/>
<stop offset="0.08" stop-color="#FFE682"/>
<stop offset="0.2" stop-color="#FFF79A"/>
<stop offset="0.3" stop-color="#F8E284"/>
<stop offset="0.4" stop-color="#F2CB6C"/>
<stop offset="0.41" stop-color="#F0C96A"/>
<stop offset="0.55" stop-color="#C08E37"/>
<stop offset="0.62" stop-color="#AE7723"/>
<stop offset="0.65" stop-color="#96611B"/>
<stop offset="0.69" stop-color="#814D14"/>
<stop offset="0.72" stop-color="#7A4712"/>
<stop offset="0.76" stop-color="#88561C"/>
<stop offset="0.85" stop-color="#AE8036"/>
<stop offset="0.96" stop-color="#EBC260"/>
<stop offset="1" stop-color="#FFD86E"/>
</linearGradient>
<linearGradient id="paint5_linear_163_15902" x1="148.783" y1="29.8423" x2="195.196" y2="197.118" gradientUnits="userSpaceOnUse">
<stop stop-color="#FFD86E"/>
<stop offset="0.08" stop-color="#FFE682"/>
<stop offset="0.2" stop-color="#FFF79A"/>
<stop offset="0.3" stop-color="#F8E284"/>
<stop offset="0.4" stop-color="#F2CB6C"/>
<stop offset="0.41" stop-color="#F0C96A"/>
<stop offset="0.55" stop-color="#C08E37"/>
<stop offset="0.62" stop-color="#AE7723"/>
<stop offset="0.65" stop-color="#96611B"/>
<stop offset="0.69" stop-color="#814D14"/>
<stop offset="0.72" stop-color="#7A4712"/>
<stop offset="0.76" stop-color="#88561C"/>
<stop offset="0.85" stop-color="#AE8036"/>
<stop offset="0.96" stop-color="#EBC260"/>
<stop offset="1" stop-color="#FFD86E"/>
</linearGradient>
<linearGradient id="paint6_linear_163_15902" x1="135.865" y1="33.4273" x2="182.279" y2="200.702" gradientUnits="userSpaceOnUse">
<stop stop-color="#FFD86E"/>
<stop offset="0.08" stop-color="#FFE682"/>
<stop offset="0.2" stop-color="#FFF79A"/>
<stop offset="0.3" stop-color="#F8E284"/>
<stop offset="0.4" stop-color="#F2CB6C"/>
<stop offset="0.41" stop-color="#F0C96A"/>
<stop offset="0.55" stop-color="#C08E37"/>
<stop offset="0.62" stop-color="#AE7723"/>
<stop offset="0.65" stop-color="#96611B"/>
<stop offset="0.69" stop-color="#814D14"/>
<stop offset="0.72" stop-color="#7A4712"/>
<stop offset="0.76" stop-color="#88561C"/>
<stop offset="0.85" stop-color="#AE8036"/>
<stop offset="0.96" stop-color="#EBC260"/>
<stop offset="1" stop-color="#FFD86E"/>
</linearGradient>
<linearGradient id="paint7_linear_163_15902" x1="139.828" y1="32.327" x2="186.241" y2="199.602" gradientUnits="userSpaceOnUse">
<stop stop-color="#FFD86E"/>
<stop offset="0.08" stop-color="#FFE682"/>
<stop offset="0.2" stop-color="#FFF79A"/>
<stop offset="0.3" stop-color="#F8E284"/>
<stop offset="0.4" stop-color="#F2CB6C"/>
<stop offset="0.41" stop-color="#F0C96A"/>
<stop offset="0.55" stop-color="#C08E37"/>
<stop offset="0.62" stop-color="#AE7723"/>
<stop offset="0.65" stop-color="#96611B"/>
<stop offset="0.69" stop-color="#814D14"/>
<stop offset="0.72" stop-color="#7A4712"/>
<stop offset="0.76" stop-color="#88561C"/>
<stop offset="0.85" stop-color="#AE8036"/>
<stop offset="0.96" stop-color="#EBC260"/>
<stop offset="1" stop-color="#FFD86E"/>
</linearGradient>
<linearGradient id="paint8_linear_163_15902" x1="165.52" y1="25.1976" x2="211.934" y2="192.474" gradientUnits="userSpaceOnUse">
<stop stop-color="#FFD86E"/>
<stop offset="0.08" stop-color="#FFE682"/>
<stop offset="0.2" stop-color="#FFF79A"/>
<stop offset="0.3" stop-color="#F8E284"/>
<stop offset="0.4" stop-color="#F2CB6C"/>
<stop offset="0.41" stop-color="#F0C96A"/>
<stop offset="0.55" stop-color="#C08E37"/>
<stop offset="0.62" stop-color="#AE7723"/>
<stop offset="0.65" stop-color="#96611B"/>
<stop offset="0.69" stop-color="#814D14"/>
<stop offset="0.72" stop-color="#7A4712"/>
<stop offset="0.76" stop-color="#88561C"/>
<stop offset="0.85" stop-color="#AE8036"/>
<stop offset="0.96" stop-color="#EBC260"/>
<stop offset="1" stop-color="#FFD86E"/>
</linearGradient>
<linearGradient id="paint9_linear_163_15902" x1="171.72" y1="23.4777" x2="218.133" y2="190.754" gradientUnits="userSpaceOnUse">
<stop stop-color="#FFD86E"/>
<stop offset="0.08" stop-color="#FFE682"/>
<stop offset="0.2" stop-color="#FFF79A"/>
<stop offset="0.3" stop-color="#F8E284"/>
<stop offset="0.4" stop-color="#F2CB6C"/>
<stop offset="0.41" stop-color="#F0C96A"/>
<stop offset="0.55" stop-color="#C08E37"/>
<stop offset="0.62" stop-color="#AE7723"/>
<stop offset="0.65" stop-color="#96611B"/>
<stop offset="0.69" stop-color="#814D14"/>
<stop offset="0.72" stop-color="#7A4712"/>
<stop offset="0.76" stop-color="#88561C"/>
<stop offset="0.85" stop-color="#AE8036"/>
<stop offset="0.96" stop-color="#EBC260"/>
<stop offset="1" stop-color="#FFD86E"/>
</linearGradient>
<linearGradient id="paint10_linear_163_15902" x1="68.8758" y1="52.0134" x2="115.29" y2="219.29" gradientUnits="userSpaceOnUse">
<stop stop-color="#FFD86E"/>
<stop offset="0.08" stop-color="#FFE682"/>
<stop offset="0.2" stop-color="#FFF79A"/>
<stop offset="0.3" stop-color="#F8E284"/>
<stop offset="0.4" stop-color="#F2CB6C"/>
<stop offset="0.41" stop-color="#F0C96A"/>
<stop offset="0.55" stop-color="#C08E37"/>
<stop offset="0.62" stop-color="#AE7723"/>
<stop offset="0.65" stop-color="#96611B"/>
<stop offset="0.69" stop-color="#814D14"/>
<stop offset="0.72" stop-color="#7A4712"/>
<stop offset="0.76" stop-color="#88561C"/>
<stop offset="0.85" stop-color="#AE8036"/>
<stop offset="0.96" stop-color="#EBC260"/>
<stop offset="1" stop-color="#FFD86E"/>
</linearGradient>
<linearGradient id="paint11_linear_163_15902" x1="78.3046" y1="49.3979" x2="124.719" y2="216.674" gradientUnits="userSpaceOnUse">
<stop stop-color="#FFD86E"/>
<stop offset="0.08" stop-color="#FFE682"/>
<stop offset="0.2" stop-color="#FFF79A"/>
<stop offset="0.3" stop-color="#F8E284"/>
<stop offset="0.4" stop-color="#F2CB6C"/>
<stop offset="0.41" stop-color="#F0C96A"/>
<stop offset="0.55" stop-color="#C08E37"/>
<stop offset="0.62" stop-color="#AE7723"/>
<stop offset="0.65" stop-color="#96611B"/>
<stop offset="0.69" stop-color="#814D14"/>
<stop offset="0.72" stop-color="#7A4712"/>
<stop offset="0.76" stop-color="#88561C"/>
<stop offset="0.85" stop-color="#AE8036"/>
<stop offset="0.96" stop-color="#EBC260"/>
<stop offset="1" stop-color="#FFD86E"/>
</linearGradient>
<linearGradient id="paint12_linear_163_15902" x1="58.7617" y1="54.8197" x2="105.176" y2="222.095" gradientUnits="userSpaceOnUse">
<stop stop-color="#FFD86E"/>
<stop offset="0.08" stop-color="#FFE682"/>
<stop offset="0.2" stop-color="#FFF79A"/>
<stop offset="0.3" stop-color="#F8E284"/>
<stop offset="0.4" stop-color="#F2CB6C"/>
<stop offset="0.41" stop-color="#F0C96A"/>
<stop offset="0.55" stop-color="#C08E37"/>
<stop offset="0.62" stop-color="#AE7723"/>
<stop offset="0.65" stop-color="#96611B"/>
<stop offset="0.69" stop-color="#814D14"/>
<stop offset="0.72" stop-color="#7A4712"/>
<stop offset="0.76" stop-color="#88561C"/>
<stop offset="0.85" stop-color="#AE8036"/>
<stop offset="0.96" stop-color="#EBC260"/>
<stop offset="1" stop-color="#FFD86E"/>
</linearGradient>
<linearGradient id="paint13_linear_163_15902" x1="63.0759" y1="53.6227" x2="109.49" y2="220.899" gradientUnits="userSpaceOnUse">
<stop stop-color="#FFD86E"/>
<stop offset="0.08" stop-color="#FFE682"/>
<stop offset="0.2" stop-color="#FFF79A"/>
<stop offset="0.3" stop-color="#F8E284"/>
<stop offset="0.4" stop-color="#F2CB6C"/>
<stop offset="0.41" stop-color="#F0C96A"/>
<stop offset="0.55" stop-color="#C08E37"/>
<stop offset="0.62" stop-color="#AE7723"/>
<stop offset="0.65" stop-color="#96611B"/>
<stop offset="0.69" stop-color="#814D14"/>
<stop offset="0.72" stop-color="#7A4712"/>
<stop offset="0.76" stop-color="#88561C"/>
<stop offset="0.85" stop-color="#AE8036"/>
<stop offset="0.96" stop-color="#EBC260"/>
<stop offset="1" stop-color="#FFD86E"/>
</linearGradient>
<linearGradient id="paint14_linear_163_15902" x1="33.101" y1="61.9395" x2="79.5149" y2="229.216" gradientUnits="userSpaceOnUse">
<stop stop-color="#FFD86E"/>
<stop offset="0.08" stop-color="#FFE682"/>
<stop offset="0.2" stop-color="#FFF79A"/>
<stop offset="0.3" stop-color="#F8E284"/>
<stop offset="0.4" stop-color="#F2CB6C"/>
<stop offset="0.41" stop-color="#F0C96A"/>
<stop offset="0.55" stop-color="#C08E37"/>
<stop offset="0.62" stop-color="#AE7723"/>
<stop offset="0.65" stop-color="#96611B"/>
<stop offset="0.69" stop-color="#814D14"/>
<stop offset="0.72" stop-color="#7A4712"/>
<stop offset="0.76" stop-color="#88561C"/>
<stop offset="0.85" stop-color="#AE8036"/>
<stop offset="0.96" stop-color="#EBC260"/>
<stop offset="1" stop-color="#FFD86E"/>
</linearGradient>
<linearGradient id="paint15_linear_163_15902" x1="43.4316" y1="59.0739" x2="89.8448" y2="226.349" gradientUnits="userSpaceOnUse">
<stop stop-color="#FFD86E"/>
<stop offset="0.08" stop-color="#FFE682"/>
<stop offset="0.2" stop-color="#FFF79A"/>
<stop offset="0.3" stop-color="#F8E284"/>
<stop offset="0.4" stop-color="#F2CB6C"/>
<stop offset="0.41" stop-color="#F0C96A"/>
<stop offset="0.55" stop-color="#C08E37"/>
<stop offset="0.62" stop-color="#AE7723"/>
<stop offset="0.65" stop-color="#96611B"/>
<stop offset="0.69" stop-color="#814D14"/>
<stop offset="0.72" stop-color="#7A4712"/>
<stop offset="0.76" stop-color="#88561C"/>
<stop offset="0.85" stop-color="#AE8036"/>
<stop offset="0.96" stop-color="#EBC260"/>
<stop offset="1" stop-color="#FFD86E"/>
</linearGradient>
<radialGradient id="paint16_radial_163_15902" cx="0" cy="0" r="1" gradientUnits="userSpaceOnUse" gradientTransform="translate(112.531 79.1047) rotate(-90) scale(76.8589 80.6443)">
<stop stop-color="#FFB900"/>
<stop offset="0.03" stop-color="#FF7D00"/>
<stop offset="0.07" stop-color="#D36700"/>
<stop offset="0.13" stop-color="#A24F00"/>
<stop offset="0.18" stop-color="#763A00"/>
<stop offset="0.24" stop-color="#522800"/>
<stop offset="0.3" stop-color="#341900"/>
<stop offset="0.37" stop-color="#1D0E00"/>
<stop offset="0.43" stop-color="#0C0600"/>
<stop offset="0.51" stop-color="#030100"/>
<stop offset="0.61"/>
</radialGradient>
<radialGradient id="paint17_radial_163_15902" cx="0" cy="0" r="1" gradientUnits="userSpaceOnUse" gradientTransform="translate(121.304 79.1047) rotate(-90) scale(76.8544 66.349)">
<stop stop-color="#FFB900"/>
<stop offset="0.03" stop-color="#FF7D00"/>
<stop offset="0.04" stop-color="#F57800"/>
<stop offset="0.08" stop-color="#C76200"/>
<stop offset="0.12" stop-color="#9C4C00"/>
<stop offset="0.17" stop-color="#773A00"/>
<stop offset="0.22" stop-color="#562A00"/>
<stop offset="0.28" stop-color="#3B1D00"/>
<stop offset="0.34" stop-color="#251200"/>
<stop offset="0.42" stop-color="#140A00"/>
<stop offset="0.51" stop-color="#080400"/>
<stop offset="0.64" stop-color="#010000"/>
<stop offset="1"/>
</radialGradient>
</defs>
</svg>
