<svg width="196" height="44" viewBox="0 0 196 44" fill="none" xmlns="http://www.w3.org/2000/svg">
<path d="M192.046 1H3.04639L29.5464 23.5L3.04639 43H192.046L164.046 23.5L192.046 1Z" fill="url(#paint0_linear_162_2)" stroke="url(#paint1_linear_162_2)" stroke-width="2"/>
<path d="M38.1822 35.968C37.0462 35.968 36.1662 35.656 35.5422 35.032C34.9342 34.424 34.6302 33.608 34.6302 32.584C34.6302 31.72 34.8942 30.968 35.4222 30.328C35.9502 29.688 36.6622 29.368 37.5582 29.368C38.2462 29.368 38.8062 29.472 39.2382 29.68C39.6862 29.872 39.9102 30.304 39.9102 30.976C39.9102 31.264 39.8622 31.584 39.7662 31.936C39.4782 31.696 39.2302 31.528 39.0222 31.432C38.8142 31.352 38.5822 31.312 38.3262 31.312C37.7982 31.312 37.3822 31.488 37.0782 31.84C36.7902 32.192 36.6462 32.608 36.6462 33.088C36.6462 33.648 36.8142 34.064 37.1502 34.336C37.4862 34.624 37.8622 34.768 38.2782 34.768C38.6622 34.768 38.9822 34.688 39.2382 34.528C39.5102 34.384 39.7502 34.096 39.9582 33.664C40.1662 33.248 40.3662 32.632 40.5582 31.816L44.3262 14.68C43.2542 15.112 42.4222 15.776 41.8302 16.672C41.2382 17.568 40.9422 18.656 40.9422 19.936C40.9422 20.528 40.9982 20.944 41.1102 21.184C41.2222 21.408 41.2782 21.536 41.2782 21.568C40.4142 21.568 39.7662 21.392 39.3342 21.04C38.9182 20.672 38.7102 20.072 38.7102 19.24C38.7102 18.216 39.1262 17.224 39.9582 16.264C40.8062 15.288 41.8862 14.504 43.1982 13.912C44.5102 13.304 45.8222 13 47.1342 13H48.0942L44.4942 30.04C44.0782 32.008 43.3902 33.488 42.4302 34.48C41.4702 35.472 40.0542 35.968 38.1822 35.968ZM50.5934 31.096C49.4094 31.096 48.4734 30.792 47.7854 30.184C47.0974 29.576 46.7534 28.616 46.7534 27.304C46.7534 26.216 46.9774 25.008 47.4254 23.68C47.8734 22.352 48.5934 21.208 49.5854 20.248C50.5774 19.272 51.8254 18.784 53.3294 18.784C55.3774 18.784 56.4014 20.064 56.4014 22.624V22.648C56.4494 22.664 56.5374 22.672 56.6654 22.672C57.1934 22.672 57.8014 22.536 58.4894 22.264C59.1774 21.976 59.8014 21.632 60.3614 21.232L60.5774 21.88C60.1134 22.376 59.5054 22.8 58.7534 23.152C58.0174 23.488 57.2094 23.728 56.3294 23.872C56.2014 25.328 55.8734 26.6 55.3454 27.688C54.8174 28.776 54.1374 29.616 53.3054 30.208C52.4734 30.8 51.5694 31.096 50.5934 31.096ZM51.5534 28.936C51.9374 28.936 52.3214 28.72 52.7054 28.288C53.0894 27.84 53.4254 27.24 53.7134 26.488C54.0014 25.72 54.2094 24.872 54.3374 23.944C53.9054 23.848 53.6894 23.512 53.6894 22.936C53.6894 22.28 53.9374 21.848 54.4334 21.64C54.4014 21.112 54.3214 20.752 54.1934 20.56C54.0654 20.352 53.8414 20.248 53.5214 20.248C52.9934 20.248 52.4814 20.632 51.9854 21.4C51.4894 22.168 51.0894 23.088 50.7854 24.16C50.4814 25.232 50.3294 26.176 50.3294 26.992C50.3294 27.76 50.4174 28.28 50.5934 28.552C50.7694 28.808 51.0894 28.936 51.5534 28.936ZM61.6442 17.704C61.1162 17.704 60.6682 17.52 60.3002 17.152C59.9322 16.784 59.7482 16.336 59.7482 15.808C59.7482 15.28 59.9322 14.832 60.3002 14.464C60.6682 14.08 61.1162 13.888 61.6442 13.888C62.1722 13.888 62.6202 14.08 62.9882 14.464C63.3722 14.832 63.5642 15.28 63.5642 15.808C63.5642 16.336 63.3722 16.784 62.9882 17.152C62.6202 17.52 62.1722 17.704 61.6442 17.704ZM60.0122 31.144C59.2442 31.144 58.6202 30.904 58.1402 30.424C57.6762 29.944 57.4442 29.224 57.4442 28.264C57.4442 27.864 57.5082 27.344 57.6362 26.704L59.2682 19H62.7242L60.9962 27.16C60.9322 27.4 60.9002 27.656 60.9002 27.928C60.9002 28.248 60.9722 28.48 61.1162 28.624C61.2762 28.752 61.5322 28.816 61.8842 28.816C62.3482 28.816 62.7802 28.624 63.1802 28.24C63.5802 27.84 63.8682 27.328 64.0442 26.704H65.0522C64.4602 28.432 63.7002 29.608 62.7722 30.232C61.8442 30.84 60.9242 31.144 60.0122 31.144ZM72.2907 31.144C71.4427 31.144 70.8267 30.888 70.4427 30.376C70.0587 29.864 69.8667 29.216 69.8667 28.432C69.8667 28.096 69.9067 27.72 69.9867 27.304C70.0667 26.872 70.1467 26.456 70.2267 26.056C70.3227 25.656 70.3867 25.4 70.4187 25.288C70.5467 24.728 70.6667 24.176 70.7787 23.632C70.8907 23.088 70.9467 22.648 70.9467 22.312C70.9467 21.496 70.6587 21.088 70.0827 21.088C69.6667 21.088 69.2987 21.296 68.9787 21.712C68.6587 22.112 68.4027 22.64 68.2107 23.296L66.5787 31H63.1227L65.6667 19H69.1227L68.8587 20.248C69.6587 19.352 70.5947 18.904 71.6667 18.904C72.4827 18.904 73.1307 19.128 73.6107 19.576C74.0907 20.024 74.3307 20.704 74.3307 21.616C74.3307 22.08 74.2747 22.6 74.1627 23.176C74.0507 23.736 73.8907 24.424 73.6827 25.24C73.5547 25.736 73.4347 26.224 73.3227 26.704C73.2267 27.168 73.1787 27.536 73.1787 27.808C73.1787 28.128 73.2507 28.376 73.3947 28.552C73.5387 28.728 73.7867 28.816 74.1387 28.816C74.5227 28.816 74.7867 28.768 74.9307 28.672C74.8347 29.488 74.5387 30.104 74.0427 30.52C73.5627 30.936 72.9787 31.144 72.2907 31.144ZM86.0882 14.608C84.9522 15.04 84.0722 15.712 83.4482 16.624C82.8242 17.52 82.5122 18.624 82.5122 19.936C82.5122 20.528 82.5682 20.944 82.6802 21.184C82.7922 21.408 82.8482 21.536 82.8482 21.568C81.9842 21.568 81.3362 21.392 80.9042 21.04C80.4882 20.672 80.2802 20.072 80.2802 19.24C80.2802 18.216 80.6962 17.224 81.5282 16.264C82.3762 15.288 83.4562 14.504 84.7682 13.912C86.0802 13.304 87.3922 13 88.7042 13C88.9282 13 89.2482 13.016 89.6642 13.048L89.8802 27.808L94.9202 13.12H97.9682L98.1842 27.808L103.224 13.12H104.904L98.2322 31H94.7762L94.4882 18.784L89.9282 31H86.4722L86.0882 14.608ZM107.23 17.704C106.702 17.704 106.254 17.52 105.886 17.152C105.518 16.784 105.334 16.336 105.334 15.808C105.334 15.28 105.518 14.832 105.886 14.464C106.254 14.08 106.702 13.888 107.23 13.888C107.758 13.888 108.206 14.08 108.574 14.464C108.958 14.832 109.15 15.28 109.15 15.808C109.15 16.336 108.958 16.784 108.574 17.152C108.206 17.52 107.758 17.704 107.23 17.704ZM105.598 31.144C104.83 31.144 104.206 30.904 103.726 30.424C103.262 29.944 103.03 29.224 103.03 28.264C103.03 27.864 103.094 27.344 103.222 26.704L104.854 19H108.31L106.582 27.16C106.518 27.4 106.486 27.656 106.486 27.928C106.486 28.248 106.558 28.48 106.702 28.624C106.862 28.752 107.118 28.816 107.47 28.816C107.934 28.816 108.366 28.624 108.766 28.24C109.166 27.84 109.454 27.328 109.63 26.704H110.638C110.046 28.432 109.286 29.608 108.358 30.232C107.43 30.84 106.51 31.144 105.598 31.144ZM111.997 31.144C111.229 31.144 110.605 30.904 110.125 30.424C109.661 29.944 109.429 29.224 109.429 28.264C109.429 27.864 109.493 27.344 109.621 26.704L111.061 19.96H110.269L110.461 19H111.253L111.973 15.688L115.525 15.208L114.709 19H116.149L115.957 19.96H114.517L112.981 27.16C112.917 27.4 112.885 27.656 112.885 27.928C112.885 28.248 112.957 28.48 113.101 28.624C113.261 28.752 113.517 28.816 113.869 28.816C114.333 28.816 114.765 28.624 115.165 28.24C115.565 27.84 115.853 27.328 116.029 26.704H117.037C116.445 28.432 115.685 29.608 114.757 30.232C113.829 30.84 112.909 31.144 111.997 31.144ZM124.251 31.144C123.403 31.144 122.787 30.888 122.403 30.376C122.019 29.864 121.827 29.216 121.827 28.432C121.827 28.096 121.867 27.72 121.947 27.304C122.027 26.872 122.107 26.456 122.187 26.056C122.283 25.656 122.347 25.4 122.379 25.288C122.507 24.728 122.627 24.176 122.739 23.632C122.851 23.088 122.907 22.648 122.907 22.312C122.907 21.496 122.619 21.088 122.043 21.088C121.659 21.088 121.307 21.264 120.987 21.616C120.683 21.968 120.435 22.432 120.243 23.008L118.539 31H115.083L118.563 14.68L122.115 14.2L120.819 20.224C121.619 19.344 122.555 18.904 123.627 18.904C124.443 18.904 125.091 19.128 125.571 19.576C126.051 20.024 126.291 20.704 126.291 21.616C126.291 22.08 126.235 22.6 126.123 23.176C126.011 23.736 125.851 24.424 125.643 25.24C125.515 25.736 125.395 26.224 125.283 26.704C125.187 27.168 125.139 27.536 125.139 27.808C125.139 28.128 125.211 28.376 125.355 28.552C125.499 28.728 125.747 28.816 126.099 28.816C126.483 28.816 126.747 28.768 126.891 28.672C126.795 29.488 126.499 30.104 126.003 30.52C125.523 30.936 124.939 31.144 124.251 31.144ZM140.617 31.168C139.033 31.168 137.833 30.784 137.017 30.016C136.217 29.232 135.817 28.08 135.817 26.56C135.817 25.808 135.929 24.968 136.153 24.04L138.601 14.296C137.225 14.664 136.153 15.32 135.385 16.264C134.617 17.192 134.233 18.216 134.233 19.336C134.233 20.12 134.441 20.88 134.857 21.616C133.945 21.616 133.233 21.392 132.721 20.944C132.225 20.496 131.977 19.864 131.977 19.048C131.977 18.008 132.393 17.016 133.225 16.072C134.073 15.112 135.193 14.344 136.585 13.768C137.977 13.192 139.449 12.904 141.001 12.904C141.545 12.904 141.993 12.944 142.345 13.024L139.417 24.112C139.145 25.12 139.009 25.984 139.009 26.704C139.009 28.224 139.633 28.984 140.881 28.984C142.673 28.984 143.913 27.336 144.601 24.04L147.001 12.952H150.385L148.057 24.04C147.545 26.392 146.657 28.168 145.393 29.368C144.145 30.568 142.553 31.168 140.617 31.168ZM152.013 31.144C151.245 31.144 150.597 31 150.069 30.712C149.541 30.408 149.149 30.024 148.893 29.56C148.637 29.08 148.509 28.584 148.509 28.072C148.509 27.544 148.637 27.088 148.893 26.704C149.133 26.304 149.429 26.016 149.781 25.84C150.405 24.72 150.949 23.592 151.413 22.456C151.877 21.304 152.317 20.064 152.733 18.736L156.285 18.256C156.365 20.304 156.501 22.52 156.693 24.904C156.773 25.864 156.813 26.56 156.813 26.992C156.813 27.968 156.565 28.768 156.069 29.392C155.573 30.016 154.957 30.464 154.221 30.736C153.501 31.008 152.765 31.144 152.013 31.144ZM151.245 29.248C151.837 29.248 152.333 29.072 152.733 28.72C153.133 28.368 153.333 27.8 153.333 27.016C153.333 26.536 153.285 25.864 153.189 25C153.029 23.176 152.925 21.952 152.877 21.328C152.493 22.592 151.845 24.104 150.933 25.864C151.301 26.056 151.485 26.336 151.485 26.704C151.485 27.008 151.381 27.28 151.173 27.52C150.981 27.76 150.733 27.88 150.429 27.88C150.093 27.88 149.877 27.776 149.781 27.568C149.781 28.144 149.893 28.568 150.117 28.84C150.357 29.112 150.733 29.248 151.245 29.248Z" fill="white"/>
<defs>
<linearGradient id="paint0_linear_162_2" x1="97.5464" y1="1" x2="97.5464" y2="43" gradientUnits="userSpaceOnUse">
<stop stop-color="#7A0010"/>
<stop offset="1" stop-color="#B3002D"/>
</linearGradient>
<linearGradient id="paint1_linear_162_2" x1="53.7707" y1="-8.73171" x2="54.5654" y2="40.0157" gradientUnits="userSpaceOnUse">
<stop stop-color="#8C421D"/>
<stop offset="0.325272" stop-color="#FBE67B"/>
<stop offset="0.535488" stop-color="#FCFBE7"/>
<stop offset="0.769917" stop-color="#F7D14E"/>
<stop offset="1" stop-color="#D4A041"/>
</linearGradient>
</defs>
</svg>
