<svg width="589" height="44" viewBox="0 0 589 44" fill="none" xmlns="http://www.w3.org/2000/svg">
<path d="M588.263 1H0.263275L82.7077 23.5L0.263275 43H588.263L501.152 23.5L588.263 1Z" fill="url(#paint0_linear_0_1)" stroke="url(#paint1_linear_0_1)" stroke-width="2"/>
<path d="M96.8234 32.736C96.2314 32.736 95.7114 32.688 95.2634 32.592C94.8154 32.496 94.4234 32.264 94.0874 31.896C93.7674 31.528 93.6074 30.96 93.6074 30.192C93.6074 29.12 93.9274 27.68 94.5674 25.872C95.2234 24.064 96.0794 22.248 97.1354 20.424C96.3354 20.472 95.7034 20.592 95.2394 20.784C94.7754 20.976 94.4714 21.272 94.3274 21.672C94.3914 21.672 94.4554 21.752 94.5194 21.912C94.5994 22.072 94.6394 22.24 94.6394 22.416C94.6394 22.704 94.5114 22.936 94.2554 23.112C93.9994 23.272 93.6794 23.352 93.2954 23.352C92.8474 23.352 92.4874 23.232 92.2154 22.992C91.9434 22.752 91.8074 22.408 91.8074 21.96C91.8074 21.416 92.0154 20.92 92.4314 20.472C92.8634 20.024 93.4554 19.672 94.2074 19.416C94.9594 19.144 95.7914 19.008 96.7034 19.008C97.0394 19.008 97.4554 19.032 97.9514 19.08C99.2634 17 100.647 15.304 102.103 13.992C103.575 12.664 104.975 12 106.303 12C107.071 12 107.703 12.112 108.199 12.336L104.431 30H100.975L102.823 21.288C102.231 21.016 101.687 20.816 101.191 20.688C100.695 20.56 100.167 20.472 99.6074 20.424C98.6954 22.392 97.9434 24.408 97.3514 26.472C96.7754 28.52 96.4874 30.16 96.4874 31.392C96.4874 32 96.5994 32.448 96.8234 32.736ZM104.431 13.704C103.743 14.072 103.023 14.76 102.271 15.768C101.535 16.76 100.815 17.968 100.111 19.392C101.263 19.616 102.239 19.896 103.039 20.232L104.431 13.704ZM118.538 30.384C116.73 30.384 115.402 29.928 114.554 29.016C113.706 28.104 113.282 26.592 113.282 24.48C113.282 22.8 113.562 20.992 114.122 19.056C114.698 17.12 115.61 15.464 116.858 14.088C118.122 12.696 119.722 12 121.658 12C122.858 12 123.826 12.264 124.562 12.792C125.298 13.32 125.666 14.128 125.666 15.216C125.666 15.904 125.53 16.448 125.258 16.848C124.986 17.232 124.562 17.424 123.986 17.424C123.41 17.424 122.954 17.216 122.618 16.8C122.906 16.656 123.162 16.368 123.386 15.936C123.61 15.504 123.722 15.056 123.722 14.592C123.722 14.16 123.602 13.808 123.362 13.536C123.138 13.264 122.77 13.128 122.258 13.128C121.41 13.128 120.602 13.712 119.834 14.88C119.066 16.032 118.442 17.488 117.962 19.248C117.498 21.008 117.266 22.704 117.266 24.336C117.266 25.552 117.474 26.48 117.89 27.12C118.306 27.76 119.058 28.08 120.146 28.08C121.09 28.08 121.962 27.872 122.762 27.456C123.562 27.04 124.25 26.448 124.826 25.68L125.378 25.92C124.978 26.928 124.386 27.768 123.602 28.44C122.818 29.112 121.978 29.608 121.082 29.928C120.186 30.232 119.338 30.384 118.538 30.384ZM133.419 30.144C132.443 30.144 131.723 29.888 131.259 29.376C130.811 28.848 130.587 28.2 130.587 27.432C130.587 27.096 130.627 26.72 130.707 26.304C130.787 25.872 130.867 25.456 130.947 25.056C131.043 24.656 131.107 24.4 131.139 24.288C131.267 23.728 131.387 23.176 131.499 22.632C131.611 22.088 131.667 21.648 131.667 21.312C131.667 20.496 131.379 20.088 130.803 20.088C130.387 20.088 130.019 20.296 129.699 20.712C129.379 21.112 129.123 21.64 128.931 22.296L127.299 30H123.843L127.323 13.68L130.875 13.2L129.579 19.248C130.379 18.352 131.315 17.904 132.387 17.904C133.203 17.904 133.851 18.128 134.331 18.576C134.811 19.024 135.051 19.704 135.051 20.616C135.051 21.08 134.995 21.6 134.883 22.176C134.771 22.736 134.611 23.424 134.403 24.24C134.275 24.736 134.155 25.224 134.043 25.704C133.947 26.168 133.899 26.536 133.899 26.808C133.899 27.128 133.971 27.376 134.115 27.552C134.259 27.728 134.507 27.816 134.859 27.816C135.339 27.816 135.723 27.648 136.011 27.312C136.299 26.96 136.587 26.424 136.875 25.704H137.883C137.291 27.464 136.603 28.648 135.819 29.256C135.051 29.848 134.251 30.144 133.419 30.144ZM138.505 18H141.961L141.649 19.488C142.193 19.008 142.681 18.64 143.113 18.384C143.561 18.128 144.041 18 144.553 18C145.065 18 145.465 18.176 145.753 18.528C146.057 18.88 146.209 19.304 146.209 19.8C146.209 20.264 146.057 20.672 145.753 21.024C145.449 21.376 145.025 21.552 144.481 21.552C144.129 21.552 143.889 21.472 143.761 21.312C143.649 21.136 143.561 20.888 143.497 20.568C143.449 20.36 143.401 20.208 143.353 20.112C143.305 20.016 143.217 19.968 143.089 19.968C142.753 19.968 142.465 20.04 142.225 20.184C142.001 20.312 141.705 20.544 141.337 20.88L139.417 30H135.961L138.505 18ZM149.904 16.704C149.376 16.704 148.928 16.52 148.56 16.152C148.192 15.784 148.008 15.336 148.008 14.808C148.008 14.28 148.192 13.832 148.56 13.464C148.928 13.08 149.376 12.888 149.904 12.888C150.432 12.888 150.88 13.08 151.248 13.464C151.632 13.832 151.824 14.28 151.824 14.808C151.824 15.336 151.632 15.784 151.248 16.152C150.88 16.52 150.432 16.704 149.904 16.704ZM148.272 30.144C147.504 30.144 146.88 29.904 146.4 29.424C145.936 28.944 145.704 28.224 145.704 27.264C145.704 26.864 145.768 26.344 145.896 25.704L147.528 18H150.984L149.256 26.16C149.192 26.4 149.16 26.656 149.16 26.928C149.16 27.248 149.232 27.48 149.376 27.624C149.536 27.752 149.792 27.816 150.144 27.816C150.608 27.816 151.04 27.624 151.44 27.24C151.84 26.84 152.128 26.328 152.304 25.704H153.312C152.72 27.432 151.96 28.608 151.032 29.232C150.104 29.84 149.184 30.144 148.272 30.144ZM155.031 30.144C154.263 30.144 153.615 30 153.087 29.712C152.559 29.408 152.167 29.024 151.911 28.56C151.655 28.08 151.527 27.584 151.527 27.072C151.527 26.544 151.655 26.088 151.911 25.704C152.151 25.304 152.447 25.016 152.799 24.84C153.423 23.72 153.967 22.592 154.431 21.456C154.895 20.304 155.335 19.064 155.751 17.736L159.303 17.256C159.383 19.304 159.519 21.52 159.711 23.904C159.791 24.864 159.831 25.56 159.831 25.992C159.831 26.36 159.799 26.664 159.735 26.904C160.487 26.472 161.063 26.072 161.463 25.704H162.471C161.447 26.888 160.223 27.888 158.799 28.704C158.335 29.2 157.759 29.568 157.071 29.808C156.399 30.032 155.719 30.144 155.031 30.144ZM154.263 28.248C154.855 28.248 155.351 28.072 155.751 27.72C156.151 27.368 156.351 26.8 156.351 26.016C156.351 25.536 156.303 24.864 156.207 24C156.047 22.176 155.943 20.952 155.895 20.328C155.511 21.592 154.863 23.104 153.951 24.864C154.319 25.056 154.503 25.336 154.503 25.704C154.503 26.008 154.399 26.28 154.191 26.52C153.999 26.76 153.751 26.88 153.447 26.88C153.111 26.88 152.895 26.776 152.799 26.568C152.799 27.144 152.911 27.568 153.135 27.84C153.375 28.112 153.751 28.248 154.263 28.248ZM163.835 30.144C163.067 30.144 162.443 29.904 161.963 29.424C161.499 28.944 161.267 28.224 161.267 27.264C161.267 26.864 161.331 26.344 161.459 25.704L162.899 18.96H162.107L162.299 18H163.091L163.811 14.688L167.363 14.208L166.547 18H167.987L167.795 18.96H166.355L164.819 26.16C164.755 26.4 164.723 26.656 164.723 26.928C164.723 27.248 164.795 27.48 164.939 27.624C165.099 27.752 165.355 27.816 165.707 27.816C166.171 27.816 166.603 27.624 167.003 27.24C167.403 26.84 167.691 26.328 167.867 25.704H168.875C168.283 27.432 167.523 28.608 166.595 29.232C165.667 29.84 164.747 30.144 163.835 30.144ZM182.449 30.144C181.473 30.144 180.753 29.888 180.289 29.376C179.841 28.848 179.617 28.2 179.617 27.432C179.617 27.096 179.657 26.72 179.737 26.304C179.817 25.872 179.897 25.456 179.977 25.056C180.073 24.656 180.137 24.4 180.169 24.288C180.297 23.728 180.417 23.176 180.529 22.632C180.641 22.088 180.697 21.648 180.697 21.312C180.697 20.496 180.409 20.088 179.833 20.088C179.417 20.088 179.049 20.296 178.729 20.712C178.409 21.112 178.153 21.64 177.961 22.296L176.329 30H172.873L174.625 21.72C174.673 21.528 174.697 21.328 174.697 21.12C174.697 20.416 174.457 20.064 173.977 20.064C173.529 20.064 173.137 20.272 172.801 20.688C172.481 21.088 172.225 21.624 172.033 22.296L170.401 30H166.945L169.489 18H172.945L172.681 19.248C173.497 18.336 174.473 17.88 175.609 17.88C177.017 17.88 177.841 18.568 178.081 19.944C178.961 18.584 180.073 17.904 181.417 17.904C182.233 17.904 182.881 18.128 183.361 18.576C183.841 19.024 184.081 19.704 184.081 20.616C184.081 21.08 184.025 21.6 183.913 22.176C183.801 22.736 183.641 23.424 183.433 24.24C183.305 24.736 183.185 25.224 183.073 25.704C182.977 26.168 182.929 26.536 182.929 26.808C182.929 27.128 183.001 27.376 183.145 27.552C183.289 27.728 183.537 27.816 183.889 27.816C184.369 27.816 184.753 27.648 185.041 27.312C185.329 26.96 185.617 26.424 185.905 25.704H186.913C186.321 27.464 185.633 28.648 184.849 29.256C184.081 29.848 183.281 30.144 182.449 30.144ZM188.784 30.144C187.872 30.144 187.112 29.832 186.504 29.208C185.896 28.584 185.592 27.608 185.592 26.28C185.592 25.096 185.824 23.856 186.288 22.56C186.768 21.248 187.472 20.144 188.4 19.248C189.344 18.336 190.464 17.88 191.76 17.88C192.416 17.88 192.904 17.992 193.224 18.216C193.544 18.44 193.704 18.736 193.704 19.104V19.272L193.968 18H197.424L195.696 26.16C195.632 26.4 195.6 26.656 195.6 26.928C195.6 27.616 195.928 27.96 196.584 27.96C197.032 27.96 197.416 27.752 197.736 27.336C198.072 26.92 198.336 26.376 198.528 25.704H199.536C198.944 27.432 198.208 28.608 197.328 29.232C196.464 29.84 195.592 30.144 194.712 30.144C194.04 30.144 193.496 29.96 193.08 29.592C192.68 29.208 192.44 28.656 192.36 27.936C191.896 28.592 191.376 29.128 190.8 29.544C190.24 29.944 189.568 30.144 188.784 30.144ZM190.344 27.816C190.744 27.816 191.136 27.632 191.52 27.264C191.92 26.88 192.192 26.36 192.336 25.704L193.488 20.28C193.488 20.072 193.408 19.872 193.248 19.68C193.088 19.472 192.84 19.368 192.504 19.368C191.864 19.368 191.288 19.744 190.776 20.496C190.264 21.232 189.864 22.128 189.576 23.184C189.288 24.224 189.144 25.144 189.144 25.944C189.144 26.744 189.256 27.256 189.48 27.48C189.72 27.704 190.008 27.816 190.344 27.816ZM201.273 30.144C200.505 30.144 199.857 30 199.329 29.712C198.801 29.408 198.409 29.024 198.153 28.56C197.897 28.08 197.769 27.584 197.769 27.072C197.769 26.544 197.897 26.088 198.153 25.704C198.393 25.304 198.689 25.016 199.041 24.84C199.665 23.72 200.209 22.592 200.673 21.456C201.137 20.304 201.577 19.064 201.993 17.736L205.545 17.256C205.625 19.304 205.761 21.52 205.953 23.904C206.033 24.864 206.073 25.56 206.073 25.992C206.073 26.968 205.825 27.768 205.329 28.392C204.833 29.016 204.217 29.464 203.481 29.736C202.761 30.008 202.025 30.144 201.273 30.144ZM200.505 28.248C201.097 28.248 201.593 28.072 201.993 27.72C202.393 27.368 202.593 26.8 202.593 26.016C202.593 25.536 202.545 24.864 202.449 24C202.289 22.176 202.185 20.952 202.137 20.328C201.753 21.592 201.105 23.104 200.193 24.864C200.561 25.056 200.745 25.336 200.745 25.704C200.745 26.008 200.641 26.28 200.433 26.52C200.241 26.76 199.993 26.88 199.689 26.88C199.353 26.88 199.137 26.776 199.041 26.568C199.041 27.144 199.153 27.568 199.377 27.84C199.617 28.112 199.993 28.248 200.505 28.248ZM219.038 13.512C217.822 13.912 216.878 14.576 216.206 15.504C215.55 16.416 215.222 17.552 215.222 18.912C215.222 19.52 215.278 19.936 215.39 20.16C215.502 20.384 215.558 20.52 215.558 20.568C213.846 20.568 212.99 19.84 212.99 18.384C212.99 17.392 213.366 16.4 214.118 15.408C214.886 14.4 215.862 13.584 217.046 12.96C218.246 12.32 219.438 12 220.622 12C221.214 12 221.822 12.112 222.446 12.336L221.894 24.984L227.174 12.336H230.63L228.11 30H224.654L226.19 19.224L221.678 30H218.39L218.87 19.176L214.862 30H212.942L219.038 13.512ZM233.656 30.144C232.472 30.144 231.552 29.84 230.896 29.232C230.24 28.608 229.912 27.64 229.912 26.328C229.912 25.224 230.128 24.008 230.56 22.68C230.992 21.352 231.696 20.208 232.672 19.248C233.648 18.272 234.888 17.784 236.392 17.784C238.152 17.784 239.032 18.552 239.032 20.088C239.032 20.984 238.776 21.808 238.264 22.56C237.752 23.312 237.072 23.92 236.224 24.384C235.376 24.832 234.472 25.088 233.512 25.152C233.48 25.632 233.464 25.952 233.464 26.112C233.464 26.896 233.6 27.432 233.872 27.72C234.144 27.992 234.584 28.128 235.192 28.128C236.056 28.128 236.792 27.928 237.4 27.528C238.024 27.128 238.704 26.52 239.44 25.704H240.256C238.48 28.664 236.28 30.144 233.656 30.144ZM233.704 24C234.296 23.968 234.856 23.76 235.384 23.376C235.928 22.992 236.36 22.504 236.68 21.912C237.016 21.32 237.184 20.696 237.184 20.04C237.184 19.384 236.984 19.056 236.584 19.056C236.008 19.056 235.44 19.56 234.88 20.568C234.336 21.576 233.944 22.72 233.704 24ZM242.171 30.144C241.403 30.144 240.755 30 240.227 29.712C239.699 29.408 239.307 29.024 239.051 28.56C238.795 28.08 238.667 27.584 238.667 27.072C238.667 26.544 238.795 26.088 239.051 25.704C239.291 25.304 239.587 25.016 239.939 24.84C240.563 23.72 241.107 22.592 241.571 21.456C242.035 20.304 242.475 19.064 242.891 17.736L246.443 17.256C246.523 19.304 246.659 21.52 246.851 23.904C246.931 24.864 246.971 25.56 246.971 25.992C246.971 26.36 246.939 26.664 246.875 26.904C247.627 26.472 248.203 26.072 248.603 25.704H249.611C248.587 26.888 247.363 27.888 245.939 28.704C245.475 29.2 244.899 29.568 244.211 29.808C243.539 30.032 242.859 30.144 242.171 30.144ZM241.403 28.248C241.995 28.248 242.491 28.072 242.891 27.72C243.291 27.368 243.491 26.8 243.491 26.016C243.491 25.536 243.443 24.864 243.347 24C243.187 22.176 243.083 20.952 243.035 20.328C242.651 21.592 242.003 23.104 241.091 24.864C241.459 25.056 241.643 25.336 241.643 25.704C241.643 26.008 241.539 26.28 241.331 26.52C241.139 26.76 240.891 26.88 240.587 26.88C240.251 26.88 240.035 26.776 239.939 26.568C239.939 27.144 240.051 27.568 240.275 27.84C240.515 28.112 240.891 28.248 241.403 28.248ZM251.335 30.144C250.567 30.144 249.919 30 249.391 29.712C248.863 29.408 248.471 29.024 248.215 28.56C247.959 28.08 247.831 27.584 247.831 27.072C247.831 26.544 247.959 26.088 248.215 25.704C248.455 25.304 248.751 25.016 249.103 24.84C249.727 23.72 250.271 22.592 250.735 21.456C251.199 20.304 251.639 19.064 252.055 17.736L255.607 17.256C255.687 19.304 255.823 21.52 256.015 23.904C256.095 24.864 256.135 25.56 256.135 25.992C256.135 26.36 256.103 26.664 256.039 26.904C256.791 26.472 257.367 26.072 257.767 25.704H258.775C257.751 26.888 256.527 27.888 255.103 28.704C254.639 29.2 254.063 29.568 253.375 29.808C252.703 30.032 252.023 30.144 251.335 30.144ZM250.567 28.248C251.159 28.248 251.655 28.072 252.055 27.72C252.455 27.368 252.655 26.8 252.655 26.016C252.655 25.536 252.607 24.864 252.511 24C252.351 22.176 252.247 20.952 252.199 20.328C251.815 21.592 251.167 23.104 250.255 24.864C250.623 25.056 250.807 25.336 250.807 25.704C250.807 26.008 250.703 26.28 250.495 26.52C250.303 26.76 250.055 26.88 249.751 26.88C249.415 26.88 249.199 26.776 249.103 26.568C249.103 27.144 249.215 27.568 249.439 27.84C249.679 28.112 250.055 28.248 250.567 28.248ZM260.643 30.144C259.731 30.144 258.971 29.832 258.363 29.208C257.755 28.584 257.451 27.608 257.451 26.28C257.451 25.096 257.683 23.856 258.147 22.56C258.627 21.248 259.331 20.144 260.259 19.248C261.203 18.336 262.323 17.88 263.619 17.88C264.275 17.88 264.763 17.992 265.083 18.216C265.403 18.44 265.563 18.736 265.563 19.104V19.272L265.827 18H269.283L267.555 26.16C267.491 26.4 267.459 26.656 267.459 26.928C267.459 27.616 267.787 27.96 268.443 27.96C268.891 27.96 269.275 27.752 269.595 27.336C269.931 26.92 270.195 26.376 270.387 25.704H271.395C270.803 27.432 270.067 28.608 269.187 29.232C268.323 29.84 267.451 30.144 266.571 30.144C265.899 30.144 265.355 29.96 264.939 29.592C264.539 29.208 264.299 28.656 264.219 27.936C263.755 28.592 263.235 29.128 262.659 29.544C262.099 29.944 261.427 30.144 260.643 30.144ZM262.203 27.816C262.603 27.816 262.995 27.632 263.379 27.264C263.779 26.88 264.051 26.36 264.195 25.704L265.347 20.28C265.347 20.072 265.267 19.872 265.107 19.68C264.947 19.472 264.699 19.368 264.363 19.368C263.723 19.368 263.147 19.744 262.635 20.496C262.123 21.232 261.723 22.128 261.435 23.184C261.147 24.224 261.003 25.144 261.003 25.944C261.003 26.744 261.115 27.256 261.339 27.48C261.579 27.704 261.867 27.816 262.203 27.816ZM274.644 36C273.876 36 273.236 35.8 272.724 35.4C272.212 35 271.956 34.424 271.956 33.672C271.956 32.76 272.324 32.024 273.06 31.464C273.796 30.92 274.732 30.464 275.868 30.096L276.156 28.824C275.34 29.704 274.38 30.144 273.276 30.144C272.364 30.144 271.604 29.832 270.996 29.208C270.388 28.584 270.084 27.608 270.084 26.28C270.084 25.096 270.316 23.856 270.78 22.56C271.26 21.248 271.964 20.144 272.892 19.248C273.836 18.336 274.956 17.88 276.252 17.88C276.908 17.88 277.396 17.992 277.716 18.216C278.036 18.44 278.196 18.736 278.196 19.104V19.248L278.46 18H281.916L279.54 29.136C280.308 28.88 280.924 28.496 281.388 27.984C281.852 27.472 282.244 26.712 282.564 25.704H283.572C283.14 27.128 282.556 28.176 281.82 28.848C281.084 29.504 280.252 29.952 279.324 30.192L278.964 31.92C278.644 33.472 278.092 34.536 277.308 35.112C276.524 35.704 275.636 36 274.644 36ZM274.836 27.816C275.204 27.816 275.58 27.648 275.964 27.312C276.348 26.976 276.612 26.52 276.756 25.944L277.98 20.256C277.98 20.064 277.9 19.872 277.74 19.68C277.58 19.472 277.332 19.368 276.996 19.368C276.356 19.368 275.78 19.744 275.268 20.496C274.756 21.232 274.356 22.128 274.068 23.184C273.78 24.224 273.636 25.144 273.636 25.944C273.636 26.744 273.748 27.256 273.972 27.48C274.212 27.704 274.5 27.816 274.836 27.816ZM274.092 34.128C274.364 34.128 274.628 33.944 274.884 33.576C275.14 33.208 275.34 32.68 275.484 31.992L275.628 31.296C274.06 31.872 273.276 32.552 273.276 33.336C273.276 33.544 273.348 33.728 273.492 33.888C273.636 34.048 273.836 34.128 274.092 34.128ZM285.944 30.144C284.776 30.144 283.864 29.84 283.208 29.232C282.552 28.608 282.224 27.64 282.224 26.328C282.224 25.224 282.44 24.008 282.872 22.68C283.304 21.352 284.008 20.208 284.984 19.248C285.96 18.272 287.2 17.784 288.704 17.784C290.464 17.784 291.344 18.552 291.344 20.088C291.344 20.984 291.088 21.808 290.576 22.56C290.064 23.312 289.384 23.92 288.536 24.384C287.688 24.832 286.784 25.088 285.824 25.152C285.792 25.504 285.776 25.744 285.776 25.872C285.776 27.2 286.272 27.864 287.264 27.864C287.712 27.864 288.192 27.744 288.704 27.504C289.216 27.264 289.68 26.96 290.096 26.592C289.664 28.96 288.28 30.144 285.944 30.144ZM285.992 24C286.6 23.984 287.168 23.784 287.696 23.4C288.24 23.016 288.672 22.528 288.992 21.936C289.328 21.328 289.496 20.696 289.496 20.04C289.496 19.384 289.296 19.056 288.896 19.056C288.336 19.056 287.776 19.568 287.216 20.592C286.672 21.6 286.264 22.736 285.992 24ZM294.392 36C293.64 36 292.984 35.752 292.424 35.256C291.848 34.776 291.56 34.16 291.56 33.408C291.56 32.72 291.736 32.152 292.088 31.704C292.44 31.256 292.896 30.896 293.456 30.624C294.016 30.368 294.76 30.096 295.688 29.808L298.592 16.104C298.912 14.568 299.472 13.504 300.272 12.912C301.088 12.32 301.984 12.024 302.96 12.024C303.712 12.024 304.368 12.272 304.928 12.768C305.504 13.248 305.792 13.864 305.792 14.616C305.792 14.984 305.768 15.312 305.72 15.6H304.592C304.624 15.248 304.64 15.032 304.64 14.952C304.64 14.696 304.552 14.496 304.376 14.352C304.2 14.208 303.984 14.136 303.728 14.136C303.392 14.136 303.064 14.288 302.744 14.592C302.424 14.88 302.192 15.384 302.048 16.104L301.64 18H303.392L303.224 18.96H301.448L298.688 31.92C298.368 33.472 297.816 34.536 297.032 35.112C296.248 35.704 295.368 36 294.392 36ZM293.84 33.864C294.48 33.864 294.936 33.24 295.208 31.992L295.52 30.6C294.672 30.888 294.024 31.216 293.576 31.584C293.112 31.968 292.88 32.464 292.88 33.072C292.88 33.264 292.976 33.44 293.168 33.6C293.36 33.776 293.584 33.864 293.84 33.864ZM304.583 18H308.039L307.727 19.488C308.271 19.008 308.759 18.64 309.191 18.384C309.639 18.128 310.119 18 310.631 18C311.143 18 311.543 18.176 311.831 18.528C312.135 18.88 312.287 19.304 312.287 19.8C312.287 20.264 312.135 20.672 311.831 21.024C311.527 21.376 311.103 21.552 310.559 21.552C310.207 21.552 309.967 21.472 309.839 21.312C309.727 21.136 309.639 20.888 309.575 20.568C309.527 20.36 309.479 20.208 309.431 20.112C309.383 20.016 309.295 19.968 309.167 19.968C308.831 19.968 308.543 20.04 308.303 20.184C308.079 20.312 307.783 20.544 307.415 20.88L305.495 30H302.039L304.583 18ZM315.478 30.096C314.294 30.096 313.358 29.792 312.67 29.184C311.982 28.576 311.638 27.616 311.638 26.304C311.638 25.216 311.862 24.008 312.31 22.68C312.758 21.352 313.478 20.208 314.47 19.248C315.462 18.272 316.71 17.784 318.214 17.784C320.262 17.784 321.286 19.064 321.286 21.624V21.648C321.334 21.664 321.422 21.672 321.55 21.672C322.078 21.672 322.686 21.536 323.374 21.264C324.062 20.976 324.686 20.632 325.246 20.232L325.462 20.88C324.998 21.376 324.39 21.8 323.638 22.152C322.902 22.488 322.094 22.728 321.214 22.872C321.086 24.328 320.758 25.6 320.23 26.688C319.702 27.776 319.022 28.616 318.19 29.208C317.358 29.8 316.454 30.096 315.478 30.096ZM316.438 27.936C316.822 27.936 317.206 27.72 317.59 27.288C317.974 26.84 318.31 26.24 318.598 25.488C318.886 24.72 319.094 23.872 319.222 22.944C318.79 22.848 318.574 22.512 318.574 21.936C318.574 21.28 318.822 20.848 319.318 20.64C319.286 20.112 319.206 19.752 319.078 19.56C318.95 19.352 318.726 19.248 318.406 19.248C317.878 19.248 317.366 19.632 316.87 20.4C316.374 21.168 315.974 22.088 315.67 23.16C315.366 24.232 315.214 25.176 315.214 25.992C315.214 26.76 315.302 27.28 315.478 27.552C315.654 27.808 315.974 27.936 316.438 27.936ZM336.705 30.144C335.857 30.144 335.241 29.888 334.857 29.376C334.473 28.864 334.281 28.216 334.281 27.432C334.281 27.096 334.321 26.72 334.401 26.304C334.481 25.872 334.561 25.456 334.641 25.056C334.737 24.656 334.801 24.4 334.833 24.288C334.961 23.728 335.081 23.176 335.193 22.632C335.305 22.088 335.361 21.648 335.361 21.312C335.361 20.496 335.073 20.088 334.497 20.088C334.081 20.088 333.713 20.296 333.393 20.712C333.073 21.112 332.817 21.64 332.625 22.296L330.993 30H327.537L329.289 21.72C329.337 21.528 329.361 21.328 329.361 21.12C329.361 20.416 329.121 20.064 328.641 20.064C328.193 20.064 327.801 20.272 327.465 20.688C327.145 21.088 326.889 21.624 326.697 22.296L325.065 30H321.609L324.153 18H327.609L327.345 19.248C328.161 18.336 329.137 17.88 330.273 17.88C331.681 17.88 332.505 18.568 332.745 19.944C333.625 18.584 334.737 17.904 336.081 17.904C336.897 17.904 337.545 18.128 338.025 18.576C338.505 19.024 338.745 19.704 338.745 20.616C338.745 21.08 338.689 21.6 338.577 22.176C338.465 22.736 338.305 23.424 338.097 24.24C337.969 24.736 337.849 25.224 337.737 25.704C337.641 26.168 337.593 26.536 337.593 26.808C337.593 27.128 337.665 27.376 337.809 27.552C337.953 27.728 338.201 27.816 338.553 27.816C338.937 27.816 339.201 27.768 339.345 27.672C339.249 28.488 338.953 29.104 338.457 29.52C337.977 29.936 337.393 30.144 336.705 30.144ZM350.264 30.384C348.456 30.384 347.128 29.928 346.28 29.016C345.432 28.104 345.008 26.592 345.008 24.48C345.008 22.8 345.288 20.992 345.848 19.056C346.424 17.12 347.336 15.464 348.584 14.088C349.848 12.696 351.448 12 353.384 12C354.584 12 355.552 12.264 356.288 12.792C357.024 13.32 357.392 14.128 357.392 15.216C357.392 15.904 357.256 16.448 356.984 16.848C356.712 17.232 356.288 17.424 355.712 17.424C355.136 17.424 354.68 17.216 354.344 16.8C354.632 16.656 354.888 16.368 355.112 15.936C355.336 15.504 355.448 15.056 355.448 14.592C355.448 14.16 355.328 13.808 355.088 13.536C354.864 13.264 354.496 13.128 353.984 13.128C353.136 13.128 352.328 13.712 351.56 14.88C350.792 16.032 350.168 17.488 349.688 19.248C349.224 21.008 348.992 22.704 348.992 24.336C348.992 25.552 349.2 26.48 349.616 27.12C350.032 27.76 350.784 28.08 351.872 28.08C352.816 28.08 353.688 27.872 354.488 27.456C355.288 27.04 355.976 26.448 356.552 25.68L357.104 25.92C356.704 26.928 356.112 27.768 355.328 28.44C354.544 29.112 353.704 29.608 352.808 29.928C351.912 30.232 351.064 30.384 350.264 30.384ZM365.146 30.144C364.17 30.144 363.45 29.888 362.986 29.376C362.538 28.848 362.314 28.2 362.314 27.432C362.314 27.096 362.354 26.72 362.434 26.304C362.514 25.872 362.594 25.456 362.674 25.056C362.77 24.656 362.834 24.4 362.866 24.288C362.994 23.728 363.114 23.176 363.226 22.632C363.338 22.088 363.394 21.648 363.394 21.312C363.394 20.496 363.106 20.088 362.53 20.088C362.114 20.088 361.746 20.296 361.426 20.712C361.106 21.112 360.85 21.64 360.658 22.296L359.026 30H355.57L359.05 13.68L362.602 13.2L361.306 19.248C362.106 18.352 363.042 17.904 364.114 17.904C364.93 17.904 365.578 18.128 366.058 18.576C366.538 19.024 366.778 19.704 366.778 20.616C366.778 21.08 366.722 21.6 366.61 22.176C366.498 22.736 366.338 23.424 366.13 24.24C366.002 24.736 365.882 25.224 365.77 25.704C365.674 26.168 365.626 26.536 365.626 26.808C365.626 27.128 365.698 27.376 365.842 27.552C365.986 27.728 366.234 27.816 366.586 27.816C367.066 27.816 367.45 27.648 367.738 27.312C368.026 26.96 368.314 26.424 368.602 25.704H369.61C369.018 27.464 368.33 28.648 367.546 29.256C366.778 29.848 365.978 30.144 365.146 30.144ZM370.231 18H373.687L373.375 19.488C373.919 19.008 374.407 18.64 374.839 18.384C375.287 18.128 375.767 18 376.279 18C376.791 18 377.191 18.176 377.479 18.528C377.783 18.88 377.935 19.304 377.935 19.8C377.935 20.264 377.783 20.672 377.479 21.024C377.175 21.376 376.751 21.552 376.207 21.552C375.855 21.552 375.615 21.472 375.487 21.312C375.375 21.136 375.287 20.888 375.223 20.568C375.175 20.36 375.127 20.208 375.079 20.112C375.031 20.016 374.943 19.968 374.815 19.968C374.479 19.968 374.191 20.04 373.951 20.184C373.727 20.312 373.431 20.544 373.063 20.88L371.143 30H367.687L370.231 18ZM381.631 16.704C381.103 16.704 380.655 16.52 380.287 16.152C379.919 15.784 379.735 15.336 379.735 14.808C379.735 14.28 379.919 13.832 380.287 13.464C380.655 13.08 381.103 12.888 381.631 12.888C382.159 12.888 382.607 13.08 382.975 13.464C383.359 13.832 383.551 14.28 383.551 14.808C383.551 15.336 383.359 15.784 382.975 16.152C382.607 16.52 382.159 16.704 381.631 16.704ZM379.999 30.144C379.231 30.144 378.607 29.904 378.127 29.424C377.663 28.944 377.431 28.224 377.431 27.264C377.431 26.864 377.495 26.344 377.623 25.704L379.255 18H382.711L380.983 26.16C380.919 26.4 380.887 26.656 380.887 26.928C380.887 27.248 380.959 27.48 381.103 27.624C381.263 27.752 381.519 27.816 381.871 27.816C382.335 27.816 382.767 27.624 383.167 27.24C383.567 26.84 383.855 26.328 384.031 25.704H385.039C384.447 27.432 383.687 28.608 382.759 29.232C381.831 29.84 380.911 30.144 379.999 30.144ZM386.757 30.144C385.989 30.144 385.341 30 384.813 29.712C384.285 29.408 383.893 29.024 383.637 28.56C383.381 28.08 383.253 27.584 383.253 27.072C383.253 26.544 383.381 26.088 383.637 25.704C383.877 25.304 384.173 25.016 384.525 24.84C385.149 23.72 385.693 22.592 386.157 21.456C386.621 20.304 387.061 19.064 387.477 17.736L391.029 17.256C391.109 19.304 391.245 21.52 391.437 23.904C391.517 24.864 391.557 25.56 391.557 25.992C391.557 26.36 391.525 26.664 391.461 26.904C392.213 26.472 392.789 26.072 393.189 25.704H394.197C393.173 26.888 391.949 27.888 390.525 28.704C390.061 29.2 389.485 29.568 388.797 29.808C388.125 30.032 387.445 30.144 386.757 30.144ZM385.989 28.248C386.581 28.248 387.077 28.072 387.477 27.72C387.877 27.368 388.077 26.8 388.077 26.016C388.077 25.536 388.029 24.864 387.933 24C387.773 22.176 387.669 20.952 387.621 20.328C387.237 21.592 386.589 23.104 385.677 24.864C386.045 25.056 386.229 25.336 386.229 25.704C386.229 26.008 386.125 26.28 385.917 26.52C385.725 26.76 385.477 26.88 385.173 26.88C384.837 26.88 384.621 26.776 384.525 26.568C384.525 27.144 384.637 27.568 384.861 27.84C385.101 28.112 385.477 28.248 385.989 28.248ZM395.561 30.144C394.793 30.144 394.169 29.904 393.689 29.424C393.225 28.944 392.993 28.224 392.993 27.264C392.993 26.864 393.057 26.344 393.185 25.704L394.625 18.96H393.833L394.025 18H394.817L395.537 14.688L399.089 14.208L398.273 18H399.713L399.521 18.96H398.081L396.545 26.16C396.481 26.4 396.449 26.656 396.449 26.928C396.449 27.248 396.521 27.48 396.665 27.624C396.825 27.752 397.081 27.816 397.433 27.816C397.897 27.816 398.329 27.624 398.729 27.24C399.129 26.84 399.417 26.328 399.593 25.704H400.601C400.009 27.432 399.249 28.608 398.321 29.232C397.393 29.84 396.473 30.144 395.561 30.144ZM403.592 16.704C403.064 16.704 402.616 16.52 402.248 16.152C401.88 15.784 401.696 15.336 401.696 14.808C401.696 14.28 401.88 13.832 402.248 13.464C402.616 13.08 403.064 12.888 403.592 12.888C404.12 12.888 404.568 13.08 404.936 13.464C405.32 13.832 405.512 14.28 405.512 14.808C405.512 15.336 405.32 15.784 404.936 16.152C404.568 16.52 404.12 16.704 403.592 16.704ZM401.96 30.144C401.192 30.144 400.568 29.904 400.088 29.424C399.624 28.944 399.392 28.224 399.392 27.264C399.392 26.864 399.456 26.344 399.584 25.704L401.216 18H404.672L402.944 26.16C402.88 26.4 402.848 26.656 402.848 26.928C402.848 27.248 402.92 27.48 403.064 27.624C403.224 27.752 403.48 27.816 403.832 27.816C404.296 27.816 404.728 27.624 405.128 27.24C405.528 26.84 405.816 26.328 405.992 25.704H407C406.408 27.432 405.648 28.608 404.72 29.232C403.792 29.84 402.872 30.144 401.96 30.144ZM414.646 30.144C413.67 30.144 412.95 29.888 412.486 29.376C412.038 28.848 411.814 28.2 411.814 27.432C411.814 27.096 411.854 26.72 411.934 26.304C412.014 25.872 412.094 25.456 412.174 25.056C412.27 24.656 412.334 24.4 412.366 24.288C412.494 23.728 412.614 23.176 412.726 22.632C412.838 22.088 412.894 21.648 412.894 21.312C412.894 20.496 412.606 20.088 412.03 20.088C411.614 20.088 411.246 20.296 410.926 20.712C410.606 21.112 410.35 21.64 410.158 22.296L408.526 30H405.07L407.614 18H411.07L410.806 19.248C411.606 18.352 412.542 17.904 413.614 17.904C414.43 17.904 415.078 18.128 415.558 18.576C416.038 19.024 416.278 19.704 416.278 20.616C416.278 21.08 416.222 21.6 416.11 22.176C415.998 22.736 415.838 23.424 415.63 24.24C415.502 24.736 415.382 25.224 415.27 25.704C415.174 26.168 415.126 26.536 415.126 26.808C415.126 27.128 415.198 27.376 415.342 27.552C415.486 27.728 415.734 27.816 416.086 27.816C416.566 27.816 416.95 27.648 417.238 27.312C417.526 26.96 417.814 26.424 418.102 25.704H419.11C418.518 27.464 417.83 28.648 417.046 29.256C416.278 29.848 415.478 30.144 414.646 30.144ZM420.979 30.144C420.067 30.144 419.307 29.832 418.699 29.208C418.091 28.584 417.787 27.608 417.787 26.28C417.787 25.096 418.019 23.856 418.483 22.56C418.963 21.248 419.667 20.144 420.595 19.248C421.539 18.336 422.659 17.88 423.955 17.88C424.611 17.88 425.099 17.992 425.419 18.216C425.739 18.44 425.899 18.736 425.899 19.104V19.272L426.163 18H429.619L427.891 26.16C427.827 26.4 427.795 26.656 427.795 26.928C427.795 27.248 427.867 27.48 428.011 27.624C428.171 27.752 428.427 27.816 428.779 27.816C429.003 27.816 429.179 27.784 429.307 27.72C428.955 28.616 428.619 29.248 428.299 29.616C427.979 29.968 427.515 30.144 426.907 30.144C426.251 30.144 425.715 29.952 425.299 29.568C424.899 29.168 424.651 28.616 424.555 27.912C423.579 29.4 422.387 30.144 420.979 30.144ZM422.539 27.816C422.939 27.816 423.331 27.632 423.715 27.264C424.115 26.88 424.387 26.36 424.531 25.704L425.683 20.28C425.683 20.072 425.603 19.872 425.443 19.68C425.283 19.472 425.035 19.368 424.699 19.368C424.059 19.368 423.483 19.744 422.971 20.496C422.459 21.232 422.059 22.128 421.771 23.184C421.483 24.224 421.339 25.144 421.339 25.944C421.339 26.744 421.451 27.256 421.675 27.48C421.915 27.704 422.203 27.816 422.539 27.816ZM440.337 13.56C439.249 13.944 438.417 14.552 437.841 15.384C437.281 16.2 437.001 17.192 437.001 18.36C437.001 18.872 437.057 19.344 437.169 19.776C437.281 20.192 437.441 20.536 437.649 20.808C436.625 20.808 435.865 20.6 435.369 20.184C434.889 19.752 434.649 19.096 434.649 18.216C434.649 17.096 434.977 16.056 435.633 15.096C436.289 14.12 437.177 13.344 438.297 12.768C439.417 12.192 440.633 11.904 441.945 11.904C442.313 11.904 442.633 11.928 442.905 11.976C443.177 12.024 443.489 12.112 443.841 12.24L446.721 25.08L449.409 12.048H451.737L447.825 30H444.513L441.729 18.096L438.993 30H436.713L440.337 13.56ZM454.041 30.096C452.857 30.096 451.921 29.792 451.233 29.184C450.545 28.576 450.201 27.616 450.201 26.304C450.201 25.216 450.425 24.008 450.873 22.68C451.321 21.352 452.041 20.208 453.033 19.248C454.025 18.272 455.273 17.784 456.777 17.784C458.825 17.784 459.849 19.064 459.849 21.624V21.648C459.897 21.664 459.985 21.672 460.113 21.672C460.641 21.672 461.249 21.536 461.937 21.264C462.625 20.976 463.249 20.632 463.809 20.232L464.025 20.88C463.561 21.376 462.953 21.8 462.201 22.152C461.465 22.488 460.657 22.728 459.777 22.872C459.649 24.328 459.321 25.6 458.793 26.688C458.265 27.776 457.585 28.616 456.753 29.208C455.921 29.8 455.017 30.096 454.041 30.096ZM455.001 27.936C455.385 27.936 455.769 27.72 456.153 27.288C456.537 26.84 456.873 26.24 457.161 25.488C457.449 24.72 457.657 23.872 457.785 22.944C457.353 22.848 457.137 22.512 457.137 21.936C457.137 21.28 457.385 20.848 457.881 20.64C457.849 20.112 457.769 19.752 457.641 19.56C457.513 19.352 457.289 19.248 456.969 19.248C456.441 19.248 455.929 19.632 455.433 20.4C454.937 21.168 454.537 22.088 454.233 23.16C453.929 24.232 453.777 25.176 453.777 25.992C453.777 26.76 453.865 27.28 454.041 27.552C454.217 27.808 454.537 27.936 455.001 27.936ZM464.276 30.144C463.188 30.144 462.356 29.88 461.78 29.352C461.204 28.808 460.916 28.048 460.916 27.072C460.916 26.592 460.972 26.136 461.084 25.704L463.652 13.68L467.204 13.2L466.052 18.6C466.5 18.328 466.868 18.152 467.156 18.072C467.444 17.976 467.732 17.928 468.02 17.928C469.908 17.928 470.852 19.296 470.852 22.032C470.852 23.136 470.636 24.32 470.204 25.584C469.788 26.832 469.084 27.904 468.092 28.8C467.116 29.696 465.844 30.144 464.276 30.144ZM465.62 27.816C466.116 27.816 466.58 27.512 467.012 26.904C467.444 26.28 467.788 25.512 468.044 24.6C468.3 23.672 468.428 22.784 468.428 21.936C468.428 21.296 468.316 20.752 468.092 20.304C467.868 19.856 467.556 19.632 467.156 19.632C466.916 19.632 466.644 19.672 466.34 19.752C466.052 19.816 465.852 19.92 465.74 20.064L464.42 26.16C464.372 26.352 464.348 26.536 464.348 26.712C464.348 27.448 464.772 27.816 465.62 27.816ZM474.124 30.144C473.356 30.144 472.732 29.904 472.252 29.424C471.788 28.944 471.556 28.224 471.556 27.264C471.556 26.864 471.62 26.344 471.748 25.704L474.316 13.68L477.868 13.2L475.108 26.16C475.044 26.4 475.012 26.656 475.012 26.928C475.012 27.248 475.084 27.48 475.228 27.624C475.388 27.752 475.644 27.816 475.996 27.816C476.46 27.816 476.892 27.624 477.292 27.24C477.692 26.84 477.98 26.328 478.156 25.704H479.164C478.572 27.432 477.812 28.608 476.884 29.232C475.956 29.84 475.036 30.144 474.124 30.144ZM481.53 30.144C480.362 30.144 479.45 29.84 478.794 29.232C478.138 28.608 477.81 27.64 477.81 26.328C477.81 25.224 478.026 24.008 478.458 22.68C478.89 21.352 479.594 20.208 480.57 19.248C481.546 18.272 482.786 17.784 484.29 17.784C486.05 17.784 486.93 18.552 486.93 20.088C486.93 20.984 486.674 21.808 486.162 22.56C485.65 23.312 484.97 23.92 484.122 24.384C483.274 24.832 482.37 25.088 481.41 25.152C481.378 25.504 481.362 25.744 481.362 25.872C481.362 27.2 481.858 27.864 482.85 27.864C483.298 27.864 483.778 27.744 484.29 27.504C484.802 27.264 485.266 26.96 485.682 26.592C485.25 28.96 483.866 30.144 481.53 30.144ZM481.578 24C482.186 23.984 482.754 23.784 483.282 23.4C483.826 23.016 484.258 22.528 484.578 21.936C484.914 21.328 485.082 20.696 485.082 20.04C485.082 19.384 484.882 19.056 484.482 19.056C483.922 19.056 483.362 19.568 482.802 20.592C482.258 21.6 481.85 22.736 481.578 24Z" fill="white"/>
<defs>
<linearGradient id="paint0_linear_0_1" x1="294.263" y1="1" x2="294.263" y2="43" gradientUnits="userSpaceOnUse">
<stop stop-color="#7A0010"/>
<stop offset="1" stop-color="#B3002D"/>
</linearGradient>
<linearGradient id="paint1_linear_0_1" x1="158.072" y1="-8.73171" x2="158.328" y2="40.0273" gradientUnits="userSpaceOnUse">
<stop stop-color="#8C421D"/>
<stop offset="0.325272" stop-color="#FBE67B"/>
<stop offset="0.535488" stop-color="#FCFBE7"/>
<stop offset="0.769917" stop-color="#F7D14E"/>
<stop offset="1" stop-color="#D4A041"/>
</linearGradient>
</defs>
</svg>
