<svg width="196" height="44" viewBox="0 0 196 44" fill="none" xmlns="http://www.w3.org/2000/svg">
<path d="M192.046 1H3.04639L29.5464 23.5L3.04639 43H192.046L164.046 23.5L192.046 1Z" fill="url(#paint0_linear_163_3)" stroke="url(#paint1_linear_163_3)" stroke-width="2"/>
<path d="M57.9344 30.144C56.5904 30.144 55.5344 29.76 54.7664 28.992C54.0144 28.224 53.6384 27 53.6384 25.32C53.6384 23.896 53.8944 22.296 54.4064 20.52C54.9184 18.744 55.6624 17.224 56.6384 15.96C57.6304 14.696 58.7984 14.064 60.1424 14.064C60.6224 14.064 61.0384 14.128 61.3904 14.256C60.6864 14.672 60.0064 15.528 59.3504 16.824C58.7104 18.12 58.1904 19.568 57.7904 21.168C57.3904 22.768 57.1904 24.184 57.1904 25.416C57.1904 26.28 57.3024 26.96 57.5264 27.456C57.7504 27.952 58.1024 28.2 58.5824 28.2C59.3664 28.2 60.1424 27.64 60.9104 26.52C61.6944 25.384 62.3344 23.96 62.8304 22.248C63.3424 20.536 63.5984 18.888 63.5984 17.304C63.5984 16.312 63.5104 15.52 63.3344 14.928C63.1744 14.32 62.8704 13.864 62.4224 13.56C61.9744 13.256 61.3424 13.104 60.5264 13.104C59.2944 13.104 58.1504 13.36 57.0944 13.872C56.0384 14.368 55.1904 15.088 54.5504 16.032C53.9264 16.96 53.6144 18.04 53.6144 19.272C53.6144 19.704 53.6544 20.024 53.7344 20.232C53.8144 20.424 53.8544 20.536 53.8544 20.568C53.0544 20.568 52.4464 20.408 52.0304 20.088C51.6304 19.768 51.4304 19.256 51.4304 18.552C51.4304 17.448 51.8784 16.392 52.7744 15.384C53.6864 14.376 54.8864 13.56 56.3744 12.936C57.8784 12.312 59.4544 12 61.1024 12C63.1024 12 64.5504 12.544 65.4464 13.632C66.3424 14.72 66.7904 16.224 66.7904 18.144C66.7904 19.856 66.4704 21.64 65.8304 23.496C65.1904 25.352 64.1984 26.928 62.8544 28.224C61.5264 29.504 59.8864 30.144 57.9344 30.144ZM69.3833 30.144C68.6153 30.144 67.9913 29.904 67.5113 29.424C67.0473 28.944 66.8153 28.224 66.8153 27.264C66.8153 26.864 66.8793 26.344 67.0073 25.704L68.6393 18H72.0953L70.3673 26.16C70.3193 26.4 70.2953 26.624 70.2953 26.832C70.2953 27.488 70.5353 27.816 71.0153 27.816C71.4633 27.816 71.8473 27.632 72.1673 27.264C72.4873 26.88 72.7433 26.36 72.9353 25.704L74.5673 18H78.0233L76.2953 26.16C76.2313 26.4 76.1993 26.656 76.1993 26.928C76.1993 27.248 76.2713 27.48 76.4153 27.624C76.5753 27.752 76.8313 27.816 77.1833 27.816C77.6313 27.816 78.0153 27.624 78.3353 27.24C78.6713 26.856 78.9353 26.344 79.1273 25.704H80.1353C79.5433 27.432 78.8073 28.608 77.9273 29.232C77.0633 29.84 76.1913 30.144 75.3113 30.144C74.6233 30.144 74.0713 29.952 73.6553 29.568C73.2553 29.184 73.0153 28.616 72.9353 27.864C72.3913 28.744 71.8153 29.344 71.2073 29.664C70.6153 29.984 70.0073 30.144 69.3833 30.144ZM80.7565 18H84.2125L83.9005 19.488C84.4445 19.008 84.9325 18.64 85.3645 18.384C85.8125 18.128 86.2925 18 86.8045 18C87.3165 18 87.7165 18.176 88.0045 18.528C88.3085 18.88 88.4605 19.304 88.4605 19.8C88.4605 20.264 88.3085 20.672 88.0045 21.024C87.7005 21.376 87.2765 21.552 86.7325 21.552C86.3805 21.552 86.1405 21.472 86.0125 21.312C85.9005 21.136 85.8125 20.888 85.7485 20.568C85.7005 20.36 85.6525 20.208 85.6045 20.112C85.5565 20.016 85.4685 19.968 85.3405 19.968C85.0045 19.968 84.7165 20.04 84.4765 20.184C84.2525 20.312 83.9565 20.544 83.5885 20.88L81.6685 30H78.2125L80.7565 18ZM99.2311 30.432C98.2231 30.432 97.3351 30.256 96.5671 29.904C95.7991 29.552 95.2071 29.064 94.7911 28.44C94.3751 27.8 94.1671 27.064 94.1671 26.232C94.1671 25.528 94.3111 24.888 94.5991 24.312C94.9031 23.736 95.3031 23.28 95.7991 22.944C96.3111 22.608 96.8711 22.44 97.4791 22.44C98.0391 22.44 98.5111 22.584 98.8951 22.872C99.2791 23.144 99.5191 23.528 99.6151 24.024C98.7831 24.024 98.1191 24.248 97.6231 24.696C97.1271 25.128 96.8791 25.72 96.8791 26.472C96.8791 27.16 97.0871 27.712 97.5031 28.128C97.9191 28.544 98.4711 28.752 99.1591 28.752C100.007 28.752 100.703 28.472 101.247 27.912C101.807 27.336 102.087 26.616 102.087 25.752C102.087 25 101.879 24.288 101.463 23.616C101.047 22.944 100.423 22.128 99.5911 21.168C98.7271 20.176 98.0711 19.328 97.6231 18.624C97.1911 17.904 96.9751 17.12 96.9751 16.272C96.9751 15.44 97.2071 14.696 97.6711 14.04C98.1351 13.368 98.7751 12.84 99.5911 12.456C100.407 12.072 101.327 11.88 102.351 11.88C103.647 11.88 104.679 12.184 105.447 12.792C106.231 13.4 106.623 14.216 106.623 15.24C106.623 15.912 106.455 16.456 106.119 16.872C105.783 17.288 105.343 17.496 104.799 17.496C104.191 17.496 103.703 17.248 103.335 16.752C103.639 16.528 103.879 16.232 104.055 15.864C104.231 15.496 104.319 15.112 104.319 14.712C104.319 14.2 104.167 13.792 103.863 13.488C103.559 13.184 103.143 13.032 102.615 13.032C101.975 13.032 101.447 13.264 101.031 13.728C100.631 14.176 100.431 14.752 100.431 15.456C100.431 16.096 100.615 16.696 100.983 17.256C101.351 17.8 101.927 18.504 102.711 19.368C103.351 20.056 103.863 20.648 104.247 21.144C104.647 21.64 104.983 22.216 105.255 22.872C105.543 23.512 105.687 24.208 105.687 24.96C105.687 25.984 105.399 26.912 104.823 27.744C104.263 28.576 103.487 29.232 102.495 29.712C101.519 30.192 100.431 30.432 99.2311 30.432ZM109.415 30.144C108.647 30.144 108.023 29.904 107.543 29.424C107.079 28.944 106.847 28.224 106.847 27.264C106.847 26.864 106.911 26.344 107.039 25.704L108.479 18.96H107.687L107.879 18H108.671L109.391 14.688L112.943 14.208L112.127 18H113.567L113.375 18.96H111.935L110.399 26.16C110.335 26.4 110.303 26.656 110.303 26.928C110.303 27.248 110.375 27.48 110.519 27.624C110.679 27.752 110.935 27.816 111.287 27.816C111.751 27.816 112.183 27.624 112.583 27.24C112.983 26.84 113.271 26.328 113.447 25.704H114.455C113.863 27.432 113.103 28.608 112.175 29.232C111.247 29.84 110.327 30.144 109.415 30.144ZM116.941 30.096C115.757 30.096 114.821 29.792 114.133 29.184C113.445 28.576 113.101 27.616 113.101 26.304C113.101 25.216 113.325 24.008 113.773 22.68C114.221 21.352 114.941 20.208 115.933 19.248C116.925 18.272 118.173 17.784 119.677 17.784C121.725 17.784 122.749 19.064 122.749 21.624V21.648C122.797 21.664 122.885 21.672 123.013 21.672C123.541 21.672 124.149 21.536 124.837 21.264C125.525 20.976 126.149 20.632 126.709 20.232L126.925 20.88C126.461 21.376 125.853 21.8 125.101 22.152C124.365 22.488 123.557 22.728 122.677 22.872C122.549 24.328 122.221 25.6 121.693 26.688C121.165 27.776 120.485 28.616 119.653 29.208C118.821 29.8 117.917 30.096 116.941 30.096ZM117.901 27.936C118.285 27.936 118.669 27.72 119.053 27.288C119.437 26.84 119.773 26.24 120.061 25.488C120.349 24.72 120.557 23.872 120.685 22.944C120.253 22.848 120.037 22.512 120.037 21.936C120.037 21.28 120.285 20.848 120.781 20.64C120.749 20.112 120.669 19.752 120.541 19.56C120.413 19.352 120.189 19.248 119.869 19.248C119.341 19.248 118.829 19.632 118.333 20.4C117.837 21.168 117.437 22.088 117.133 23.16C116.829 24.232 116.677 25.176 116.677 25.992C116.677 26.76 116.765 27.28 116.941 27.552C117.117 27.808 117.437 27.936 117.901 27.936ZM125.616 18H129.072L128.76 19.488C129.304 19.008 129.792 18.64 130.224 18.384C130.672 18.128 131.152 18 131.664 18C132.176 18 132.576 18.176 132.864 18.528C133.168 18.88 133.32 19.304 133.32 19.8C133.32 20.264 133.168 20.672 132.864 21.024C132.56 21.376 132.136 21.552 131.592 21.552C131.24 21.552 131 21.472 130.872 21.312C130.76 21.136 130.672 20.888 130.608 20.568C130.56 20.36 130.512 20.208 130.464 20.112C130.416 20.016 130.328 19.968 130.2 19.968C129.864 19.968 129.576 20.04 129.336 20.184C129.112 20.312 128.816 20.544 128.448 20.88L126.528 30H123.072L125.616 18ZM136.751 36C135.999 36 135.335 35.752 134.759 35.256C134.199 34.776 133.919 34.16 133.919 33.408C133.919 32.704 134.095 32.128 134.447 31.68C134.799 31.232 135.255 30.88 135.815 30.624C136.375 30.368 137.127 30.096 138.071 29.808L138.311 28.752C137.495 29.68 136.519 30.144 135.383 30.144C134.615 30.144 133.991 29.904 133.511 29.424C133.047 28.944 132.815 28.224 132.815 27.264C132.815 26.864 132.879 26.344 133.007 25.704L134.639 18H138.095L136.367 26.16C136.319 26.352 136.295 26.552 136.295 26.76C136.295 27.464 136.535 27.816 137.015 27.816C137.463 27.816 137.847 27.632 138.167 27.264C138.487 26.88 138.743 26.36 138.935 25.704L140.567 18H144.047L141.119 31.92C140.799 33.456 140.231 34.52 139.415 35.112C138.615 35.704 137.727 36 136.751 36ZM136.199 33.864C136.487 33.864 136.759 33.712 137.015 33.408C137.271 33.12 137.471 32.648 137.615 31.992L137.903 30.576C137.055 30.864 136.399 31.2 135.935 31.584C135.471 31.968 135.239 32.464 135.239 33.072C135.239 33.264 135.335 33.44 135.527 33.6C135.719 33.776 135.943 33.864 136.199 33.864Z" fill="white"/>
<defs>
<linearGradient id="paint0_linear_163_3" x1="97.5464" y1="1" x2="97.5464" y2="43" gradientUnits="userSpaceOnUse">
<stop stop-color="#7A0010"/>
<stop offset="1" stop-color="#B3002D"/>
</linearGradient>
<linearGradient id="paint1_linear_163_3" x1="53.7707" y1="-8.73171" x2="54.5654" y2="40.0157" gradientUnits="userSpaceOnUse">
<stop stop-color="#8C421D"/>
<stop offset="0.325272" stop-color="#FBE67B"/>
<stop offset="0.535488" stop-color="#FCFBE7"/>
<stop offset="0.769917" stop-color="#F7D14E"/>
<stop offset="1" stop-color="#D4A041"/>
</linearGradient>
</defs>
</svg>
