<svg width="228" height="78" viewBox="0 0 228 78" fill="none" xmlns="http://www.w3.org/2000/svg">
<mask id="mask0_125_5545" style="mask-type:luminance" maskUnits="userSpaceOnUse" x="-41" y="23" width="48" height="31">
<path d="M-39.51 24.4099C-39.731 24.6872 -39.8949 25.0055 -39.9925 25.3464C-40.09 25.6873 -40.1191 26.0441 -40.0782 26.3964C-40.0374 26.7486 -39.9272 27.0893 -39.7542 27.3988C-39.5812 27.7083 -39.3487 27.9805 -39.07 28.1999L-9.58002 51.4999C-8.5695 52.299 -7.41149 52.8912 -6.17209 53.2427C-4.93269 53.5943 -3.63619 53.6983 -2.3566 53.5488C-1.07701 53.3993 0.160606 52.9992 1.28558 52.3714C2.41056 51.7436 3.40089 50.9004 4.19998 49.8899C4.99908 48.8793 5.59129 47.7213 5.94284 46.4819C6.2944 45.2425 6.3984 43.946 6.2489 42.6664C6.0994 41.3868 5.69933 40.1492 5.07153 39.0242C4.44373 37.8993 3.60049 36.909 2.58997 36.1099L0.0299683 34.1099C-0.247776 33.8906 -0.565994 33.7281 -0.906525 33.6318C-1.24706 33.5354 -1.60321 33.5071 -1.95468 33.5485C-2.30615 33.5898 -2.64605 33.6999 -2.95496 33.8726C-3.26386 34.0453 -3.53573 34.2771 -3.75504 34.5549C-3.97434 34.8326 -4.1368 35.1508 -4.23312 35.4914C-4.32945 35.8319 -4.35776 36.1881 -4.31644 36.5395C-4.27512 36.891 -4.16496 37.2309 -3.99228 37.5398C-3.8196 37.8487 -3.58777 38.1206 -3.31003 38.3399L-0.76004 40.3399C-0.305012 40.699 0.0748405 41.1443 0.357788 41.6503C0.640736 42.1562 0.821251 42.7129 0.889038 43.2887C0.956825 43.8644 0.91053 44.4478 0.752838 45.0057C0.595146 45.5635 0.329136 46.0848 -0.0300293 46.5399C-0.389194 46.9949 -0.834465 47.3747 -1.34042 47.6577C-1.84638 47.9406 -2.40313 48.1211 -2.97885 48.1889C-3.55457 48.2567 -4.13799 48.2104 -4.69583 48.0527C-5.25367 47.895 -5.77501 47.629 -6.23004 47.2699L-35.73 23.9999C-36.0047 23.7775 -36.3206 23.6117 -36.6596 23.5119C-36.9986 23.4121 -37.354 23.3804 -37.7053 23.4185C-38.0566 23.4566 -38.397 23.5638 -38.7067 23.7339C-39.0164 23.9041 -39.2894 24.1338 -39.51 24.4099Z" fill="white"/>
</mask>
<g mask="url(#mask0_125_5545)">
<path d="M-37.4004 26.0801L-7.9104 49.3901C-6.42809 50.5582 -4.54311 51.0911 -2.66861 50.8718C-0.794107 50.6524 0.916988 49.6989 2.0896 48.2201C3.26035 46.7388 3.79479 44.8531 3.57538 42.9778C3.35597 41.1025 2.40069 39.3911 0.919617 38.2201L-1.64041 36.2201" stroke="#EAEAEA" stroke-width="5.39" stroke-miterlimit="10" stroke-linecap="round"/>
<g opacity="0.38">
<path d="M4.19992 49.8903C3.92171 50.2427 3.62106 50.5767 3.2999 50.8903C4.81802 48.8436 5.48104 46.2868 5.1489 43.7603C4.81675 41.2337 3.51544 38.9352 1.5199 37.3503L-1.0401 35.3503C-1.47011 35.0108 -1.99353 34.8107 -2.54037 34.7767C-3.08721 34.7428 -3.63139 34.8766 -4.1001 35.1603C-4.01024 34.951 -3.89613 34.753 -3.7601 34.5703C-3.31398 34.0121 -2.66546 33.6527 -1.95566 33.5703C-1.24586 33.4879 -0.53223 33.6892 0.0299072 34.1303L2.5899 36.1303C4.62041 37.7468 5.92925 40.1007 6.23087 42.6785C6.53248 45.2563 5.80241 47.8488 4.19992 49.8903Z" fill="#ADADAD"/>
</g>
<g style="mix-blend-mode:multiply">
<path d="M1.90013 26.6319L-10.249 62.7324L-3.32084 65.064L8.82832 28.9635L1.90013 26.6319Z" fill="#E00000"/>
</g>
</g>
<mask id="mask1_125_5545" style="mask-type:luminance" maskUnits="userSpaceOnUse" x="41" y="23" width="47" height="31">
<path d="M42.0002 52.5896C41.7793 52.3123 41.6153 51.994 41.5178 51.6531C41.4203 51.3122 41.3911 50.9553 41.432 50.6031C41.4729 50.2509 41.583 49.9102 41.756 49.6007C41.9291 49.2912 42.1616 49.0189 42.4402 48.7996L72.0002 25.4896C73.0114 24.6905 74.1701 24.0984 75.4101 23.7471C76.6501 23.3958 77.9472 23.2922 79.2272 23.4422C80.5073 23.5921 81.7452 23.9927 82.8705 24.6212C83.9957 25.2496 84.9861 26.0934 85.7852 27.1046C86.5843 28.1158 87.1764 29.2745 87.5277 30.5145C87.8791 31.7545 87.9826 33.0515 87.8327 34.3316C87.6827 35.6117 87.2821 36.8496 86.6537 37.9749C86.0253 39.1001 85.1814 40.0905 84.1702 40.8896L81.6102 42.8896C81.3325 43.1089 81.0143 43.2714 80.6737 43.3677C80.3332 43.464 79.9771 43.4923 79.6256 43.451C79.2741 43.4097 78.9342 43.2996 78.6253 43.1269C78.3164 42.9542 78.0445 42.7224 77.8252 42.4446C77.6059 42.1669 77.4435 41.8487 77.3471 41.5081C77.2508 41.1676 77.2225 40.8114 77.2638 40.46C77.3052 40.1085 77.4153 39.7686 77.588 39.4597C77.7607 39.1508 77.9925 38.8789 78.2702 38.6596L80.8202 36.6596C81.7405 35.9329 82.3344 34.8704 82.4714 33.7058C82.6083 32.5412 82.2769 31.3699 81.5502 30.4496C80.8235 29.5293 79.761 28.9354 78.5964 28.7985C77.4318 28.6616 76.2605 28.9929 75.3402 29.7196L45.8002 52.9996C45.5245 53.2238 45.207 53.3911 44.8662 53.4919C44.5255 53.5927 44.1681 53.625 43.8147 53.5869C43.4614 53.5487 43.1191 53.441 42.8077 53.2698C42.4962 53.0986 42.2218 52.8675 42.0002 52.5896Z" fill="white"/>
</mask>
<g mask="url(#mask1_125_5545)">
<path d="M44.1304 50.9194L73.6204 27.6094C74.3533 27.0284 75.1937 26.5978 76.0933 26.3421C76.993 26.0864 77.9342 26.0108 78.8632 26.1195C79.7921 26.2281 80.6904 26.519 81.5067 26.9755C82.323 27.4319 83.0413 28.0449 83.6204 28.7794C84.2026 29.5118 84.6343 30.352 84.8907 31.2519C85.1471 32.1517 85.2232 33.0933 85.1144 34.0226C85.0057 34.9519 84.7143 35.8506 84.2571 36.6669C83.8 37.4832 83.186 38.2011 82.4504 38.7794L79.9004 40.7794" stroke="#EAEAEA" stroke-width="5.39" stroke-miterlimit="10" stroke-linecap="round"/>
<g opacity="0.38">
<path d="M80.4304 29.2294C79.7009 28.3125 78.6379 27.722 77.4741 27.5871C76.3102 27.4522 75.1403 27.7838 74.2204 28.5094L44.7304 51.8194C44.2993 52.1574 43.7754 52.3557 43.2285 52.3879C42.6817 52.42 42.1381 52.2845 41.6704 51.9994C41.7577 52.212 41.8756 52.4108 42.0204 52.5894C42.2396 52.8666 42.5113 53.0978 42.82 53.27C43.1286 53.4421 43.4682 53.5517 43.8192 53.5926C44.1703 53.6335 44.5259 53.6048 44.8658 53.5081C45.2058 53.4115 45.5233 53.2488 45.8004 53.0294L75.2904 29.7194C76.068 29.1144 77.0252 28.786 78.0104 28.786C78.9956 28.786 79.9527 29.1144 80.7304 29.7194C80.6441 29.548 80.5437 29.3842 80.4304 29.2294Z" fill="#ADADAD"/>
<path d="M85.7302 27.1094C85.4544 26.755 85.1536 26.4209 84.8302 26.1094C86.3483 28.1561 87.0113 30.7129 86.6792 33.2394C86.347 35.766 85.0457 38.0645 83.0502 39.6494L80.4902 41.6494C80.0602 41.9889 79.5368 42.189 78.9899 42.223C78.4431 42.2569 77.8989 42.1231 77.4302 41.8394C77.5201 42.0455 77.6343 42.2402 77.7702 42.4194C78.2133 42.9813 78.8614 43.3444 79.572 43.4288C80.2827 43.5132 80.9978 43.312 81.5602 42.8694L84.1202 40.8694C86.1507 39.2529 87.4595 36.899 87.7611 34.3212C88.0627 31.7434 87.3327 29.1509 85.7302 27.1094Z" fill="#ADADAD"/>
</g>
<g style="mix-blend-mode:multiply">
<path d="M90.365 48.0341L78.2158 11.9336L71.2876 14.2652L83.4368 50.3657L90.365 48.0341Z" fill="#E00000"/>
</g>
<g style="mix-blend-mode:multiply">
<path d="M79.1267 56.913L66.9775 20.8125L60.0494 23.1441L72.1985 59.2446L79.1267 56.913Z" fill="#E00000"/>
</g>
<g style="mix-blend-mode:multiply">
<path d="M67.9079 65.7787L55.7588 29.6782L48.8306 32.0098L60.9798 68.1103L67.9079 65.7787Z" fill="#E00000"/>
</g>
<g style="mix-blend-mode:multiply">
<path d="M56.6702 74.6577L44.521 38.5571L37.5928 40.8887L49.742 76.9892L56.6702 74.6577Z" fill="#E00000"/>
</g>
</g>
<mask id="mask2_125_5545" style="mask-type:luminance" maskUnits="userSpaceOnUse" x="92" y="23" width="47" height="31">
<path d="M138.3 52.5896C138.744 52.0285 138.946 51.3142 138.864 50.6036C138.781 49.893 138.42 49.2442 137.86 48.7996L108.37 25.4896C107.359 24.6905 106.2 24.0984 104.96 23.7471C103.72 23.3958 102.423 23.2922 101.143 23.4422C99.8628 23.5921 98.6248 23.9927 97.4996 24.6212C96.3744 25.2496 95.3839 26.0934 94.5849 27.1046C93.7858 28.1158 93.1937 29.2745 92.8424 30.5145C92.4911 31.7545 92.3874 33.0515 92.5374 34.3316C92.6873 35.6117 93.088 36.8496 93.7164 37.9749C94.3448 39.1001 95.1887 40.0905 96.1998 40.8896L98.7598 42.8896C99.0376 43.1089 99.3558 43.2714 99.6963 43.3677C100.037 43.464 100.393 43.4923 100.745 43.451C101.096 43.4097 101.436 43.2996 101.745 43.1269C102.054 42.9542 102.326 42.7224 102.545 42.4446C102.764 42.1669 102.927 41.8487 103.023 41.5081C103.119 41.1676 103.148 40.8114 103.106 40.46C103.065 40.1085 102.955 39.7686 102.782 39.4597C102.609 39.1508 102.378 38.8789 102.1 38.6596L99.5398 36.6596C98.6804 35.9159 98.1405 34.8698 98.0322 33.7384C97.9239 32.6071 98.2555 31.4775 98.9583 30.5843C99.661 29.691 100.681 29.1028 101.806 28.9418C102.931 28.7808 104.075 29.0594 105 29.7196L134.51 52.9996C135.067 53.4467 135.779 53.6546 136.49 53.5777C137.2 53.5009 137.851 53.1456 138.3 52.5896Z" fill="white"/>
</mask>
<g mask="url(#mask2_125_5545)">
<path d="M136.19 50.9198L106.69 27.6099C105.957 27.0289 105.116 26.5982 104.217 26.3426C103.317 26.0869 102.376 26.0113 101.447 26.1199C100.518 26.2286 99.6198 26.5195 98.8035 26.976C97.9871 27.4324 97.2688 28.0454 96.6898 28.7799C95.5191 30.2612 94.9846 32.1468 95.204 34.0221C95.4234 35.8974 96.3787 37.6088 97.8598 38.7799L100.42 40.7799" stroke="#EAEAEA" stroke-width="5.39" stroke-miterlimit="10" stroke-linecap="round"/>
<g opacity="0.38">
<path d="M99.8898 29.23C100.618 28.3138 101.679 27.7236 102.841 27.5886C104.003 27.4536 105.172 27.785 106.09 28.51L135.59 51.82C136.014 52.1477 136.527 52.3401 137.062 52.3722C137.597 52.4043 138.13 52.2746 138.59 52C138.506 52.2123 138.392 52.4111 138.25 52.59C137.805 53.1505 137.156 53.5116 136.446 53.5941C135.735 53.6766 135.021 53.4737 134.46 53.03L105 29.72C104.224 29.1142 103.269 28.7852 102.285 28.7852C101.301 28.7852 100.345 29.1142 99.5698 29.72C99.6625 29.548 99.7696 29.3841 99.8898 29.23Z" fill="#ADADAD"/>
<path d="M94.5899 27.1099C94.8628 26.7531 95.1637 26.4187 95.4899 26.1099C93.9717 28.1566 93.3087 30.7134 93.6409 33.2399C93.973 35.7665 95.2743 38.065 97.2699 39.6499L99.8299 41.6499C100.26 41.9894 100.783 42.1895 101.33 42.2235C101.877 42.2574 102.421 42.1236 102.89 41.8399C102.8 42.046 102.686 42.2407 102.55 42.4199C102.107 42.9818 101.459 43.3449 100.748 43.4293C100.037 43.5137 99.3223 43.3125 98.7599 42.8699L96.1999 40.8699C94.1671 39.2549 92.8566 36.9007 92.5549 34.3222C92.2531 31.7436 92.9848 29.1504 94.5899 27.1099Z" fill="#ADADAD"/>
</g>
<g style="mix-blend-mode:multiply">
<path d="M96.8835 50.3632L109.033 14.2627L102.105 11.9311L89.9554 48.0316L96.8835 50.3632Z" fill="#E00000"/>
</g>
<g style="mix-blend-mode:multiply">
<path d="M108.106 59.2343L120.255 23.1338L113.327 20.8022L101.178 56.9027L108.106 59.2343Z" fill="#E00000"/>
</g>
<g style="mix-blend-mode:multiply">
<path d="M119.347 68.1088L131.496 32.0083L124.568 29.6767L112.419 65.7772L119.347 68.1088Z" fill="#E00000"/>
</g>
<g style="mix-blend-mode:multiply">
<path d="M130.559 76.9897L142.708 40.8892L135.78 38.5576L123.631 74.6581L130.559 76.9897Z" fill="#E00000"/>
</g>
</g>
<mask id="mask3_125_5545" style="mask-type:luminance" maskUnits="userSpaceOnUse" x="125" y="23" width="48" height="31">
<path d="M126.29 24.4097C125.848 24.9721 125.646 25.6872 125.731 26.3978C125.815 27.1085 126.178 27.7566 126.74 28.1997L156.23 51.4997C157.237 52.3355 158.4 52.9614 159.652 53.3408C160.904 53.7202 162.22 53.8453 163.521 53.7087C164.822 53.5721 166.083 53.1767 167.229 52.5456C168.375 51.9145 169.383 51.0606 170.194 50.0341C171.005 49.0075 171.603 47.8291 171.952 46.5682C172.301 45.3073 172.394 43.9893 172.226 42.6918C172.058 41.3944 171.632 40.1436 170.973 39.0132C170.314 37.8829 169.436 36.8956 168.39 36.1097L165.84 34.1097C165.564 33.8731 165.243 33.6946 164.897 33.5849C164.55 33.4753 164.185 33.4367 163.824 33.4716C163.462 33.5064 163.111 33.614 162.791 33.7877C162.472 33.9615 162.191 34.1979 161.966 34.4829C161.74 34.7678 161.574 35.0953 161.478 35.4459C161.382 35.7964 161.358 36.1628 161.407 36.5229C161.456 36.883 161.577 37.2296 161.763 37.5418C161.949 37.854 162.197 38.1254 162.49 38.3397L165.05 40.3397C165.528 40.6915 165.929 41.1359 166.231 41.6462C166.534 42.1566 166.73 42.7226 166.809 43.3104C166.888 43.8982 166.847 44.4959 166.69 45.0678C166.533 45.6398 166.263 46.1743 165.895 46.6395C165.527 47.1047 165.069 47.4911 164.549 47.7757C164.029 48.0603 163.456 48.2373 162.866 48.2961C162.276 48.3549 161.68 48.2943 161.114 48.118C160.548 47.9417 160.023 47.6532 159.57 47.2697L130.08 23.9997C129.805 23.7771 129.488 23.611 129.148 23.5111C128.808 23.4112 128.452 23.3794 128.1 23.4175C127.748 23.4556 127.407 23.5628 127.096 23.7331C126.786 23.9034 126.512 24.1333 126.29 24.4097Z" fill="white"/>
</mask>
<g mask="url(#mask3_125_5545)">
<path d="M128.41 26.0801L157.9 49.3901C159.382 50.5608 161.267 51.0953 163.142 50.8759C165.018 50.6564 166.729 49.7012 167.9 48.2201C168.482 47.4877 168.914 46.6474 169.171 45.7476C169.427 44.8478 169.503 43.9061 169.394 42.9768C169.285 42.0475 168.994 41.1489 168.537 40.3326C168.08 39.5162 167.466 38.7983 166.73 38.2201L164.17 36.2201" stroke="#EAEAEA" stroke-width="5.39" stroke-miterlimit="10" stroke-linecap="round"/>
<g opacity="0.38">
<path d="M164.71 47.7597C163.982 48.6781 162.92 49.2705 161.756 49.4073C160.592 49.5441 159.421 49.2142 158.5 48.4897L129 25.1797C128.574 24.8558 128.061 24.6658 127.527 24.6337C126.993 24.6017 126.462 24.7291 126 24.9997C126.09 24.7936 126.204 24.5989 126.34 24.4197C126.559 24.1411 126.832 23.9086 127.141 23.7355C127.451 23.5625 127.791 23.4524 128.143 23.4115C128.496 23.3706 128.853 23.3998 129.193 23.4973C129.534 23.5948 129.853 23.7587 130.13 23.9797L159.62 47.2797C160.396 47.8879 161.354 48.2184 162.34 48.2184C163.326 48.2184 164.284 47.8879 165.06 47.2797C164.954 47.447 164.837 47.6073 164.71 47.7597Z" fill="#ADADAD"/>
<path d="M170 49.8899C169.719 50.2398 169.419 50.5736 169.1 50.8899C170.617 48.8419 171.279 46.2844 170.945 43.7577C170.61 41.2311 169.307 38.9333 167.31 37.3499L164.76 35.3499C164.33 35.0103 163.807 34.8102 163.26 34.7762C162.713 34.7423 162.169 34.8761 161.7 35.1599C161.79 34.9506 161.904 34.7525 162.04 34.5699C162.486 34.0117 163.135 33.6523 163.845 33.5698C164.554 33.4874 165.268 33.6887 165.83 34.1299L168.38 36.1299C170.414 37.7433 171.727 40.0968 172.031 42.6755C172.334 45.2541 171.604 47.848 170 49.8899Z" fill="#ADADAD"/>
</g>
<g style="mix-blend-mode:multiply">
<path d="M167.717 26.6324L155.568 62.7329L162.496 65.0645L174.645 28.964L167.717 26.6324Z" fill="#E00000"/>
</g>
<g style="mix-blend-mode:multiply">
<path d="M156.489 17.7569L144.339 53.8574L151.268 56.189L163.417 20.0885L156.489 17.7569Z" fill="#E00000"/>
</g>
<g style="mix-blend-mode:multiply">
<path d="M145.25 8.88782L133.101 44.9883L140.029 47.3199L152.178 11.2194L145.25 8.88782Z" fill="#E00000"/>
</g>
<g style="mix-blend-mode:multiply">
<path d="M134.022 0.0123274L121.873 36.1128L128.801 38.4444L140.95 2.34392L134.022 0.0123274Z" fill="#E00000"/>
</g>
</g>
<path d="M56.6701 24.4097C57.1127 24.9721 57.3139 25.6872 57.2295 26.3978C57.1452 27.1085 56.7821 27.7566 56.2201 28.1997L26.7301 51.4997C25.7236 52.3355 24.56 52.9614 23.3079 53.3408C22.0558 53.7202 20.7405 53.8453 19.4393 53.7087C18.1382 53.5721 16.8775 53.1767 15.7314 52.5456C14.5854 51.9145 13.5771 51.0606 12.766 50.0341C11.9549 49.0075 11.3574 47.8291 11.0085 46.5682C10.6597 45.3073 10.5665 43.9893 10.7346 42.6918C10.9027 41.3944 11.3287 40.1436 11.9873 39.0132C12.646 37.8829 13.5242 36.8956 14.5701 36.1097L17.1201 34.1097C17.396 33.8731 17.7168 33.6946 18.0633 33.5849C18.4099 33.4753 18.7749 33.4367 19.1367 33.4716C19.4985 33.5064 19.8496 33.614 20.1688 33.7877C20.488 33.9615 20.7688 34.1979 20.9945 34.4829C21.2201 34.7678 21.386 35.0953 21.482 35.4459C21.578 35.7964 21.6022 36.1628 21.5533 36.5229C21.5043 36.883 21.3831 37.2296 21.197 37.5418C21.0109 37.854 20.7636 38.1254 20.4701 38.3397L17.9101 40.3397C17.4327 40.6915 17.0309 41.1359 16.7288 41.6462C16.4266 42.1566 16.2303 42.7226 16.1515 43.3104C16.0726 43.8982 16.1129 44.4959 16.2699 45.0678C16.4269 45.6398 16.6974 46.1743 17.0653 46.6395C17.4331 47.1047 17.8909 47.4911 18.4112 47.7757C18.9315 48.0603 19.5038 48.2373 20.094 48.2961C20.6842 48.3549 21.2802 48.2943 21.8464 48.118C22.4127 47.9417 22.9377 47.6532 23.3901 47.2697L52.8801 23.9997C53.1556 23.7771 53.4723 23.611 53.8121 23.5111C54.1519 23.4112 54.5081 23.3794 54.8603 23.4175C55.2124 23.4556 55.5535 23.5628 55.8641 23.7331C56.1747 23.9034 56.4486 24.1333 56.6701 24.4097Z" fill="url(#paint0_linear_125_5545)"/>
<mask id="mask4_125_5545" style="mask-type:luminance" maskUnits="userSpaceOnUse" x="10" y="23" width="48" height="31">
<path d="M56.6701 24.4097C57.1127 24.9721 57.3139 25.6872 57.2295 26.3978C57.1452 27.1085 56.7821 27.7566 56.2201 28.1997L26.7301 51.4997C25.7236 52.3355 24.56 52.9614 23.3079 53.3408C22.0558 53.7202 20.7405 53.8453 19.4393 53.7087C18.1382 53.5721 16.8775 53.1767 15.7314 52.5456C14.5854 51.9145 13.5771 51.0606 12.766 50.0341C11.9549 49.0075 11.3574 47.8291 11.0085 46.5682C10.6597 45.3073 10.5665 43.9893 10.7346 42.6918C10.9027 41.3944 11.3287 40.1436 11.9873 39.0132C12.646 37.8829 13.5242 36.8956 14.5701 36.1097L17.1201 34.1097C17.396 33.8731 17.7168 33.6946 18.0633 33.5849C18.4099 33.4753 18.7749 33.4367 19.1367 33.4716C19.4985 33.5064 19.8496 33.614 20.1688 33.7877C20.488 33.9615 20.7688 34.1979 20.9945 34.4829C21.2201 34.7678 21.386 35.0953 21.482 35.4459C21.578 35.7964 21.6022 36.1628 21.5533 36.5229C21.5043 36.883 21.3831 37.2296 21.197 37.5418C21.0109 37.854 20.7636 38.1254 20.4701 38.3397L17.9101 40.3397C17.4327 40.6915 17.0309 41.1359 16.7288 41.6462C16.4266 42.1566 16.2303 42.7226 16.1515 43.3104C16.0726 43.8982 16.1129 44.4959 16.2699 45.0678C16.4269 45.6398 16.6974 46.1743 17.0653 46.6395C17.4331 47.1047 17.8909 47.4911 18.4112 47.7757C18.9315 48.0603 19.5038 48.2373 20.094 48.2961C20.6842 48.3549 21.2802 48.2943 21.8464 48.118C22.4127 47.9417 22.9377 47.6532 23.3901 47.2697L52.8801 23.9997C53.1556 23.7771 53.4723 23.611 53.8121 23.5111C54.1519 23.4112 54.5081 23.3794 54.8603 23.4175C55.2124 23.4556 55.5535 23.5628 55.8641 23.7331C56.1747 23.9034 56.4486 24.1333 56.6701 24.4097Z" fill="white"/>
</mask>
<g mask="url(#mask4_125_5545)">
<path d="M54.5497 26.0796L25.0597 49.3896C23.5784 50.5603 21.6928 51.0948 19.8175 50.8754C17.9421 50.656 16.2308 49.7007 15.0597 48.2196C14.4775 47.4872 14.0458 46.6469 13.7894 45.7471C13.533 44.8473 13.457 43.9056 13.5657 42.9763C13.6744 42.047 13.9658 41.1484 14.423 40.3321C14.8801 39.5157 15.4942 38.7978 16.2297 38.2196L18.7797 36.2196" stroke="#EAEAEA" stroke-width="5.39" stroke-miterlimit="10" stroke-linecap="round"/>
<path d="M8.32399 28.9669L20.4731 65.0674L27.4013 62.7358L15.2522 26.6353L8.32399 28.9669Z" fill="url(#paint1_linear_125_5545)"/>
<path d="M19.5554 20.0929L31.7046 56.1934L38.6328 53.8618L26.4836 17.7613L19.5554 20.0929Z" fill="url(#paint2_linear_125_5545)"/>
<path d="M30.7776 11.2115L42.9268 47.312L49.8549 44.9804L37.7058 8.8799L30.7776 11.2115Z" fill="url(#paint3_linear_125_5545)"/>
<path d="M42.009 2.33749L54.1582 38.438L61.0864 36.1064L48.9372 0.00590118L42.009 2.33749Z" fill="url(#paint4_linear_125_5545)"/>
</g>
<g opacity="0.26">
<path d="M18.2499 47.7597C18.978 48.6781 20.0403 49.2705 21.2042 49.4073C22.3681 49.5441 23.5388 49.2142 24.4599 48.4897L53.9999 25.1797C54.4259 24.8558 54.9385 24.6658 55.4726 24.6337C56.0067 24.6017 56.5383 24.7291 56.9999 24.9997C56.91 24.7936 56.7958 24.5989 56.6599 24.4197C56.4406 24.1411 56.1683 23.9086 55.8588 23.7355C55.5493 23.5625 55.2087 23.4524 54.8564 23.4115C54.5042 23.3706 54.1474 23.3998 53.8065 23.4973C53.4655 23.5948 53.1473 23.7587 52.8699 23.9797L23.3799 47.2797C22.6037 47.8879 21.6461 48.2184 20.6599 48.2184C19.6738 48.2184 18.7162 47.8879 17.9399 47.2797C18.0334 47.4459 18.1369 47.6062 18.2499 47.7597Z" fill="#ADADAD"/>
<path d="M13.0001 49.8899C13.2812 50.2398 13.5816 50.5736 13.9001 50.8899C12.3831 48.8419 11.7217 46.2844 12.0557 43.7577C12.3898 41.2311 13.693 38.9333 15.6901 37.3499L18.2401 35.3499C18.6701 35.0103 19.1936 34.8102 19.7404 34.7762C20.2872 34.7423 20.8314 34.8761 21.3001 35.1599C21.2102 34.9506 21.0961 34.7525 20.9601 34.5699C20.514 34.0117 19.8654 33.6523 19.1556 33.5698C18.4459 33.4874 17.7323 33.6887 17.1701 34.1299L14.6201 36.1299C12.5858 37.7433 11.2733 40.0968 10.9697 42.6755C10.6661 45.2541 11.3962 47.848 13.0001 49.8899Z" fill="#ADADAD"/>
</g>
<path d="M222.58 24.4097C223.021 24.9718 223.222 25.6855 223.14 26.3953C223.057 27.1051 222.698 27.7536 222.14 28.1997L192.64 51.4997C190.593 53.0379 188.025 53.7148 185.486 53.3858C182.947 53.0568 180.637 51.748 179.049 49.7389C177.462 47.7298 176.723 45.1797 176.99 42.6331C177.257 40.0865 178.51 37.7454 180.48 36.1097L183.04 34.1097C183.601 33.6668 184.315 33.4648 185.024 33.5483C185.734 33.6318 186.382 33.9938 186.825 34.5547C187.268 35.1156 187.47 35.8295 187.386 36.5394C187.303 37.2492 186.941 37.8968 186.38 38.3397L183.82 40.3397C182.945 41.0808 182.393 42.1327 182.279 43.2733C182.166 44.4138 182.5 45.554 183.211 46.4531C183.922 47.3522 184.954 47.9399 186.09 48.0923C187.226 48.2446 188.377 47.9497 189.3 47.2697L218.79 23.9997C219.065 23.7771 219.382 23.611 219.722 23.5111C220.062 23.4112 220.418 23.3794 220.77 23.4175C221.122 23.4556 221.463 23.5628 221.774 23.7331C222.084 23.9034 222.358 24.1333 222.58 24.4097Z" fill="url(#paint5_linear_125_5545)"/>
<mask id="mask5_125_5545" style="mask-type:luminance" maskUnits="userSpaceOnUse" x="176" y="23" width="48" height="31">
<path d="M222.58 24.4097C223.021 24.9718 223.222 25.6855 223.14 26.3953C223.057 27.1051 222.698 27.7536 222.14 28.1997L192.64 51.4997C190.593 53.0379 188.025 53.7148 185.486 53.3858C182.947 53.0568 180.637 51.748 179.049 49.7389C177.462 47.7298 176.723 45.1797 176.99 42.6331C177.257 40.0865 178.51 37.7454 180.48 36.1097L183.04 34.1097C183.601 33.6668 184.315 33.4648 185.024 33.5483C185.734 33.6318 186.382 33.9938 186.825 34.5547C187.268 35.1156 187.47 35.8295 187.386 36.5394C187.303 37.2492 186.941 37.8968 186.38 38.3397L183.82 40.3397C182.945 41.0808 182.393 42.1327 182.279 43.2733C182.166 44.4138 182.5 45.554 183.211 46.4531C183.922 47.3522 184.954 47.9399 186.09 48.0923C187.226 48.2446 188.377 47.9497 189.3 47.2697L218.79 23.9997C219.065 23.7771 219.382 23.611 219.722 23.5111C220.062 23.4112 220.418 23.3794 220.77 23.4175C221.122 23.4556 221.463 23.5628 221.774 23.7331C222.084 23.9034 222.358 24.1333 222.58 24.4097Z" fill="white"/>
</mask>
<g mask="url(#mask5_125_5545)">
<path d="M220.46 26.0801L191 49.3901C189.519 50.5608 187.633 51.0953 185.758 50.8759C183.882 50.6564 182.171 49.7012 181 48.2201C180.419 47.4871 179.988 46.6468 179.733 45.7471C179.477 44.8475 179.401 43.9062 179.51 42.9773C179.619 42.0484 179.91 41.15 180.366 40.3337C180.823 39.5174 181.436 38.7991 182.17 38.2201L184.73 36.2201" stroke="#EAEAEA" stroke-width="5.39" stroke-miterlimit="10" stroke-linecap="round"/>
<path d="M174.222 28.9635L186.372 65.064L193.3 62.7324L181.151 26.6319L174.222 28.9635Z" fill="url(#paint6_linear_125_5545)"/>
<path d="M184.829 18.5547L197.018 54.7402L203.962 52.401L191.773 16.2155L184.829 18.5547Z" fill="url(#paint7_linear_125_5545)"/>
<path d="M196.676 11.2081L208.825 47.3086L215.753 44.977L203.604 8.87648L196.676 11.2081Z" fill="url(#paint8_linear_125_5545)"/>
<path d="M207.921 2.34332L220.07 38.4438L226.998 36.1123L214.849 0.0117316L207.921 2.34332Z" fill="url(#paint9_linear_125_5545)"/>
</g>
<g opacity="0.26">
<path d="M184.17 47.7599C184.897 48.6776 185.957 49.2698 187.119 49.4067C188.282 49.5435 189.451 49.2139 190.37 48.49L219.86 25.18C220.292 24.843 220.815 24.6445 221.361 24.6106C221.907 24.5767 222.451 24.709 222.92 24.99C222.83 24.7838 222.716 24.5891 222.58 24.41C222.361 24.1313 222.089 23.8988 221.779 23.7258C221.47 23.5528 221.129 23.4426 220.777 23.4017C220.425 23.3608 220.068 23.39 219.727 23.4875C219.386 23.585 219.068 23.749 218.79 23.97L189.3 47.27C188.524 47.8782 187.567 48.2087 186.58 48.2087C185.594 48.2087 184.637 47.8782 183.86 47.27C183.954 47.4394 184.057 47.6031 184.17 47.7599Z" fill="#ADADAD"/>
<path d="M178.87 49.89C179.148 50.2423 179.449 50.5763 179.77 50.89C178.25 48.8441 177.585 46.2867 177.917 43.7594C178.25 41.2321 179.552 38.9333 181.55 37.35L184.11 35.35C184.54 35.0105 185.064 34.8103 185.61 34.7764C186.157 34.7424 186.701 34.8763 187.17 35.16C187.081 34.9485 186.963 34.75 186.82 34.57C186.376 34.0125 185.729 33.6533 185.021 33.5709C184.313 33.4884 183.601 33.6894 183.04 34.13L180.48 36.13C178.447 37.7449 177.137 40.0991 176.835 42.6777C176.533 45.2563 177.265 47.8494 178.87 49.89Z" fill="#ADADAD"/>
</g>
<defs>
<linearGradient id="paint0_linear_125_5545" x1="10.8401" y1="38.4997" x2="57.2501" y2="38.4997" gradientUnits="userSpaceOnUse">
<stop stop-color="#00B53E"/>
<stop offset="0.04" stop-color="#00923D"/>
<stop offset="0.18" stop-color="#00AB3E"/>
<stop offset="0.28" stop-color="#00B53E"/>
<stop offset="0.5" stop-color="#6BC62A"/>
<stop offset="0.72" stop-color="#00B53E"/>
<stop offset="0.82" stop-color="#00A83E"/>
<stop offset="0.95" stop-color="#00923D"/>
<stop offset="1" stop-color="#00B53E"/>
</linearGradient>
<linearGradient id="paint1_linear_125_5545" x1="8.32667" y1="45.8714" x2="27.4067" y2="45.8714" gradientUnits="userSpaceOnUse">
<stop stop-color="#00B53E"/>
<stop offset="0.04" stop-color="#00923D"/>
<stop offset="0.18" stop-color="#00AB3E"/>
<stop offset="0.28" stop-color="#00B53E"/>
<stop offset="0.5" stop-color="#6BC62A"/>
<stop offset="0.72" stop-color="#00B53E"/>
<stop offset="0.82" stop-color="#00A83E"/>
<stop offset="0.95" stop-color="#00923D"/>
<stop offset="1" stop-color="#00B53E"/>
</linearGradient>
<linearGradient id="paint2_linear_125_5545" x1="19.5528" y1="36.9946" x2="38.6328" y2="36.9946" gradientUnits="userSpaceOnUse">
<stop stop-color="#00B53E"/>
<stop offset="0.04" stop-color="#00923D"/>
<stop offset="0.18" stop-color="#00AB3E"/>
<stop offset="0.28" stop-color="#00B53E"/>
<stop offset="0.5" stop-color="#6BC62A"/>
<stop offset="0.72" stop-color="#00B53E"/>
<stop offset="0.82" stop-color="#00A83E"/>
<stop offset="0.95" stop-color="#00923D"/>
<stop offset="1" stop-color="#00B53E"/>
</linearGradient>
<linearGradient id="paint3_linear_125_5545" x1="30.7791" y1="28.1174" x2="49.8491" y2="28.1174" gradientUnits="userSpaceOnUse">
<stop stop-color="#00B53E"/>
<stop offset="0.04" stop-color="#00923D"/>
<stop offset="0.18" stop-color="#00AB3E"/>
<stop offset="0.28" stop-color="#00B53E"/>
<stop offset="0.5" stop-color="#6BC62A"/>
<stop offset="0.72" stop-color="#00B53E"/>
<stop offset="0.82" stop-color="#00A83E"/>
<stop offset="0.95" stop-color="#00923D"/>
<stop offset="1" stop-color="#00B53E"/>
</linearGradient>
<linearGradient id="paint4_linear_125_5545" x1="42.0084" y1="19.2601" x2="61.0784" y2="19.2601" gradientUnits="userSpaceOnUse">
<stop stop-color="#00B53E"/>
<stop offset="0.04" stop-color="#00923D"/>
<stop offset="0.18" stop-color="#00AB3E"/>
<stop offset="0.28" stop-color="#00B53E"/>
<stop offset="0.5" stop-color="#6BC62A"/>
<stop offset="0.72" stop-color="#00B53E"/>
<stop offset="0.82" stop-color="#00A83E"/>
<stop offset="0.95" stop-color="#00923D"/>
<stop offset="1" stop-color="#00B53E"/>
</linearGradient>
<linearGradient id="paint5_linear_125_5545" x1="176.76" y1="38.4997" x2="223.16" y2="38.4997" gradientUnits="userSpaceOnUse">
<stop stop-color="#00B53E"/>
<stop offset="0.04" stop-color="#00923D"/>
<stop offset="0.18" stop-color="#00AB3E"/>
<stop offset="0.28" stop-color="#00B53E"/>
<stop offset="0.5" stop-color="#6BC62A"/>
<stop offset="0.72" stop-color="#00B53E"/>
<stop offset="0.82" stop-color="#00A83E"/>
<stop offset="0.95" stop-color="#00923D"/>
<stop offset="1" stop-color="#00B53E"/>
</linearGradient>
<linearGradient id="paint6_linear_125_5545" x1="174.226" y1="45.8905" x2="193.296" y2="45.8906" gradientUnits="userSpaceOnUse">
<stop stop-color="#00B53E"/>
<stop offset="0.04" stop-color="#00923D"/>
<stop offset="0.18" stop-color="#00AB3E"/>
<stop offset="0.28" stop-color="#00B53E"/>
<stop offset="0.5" stop-color="#6BC62A"/>
<stop offset="0.72" stop-color="#00B53E"/>
<stop offset="0.82" stop-color="#00A83E"/>
<stop offset="0.95" stop-color="#00923D"/>
<stop offset="1" stop-color="#00B53E"/>
</linearGradient>
<linearGradient id="paint7_linear_125_5545" x1="184.831" y1="35.5173" x2="203.958" y2="35.512" gradientUnits="userSpaceOnUse">
<stop stop-color="#00B53E"/>
<stop offset="0.04" stop-color="#00923D"/>
<stop offset="0.18" stop-color="#00AB3E"/>
<stop offset="0.28" stop-color="#00B53E"/>
<stop offset="0.5" stop-color="#6BC62A"/>
<stop offset="0.72" stop-color="#00B53E"/>
<stop offset="0.82" stop-color="#00A83E"/>
<stop offset="0.95" stop-color="#00923D"/>
<stop offset="1" stop-color="#00B53E"/>
</linearGradient>
<linearGradient id="paint8_linear_125_5545" x1="196.678" y1="28.1333" x2="215.758" y2="28.1333" gradientUnits="userSpaceOnUse">
<stop stop-color="#00B53E"/>
<stop offset="0.04" stop-color="#00923D"/>
<stop offset="0.18" stop-color="#00AB3E"/>
<stop offset="0.28" stop-color="#00B53E"/>
<stop offset="0.5" stop-color="#6BC62A"/>
<stop offset="0.72" stop-color="#00B53E"/>
<stop offset="0.82" stop-color="#00A83E"/>
<stop offset="0.95" stop-color="#00923D"/>
<stop offset="1" stop-color="#00B53E"/>
</linearGradient>
<linearGradient id="paint9_linear_125_5545" x1="207.914" y1="19.2664" x2="226.994" y2="19.2664" gradientUnits="userSpaceOnUse">
<stop stop-color="#00B53E"/>
<stop offset="0.04" stop-color="#00923D"/>
<stop offset="0.18" stop-color="#00AB3E"/>
<stop offset="0.28" stop-color="#00B53E"/>
<stop offset="0.5" stop-color="#6BC62A"/>
<stop offset="0.72" stop-color="#00B53E"/>
<stop offset="0.82" stop-color="#00A83E"/>
<stop offset="0.95" stop-color="#00923D"/>
<stop offset="1" stop-color="#00B53E"/>
</linearGradient>
</defs>
</svg>
