<svg width="180" height="78" viewBox="0 0 180 78" fill="none" xmlns="http://www.w3.org/2000/svg">
<mask id="mask0_125_5946" style="mask-type:luminance" maskUnits="userSpaceOnUse" x="86" y="23" width="47" height="31">
<path d="M86.87 24.4097C86.4274 24.9721 86.2262 25.6872 86.3106 26.3978C86.395 27.1085 86.758 27.7566 87.32 28.1997L116.81 51.4997C118.851 53.1162 121.45 53.8558 124.036 53.5557C126.623 53.2556 128.984 51.9405 130.6 49.8997C132.217 47.8589 132.956 45.2595 132.656 42.6733C132.356 40.0872 131.041 37.7262 129 36.1097L126.45 34.1097C126.174 33.8731 125.853 33.6946 125.507 33.5849C125.16 33.4753 124.795 33.4367 124.433 33.4716C124.072 33.5064 123.721 33.614 123.401 33.7877C123.082 33.9615 122.801 34.1979 122.576 34.4829C122.35 34.7678 122.184 35.0953 122.088 35.4459C121.992 35.7964 121.968 36.1628 122.017 36.5229C122.066 36.883 122.187 37.2296 122.373 37.5418C122.559 37.854 122.806 38.1254 123.1 38.3397L125.66 40.3397C126.137 40.6915 126.539 41.1359 126.841 41.6462C127.143 42.1566 127.34 42.7226 127.419 43.3104C127.497 43.8982 127.457 44.4959 127.3 45.0678C127.143 45.6398 126.873 46.1743 126.505 46.6395C126.137 47.1047 125.679 47.4911 125.159 47.7757C124.639 48.0603 124.066 48.2373 123.476 48.2961C122.886 48.3549 122.29 48.2943 121.724 48.118C121.157 47.9417 120.632 47.6532 120.18 47.2697L90.66 23.9997C90.3845 23.7771 90.0678 23.611 89.728 23.5111C89.3882 23.4112 89.032 23.3794 88.6799 23.4175C88.3277 23.4556 87.9866 23.5628 87.676 23.7331C87.3654 23.9034 87.0915 24.1333 86.87 24.4097Z" fill="white"/>
</mask>
<g mask="url(#mask0_125_5946)">
<path d="M89 26.0796L118.49 49.3896C119.971 50.5603 121.857 51.0948 123.732 50.8754C125.608 50.656 127.319 49.7007 128.49 48.2196C129.071 47.4866 129.502 46.6463 129.757 45.7466C130.013 44.847 130.089 43.9058 129.98 42.9768C129.871 42.0479 129.58 41.1495 129.124 40.3332C128.667 39.5169 128.054 38.7986 127.32 38.2196L124.76 36.2196" stroke="#EAEAEA" stroke-width="5.39" stroke-miterlimit="10" stroke-linecap="round"/>
<g opacity="0.38">
<path d="M125.29 47.7597C124.562 48.678 123.5 49.2705 122.336 49.4073C121.172 49.5441 120.001 49.2142 119.08 48.4897L89.59 25.1797C89.1578 24.8443 88.6341 24.6476 88.0879 24.6155C87.5418 24.5833 86.9986 24.7173 86.53 24.9997C86.62 24.7936 86.7341 24.5989 86.87 24.4197C87.0908 24.1425 87.3642 23.9118 87.6744 23.7406C87.9846 23.5694 88.3256 23.4612 88.6778 23.4221C89.0299 23.3831 89.3863 23.414 89.7265 23.5131C90.0667 23.6123 90.3839 23.7776 90.66 23.9997L120.15 47.2997C120.926 47.9079 121.884 48.2384 122.87 48.2384C123.856 48.2384 124.814 47.9079 125.59 47.2997C125.499 47.4588 125.399 47.6124 125.29 47.7597Z" fill="#ADADAD"/>
<path d="M130.59 49.8899C130.309 50.2398 130.009 50.5736 129.69 50.8899C131.207 48.8419 131.868 46.2844 131.534 43.7577C131.2 41.2311 129.897 38.9333 127.9 37.3499L125.35 35.3499C124.92 35.0103 124.397 34.8102 123.85 34.7762C123.303 34.7423 122.759 34.8761 122.29 35.1599C122.376 34.9487 122.49 34.7502 122.63 34.5699C123.076 34.0117 123.725 33.6523 124.434 33.5698C125.144 33.4874 125.858 33.6887 126.42 34.1299L128.97 36.1299C131.004 37.7433 132.317 40.0968 132.62 42.6755C132.924 45.2541 132.194 47.848 130.59 49.8899Z" fill="#ADADAD"/>
</g>
<g style="mix-blend-mode:multiply">
<path d="M128.26 26.6212L116.111 62.7217L123.039 65.0533L135.188 28.9528L128.26 26.6212Z" fill="#E00000"/>
</g>
<g style="mix-blend-mode:multiply">
<path d="M117.042 17.7457L104.893 53.8462L111.821 56.1778L123.97 20.0773L117.042 17.7457Z" fill="#E00000"/>
</g>
<g style="mix-blend-mode:multiply">
<path d="M105.803 8.87656L93.6543 44.9771L100.582 47.3086L112.732 11.2081L105.803 8.87656Z" fill="#E00000"/>
</g>
<g style="mix-blend-mode:multiply">
<path d="M94.5749 0.00106076L82.4258 36.1016L89.354 38.4332L101.503 2.33265L94.5749 0.00106076Z" fill="#E00000"/>
</g>
</g>
<mask id="mask1_125_5946" style="mask-type:luminance" maskUnits="userSpaceOnUse" x="167" y="23" width="48" height="31">
<path d="M168.4 52.59C167.957 52.0276 167.756 51.3125 167.841 50.6018C167.925 49.8912 168.288 49.2431 168.85 48.8L198.34 25.49C200.382 23.8775 202.981 23.1422 205.566 23.446C208.15 23.7499 210.508 25.0678 212.12 27.11C213.733 29.1521 214.468 31.7512 214.164 34.3355C213.86 36.9197 212.542 39.2775 210.5 40.89L207.94 42.89C207.379 43.3329 206.665 43.5348 205.955 43.4514C205.246 43.3679 204.598 43.0059 204.155 42.445C203.712 41.884 203.51 41.1701 203.594 40.4603C203.677 39.7505 204.039 39.1029 204.6 38.66L207.16 36.66C207.616 36.3002 207.996 35.8541 208.279 35.3473C208.563 34.8405 208.743 34.2828 208.811 33.7062C208.879 33.1295 208.833 32.5452 208.674 31.9865C208.516 31.4278 208.25 30.9057 207.89 30.45C207.53 29.9943 207.084 29.6139 206.577 29.3306C206.071 29.0473 205.513 28.8666 204.936 28.7988C204.36 28.7311 203.775 28.7775 203.217 28.9356C202.658 29.0936 202.136 29.3602 201.68 29.72L172.19 53C171.633 53.4471 170.921 53.6549 170.21 53.5781C169.5 53.5012 168.849 53.1459 168.4 52.59Z" fill="white"/>
</mask>
<g mask="url(#mask1_125_5946)">
<path d="M170.52 50.9198L200 27.6099C200.733 27.0289 201.573 26.5982 202.473 26.3426C203.373 26.0869 204.314 26.0113 205.243 26.1199C206.172 26.2286 207.07 26.5195 207.886 26.976C208.703 27.4324 209.421 28.0454 210 28.7799C210.581 29.5128 211.012 30.3532 211.267 31.2528C211.523 32.1524 211.599 33.0937 211.49 34.0226C211.381 34.9515 211.09 35.8499 210.634 36.6662C210.177 37.4826 209.564 38.2008 208.83 38.7799L206.27 40.7799" stroke="#EAEAEA" stroke-width="5.39" stroke-miterlimit="10" stroke-linecap="round"/>
<g opacity="0.38">
<path d="M206.82 29.2299C206.091 28.313 205.028 27.7225 203.864 27.5876C202.7 27.4527 201.53 27.7843 200.61 28.5099L171.12 51.8199C170.689 52.1578 170.165 52.3562 169.618 52.3883C169.071 52.4205 168.528 52.285 168.06 51.9999C168.148 52.2103 168.262 52.4086 168.4 52.5899C168.845 53.1503 169.493 53.5114 170.204 53.5939C170.915 53.6764 171.629 53.4736 172.19 53.0299L201.68 29.7199C202.458 29.1149 203.415 28.7865 204.4 28.7865C205.385 28.7865 206.342 29.1149 207.12 29.7199C207 29.5499 206.93 29.3799 206.82 29.2299Z" fill="#ADADAD"/>
</g>
<g style="mix-blend-mode:multiply">
<path d="M194.278 65.7895L182.129 29.689L175.2 32.0206L187.35 68.1211L194.278 65.7895Z" fill="#E00000"/>
</g>
<g style="mix-blend-mode:multiply">
<path d="M183.04 74.6684L170.891 38.5679L163.962 40.8995L176.112 77L183.04 74.6684Z" fill="#E00000"/>
</g>
</g>
<mask id="mask2_125_5946" style="mask-type:luminance" maskUnits="userSpaceOnUse" x="54" y="23" width="48" height="31">
<path d="M101.07 52.5898C101.513 52.0274 101.714 51.3123 101.629 50.6017C101.545 49.891 101.182 49.2429 100.62 48.7998L71.13 25.4898C70.1258 24.6298 68.9581 23.9817 67.6971 23.5843C66.4361 23.187 65.1078 23.0487 63.7919 23.1777C62.4761 23.3066 61.1999 23.7003 60.04 24.3349C58.8802 24.9696 57.8606 25.8321 57.0425 26.8708C56.2244 27.9094 55.6247 29.1027 55.2794 30.3789C54.9341 31.6552 54.8504 32.9881 55.0332 34.2975C55.2161 35.6069 55.6617 36.8659 56.3434 37.9988C57.0251 39.1316 57.9287 40.115 59 40.8898L61.55 42.8898C62.1136 43.3013 62.8146 43.4787 63.506 43.3846C64.1975 43.2906 64.8256 42.9326 65.2589 42.3855C65.6921 41.8385 65.8967 41.145 65.8298 40.4504C65.7629 39.7558 65.4297 39.1141 64.9 38.6598L62.34 36.6598C61.8843 36.3 61.504 35.8539 61.2207 35.3471C60.9374 34.8403 60.7567 34.2827 60.6889 33.706C60.6211 33.1293 60.6676 32.545 60.8256 31.9863C60.9837 31.4276 61.2502 30.9055 61.61 30.4498C61.9699 29.9941 62.4159 29.6138 62.9227 29.3305C63.4295 29.0472 63.9872 28.8665 64.5638 28.7987C65.1405 28.7309 65.7248 28.7773 66.2835 28.9354C66.8422 29.0934 67.3643 29.36 67.82 29.7198L97.28 52.9998C97.8374 53.4469 98.5493 53.6548 99.2598 53.5779C99.9702 53.5011 100.621 53.1458 101.07 52.5898Z" fill="white"/>
</mask>
<g mask="url(#mask2_125_5946)">
<path d="M99.0001 50.9198L69.4601 27.6099C68.7272 27.0289 67.8868 26.5982 66.9872 26.3426C66.0875 26.0869 65.1463 26.0113 64.2174 26.1199C63.2884 26.2286 62.3901 26.5195 61.5737 26.976C60.7574 27.4324 60.0392 28.0454 59.4601 28.7799C58.8779 29.5123 58.4462 30.3525 58.1898 31.2524C57.9334 32.1522 57.8573 33.0938 57.9661 34.0231C58.0748 34.9524 58.3661 35.851 58.8233 36.6674C59.2805 37.4837 59.8945 38.2016 60.6301 38.7799L63.1801 40.7799" stroke="#EAEAEA" stroke-width="5.39" stroke-miterlimit="10" stroke-linecap="round"/>
<g opacity="0.38">
<path d="M62.6501 29.2299C63.3796 28.313 64.4426 27.7225 65.6064 27.5876C66.7703 27.4527 67.9402 27.7843 68.8601 28.5099L98.3501 51.8199C98.7812 52.1578 99.3051 52.3562 99.852 52.3883C100.399 52.4205 100.942 52.285 101.41 51.9999C101.323 52.2103 101.208 52.4086 101.07 52.5899C100.626 53.1503 99.9767 53.5114 99.2661 53.5939C98.5555 53.6764 97.8412 53.4736 97.2801 53.0299L67.7901 29.7199C67.0124 29.1149 66.0553 28.7865 65.0701 28.7865C64.0849 28.7865 63.1277 29.1149 62.3501 29.7199C62.4402 29.5507 62.5404 29.3871 62.6501 29.2299Z" fill="#ADADAD"/>
<path d="M57.3502 27.1099C57.626 26.7555 57.9267 26.4213 58.2502 26.1099C56.7226 28.1544 56.051 30.7133 56.3777 33.2444C56.7043 35.7756 58.0036 38.0802 60.0002 39.6699L62.5502 41.6699C62.9802 42.0094 63.5036 42.2095 64.0504 42.2435C64.5973 42.2774 65.1415 42.1436 65.6102 41.8599C65.5202 42.066 65.4061 42.2607 65.2702 42.4399C64.8271 43.0018 64.179 43.3649 63.4683 43.4493C62.7576 43.5337 62.0425 43.3325 61.4802 42.8899L58.9302 40.8899C56.8961 39.2701 55.5874 36.9098 55.2912 34.3265C54.9951 31.7432 55.7355 29.148 57.3502 27.1099Z" fill="#ADADAD"/>
</g>
<g style="mix-blend-mode:multiply">
<path d="M59.6755 50.3705L71.8247 14.27L64.8965 11.9384L52.7474 48.0389L59.6755 50.3705Z" fill="#E00000"/>
</g>
<g style="mix-blend-mode:multiply">
<path d="M70.8975 59.2416L83.0466 23.1411L76.1184 20.8095L63.9693 56.91L70.8975 59.2416Z" fill="#E00000"/>
</g>
<g style="mix-blend-mode:multiply">
<path d="M82.1387 68.1161L94.2878 32.0156L87.3597 29.684L75.2105 65.7845L82.1387 68.1161Z" fill="#E00000"/>
</g>
<g style="mix-blend-mode:multiply">
<path d="M93.3606 76.9872L105.51 40.8867L98.5816 38.5551L86.4324 74.6556L93.3606 76.9872Z" fill="#E00000"/>
</g>
</g>
<path d="M182.94 24.4097C183.382 24.9721 183.584 25.6872 183.499 26.3978C183.415 27.1085 183.052 27.7566 182.49 28.1997L153 51.4997C151.993 52.3355 150.83 52.9614 149.578 53.3408C148.326 53.7202 147.01 53.8453 145.709 53.7087C144.408 53.5721 143.147 53.1767 142.001 52.5456C140.855 51.9145 139.847 51.0606 139.036 50.0341C138.225 49.0075 137.627 47.8291 137.278 46.5682C136.929 45.3073 136.836 43.9893 137.004 42.6918C137.173 41.3944 137.598 40.1436 138.257 39.0132C138.916 37.8829 139.794 36.8956 140.84 36.1097L143.39 34.1097C143.953 33.6982 144.654 33.5209 145.346 33.6149C146.037 33.7089 146.666 34.0669 147.099 34.614C147.532 35.161 147.737 35.8545 147.67 36.5491C147.603 37.2437 147.27 37.8854 146.74 38.3397L144.18 40.3397C143.702 40.6915 143.301 41.1359 142.999 41.6462C142.696 42.1566 142.5 42.7226 142.421 43.3104C142.342 43.8982 142.383 44.4959 142.54 45.0678C142.697 45.6398 142.967 46.1743 143.335 46.6395C143.703 47.1047 144.161 47.4911 144.681 47.7757C145.201 48.0603 145.774 48.2373 146.364 48.2961C146.954 48.3549 147.55 48.2943 148.116 48.118C148.682 47.9417 149.207 47.6532 149.66 47.2697L179.15 23.9997C179.425 23.7771 179.742 23.611 180.082 23.5111C180.422 23.4112 180.778 23.3794 181.13 23.4175C181.482 23.4556 181.823 23.5628 182.134 23.7331C182.445 23.9034 182.718 24.1333 182.94 24.4097Z" fill="url(#paint0_linear_125_5946)"/>
<mask id="mask3_125_5946" style="mask-type:luminance" maskUnits="userSpaceOnUse" x="136" y="23" width="48" height="31">
<path d="M182.94 24.4097C183.382 24.9721 183.584 25.6872 183.499 26.3978C183.415 27.1085 183.052 27.7566 182.49 28.1997L153 51.4997C151.993 52.3355 150.83 52.9614 149.578 53.3408C148.326 53.7202 147.01 53.8453 145.709 53.7087C144.408 53.5721 143.147 53.1767 142.001 52.5456C140.855 51.9145 139.847 51.0606 139.036 50.0341C138.225 49.0075 137.627 47.8291 137.278 46.5682C136.929 45.3073 136.836 43.9893 137.004 42.6918C137.173 41.3944 137.598 40.1436 138.257 39.0132C138.916 37.8829 139.794 36.8956 140.84 36.1097L143.39 34.1097C143.953 33.6982 144.654 33.5209 145.346 33.6149C146.037 33.7089 146.666 34.0669 147.099 34.614C147.532 35.161 147.737 35.8545 147.67 36.5491C147.603 37.2437 147.27 37.8854 146.74 38.3397L144.18 40.3397C143.702 40.6915 143.301 41.1359 142.999 41.6462C142.696 42.1566 142.5 42.7226 142.421 43.3104C142.342 43.8982 142.383 44.4959 142.54 45.0678C142.697 45.6398 142.967 46.1743 143.335 46.6395C143.703 47.1047 144.161 47.4911 144.681 47.7757C145.201 48.0603 145.774 48.2373 146.364 48.2961C146.954 48.3549 147.55 48.2943 148.116 48.118C148.682 47.9417 149.207 47.6532 149.66 47.2697L179.15 23.9997C179.425 23.7771 179.742 23.611 180.082 23.5111C180.422 23.4112 180.778 23.3794 181.13 23.4175C181.482 23.4556 181.823 23.5628 182.134 23.7331C182.445 23.9034 182.718 24.1333 182.94 24.4097Z" fill="white"/>
</mask>
<g mask="url(#mask3_125_5946)">
<path d="M180.82 26.0796L151.33 49.3896C149.848 50.5603 147.963 51.0948 146.087 50.8754C144.212 50.656 142.501 49.7007 141.33 48.2196C140.748 47.4872 140.316 46.6469 140.059 45.7471C139.803 44.8473 139.727 43.9056 139.836 42.9763C139.944 42.047 140.236 41.1484 140.693 40.3321C141.15 39.5157 141.764 38.7978 142.5 38.2196L145.05 36.2196" stroke="#EAEAEA" stroke-width="5.39" stroke-miterlimit="10" stroke-linecap="round"/>
<path d="M134.613 28.9601L146.762 65.0605L153.69 62.729L141.541 26.6285L134.613 28.9601Z" fill="url(#paint1_linear_125_5946)"/>
<path d="M145.737 19.6622L157.926 55.8477L164.87 53.5085L152.681 17.323L145.737 19.6622Z" fill="url(#paint2_linear_125_5946)"/>
<path d="M157.066 11.2047L169.215 47.3052L176.143 44.9736L163.994 8.87309L157.066 11.2047Z" fill="url(#paint3_linear_125_5946)"/>
<path d="M168.297 2.33066L180.446 38.4312L187.374 36.0996L175.225 -0.000934753L168.297 2.33066Z" fill="url(#paint4_linear_125_5946)"/>
</g>
<g opacity="0.26">
<path d="M144.52 47.7599C145.248 48.6783 146.31 49.2707 147.474 49.4075C148.638 49.5444 149.809 49.2144 150.73 48.49L180.22 25.18C180.651 24.8417 181.174 24.6424 181.72 24.6085C182.267 24.5746 182.811 24.7076 183.28 24.99C183.19 24.7838 183.076 24.5891 182.94 24.41C182.721 24.1313 182.448 23.8988 182.139 23.7258C181.829 23.5528 181.489 23.4426 181.136 23.4017C180.784 23.3608 180.427 23.39 180.086 23.4875C179.746 23.585 179.427 23.749 179.15 23.97L149.66 47.27C148.884 47.8782 147.926 48.2087 146.94 48.2087C145.954 48.2087 144.996 47.8782 144.22 47.27C144.31 47.4393 144.41 47.6029 144.52 47.7599Z" fill="#ADADAD"/>
<path d="M139.22 49.8899C139.501 50.2398 139.802 50.5736 140.12 50.8899C138.603 48.8419 137.942 46.2844 138.276 43.7577C138.61 41.2311 139.913 38.9333 141.91 37.3499L144.46 35.3499C144.89 35.0103 145.414 34.8102 145.96 34.7762C146.507 34.7423 147.051 34.8761 147.52 35.1599C147.43 34.9506 147.316 34.7525 147.18 34.5699C146.734 34.0117 146.085 33.6523 145.376 33.5698C144.666 33.4874 143.952 33.6887 143.39 34.1299L140.84 36.1299C138.806 37.7433 137.493 40.0968 137.19 42.6755C136.886 45.2541 137.616 47.848 139.22 49.8899Z" fill="#ADADAD"/>
</g>
<path d="M4.63999 52.9098C4.18661 52.357 3.97005 51.6475 4.03748 50.9357C4.10491 50.2239 4.45087 49.5677 4.99999 49.1098L34.1 25.3098C35.0974 24.493 36.2459 23.8806 37.4799 23.5077C38.714 23.1347 40.0094 23.0085 41.2923 23.1362C42.5751 23.2638 43.8202 23.6429 44.9566 24.2518C46.0929 24.8607 47.0982 25.6874 47.915 26.6848C48.7318 27.6822 49.3442 28.8307 49.7171 30.0648C50.0901 31.2988 50.2164 32.5943 50.0887 33.8771C49.961 35.16 49.5819 36.4051 48.973 37.5414C48.3641 38.6777 47.5374 39.683 46.54 40.4998L44 42.5598C43.729 42.806 43.4109 42.9945 43.0648 43.1139C42.7187 43.2333 42.352 43.281 41.9869 43.2543C41.6218 43.2275 41.266 43.1268 40.941 42.9582C40.6161 42.7896 40.3288 42.5567 40.0967 42.2737C39.8645 41.9906 39.6923 41.6633 39.5906 41.3117C39.4889 40.96 39.4598 40.5913 39.505 40.2281C39.5502 39.8648 39.6688 39.5145 39.8536 39.1985C40.0384 38.8825 40.2856 38.6074 40.58 38.3898L43.11 36.3298C43.5591 35.9621 43.9314 35.5096 44.2056 34.998C44.4799 34.4864 44.6506 33.9258 44.7082 33.3482C44.7658 32.7707 44.709 32.1874 44.5412 31.6318C44.3733 31.0761 44.0977 30.559 43.73 30.1098C43.3623 29.6607 42.9097 29.2884 42.3981 29.0142C41.8866 28.74 41.326 28.5692 40.7484 28.5116C40.1708 28.4541 39.5876 28.5108 39.0319 28.6787C38.4763 28.8465 37.9591 29.1221 37.51 29.4898L8.43999 53.2898C7.88469 53.7409 7.17356 53.9541 6.46169 53.8829C5.74982 53.8117 5.09498 53.4619 4.63999 52.9098Z" fill="url(#paint5_linear_125_5946)"/>
<mask id="mask4_125_5946" style="mask-type:luminance" maskUnits="userSpaceOnUse" x="4" y="23" width="47" height="31">
<path d="M4.63999 52.9098C4.18661 52.357 3.97005 51.6475 4.03748 50.9357C4.10491 50.2239 4.45087 49.5677 4.99999 49.1098L34.1 25.3098C35.0974 24.493 36.2459 23.8806 37.4799 23.5077C38.714 23.1347 40.0094 23.0085 41.2923 23.1362C42.5751 23.2638 43.8202 23.6429 44.9566 24.2518C46.0929 24.8607 47.0982 25.6874 47.915 26.6848C48.7318 27.6822 49.3442 28.8307 49.7171 30.0648C50.0901 31.2988 50.2164 32.5943 50.0887 33.8771C49.961 35.16 49.5819 36.4051 48.973 37.5414C48.3641 38.6777 47.5374 39.683 46.54 40.4998L44 42.5598C43.729 42.806 43.4109 42.9945 43.0648 43.1139C42.7187 43.2333 42.352 43.281 41.9869 43.2543C41.6218 43.2275 41.266 43.1268 40.941 42.9582C40.6161 42.7896 40.3288 42.5567 40.0967 42.2737C39.8645 41.9906 39.6923 41.6633 39.5906 41.3117C39.4889 40.96 39.4598 40.5913 39.505 40.2281C39.5502 39.8648 39.6688 39.5145 39.8536 39.1985C40.0384 38.8825 40.2856 38.6074 40.58 38.3898L43.11 36.3298C43.5591 35.9621 43.9314 35.5096 44.2056 34.998C44.4799 34.4864 44.6506 33.9258 44.7082 33.3482C44.7658 32.7707 44.709 32.1874 44.5412 31.6318C44.3733 31.0761 44.0977 30.559 43.73 30.1098C43.3623 29.6607 42.9097 29.2884 42.3981 29.0142C41.8866 28.74 41.326 28.5692 40.7484 28.5116C40.1708 28.4541 39.5876 28.5108 39.0319 28.6787C38.4763 28.8465 37.9591 29.1221 37.51 29.4898L8.43999 53.2898C7.88469 53.7409 7.17356 53.9541 6.46169 53.8829C5.74982 53.8117 5.09498 53.4619 4.63999 52.9098Z" fill="white"/>
</mask>
<g mask="url(#mask4_125_5946)">
<path d="M6.73022 51.1998L35.8302 27.3998C37.2893 26.2073 39.1621 25.6427 41.0372 25.8302C42.9122 26.0177 44.6362 26.9419 45.8302 28.3998C47.0202 29.8599 47.5831 31.7321 47.3957 33.6063C47.2083 35.4806 46.2858 37.2042 44.8302 38.3998L42.3102 40.4698" stroke="#EAEAEA" stroke-width="5.39" stroke-miterlimit="10" stroke-linecap="round"/>
<path d="M52.8788 47.5525L40.1265 11.6606L33.2383 14.108L45.9906 49.9999L52.8788 47.5525Z" fill="url(#paint6_linear_125_5946)"/>
<path d="M41.7926 56.6087L29.0403 20.7168L22.1521 23.1641L34.9044 59.056L41.7926 56.6087Z" fill="url(#paint7_linear_125_5946)"/>
<path d="M30.6283 65.3627L18.0586 29.5581L11.1872 31.9704L23.7569 67.775L30.6283 65.3627Z" fill="url(#paint8_linear_125_5946)"/>
<path d="M19.6427 74.7434L6.89038 38.8516L0.00223274 41.2989L12.7545 77.1908L19.6427 74.7434Z" fill="url(#paint9_linear_125_5946)"/>
</g>
<g opacity="0.26">
<path d="M42.66 28.9099C41.9159 28.0052 40.8437 27.432 39.678 27.3158C38.5124 27.1996 37.3481 27.5499 36.44 28.2899L7.35004 52.0899C6.92405 52.4346 6.40358 52.642 5.85729 52.6849C5.311 52.7277 4.76455 52.604 4.29004 52.3299C4.38734 52.5343 4.50457 52.7286 4.64004 52.9099C5.09502 53.462 5.74986 53.8118 6.46173 53.883C7.1736 53.9542 7.88474 53.741 8.44004 53.2899L37.53 29.4899C38.2971 28.8601 39.2537 28.5068 40.246 28.4869C41.2382 28.4669 42.2083 28.7815 43 29.3799C42.8964 29.2165 42.7828 29.0595 42.66 28.9099Z" fill="#ADADAD"/>
<path d="M47.9201 26.6997C47.6408 26.3422 47.3332 26.0078 47.0001 25.6997C48.5649 27.7216 49.2785 30.2745 48.989 32.8147C48.6995 35.3549 47.4297 37.6818 45.4501 39.2997L42.9301 41.3697C42.5043 41.7154 41.983 41.9227 41.4361 41.9638C40.8892 42.0049 40.3428 41.8779 39.8701 41.5997C39.9651 41.8053 40.0825 41.9998 40.2201 42.1797C40.4439 42.4553 40.7199 42.684 41.0325 42.8524C41.345 43.0208 41.6877 43.1257 42.041 43.161C42.3942 43.1964 42.751 43.1614 43.0907 43.0582C43.4303 42.955 43.7462 42.7856 44.0201 42.5597L46.5401 40.4997C48.5524 38.8522 49.8281 36.4731 50.0868 33.8854C50.3456 31.2976 49.5663 28.713 47.9201 26.6997Z" fill="#ADADAD"/>
</g>
<defs>
<linearGradient id="paint0_linear_125_5946" x1="137.11" y1="38.4997" x2="183.52" y2="38.4997" gradientUnits="userSpaceOnUse">
<stop stop-color="#00B53E"/>
<stop offset="0.04" stop-color="#00923D"/>
<stop offset="0.18" stop-color="#00AB3E"/>
<stop offset="0.28" stop-color="#00B53E"/>
<stop offset="0.5" stop-color="#6BC62A"/>
<stop offset="0.72" stop-color="#00B53E"/>
<stop offset="0.82" stop-color="#00A83E"/>
<stop offset="0.95" stop-color="#00923D"/>
<stop offset="1" stop-color="#00B53E"/>
</linearGradient>
<linearGradient id="paint1_linear_125_5946" x1="134.606" y1="45.8481" x2="153.686" y2="45.8481" gradientUnits="userSpaceOnUse">
<stop stop-color="#00B53E"/>
<stop offset="0.04" stop-color="#00923D"/>
<stop offset="0.18" stop-color="#00AB3E"/>
<stop offset="0.28" stop-color="#00B53E"/>
<stop offset="0.5" stop-color="#6BC62A"/>
<stop offset="0.72" stop-color="#00B53E"/>
<stop offset="0.82" stop-color="#00A83E"/>
<stop offset="0.95" stop-color="#00923D"/>
<stop offset="1" stop-color="#00B53E"/>
</linearGradient>
<linearGradient id="paint2_linear_125_5946" x1="145.739" y1="36.5857" x2="164.866" y2="36.5804" gradientUnits="userSpaceOnUse">
<stop stop-color="#00B53E"/>
<stop offset="0.04" stop-color="#00923D"/>
<stop offset="0.18" stop-color="#00AB3E"/>
<stop offset="0.28" stop-color="#00B53E"/>
<stop offset="0.5" stop-color="#6BC62A"/>
<stop offset="0.72" stop-color="#00B53E"/>
<stop offset="0.82" stop-color="#00A83E"/>
<stop offset="0.95" stop-color="#00923D"/>
<stop offset="1" stop-color="#00B53E"/>
</linearGradient>
<linearGradient id="paint3_linear_125_5946" x1="157.071" y1="28.1004" x2="176.141" y2="28.1004" gradientUnits="userSpaceOnUse">
<stop stop-color="#00B53E"/>
<stop offset="0.04" stop-color="#00923D"/>
<stop offset="0.18" stop-color="#00AB3E"/>
<stop offset="0.28" stop-color="#00B53E"/>
<stop offset="0.5" stop-color="#6BC62A"/>
<stop offset="0.72" stop-color="#00B53E"/>
<stop offset="0.82" stop-color="#00A83E"/>
<stop offset="0.95" stop-color="#00923D"/>
<stop offset="1" stop-color="#00B53E"/>
</linearGradient>
<linearGradient id="paint4_linear_125_5946" x1="168.297" y1="19.2337" x2="187.367" y2="19.2337" gradientUnits="userSpaceOnUse">
<stop stop-color="#00B53E"/>
<stop offset="0.04" stop-color="#00923D"/>
<stop offset="0.18" stop-color="#00AB3E"/>
<stop offset="0.28" stop-color="#00B53E"/>
<stop offset="0.5" stop-color="#6BC62A"/>
<stop offset="0.72" stop-color="#00B53E"/>
<stop offset="0.82" stop-color="#00A83E"/>
<stop offset="0.95" stop-color="#00923D"/>
<stop offset="1" stop-color="#00B53E"/>
</linearGradient>
<linearGradient id="paint5_linear_125_5946" x1="50.1813" y1="37.9879" x2="3.78778" y2="38.7653" gradientUnits="userSpaceOnUse">
<stop stop-color="#00B53E"/>
<stop offset="0.04" stop-color="#00923D"/>
<stop offset="0.18" stop-color="#00AB3E"/>
<stop offset="0.28" stop-color="#00B53E"/>
<stop offset="0.5" stop-color="#6BC62A"/>
<stop offset="0.72" stop-color="#00B53E"/>
<stop offset="0.82" stop-color="#00A83E"/>
<stop offset="0.95" stop-color="#00923D"/>
<stop offset="1" stop-color="#00B53E"/>
</linearGradient>
<linearGradient id="paint6_linear_125_5946" x1="52.5305" y1="30.608" x2="33.4632" y2="30.9275" gradientUnits="userSpaceOnUse">
<stop stop-color="#00B53E"/>
<stop offset="0.04" stop-color="#00923D"/>
<stop offset="0.18" stop-color="#00AB3E"/>
<stop offset="0.28" stop-color="#00B53E"/>
<stop offset="0.5" stop-color="#6BC62A"/>
<stop offset="0.72" stop-color="#00B53E"/>
<stop offset="0.82" stop-color="#00A83E"/>
<stop offset="0.95" stop-color="#00923D"/>
<stop offset="1" stop-color="#00B53E"/>
</linearGradient>
<linearGradient id="paint7_linear_125_5946" x1="41.4495" y1="39.6568" x2="22.3822" y2="39.9763" gradientUnits="userSpaceOnUse">
<stop stop-color="#00B53E"/>
<stop offset="0.04" stop-color="#00923D"/>
<stop offset="0.18" stop-color="#00AB3E"/>
<stop offset="0.28" stop-color="#00B53E"/>
<stop offset="0.5" stop-color="#6BC62A"/>
<stop offset="0.72" stop-color="#00B53E"/>
<stop offset="0.82" stop-color="#00A83E"/>
<stop offset="0.95" stop-color="#00923D"/>
<stop offset="1" stop-color="#00B53E"/>
</linearGradient>
<linearGradient id="paint8_linear_125_5946" x1="30.3559" y1="48.4692" x2="11.3492" y2="48.7161" gradientUnits="userSpaceOnUse">
<stop stop-color="#00B53E"/>
<stop offset="0.04" stop-color="#00923D"/>
<stop offset="0.18" stop-color="#00AB3E"/>
<stop offset="0.28" stop-color="#00B53E"/>
<stop offset="0.5" stop-color="#6BC62A"/>
<stop offset="0.72" stop-color="#00B53E"/>
<stop offset="0.82" stop-color="#00A83E"/>
<stop offset="0.95" stop-color="#00923D"/>
<stop offset="1" stop-color="#00B53E"/>
</linearGradient>
<linearGradient id="paint9_linear_125_5946" x1="18.0927" y1="60.5191" x2="-1.03138" y2="60.8343" gradientUnits="userSpaceOnUse">
<stop stop-color="#00B53E"/>
<stop offset="0.04" stop-color="#00923D"/>
<stop offset="0.18" stop-color="#00AB3E"/>
<stop offset="0.28" stop-color="#00B53E"/>
<stop offset="0.5" stop-color="#6BC62A"/>
<stop offset="0.72" stop-color="#00B53E"/>
<stop offset="0.82" stop-color="#00A83E"/>
<stop offset="0.95" stop-color="#00923D"/>
<stop offset="1" stop-color="#00B53E"/>
</linearGradient>
</defs>
</svg>
