<svg width="239" height="207" viewBox="0 0 239 207" fill="none" xmlns="http://www.w3.org/2000/svg">
<path d="M87.8882 194.52L95.1355 207H108.749L101.512 194.52H87.8882Z" fill="#EAEAEA"/>
<path d="M111.893 194.52L119.14 207H132.754L125.516 194.52H111.893Z" fill="#EAEAEA"/>
<path d="M63.894 194.52L71.1313 207H84.745L77.5077 194.52H63.894Z" fill="#EAEAEA"/>
<path d="M39.8901 194.52L47.1274 207H60.7411L53.5038 194.52H39.8901Z" fill="#EAEAEA"/>
<path d="M27.3574 194.52V207H36.7368L29.4996 194.52H27.3574Z" fill="#EAEAEA"/>
<path d="M135.896 194.52L143.144 207H156.757L149.51 194.52H135.896Z" fill="#EAEAEA"/>
<path d="M215.416 207H217.819V194.52H208.169L215.416 207Z" fill="#EAEAEA"/>
<path d="M183.905 194.52L191.152 207H205.026L197.779 194.52H183.905Z" fill="#EAEAEA"/>
<path d="M159.9 194.52L167.148 207H180.761L173.514 194.52H159.9Z" fill="#EAEAEA"/>
<path d="M173.514 194.52L180.761 207H191.152L183.905 194.52H173.514Z" fill="#EAEAEA"/>
<g style="mix-blend-mode:multiply">
<path d="M173.514 194.52L180.761 207H191.152L183.905 194.52H173.514Z" fill="#E00000"/>
</g>
<path d="M197.779 194.52L205.026 207H215.417L208.169 194.52H197.779Z" fill="#EAEAEA"/>
<g style="mix-blend-mode:multiply">
<path d="M197.779 194.52L205.026 207H215.417L208.169 194.52H197.779Z" fill="#E00000"/>
</g>
<path d="M149.51 194.52L156.758 207H167.148L159.901 194.52H149.51Z" fill="#EAEAEA"/>
<g style="mix-blend-mode:multiply">
<path d="M149.51 194.52L156.758 207H167.148L159.901 194.52H149.51Z" fill="#E00000"/>
</g>
<path d="M125.516 194.52L132.753 207H143.144L135.897 194.52H125.516Z" fill="#EAEAEA"/>
<g style="mix-blend-mode:multiply">
<path d="M125.516 194.52L132.753 207H143.144L135.897 194.52H125.516Z" fill="#E00000"/>
</g>
<path d="M101.512 194.52L108.749 207H119.139L111.892 194.52H101.512Z" fill="#EAEAEA"/>
<g style="mix-blend-mode:multiply">
<path d="M101.512 194.52L108.749 207H119.139L111.892 194.52H101.512Z" fill="#E00000"/>
</g>
<path d="M77.5078 194.52L84.7451 207H95.1355L87.8882 194.52H77.5078Z" fill="#EAEAEA"/>
<g style="mix-blend-mode:multiply">
<path d="M77.5078 194.52L84.7451 207H95.1355L87.8882 194.52H77.5078Z" fill="#E00000"/>
</g>
<path d="M53.5039 194.52L60.7412 207H71.1316L63.8943 194.52H53.5039Z" fill="#EAEAEA"/>
<g style="mix-blend-mode:multiply">
<path d="M53.5039 194.52L60.7412 207H71.1316L63.8943 194.52H53.5039Z" fill="#E00000"/>
</g>
<path d="M29.4995 194.52L36.7368 207H47.1272L39.8899 194.52H29.4995Z" fill="#EAEAEA"/>
<g style="mix-blend-mode:multiply">
<path d="M29.4995 194.52L36.7368 207H47.1272L39.8899 194.52H29.4995Z" fill="#E00000"/>
</g>
<g style="mix-blend-mode:multiply">
<path d="M217.659 194.52H27.1973V199.494H217.659V194.52Z" fill="#EAEAEA"/>
</g>
<path d="M12.4825 85.3984L0 92.6345V106.256L12.4825 99.0098V85.3984Z" fill="#EAEAEA"/>
<path d="M12.4825 109.398L0 116.634V130.246L12.4825 123.01V109.398Z" fill="#EAEAEA"/>
<path d="M12.4825 61.3984L0 68.6345V82.2558L12.4825 75.0098V61.3984Z" fill="#EAEAEA"/>
<path d="M14.6647 42.4427C12.4083 41.5674 9.99116 41.1833 7.57452 41.3162C5.15789 41.4491 2.79741 42.0959 0.650653 43.2134C0.257013 44.7858 0.038798 46.3969 0 48.0174L0 58.2559L12.4825 51.0199V49.3184C12.4825 48.778 12.4825 48.0874 12.4825 47.8572C12.4816 47.5215 12.5118 47.1865 12.5726 46.8564C12.6092 46.5166 12.6796 46.1813 12.7828 45.8556C13.1244 44.5823 13.7702 43.4111 14.6647 42.4427Z" fill="#EAEAEA"/>
<path d="M21.0914 39.4804L20.9613 27C16.4902 27.0485 12.1503 28.517 8.56885 31.1935C11.0437 31.7889 13.3726 32.8783 15.4157 34.3962C17.261 35.7814 18.7756 37.5589 19.8502 39.6005C20.2604 39.5303 20.6753 39.4902 21.0914 39.4804Z" fill="#EAEAEA"/>
<path d="M12.4825 133.398L0 140.634V154.246L12.4825 147.01V133.398Z" fill="#EAEAEA"/>
<path d="M24.7948 207H27.1973V194.52H21.1912H20.4805C20.2453 194.505 20.0112 194.474 19.7798 194.43C19.5485 194.408 19.3202 194.361 19.0991 194.29C19.3036 196.588 20.0147 198.813 21.1812 200.805L24.7948 207Z" fill="#EAEAEA"/>
<path d="M12.4825 181.389L6.23625 185.012C3.99311 186.204 2.00403 187.822 0.380371 189.776C1.00019 193.009 2.36382 196.054 4.36346 198.67C6.3631 201.286 8.94394 203.401 11.9019 204.848C11.2763 202.502 11.1554 200.05 11.547 197.654C11.9387 195.258 12.8341 192.972 14.1742 190.947C13.364 189.87 12.8281 188.613 12.6127 187.284C12.5502 186.954 12.5167 186.619 12.5126 186.283V185.742V181.399L12.4825 181.389Z" fill="#EAEAEA"/>
<path d="M12.4825 157.389L0 164.635V178.246L12.4825 171.01V157.389Z" fill="#EAEAEA"/>
<path d="M12.4825 171.01L0 178.246V185.392C0 185.612 0 185.782 0 186.122L0.100101 187.954L0.370372 189.775C1.99403 187.822 3.98311 186.204 6.22625 185.011L12.4725 181.388L12.4825 171.01Z" fill="#EAEAEA"/>
<g style="mix-blend-mode:multiply">
<path d="M12.4825 171.01L0 178.246V185.392C0 185.612 0 185.782 0 186.122L0.100101 187.954L0.370372 189.775C1.99403 187.822 3.98311 186.204 6.22625 185.011L12.4725 181.388L12.4825 171.01Z" fill="#E00000"/>
</g>
<path d="M14.1743 190.947C12.8343 192.972 11.9388 195.258 11.5472 197.654C11.1555 200.05 11.2764 202.502 11.9021 204.848C14.1068 205.909 16.4765 206.586 18.9091 206.85C19.5197 206.9 20.1303 206.93 20.7409 206.95H21.1814H24.755L21.1313 200.715C19.9648 198.723 19.2537 196.498 19.0492 194.199C17.0903 193.727 15.3628 192.574 14.1743 190.947Z" fill="#EAEAEA"/>
<g style="mix-blend-mode:multiply">
<path d="M14.1743 190.947C12.8343 192.972 11.9388 195.258 11.5472 197.654C11.1555 200.05 11.2764 202.502 11.9021 204.848C14.1068 205.909 16.4765 206.586 18.9091 206.85C19.5197 206.9 20.1303 206.93 20.7409 206.95H21.1814H24.755L21.1313 200.715C19.9648 198.723 19.2537 196.498 19.0492 194.199C17.0903 193.727 15.3628 192.574 14.1743 190.947Z" fill="#E00000"/>
</g>
<path d="M12.4825 147.01L0 154.246V164.634L12.4825 157.388V147.01Z" fill="#EAEAEA"/>
<g style="mix-blend-mode:multiply">
<path d="M12.4825 147.01L0 154.246V164.634L12.4825 157.388V147.01Z" fill="#E00000"/>
</g>
<path d="M12.4825 123.01L0 130.246V140.634L12.4825 133.398V123.01Z" fill="#EAEAEA"/>
<g style="mix-blend-mode:multiply">
<path d="M12.4825 123.01L0 130.246V140.634L12.4825 133.398V123.01Z" fill="#E00000"/>
</g>
<path d="M12.4825 99.0098L0 106.256V116.634L12.4825 109.398V99.0098Z" fill="#EAEAEA"/>
<g style="mix-blend-mode:multiply">
<path d="M12.4825 99.0098L0 106.256V116.634L12.4825 109.398V99.0098Z" fill="#E00000"/>
</g>
<path d="M12.4825 75.0098L0 82.2558V92.6345L12.4825 85.3984V75.0098Z" fill="#EAEAEA"/>
<g style="mix-blend-mode:multiply">
<path d="M12.4825 75.0098L0 82.2558V92.6345L12.4825 85.3984V75.0098Z" fill="#E00000"/>
</g>
<path d="M12.4825 51.0098L0 58.2558V68.6345L12.4825 61.3984V51.0098Z" fill="#EAEAEA"/>
<g style="mix-blend-mode:multiply">
<path d="M12.4825 51.0098L0 58.2558V68.6345L12.4825 61.3984V51.0098Z" fill="#E00000"/>
</g>
<path d="M19.8499 39.6004C18.7753 37.5588 17.2607 35.7812 15.4155 34.396C13.3723 32.8781 11.0434 31.7888 8.56859 31.1934C4.56491 34.126 1.72816 38.3804 0.560547 43.2034C2.71392 42.0786 5.08322 41.4278 7.50912 41.2949C9.93501 41.162 12.3613 41.5499 14.6247 42.4327C15.9664 40.8877 17.8228 39.8814 19.8499 39.6004Z" fill="#EAEAEA"/>
<g style="mix-blend-mode:multiply">
<path d="M19.8499 39.6004C18.7753 37.5588 17.2607 35.7812 15.4155 34.396C13.3723 32.8781 11.0434 31.7888 8.56859 31.1934C4.56491 34.126 1.72816 38.3804 0.560547 43.2034C2.71392 42.0786 5.08322 41.4278 7.50912 41.2949C9.93501 41.162 12.3613 41.5499 14.6247 42.4327C15.9664 40.8877 17.8228 39.8814 19.8499 39.6004Z" fill="#E00000"/>
</g>
<g style="mix-blend-mode:multiply">
<path d="M21.1813 39.4802C20.0304 39.483 18.8917 39.7165 17.8326 40.1669C16.7735 40.6173 15.8154 41.2754 15.0151 42.1024C14.1847 42.9338 13.531 43.9245 13.0932 45.0149C12.8793 45.5467 12.7249 46.1005 12.6327 46.6662C12.5709 46.9494 12.534 47.2374 12.5226 47.527V47.9673V185.782C12.5226 185.902 12.5226 185.942 12.5226 186.022V186.453C12.5383 186.742 12.5751 187.03 12.6327 187.313C12.7214 187.882 12.8725 188.439 13.0832 188.975C13.5047 190.054 14.1356 191.04 14.9396 191.875C15.7436 192.71 16.7048 193.377 17.7679 193.839C18.8338 194.297 19.9812 194.535 21.1413 194.539H27.0272V199.544H21.1012C19.2764 199.541 17.4712 199.166 15.7959 198.443C14.1236 197.722 12.6117 196.676 11.3485 195.365C10.0852 194.054 9.09597 192.504 8.43853 190.806C7.78314 189.095 7.46366 187.274 7.49759 185.442V48.5178C7.46309 46.692 7.79027 44.8774 8.46029 43.1786C9.1303 41.4798 10.1299 39.9304 11.4015 38.6195C12.6745 37.3152 14.1954 36.2785 15.8749 35.5704C17.5544 34.8622 19.3586 34.497 21.1813 34.4961V39.4802Z" fill="#EAEAEA"/>
</g>
<path d="M151.112 39.4804L143.865 27H130.251L137.498 39.4804H151.112Z" fill="#EAEAEA"/>
<path d="M127.108 39.4804L119.86 27H106.247L113.494 39.4804H127.108Z" fill="#EAEAEA"/>
<path d="M175.116 39.4804L167.869 27H154.255L161.502 39.4804H175.116Z" fill="#EAEAEA"/>
<path d="M199.12 39.4804L191.872 27H178.259L185.496 39.4804H199.12Z" fill="#EAEAEA"/>
<path d="M211.643 39.4804V27H202.263L209.5 39.4804H211.643Z" fill="#EAEAEA"/>
<path d="M103.104 39.4804L95.8663 27H82.2427L89.49 39.4804H103.104Z" fill="#EAEAEA"/>
<path d="M23.5936 27H21.1812V39.4804H30.8308L23.5936 27Z" fill="#EAEAEA"/>
<path d="M55.0953 39.4804L47.8581 27H33.9741L41.2214 39.4804H55.0953Z" fill="#EAEAEA"/>
<path d="M79.0992 39.4804L71.862 27H58.2383L65.4856 39.4804H79.0992Z" fill="#EAEAEA"/>
<path d="M65.4856 39.4804L58.2383 27H47.8579L55.0952 39.4804H65.4856Z" fill="#EAEAEA"/>
<g style="mix-blend-mode:multiply">
<path d="M65.4856 39.4804L58.2383 27H47.8579L55.0952 39.4804H65.4856Z" fill="#E00000"/>
</g>
<path d="M41.2215 39.4804L33.9742 27H23.5938L30.831 39.4804H41.2215Z" fill="#EAEAEA"/>
<g style="mix-blend-mode:multiply">
<path d="M41.2215 39.4804L33.9742 27H23.5938L30.831 39.4804H41.2215Z" fill="#E00000"/>
</g>
<path d="M89.49 39.4804L82.2427 27H71.8623L79.0996 39.4804H89.49Z" fill="#EAEAEA"/>
<g style="mix-blend-mode:multiply">
<path d="M89.49 39.4804L82.2427 27H71.8623L79.0996 39.4804H89.49Z" fill="#E00000"/>
</g>
<path d="M113.494 39.4804L106.247 27H95.8662L103.103 39.4804H113.494Z" fill="#EAEAEA"/>
<g style="mix-blend-mode:multiply">
<path d="M113.494 39.4804L106.247 27H95.8662L103.103 39.4804H113.494Z" fill="#E00000"/>
</g>
<path d="M137.498 39.4804L130.251 27H119.86L127.108 39.4804H137.498Z" fill="#EAEAEA"/>
<g style="mix-blend-mode:multiply">
<path d="M137.498 39.4804L130.251 27H119.86L127.108 39.4804H137.498Z" fill="#E00000"/>
</g>
<path d="M161.502 39.4804L154.255 27H143.864L151.112 39.4804H161.502Z" fill="#EAEAEA"/>
<g style="mix-blend-mode:multiply">
<path d="M161.502 39.4804L154.255 27H143.864L151.112 39.4804H161.502Z" fill="#E00000"/>
</g>
<path d="M185.496 39.4804L178.259 27H167.869L175.116 39.4804H185.496Z" fill="#EAEAEA"/>
<g style="mix-blend-mode:multiply">
<path d="M185.496 39.4804L178.259 27H167.869L175.116 39.4804H185.496Z" fill="#E00000"/>
</g>
<path d="M209.5 39.4804L202.263 27H191.873L199.12 39.4804H209.5Z" fill="#EAEAEA"/>
<g style="mix-blend-mode:multiply">
<path d="M209.5 39.4804L202.263 27H191.873L199.12 39.4804H209.5Z" fill="#E00000"/>
</g>
<g style="mix-blend-mode:multiply">
<path d="M211.803 34.4961H21.3413V39.4702H211.803V34.4961Z" fill="#EAEAEA"/>
</g>
<path d="M226.527 148.602L239 141.365V127.744L226.527 134.99V148.602Z" fill="#EAEAEA"/>
<path d="M226.527 124.601L239 117.365V103.754L226.527 110.99V124.601Z" fill="#EAEAEA"/>
<path d="M226.527 172.602L239 165.365V151.744L226.527 158.99V172.602Z" fill="#EAEAEA"/>
<path d="M224.345 191.557C226.602 192.433 229.019 192.817 231.435 192.684C233.852 192.551 236.213 191.904 238.359 190.787C238.734 189.222 238.935 187.621 238.96 186.013V175.744L226.487 182.99V184.692C226.487 185.232 226.487 185.923 226.487 186.153C226.488 186.488 226.458 186.824 226.397 187.154C226.359 187.492 226.292 187.827 226.197 188.154C225.859 189.42 225.224 190.586 224.345 191.557Z" fill="#EAEAEA"/>
<path d="M217.909 194.52L218.039 206.99C222.512 206.946 226.855 205.481 230.441 202.806C227.963 202.213 225.63 201.124 223.584 199.604C221.74 198.221 220.228 196.443 219.16 194.399C218.746 194.47 218.328 194.51 217.909 194.52Z" fill="#EAEAEA"/>
<path d="M226.527 100.601L239 93.3652V79.7539L226.527 86.9899V100.601Z" fill="#EAEAEA"/>
<path d="M214.215 27H211.812V39.4804H217.819H218.519C218.755 39.49 218.989 39.5202 219.22 39.5705C219.452 39.5871 219.681 39.6342 219.901 39.7106C219.696 37.4117 218.985 35.1867 217.819 33.1952L214.215 27Z" fill="#EAEAEA"/>
<path d="M226.527 52.6114L232.764 49.0184C235.007 47.8261 236.996 46.2079 238.62 44.2544C238.004 41.0154 236.642 37.9643 234.642 35.3428C232.643 32.7214 230.06 30.6017 227.098 29.1519C227.718 31.492 227.836 33.9366 227.444 36.3255C227.052 38.7144 226.16 40.9935 224.826 43.0134C225.642 44.0863 226.178 45.345 226.387 46.6765C226.449 47.0069 226.485 47.3414 226.497 47.6773V48.2177V52.5614L226.527 52.6114Z" fill="#EAEAEA"/>
<path d="M226.527 76.6013L239 69.3653V55.7539L226.527 62.9899V76.6013Z" fill="#EAEAEA"/>
<path d="M226.527 63.0298L239 55.7938V48.6078C239 48.3876 239 48.2174 239 47.8672L238.9 46.0356L238.629 44.2241C237.006 46.1894 235.013 47.8181 232.764 49.0181L226.527 52.6411V63.0298Z" fill="#EAEAEA"/>
<g style="mix-blend-mode:multiply">
<path d="M226.527 63.0298L239 55.7938V48.6078C239 48.3876 239 48.2174 239 47.8672L238.9 46.0356L238.629 44.2241C237.006 46.1894 235.013 47.8181 232.764 49.0181L226.527 52.6411V63.0298Z" fill="#E00000"/>
</g>
<path d="M224.826 43.0131C226.166 40.9882 227.061 38.7022 227.453 36.3059C227.845 33.9097 227.724 31.4576 227.098 29.1115C224.894 28.0492 222.524 27.3722 220.091 27.1098C219.481 27.1098 218.87 27.0298 218.259 27.0098H217.819H214.215L217.839 33.245C219.006 35.2365 219.717 37.4615 219.921 39.7604C221.893 40.2226 223.633 41.3767 224.826 43.0131Z" fill="#EAEAEA"/>
<g style="mix-blend-mode:multiply">
<path d="M224.826 43.0131C226.166 40.9882 227.061 38.7022 227.453 36.3059C227.845 33.9097 227.724 31.4576 227.098 29.1115C224.894 28.0492 222.524 27.3722 220.091 27.1098C219.481 27.1098 218.87 27.0298 218.259 27.0098H217.819H214.215L217.839 33.245C219.006 35.2365 219.717 37.4615 219.921 39.7604C221.893 40.2226 223.633 41.3767 224.826 43.0131Z" fill="#E00000"/>
</g>
<path d="M226.527 86.9899L239 79.7539V69.3652L226.527 76.6013V86.9899Z" fill="#EAEAEA"/>
<g style="mix-blend-mode:multiply">
<path d="M226.527 86.9899L239 79.7539V69.3652L226.527 76.6013V86.9899Z" fill="#E00000"/>
</g>
<path d="M226.527 110.99L239 103.754V93.3652L226.527 100.601V110.99Z" fill="#EAEAEA"/>
<g style="mix-blend-mode:multiply">
<path d="M226.527 110.99L239 103.754V93.3652L226.527 100.601V110.99Z" fill="#E00000"/>
</g>
<path d="M226.527 134.99L239 127.744V117.365L226.527 124.601V134.99Z" fill="#EAEAEA"/>
<g style="mix-blend-mode:multiply">
<path d="M226.527 134.99L239 127.744V117.365L226.527 124.601V134.99Z" fill="#E00000"/>
</g>
<path d="M226.527 158.99L239 151.744V141.365L226.527 148.601V158.99Z" fill="#EAEAEA"/>
<g style="mix-blend-mode:multiply">
<path d="M226.527 158.99L239 151.744V141.365L226.527 148.601V158.99Z" fill="#E00000"/>
</g>
<path d="M226.527 182.99L239 175.744V165.365L226.527 172.601V182.99Z" fill="#EAEAEA"/>
<g style="mix-blend-mode:multiply">
<path d="M226.527 182.99L239 175.744V165.365L226.527 172.601V182.99Z" fill="#E00000"/>
</g>
<path d="M219.16 194.399C220.228 196.443 221.74 198.221 223.585 199.604C225.63 201.124 227.963 202.213 230.441 202.806C234.426 199.865 237.245 195.612 238.399 190.796C236.253 191.914 233.892 192.561 231.476 192.694C229.059 192.826 226.642 192.442 224.385 191.567C223.04 193.107 221.185 194.112 219.16 194.399Z" fill="#EAEAEA"/>
<g style="mix-blend-mode:multiply">
<path d="M219.16 194.399C220.228 196.443 221.74 198.221 223.585 199.604C225.63 201.124 227.963 202.213 230.441 202.806C234.426 199.865 237.245 195.612 238.399 190.796C236.253 191.914 233.892 192.561 231.476 192.694C229.059 192.826 226.642 192.442 224.385 191.567C223.04 193.107 221.185 194.112 219.16 194.399Z" fill="#E00000"/>
</g>
<g style="mix-blend-mode:multiply">
<path d="M217.819 194.519C218.978 194.523 220.126 194.293 221.195 193.843C222.263 193.392 223.229 192.73 224.035 191.897C225.251 190.65 226.067 189.068 226.377 187.353C226.429 187.069 226.466 186.781 226.487 186.493V186.052V48.2375C226.494 48.1576 226.494 48.0773 226.487 47.9973V47.557C226.474 47.2681 226.44 46.9805 226.387 46.6963C226.291 46.1217 226.137 45.5583 225.927 45.0149C225.501 43.9382 224.866 42.9565 224.059 42.1268C223.251 41.2971 222.287 40.6356 221.222 40.1808C220.158 39.7181 219.009 39.4796 217.849 39.4802H211.943V34.4761H217.879C219.719 34.483 221.539 34.8679 223.224 35.607C224.897 36.3286 226.409 37.3753 227.674 38.6862C228.939 39.9971 229.931 41.5461 230.592 43.2434C231.239 44.9564 231.555 46.7769 231.523 48.6079V185.482C231.562 187.305 231.238 189.118 230.569 190.814C229.899 192.511 228.898 194.057 227.624 195.361C226.35 196.666 224.828 197.704 223.148 198.413C221.468 199.123 219.663 199.49 217.839 199.494L217.819 194.519Z" fill="#EAEAEA"/>
</g>
<g clip-path="url(#clip0_161_6)">
<path d="M143.35 3.18021L143.53 3.00021L143.43 3.10021C143.43 3.10021 143.43 3.02021 143.5 2.97021L143.32 3.20021C143.189 3.33139 143.072 3.47546 142.97 3.63021L142.79 3.86021L142.86 3.80021V3.89021L143 3.61021C143.133 3.48064 143.25 3.33638 143.35 3.18021Z" fill="url(#paint0_radial_161_6)"/>
<path d="M140.33 27.5698C140.33 27.5698 135.33 20.0498 144.21 18.3698C144.21 18.3698 139.48 13.3698 144.35 11.4898C144.35 11.4898 141.35 6.60984 142.76 3.83984C140.35 5.83984 134.95 3.89984 134.95 3.89984C134.12 9.05984 128.25 5.47984 128.25 5.47984C128.47 14.4798 120.08 11.2198 120.08 11.2198C120.25 16.4498 116.65 16.3898 116.65 16.3898C120.99 18.3398 119.56 21.6398 119.56 21.6398C124.64 23.4598 120.56 25.0298 121.82 25.1598C123.08 25.2898 123.39 27.6698 123.41 27.7998C123.54 27.7998 125.94 27.6198 126.33 28.7998C126.72 29.9798 127.39 25.6798 130.25 30.2698C130.25 30.2698 133.17 28.1698 135.99 32.0098C136 31.9998 135.18 28.4998 140.33 27.5698Z" fill="url(#paint1_radial_161_6)"/>
<path style="mix-blend-mode:color-burn" opacity="0.18" d="M123.44 27.8302C123.44 27.8302 125.97 27.6102 126.37 28.8302C126.77 30.0502 127.43 25.7102 130.29 30.3002C130.29 30.3002 133.21 28.2102 136.03 32.0402C136.03 32.0402 135.22 28.5402 140.37 27.6002C140.37 27.6002 135.37 20.0802 144.25 18.4002C144.25 18.4002 139.52 13.4002 144.39 11.5302C144.39 11.5302 140.6 5.3602 143.53 2.9502L123.44 27.8302Z" fill="url(#paint2_radial_161_6)"/>
<path d="M140.86 6.29004C139.57 8.21004 138.19 10.07 136.8 11.92C135.41 13.77 134 15.57 132.54 17.38C131.08 19.19 129.62 21 128.1 22.69L125.81 25.3C125.02 26.15 124.26 27.01 123.45 27.84C124.08 26.84 124.77 25.94 125.45 24.99L127.52 22.21C128.9 20.36 130.34 18.55 131.78 16.75C133.22 14.95 134.7 13.17 136.23 11.44C137.76 9.71004 139.25 8.00004 140.86 6.29004Z" fill="url(#paint3_linear_161_6)"/>
<path d="M135.79 12.45C135.84 11.11 135.95 9.89996 135.94 8.66996C135.945 8.06207 135.915 7.4544 135.85 6.84996C135.8 6.22996 135.67 5.63996 135.58 4.95996C136.039 5.45048 136.381 6.0385 136.58 6.67996C136.8 7.32379 136.911 7.99963 136.91 8.67996C136.909 9.35634 136.815 10.0294 136.63 10.68C136.457 11.315 136.173 11.9143 135.79 12.45Z" fill="url(#paint4_linear_161_6)"/>
<path d="M131.65 17.5701C131.517 15.8854 131.253 14.2137 130.86 12.5701C130.666 11.7646 130.429 10.9701 130.15 10.1901C129.89 9.40006 129.55 8.64006 129.25 7.81006C129.9 8.39993 130.445 9.09663 130.86 9.87006C131.309 10.6383 131.645 11.4667 131.86 12.3301C132.06 13.2053 132.148 14.1026 132.12 15.0001C132.118 15.8779 131.959 16.7483 131.65 17.5701Z" fill="url(#paint5_linear_161_6)"/>
<path d="M127.75 22.3898C127.027 20.652 126.104 19.0042 125 17.4798C124.46 16.7198 123.88 15.9898 123.29 15.2598C122.7 14.5298 122 13.8198 121.44 13.0498C123.176 13.9811 124.672 15.3024 125.81 16.9098C126.378 17.7182 126.847 18.5909 127.21 19.5098C127.583 20.4234 127.766 21.4032 127.75 22.3898Z" fill="url(#paint6_linear_161_6)"/>
<path d="M129.54 20.2698C129.444 18.8505 129.059 17.4658 128.41 16.1998C128.092 15.5722 127.732 14.9674 127.33 14.3898C127.13 14.0898 126.9 13.8098 126.7 13.5098C126.464 13.2149 126.244 12.9078 126.04 12.5898C126.383 12.759 126.717 12.9459 127.04 13.1498C127.349 13.3743 127.642 13.6181 127.92 13.8798C128.48 14.4253 128.949 15.0566 129.31 15.7498C129.657 16.4545 129.871 17.2174 129.94 17.9998C130.027 18.7792 129.888 19.567 129.54 20.2698Z" fill="url(#paint7_linear_161_6)"/>
<path d="M129.57 20.2898C130.191 19.8122 130.931 19.5147 131.71 19.4298C132.488 19.3314 133.279 19.3788 134.04 19.5698C134.794 19.7905 135.51 20.128 136.16 20.5698C136.473 20.7897 136.773 21.0267 137.06 21.2798C137.331 21.5506 137.582 21.8414 137.81 22.1498C137.45 22.0098 137.12 21.8498 136.81 21.6898C136.5 21.5298 136.15 21.3898 135.81 21.2598C135.16 20.987 134.491 20.7598 133.81 20.5798C132.431 20.1973 130.988 20.0987 129.57 20.2898Z" fill="url(#paint8_linear_161_6)"/>
<path d="M119.25 16.8398C120.138 16.8481 121.011 17.0638 121.8 17.4698C122.593 17.8515 123.333 18.3357 124 18.9098C124.656 19.4856 125.249 20.1292 125.77 20.8298C126.277 21.5333 126.691 22.2997 127 23.1098C126.34 22.5298 125.75 21.9298 125.15 21.3498C124.55 20.7698 123.95 20.1898 123.32 19.6698C122.69 19.1498 122.05 18.6198 121.38 18.1398C120.705 17.6512 119.993 17.2165 119.25 16.8398Z" fill="url(#paint9_linear_161_6)"/>
<path d="M120 21.32C120.617 21.1605 121.261 21.1298 121.89 21.23C122.512 21.31 123.123 21.461 123.71 21.68C124.889 22.11 125.946 22.8204 126.79 23.75C126.182 23.6148 125.584 23.4377 125 23.22C124.43 23.03 123.89 22.81 123.33 22.61L120 21.32Z" fill="url(#paint10_linear_161_6)"/>
<path d="M122.2 24.83C122.433 24.612 122.732 24.4783 123.05 24.45C123.345 24.4178 123.644 24.4415 123.93 24.52C124.22 24.5944 124.491 24.729 124.725 24.9151C124.96 25.1012 125.152 25.3345 125.29 25.6C124.999 25.6443 124.702 25.6443 124.41 25.6C124.157 25.5755 123.906 25.5286 123.66 25.46C123.148 25.3157 122.657 25.1038 122.2 24.83Z" fill="url(#paint11_linear_161_6)"/>
<path d="M136 12.5899C136.44 12.083 136.973 11.6654 137.57 11.3599C138.159 11.0448 138.788 10.8126 139.44 10.6699C140.097 10.5289 140.772 10.4952 141.44 10.5699C142.114 10.6434 142.763 10.8654 143.34 11.2199C142.66 11.2199 142.05 11.2199 141.43 11.3499C140.825 11.4141 140.224 11.5143 139.63 11.6499C138.42 11.8899 137.26 12.2599 136 12.5899Z" fill="url(#paint12_linear_161_6)"/>
<path d="M131.83 17.7101C132.57 17.2344 133.39 16.8956 134.25 16.7101C135.111 16.5034 135.996 16.4159 136.88 16.4501C137.762 16.4693 138.637 16.6106 139.48 16.8701C140.323 17.1146 141.121 17.4964 141.84 18.0001C140.96 17.8801 140.15 17.7101 139.32 17.6201C138.501 17.509 137.676 17.4423 136.85 17.4201C135.172 17.3889 133.494 17.4859 131.83 17.7101Z" fill="url(#paint13_linear_161_6)"/>
<path d="M127.57 22.5799C128.545 22.3034 129.569 22.242 130.57 22.3999C131.561 22.5245 132.533 22.7766 133.46 23.1499C134.356 23.5329 135.208 24.0124 136 24.5799C136.81 25.1499 137.542 25.8221 138.18 26.5799C137.28 26.1499 136.45 25.6799 135.6 25.2499C134.75 24.8199 133.89 24.4299 133.02 24.0699C131.273 23.3466 129.442 22.846 127.57 22.5799Z" fill="url(#paint14_linear_161_6)"/>
<path d="M135.15 29.6799C134.262 28.1495 133.079 26.8104 131.67 25.7399C130.968 25.2168 130.23 24.7455 129.46 24.3299C129.08 24.0999 128.67 23.9299 128.27 23.7099C127.87 23.4899 127.45 23.3399 127.03 23.1099C127.496 23.1213 127.961 23.1681 128.42 23.2499C128.882 23.3392 129.336 23.4628 129.78 23.6199C130.679 23.948 131.523 24.4135 132.28 24.9999C133.025 25.557 133.674 26.2326 134.2 26.9999C134.739 27.7978 135.066 28.7202 135.15 29.6799Z" fill="url(#paint15_linear_161_6)"/>
<path d="M130.61 29.9C130.097 28.8156 129.495 27.7754 128.81 26.79C128.49 26.29 128.13 25.79 127.81 25.32C127.45 24.8139 127.117 24.2899 126.81 23.75C127.974 24.3011 128.964 25.1627 129.67 26.24C130.02 26.7851 130.289 27.3779 130.47 28C130.676 28.6115 130.724 29.265 130.61 29.9Z" fill="url(#paint16_linear_161_6)"/>
<path d="M126.72 28.4698C126.241 28.0759 125.838 27.5981 125.53 27.0598C125.387 26.801 125.26 26.5338 125.15 26.2598C125.028 25.9385 124.95 25.6021 124.92 25.2598C125.553 25.4806 126.081 25.93 126.4 26.5198C126.58 26.8072 126.702 27.1277 126.756 27.4625C126.811 27.7973 126.799 28.1398 126.72 28.4698Z" fill="url(#paint17_linear_161_6)"/>
<path d="M119.77 66.16V66.49C119.77 66.43 119.77 66.38 119.77 66.33C119.766 66.3832 119.766 66.4367 119.77 66.49V66.16C119.795 65.9541 119.795 65.7459 119.77 65.54V65.21C119.775 65.2498 119.775 65.2901 119.77 65.33C119.765 65.2901 119.765 65.2498 119.77 65.21V65.54C119.75 65.7461 119.75 65.9538 119.77 66.16Z" fill="url(#paint18_radial_161_6)"/>
<path d="M105.23 42.8402C105.23 42.8402 114.82 45.8402 108.33 53.5702C108.33 53.5702 115.94 54.5702 113.05 59.6402C113.05 59.6402 119.05 61.7702 119.81 65.1702C120.54 61.7702 126.57 59.6202 126.57 59.6202C123.66 54.5602 131.27 53.5402 131.27 53.5402C124.75 45.8802 134.33 42.8102 134.33 42.8102C130.51 38.3802 133.67 35.9002 133.67 35.9002C128.53 37.2602 127.46 33.3802 127.46 33.3802C121.75 35.3802 124.2 31.1302 123.01 31.9202C121.82 32.7102 119.88 30.8402 119.77 30.7402C119.66 30.8402 117.7 32.6802 116.53 31.9202C115.36 31.1602 117.8 35.3802 112.09 33.4002C112.09 33.4002 111.03 37.2802 105.88 35.9302C105.88 35.9302 109.05 38.4002 105.23 42.8402Z" fill="url(#paint19_radial_161_6)"/>
<path style="mix-blend-mode:color-burn" opacity="0.18" d="M119.72 30.73C119.72 30.73 117.72 32.73 116.48 31.92C115.24 31.11 117.74 35.38 112 33.4C112 33.4 110.94 37.28 105.79 35.93C105.79 35.93 108.96 38.4 105.15 42.84C105.15 42.84 114.74 45.84 108.24 53.57C108.24 53.57 115.86 54.57 112.96 59.64C112.96 59.64 120.59 62.33 119.74 66.49L119.72 30.73Z" fill="url(#paint20_radial_161_6)"/>
<path d="M119.75 61.7C119.54 59.12 119.44 56.54 119.35 53.96C119.26 51.38 119.24 48.8 119.23 46.22C119.22 43.64 119.23 41.05 119.33 38.47L119.47 34.6C119.55 33.31 119.59 32.02 119.71 30.73C119.82 32.02 119.87 33.31 119.96 34.6L120.1 38.47C120.19 41.05 120.21 43.63 120.23 46.22C120.25 48.81 120.23 51.38 120.12 53.96C120.01 56.54 120 59.12 119.75 61.7Z" fill="url(#paint21_linear_161_6)"/>
<path d="M119.82 52.79C120.66 54 121.42 55.15 122.29 56.21C122.721 56.7425 123.181 57.25 123.67 57.73C124.16 58.23 124.67 58.65 125.27 59.14C124.526 59.03 123.816 58.7568 123.19 58.34C122.556 57.9331 121.992 57.4266 121.52 56.84C121.047 56.2598 120.657 55.6171 120.36 54.93C120.052 54.2552 119.869 53.5301 119.82 52.79Z" fill="url(#paint22_linear_161_6)"/>
<path d="M119.81 45.4302C121.092 46.818 122.494 48.0897 124 49.2302C124.736 49.7912 125.504 50.3088 126.3 50.7802C127.09 51.2802 127.93 51.6902 128.79 52.1802C127.812 52.0978 126.854 51.8615 125.95 51.4802C125.021 51.1059 124.146 50.6081 123.35 50.0002C122.567 49.4262 121.861 48.754 121.25 48.0002C120.623 47.2348 120.135 46.3648 119.81 45.4302Z" fill="url(#paint23_linear_161_6)"/>
<path d="M119.8 38.4902C121.637 39.5295 123.6 40.3294 125.64 40.8702C126.64 41.1502 127.64 41.3802 128.7 41.5802C129.76 41.7802 130.79 41.9502 131.86 42.1702C130.788 42.3635 129.697 42.4273 128.61 42.3602C127.515 42.2944 126.429 42.1168 125.37 41.8302C124.325 41.5314 123.318 41.112 122.37 40.5802C121.384 40.0597 120.51 39.3494 119.8 38.4902Z" fill="url(#paint24_linear_161_6)"/>
<path d="M119.74 41.5898C120.797 42.7878 122.1 43.743 123.56 44.3898C124.282 44.7143 125.027 44.9818 125.79 45.1898C126.17 45.3098 126.57 45.3898 126.97 45.4998C127.37 45.6098 127.77 45.6698 128.18 45.7998C127.765 45.889 127.344 45.9525 126.92 45.9898C126.497 46.0198 126.073 46.0198 125.65 45.9898C124.787 45.9048 123.943 45.682 123.15 45.3298C122.345 44.9625 121.615 44.4469 121 43.8098C120.386 43.1984 119.95 42.4308 119.74 41.5898Z" fill="url(#paint25_linear_161_6)"/>
<path d="M119.7 41.5898C119.483 42.4324 119.04 43.1998 118.42 43.8098C117.811 44.4404 117.088 44.9494 116.29 45.3098C115.502 45.6711 114.661 45.9041 113.8 45.9998C113.374 46.0297 112.946 46.0297 112.52 45.9998C112.096 45.9625 111.675 45.899 111.26 45.8098C111.67 45.6798 112.08 45.5998 112.48 45.5098C112.88 45.4198 113.27 45.3198 113.65 45.1998C114.412 44.984 115.157 44.7133 115.88 44.3898C117.341 43.745 118.645 42.7895 119.7 41.5898Z" fill="url(#paint26_linear_161_6)"/>
<path d="M131.09 37.3301C130.306 37.9298 129.397 38.3435 128.43 38.5401C127.472 38.7534 126.491 38.8474 125.51 38.8201C124.537 38.7855 123.572 38.6446 122.63 38.4001C121.688 38.1812 120.778 37.8452 119.92 37.4001C120.41 37.4001 120.92 37.4801 121.35 37.5301L122.76 37.6801C123.7 37.7501 124.62 37.8501 125.54 37.8601C126.463 37.9101 127.387 37.9101 128.31 37.8601C129.251 37.7664 130.181 37.589 131.09 37.3301Z" fill="url(#paint27_linear_161_6)"/>
<path d="M127.3 34C126.861 34.5525 126.321 35.0172 125.71 35.37C125.109 35.7265 124.472 36.0181 123.81 36.24C122.488 36.6984 121.077 36.8422 119.69 36.66C120.314 36.3776 120.956 36.1338 121.61 35.93L123.49 35.29C124.75 34.84 126 34.42 127.3 34Z" fill="url(#paint28_linear_161_6)"/>
<path d="M122.91 32.4702C122.842 32.8125 122.667 33.1243 122.41 33.3602C122.173 33.585 121.899 33.7677 121.6 33.9002C121.302 34.0382 120.98 34.1154 120.652 34.1274C120.324 34.1395 119.997 34.086 119.69 33.9702C119.909 33.7375 120.162 33.5387 120.44 33.3802C120.683 33.2275 120.937 33.0938 121.2 32.9802C121.751 32.7519 122.324 32.5809 122.91 32.4702Z" fill="url(#paint29_linear_161_6)"/>
<path d="M119.56 52.79C119.5 53.5306 119.31 54.2549 119 54.93C118.703 55.6148 118.316 56.257 117.85 56.84C117.378 57.4295 116.814 57.9393 116.18 58.35C115.558 58.7669 114.851 59.0402 114.11 59.15C114.67 58.66 115.21 58.24 115.7 57.74C116.19 57.2614 116.648 56.7502 117.07 56.21C118 55.15 118.72 54 119.56 52.79Z" fill="url(#paint30_linear_161_6)"/>
<path d="M119.55 45.4302C119.224 46.3625 118.741 47.2319 118.12 48.0002C117.5 48.7526 116.787 49.4245 116 50.0002C115.22 50.6022 114.362 51.0966 113.45 51.4702C112.55 51.8516 111.595 52.0879 110.62 52.1702C111.47 51.6802 112.31 51.2702 113.1 50.7702C113.893 50.2942 114.657 49.7734 115.39 49.2102C116.887 48.0767 118.279 46.8117 119.55 45.4302Z" fill="url(#paint31_linear_161_6)"/>
<path d="M119.83 38.2002C119.163 39.0926 118.323 39.8409 117.36 40.4002C116.418 40.9735 115.411 41.4333 114.36 41.7702C113.297 42.0803 112.204 42.278 111.1 42.3602C110.001 42.4472 108.895 42.3935 107.81 42.2002C108.89 41.9702 109.95 41.8102 110.99 41.5902C112.03 41.3702 113 41.1202 114 40.8102C116.053 40.208 118.014 39.3299 119.83 38.2002Z" fill="url(#paint32_linear_161_6)"/>
<path d="M108.25 37.3599C110.09 38.0907 112.062 38.4312 114.04 38.3599C115.033 38.3314 116.022 38.2312 117 38.0599C117.5 37.9799 118 37.8299 118.47 37.7399C118.94 37.6499 119.47 37.4599 119.96 37.3599C119.535 37.663 119.095 37.9433 118.64 38.1999C118.175 38.4295 117.698 38.6332 117.21 38.8099C116.21 39.1518 115.166 39.3505 114.11 39.3999C113.049 39.4183 111.991 39.2629 110.98 38.9399C109.951 38.6524 109.012 38.1088 108.25 37.3599Z" fill="url(#paint33_linear_161_6)"/>
<path d="M112 34C113.198 34.6113 114.45 35.1101 115.74 35.49C116.37 35.7 117.02 35.85 117.67 36.04C118.32 36.23 118.98 36.39 119.67 36.64C118.976 36.8012 118.261 36.8584 117.55 36.81C116.841 36.7712 116.139 36.647 115.46 36.44C114.77 36.2316 114.113 35.9251 113.51 35.53C112.886 35.1557 112.366 34.6293 112 34Z" fill="url(#paint34_linear_161_6)"/>
<path d="M116.42 32.48C117.106 32.5249 117.781 32.6767 118.42 32.93C118.731 33.0454 119.032 33.1859 119.32 33.35C119.643 33.5163 119.942 33.7248 120.21 33.97C119.502 34.1811 118.743 34.1422 118.06 33.86C117.729 33.728 117.416 33.5532 117.13 33.34C116.829 33.1128 116.586 32.8182 116.42 32.48Z" fill="url(#paint35_linear_161_6)"/>
<path d="M150.48 45.8098L150.73 45.9798L150.61 45.8798C150.655 45.904 150.701 45.9241 150.75 45.9398L150.5 45.7798C150.354 45.6574 150.197 45.5502 150.03 45.4598L149.78 45.2998L149.85 45.3698H149.76L150 45.5398C150.151 45.6443 150.312 45.7347 150.48 45.8098Z" fill="url(#paint36_radial_161_6)"/>
<path d="M125.35 45.0001C125.35 45.0001 132.55 39.2701 135.08 48.1201C135.08 48.1201 139.72 42.8301 142.08 47.6201C142.08 47.6201 146.77 44.1201 149.73 45.3001C147.52 43.0201 148.96 37.3001 148.96 37.3001C143.62 36.9301 146.73 30.6201 146.73 30.6201C137.58 31.6801 140.13 22.8301 140.13 22.8301C134.82 23.4801 134.54 19.8301 134.54 19.8301C132.96 24.4301 129.47 23.2801 129.47 23.2801C128.08 28.6301 126.1 24.6001 126.09 25.9101C126.08 27.2201 123.68 27.7401 123.54 27.7701C123.54 27.9101 123.96 30.3301 122.79 30.8301C121.62 31.3301 126.06 31.6301 121.65 34.9601C121.65 34.9601 124.05 37.7501 120.41 40.9601C120.43 41.0001 123.92 39.8201 125.35 45.0001Z" fill="url(#paint37_radial_161_6)"/>
<path style="mix-blend-mode:color-burn" opacity="0.18" d="M123.53 27.7998C123.53 27.7998 123.98 30.3598 122.78 30.8798C121.58 31.3998 126.05 31.6798 121.64 35.0098C121.64 35.0098 124.04 37.7898 120.4 41.0098C120.4 41.0098 123.89 39.8598 125.33 45.0098C125.33 45.0098 132.52 39.2698 135.05 48.1198C135.05 48.1198 139.69 42.8398 142.05 47.6298C142.05 47.6298 147.98 43.1898 150.71 45.9598L123.53 27.7998Z" fill="url(#paint38_radial_161_6)"/>
<path d="M147.08 43.5598C145 42.4198 143 41.1898 141 39.9398C139 38.6898 137 37.3998 135 36.0998C133 34.7998 131.09 33.4598 129.17 32.0998L126.33 29.9998C125.39 29.2698 124.44 28.5698 123.52 27.8198C124.52 28.3898 125.52 28.9998 126.6 29.5898L129.6 31.4398C131.6 32.6798 133.6 33.9798 135.6 35.2798C137.6 36.5798 139.51 37.9298 141.42 39.2798C143.33 40.6298 145.23 42.0798 147.08 43.5598Z" fill="url(#paint39_linear_161_6)"/>
<path d="M140.34 39.0001C141.7 38.9501 142.95 38.9501 144.2 38.8201C144.821 38.7678 145.438 38.681 146.05 38.5601C146.67 38.4501 147.27 38.2601 147.94 38.1001C147.489 38.6217 146.925 39.0323 146.29 39.3001C145.656 39.5801 144.98 39.7557 144.29 39.8201C143.605 39.8772 142.916 39.8436 142.24 39.7201C141.567 39.6004 140.923 39.3562 140.34 39.0001Z" fill="url(#paint40_linear_161_6)"/>
<path d="M134.74 35.2201C136.438 34.9417 138.111 34.5236 139.74 33.9701C140.536 33.6862 141.317 33.3625 142.08 33.0001C142.86 32.6501 143.6 32.2301 144.42 31.8501C143.858 32.5623 143.182 33.1771 142.42 33.6701C141.678 34.1853 140.867 34.5927 140.01 34.8801C139.158 35.1779 138.27 35.3628 137.37 35.4301C136.488 35.5158 135.598 35.4447 134.74 35.2201Z" fill="url(#paint41_linear_161_6)"/>
<path d="M129.46 31.6999C131.171 30.8075 132.769 29.713 134.22 28.4399C134.94 27.8199 135.63 27.1599 136.32 26.4399C137.01 25.7199 137.67 25.0499 138.4 24.3599C138.023 25.3024 137.522 26.1902 136.91 26.9999C136.32 27.7993 135.65 28.5364 134.91 29.1999C134.139 29.854 133.293 30.4145 132.39 30.8699C131.48 31.3437 130.483 31.6262 129.46 31.6999Z" fill="url(#paint42_linear_161_6)"/>
<path d="M131.79 33.3298C133.228 33.1001 134.606 32.5832 135.84 31.8098C136.45 31.4248 137.031 30.9971 137.58 30.5298C137.87 30.2998 138.13 30.0498 138.43 29.8098C138.701 29.5387 138.988 29.2849 139.29 29.0498C139.153 29.413 138.993 29.7671 138.81 30.1098C138.612 30.4595 138.388 30.7938 138.14 31.1098C137.638 31.7279 137.041 32.2613 136.37 32.6898C135.686 33.1096 134.93 33.3979 134.14 33.5398C133.352 33.6876 132.539 33.615 131.79 33.3298Z" fill="url(#paint43_linear_161_6)"/>
<path d="M131.77 33.3599C132.313 33.9444 132.683 34.6678 132.84 35.4499C133.008 36.2357 133.032 37.0456 132.91 37.8399C132.771 38.6247 132.504 39.3814 132.12 40.0799C131.934 40.4277 131.724 40.7619 131.49 41.0799C131.238 41.3799 130.968 41.6638 130.68 41.9299C130.79 41.5499 130.93 41.1999 131.06 40.8399C131.19 40.4799 131.3 40.1399 131.41 39.8399C131.623 39.1508 131.793 38.4495 131.92 37.7399C132.172 36.2851 132.121 34.794 131.77 33.3599Z" fill="url(#paint44_linear_161_6)"/>
<path d="M134.34 22.5298C134.403 23.4294 134.263 24.3318 133.93 25.1698C133.611 26.0115 133.184 26.8081 132.66 27.5398C132.136 28.2709 131.532 28.9417 130.86 29.5398C130.197 30.1208 129.461 30.6117 128.67 30.9998C129.2 30.2798 129.76 29.6198 130.3 28.9998C130.84 28.3798 131.37 27.6698 131.84 26.9998C132.339 26.3228 132.8 25.6184 133.22 24.8898C133.653 24.1327 134.027 23.3438 134.34 22.5298Z" fill="url(#paint45_linear_161_6)"/>
<path d="M129.84 23.6899C130.055 24.3025 130.143 24.9523 130.1 25.5999C130.036 27.5357 129.292 29.3872 128 30.8299C128.084 30.2127 128.208 29.6014 128.37 28.9999C128.52 28.3999 128.69 27.8199 128.84 27.2399L129.84 23.6899Z" fill="url(#paint46_linear_161_6)"/>
<path d="M126.47 26.27C126.71 26.4878 126.868 26.7804 126.92 27.1C126.98 27.397 126.98 27.703 126.92 28C126.868 28.3035 126.752 28.5925 126.579 28.8477C126.407 29.1029 126.182 29.3184 125.92 29.48C125.846 29.1894 125.812 28.8899 125.82 28.59C125.847 27.7819 126.052 26.9897 126.42 26.27H126.47Z" fill="url(#paint47_linear_161_6)"/>
<path d="M140.21 39.1602C140.759 39.5658 141.228 40.0713 141.59 40.6502C141.969 41.2225 142.265 41.8453 142.47 42.5002C142.672 43.1473 142.769 43.8224 142.76 44.5002C142.754 45.1947 142.59 45.8787 142.28 46.5002C142.17 45.8202 142.12 45.1902 141.98 44.5702C141.861 43.9586 141.707 43.3543 141.52 42.7602C141.15 41.5902 140.67 40.4402 140.21 39.1602Z" fill="url(#paint48_linear_161_6)"/>
<path d="M134.61 35.4199C135.161 36.1317 135.578 36.9383 135.84 37.7999C136.125 38.6538 136.296 39.5414 136.35 40.4399C136.412 41.3411 136.348 42.2465 136.16 43.1299C135.987 44.0126 135.669 44.8607 135.22 45.6399C135.27 44.7399 135.37 43.8899 135.39 43.0399C135.41 42.1899 135.39 41.3499 135.39 40.5099C135.269 38.7949 135.008 37.0925 134.61 35.4199Z" fill="url(#paint49_linear_161_6)"/>
<path d="M129.26 31.5298C129.61 32.4894 129.763 33.5097 129.71 34.5298C129.668 35.5466 129.5 36.5543 129.21 37.5298C128.909 38.5008 128.503 39.4363 128 40.3198C127.497 41.1959 126.882 42.0027 126.17 42.7198C126.53 41.7798 126.94 40.8898 127.3 39.9798C127.66 39.0698 127.98 38.1698 128.3 37.2498C128.864 35.3922 129.186 33.4697 129.26 31.5298Z" fill="url(#paint50_linear_161_6)"/>
<path d="M122.72 39.8998C124.206 38.865 125.465 37.5379 126.42 35.9998C126.891 35.2375 127.305 34.4421 127.66 33.6198C127.85 33.2098 127.99 32.7698 128.17 32.3498C128.35 31.9298 128.47 31.4698 128.67 31.0298C128.695 31.5061 128.695 31.9834 128.67 32.4598C128.622 32.9353 128.538 33.4066 128.42 33.8698C128.176 34.8069 127.795 35.7031 127.29 36.5298C126.75 37.3576 126.074 38.0879 125.29 38.6898C124.546 39.2978 123.663 39.7133 122.72 39.8998Z" fill="url(#paint51_linear_161_6)"/>
<path d="M122.08 35.3001C123.139 34.68 124.142 33.9708 125.08 33.1801C125.56 32.8201 126 32.4001 126.48 32.0101C126.96 31.6201 127.43 31.2101 127.98 30.8301C127.527 32.0716 126.746 33.1671 125.72 34.0001C125.197 34.4127 124.618 34.7494 124 35.0001C123.396 35.263 122.735 35.3664 122.08 35.3001Z" fill="url(#paint52_linear_161_6)"/>
<path d="M123.17 31.2101C123.533 30.6897 123.987 30.2391 124.51 29.8801C124.759 29.706 125.02 29.5489 125.29 29.4101C125.607 29.2556 125.943 29.1446 126.29 29.0801C126.119 29.7404 125.709 30.314 125.14 30.6901C124.862 30.9024 124.545 31.0577 124.207 31.147C123.869 31.2362 123.516 31.2577 123.17 31.2101Z" fill="url(#paint53_linear_161_6)"/>
<path d="M96.3801 0.350137L96.1701 0.140137C96.1944 0.184129 96.2247 0.224518 96.2601 0.260137L96.1401 0.180137L96.3501 0.380137C96.4709 0.519398 96.6049 0.646657 96.7501 0.760137L97.0001 1.00014L96.9001 0.880137L97.0001 0.930137L96.7901 0.730137C96.6687 0.587932 96.5311 0.4604 96.3801 0.350137Z" fill="url(#paint54_radial_161_6)"/>
<path d="M120.43 5.38004C120.43 5.38004 112.53 9.69004 111.59 0.740039C111.59 0.740039 106.23 5.05004 104.75 0.0400391C104.75 0.0400391 99.6399 2.62004 96.9899 1.04004V1.00004C98.7399 3.57004 96.3999 8.79004 96.3999 8.79004C101.47 10.05 97.3999 15.59 97.3999 15.59C106.4 16.12 102.4 24.21 102.4 24.21C107.63 24.48 107.27 28.06 107.27 28.06C109.58 23.89 112.74 25.6 112.74 25.6C114.98 20.68 116.21 24.89 116.44 23.6C116.67 22.31 119.07 22.24 119.21 22.24C119.21 22.1 119.21 19.7 120.45 19.41C121.69 19.12 117.45 18.09 122.24 15.63C122.24 15.63 120.4 12.54 124.45 10.05C124.5 10.07 120.94 10.59 120.43 5.38004Z" fill="url(#paint55_radial_161_6)"/>
<path style="mix-blend-mode:color-burn" opacity="0.18" d="M119.3 22.23C119.3 22.23 119.3 19.69 120.53 19.4C121.76 19.11 117.53 18.08 122.33 15.61C122.33 15.61 120.48 12.53 124.53 10.03C124.53 10.03 120.98 10.55 120.47 5.34C120.47 5.34 112.57 9.66 111.63 0.71C111.63 0.71 106.27 5.01 104.78 0C104.78 0 98.3299 3.27 96.1699 0.14L119.3 22.23Z" fill="url(#paint56_radial_161_6)"/>
<path d="M99.27 3.08984C101.08 4.53984 102.82 6.08984 104.54 7.59984C106.26 9.10984 107.96 10.7098 109.63 12.2998C111.3 13.8898 112.96 15.4998 114.56 17.1598L117 19.6498C117.78 20.5098 118.58 21.3398 119.34 22.2198C118.42 21.5098 117.56 20.7498 116.66 20.0098L114 17.7198C112.27 16.1898 110.59 14.5998 108.91 13.0198C107.23 11.4398 105.62 9.80984 104 8.14984C102.38 6.48984 100.8 4.82984 99.27 3.08984Z" fill="url(#paint57_linear_161_6)"/>
<path d="M105 8.64981C103.67 8.48981 102.47 8.27981 101.25 8.18981C100.64 8.11981 100.04 8.12981 99.43 8.11981C98.82 8.10981 98.2 8.19981 97.52 8.23981C98.0449 7.81077 98.6604 7.50646 99.32 7.34981C99.9744 7.19313 100.649 7.13915 101.32 7.18981C101.988 7.24818 102.644 7.39964 103.27 7.63981C103.905 7.86433 104.492 8.20702 105 8.64981Z" fill="url(#paint58_linear_161_6)"/>
<path d="M109.75 13.2002C108.076 13.1938 106.404 13.3208 104.75 13.5802C103.931 13.7011 103.119 13.8715 102.32 14.0902C101.51 14.2802 100.72 14.5602 99.8701 14.7902C100.518 14.1952 101.257 13.7089 102.06 13.3502C102.865 12.9829 103.716 12.7272 104.59 12.5902C105.463 12.4519 106.351 12.4284 107.23 12.5202C108.104 12.5917 108.958 12.8221 109.75 13.2002Z" fill="url(#paint59_linear_161_6)"/>
<path d="M114.23 17.4802C112.438 18.0626 110.72 18.8512 109.11 19.8302C108.31 20.3002 107.53 20.8302 106.76 21.3502C105.99 21.8702 105.22 22.4602 104.4 23.0002C105.474 21.3619 106.911 19.9932 108.6 19.0002C109.453 18.4994 110.362 18.1032 111.31 17.8202C112.25 17.5089 113.244 17.3932 114.23 17.4802Z" fill="url(#paint60_linear_161_6)"/>
<path d="M112.27 15.5199C110.845 15.5045 109.431 15.7731 108.11 16.3099C107.462 16.5814 106.831 16.8919 106.22 17.2399C105.91 17.4099 105.61 17.6199 105.29 17.7999C104.97 17.9799 104.68 18.1999 104.29 18.3799C104.481 18.0489 104.695 17.7315 104.93 17.4299C105.173 17.1348 105.441 16.8605 105.73 16.6099C106.325 16.0928 107 15.6772 107.73 15.3799C108.464 15.0947 109.243 14.9456 110.03 14.9399C110.816 14.9196 111.592 15.1206 112.27 15.5199Z" fill="url(#paint61_linear_161_6)"/>
<path d="M112.29 15.5C111.865 14.8432 111.63 14.0819 111.61 13.3C111.591 12.5154 111.724 11.7345 112 11C112.266 10.2763 112.647 9.60079 113.13 8.99998C113.372 8.70353 113.632 8.42295 113.91 8.15998C114.203 7.91579 114.511 7.68874 114.83 7.47998C114.67 7.83998 114.47 8.14998 114.29 8.47998C114.11 8.80998 113.94 9.11998 113.78 9.47998C113.459 10.1046 113.178 10.7493 112.94 11.41C112.459 12.7178 112.238 14.1073 112.29 15.5Z" fill="url(#paint62_linear_161_6)"/>
<path d="M108 25.49C108.078 24.6065 108.362 23.7537 108.83 23C109.279 22.2431 109.823 21.5474 110.45 20.93C111.078 20.3185 111.773 19.7785 112.52 19.32C113.261 18.863 114.057 18.5034 114.89 18.25C114.26 18.86 113.61 19.4 112.98 19.95C112.35 20.5 111.73 21.05 111.15 21.64C110.559 22.2107 109.999 22.8115 109.47 23.44C108.928 24.0844 108.436 24.7698 108 25.49Z" fill="url(#paint63_linear_161_6)"/>
<path d="M112.52 25.1298C112.418 24.5014 112.442 23.859 112.59 23.2398C112.718 22.6277 112.919 22.0333 113.19 21.4698C113.709 20.3246 114.507 19.3276 115.51 18.5698C115.323 19.1534 115.099 19.7246 114.84 20.2798C114.6 20.8298 114.34 21.3598 114.09 21.8898L112.52 25.1298Z" fill="url(#paint64_linear_161_6)"/>
<path d="M116.2 23.2102C116.003 22.9596 115.897 22.6491 115.9 22.3302C115.89 22.0371 115.938 21.745 116.04 21.4702C116.135 21.1867 116.29 20.9268 116.493 20.7078C116.697 20.4887 116.944 20.3157 117.22 20.2002C117.267 20.4917 117.267 20.7887 117.22 21.0802C117.173 21.3327 117.103 21.5804 117.01 21.8202C116.809 22.3202 116.536 22.7883 116.2 23.2102Z" fill="url(#paint65_linear_161_6)"/>
<path d="M105.15 8.49C104.683 8.00594 104.31 7.43975 104.05 6.82C103.787 6.20339 103.609 5.55422 103.52 4.89C103.431 4.22412 103.455 3.54805 103.59 2.89C103.703 2.20543 103.977 1.55756 104.39 1C104.39 1.68 104.33 2.29 104.39 2.9C104.409 3.5088 104.459 4.11624 104.54 4.72C104.66 6 104.92 7.17 105.15 8.49Z" fill="url(#paint66_linear_161_6)"/>
<path d="M109.91 13.0001C109.491 12.2236 109.219 11.3758 109.11 10.5001C108.995 9.62718 108.995 8.74298 109.11 7.87008C109.205 6.99029 109.423 6.12836 109.76 5.31008C110.048 4.50357 110.467 3.7501 111 3.08008C110.81 3.94008 110.57 4.74008 110.41 5.56008C110.25 6.3666 110.133 7.1811 110.06 8.00008C109.88 9.66028 109.83 11.3321 109.91 13.0001Z" fill="url(#paint67_linear_161_6)"/>
<path d="M114.4 17.6799C114.213 16.6861 114.237 15.6639 114.47 14.6799C114.677 13.6996 115.013 12.7513 115.47 11.8599C115.922 10.989 116.469 10.1707 117.1 9.41992C117.737 8.66471 118.466 7.99274 119.27 7.41992C118.77 8.27992 118.27 9.05992 117.74 9.87992C117.21 10.6999 116.74 11.5099 116.35 12.3499C115.479 14.0376 114.824 15.8284 114.4 17.6799Z" fill="url(#paint68_linear_161_6)"/>
<path d="M122.11 10.71C120.512 11.47 119.08 12.5409 117.9 13.86C117.318 14.5115 116.786 15.2069 116.31 15.94C116.05 16.3 115.84 16.7 115.59 17.07C115.34 17.44 115.15 17.87 114.89 18.26C114.944 17.7952 115.028 17.3342 115.14 16.88C115.27 16.4329 115.431 15.9953 115.62 15.57C116.008 14.7046 116.524 13.9023 117.15 13.19C117.796 12.4837 118.557 11.892 119.4 11.44C120.23 10.9781 121.161 10.7274 122.11 10.71Z" fill="url(#paint69_linear_161_6)"/>
<path d="M122 15.2501C120.88 15.6776 119.796 16.196 118.76 16.8001C118.23 17.0701 117.76 17.3901 117.2 17.6801C116.67 18.0066 116.123 18.3038 115.56 18.5701C116.203 17.4543 117.14 16.5374 118.27 15.9201C118.835 15.6086 119.441 15.3796 120.07 15.2401C120.703 15.0736 121.369 15.077 122 15.2501Z" fill="url(#paint70_linear_161_6)"/>
<path d="M120.21 18.9999C119.778 19.4474 119.266 19.8103 118.7 20.0699C118.432 20.1939 118.154 20.2975 117.87 20.3799C117.546 20.4776 117.209 20.5281 116.87 20.5299C117.141 19.9215 117.63 19.4365 118.24 19.1699C118.848 18.8549 119.557 18.7938 120.21 18.9999Z" fill="url(#paint71_linear_161_6)"/>
<path d="M77.36 48.4302L77 48.6102L77.19 48.5502L77 48.6602L77.35 48.4802C77.59 48.3924 77.8211 48.2819 78.04 48.1502L78.42 48.0002H78.29L78.4 47.9102L78 48.1002C77.7752 48.1863 77.5605 48.2969 77.36 48.4302Z" fill="url(#paint72_radial_161_6)"/>
<path d="M95.0802 19.9402C95.0802 19.9402 96.9102 32.0902 85.0002 29.1102C85.0002 29.1102 88.0002 37.9902 80.8902 37.5502C80.8902 37.5502 81.8102 45.3202 78.4802 47.9502H78.4302C82.5502 46.9502 88.1502 52.3602 88.1502 52.3602C92.1502 46.4402 97.3602 54.2402 97.3602 54.2402C102.28 43.0002 110.81 51.8202 110.81 51.8202C113.6 45.2402 118 47.3702 118 47.3702C113.74 42.4702 117.41 39.2002 117.41 39.2002C112.15 34.0302 118.12 34.4302 116.62 33.5402C115.12 32.6502 116.11 29.5402 116.16 29.3502C115.98 29.2902 112.91 28.1302 113.16 26.4502C113.41 24.7702 110.06 29.7002 109.16 22.3702C109.16 22.3702 104.34 23.3002 103.04 16.9302C103 16.9202 102 21.7302 95.0802 19.9402Z" fill="url(#paint73_radial_161_6)"/>
<path style="mix-blend-mode:color-burn" opacity="0.18" d="M116.16 29.2799C116.16 29.2799 112.9 28.0999 113.1 26.3699C113.3 24.6399 109.99 29.6199 109.1 22.2999C109.1 22.2999 104.28 23.2199 102.98 16.8599C102.98 16.8599 101.98 21.6599 95.06 19.8599C95.05 19.8799 96.88 31.9999 85 28.9999C85 28.9999 88 37.8899 80.89 37.4499C80.89 37.4499 82.06 47.2599 77.04 48.5699L116.16 29.2799Z" fill="url(#paint74_radial_161_6)"/>
<path d="M82.23 46.0002C85 44.4302 87.75 43.0002 90.54 41.4802C93.33 39.9602 96.15 38.6002 99 37.1902C101.85 35.7802 104.67 34.4202 107.53 33.1102L111.83 31.1102C113.28 30.4902 114.72 29.8302 116.18 29.2402C114.82 30.0402 113.43 30.7802 112.05 31.5502L107.84 33.8002C105.06 35.2702 102.23 36.6802 99.41 38.0902C96.59 39.5002 93.75 40.8502 90.88 42.1702C88.01 43.4902 85.15 44.8002 82.23 46.0002Z" fill="url(#paint75_linear_161_6)"/>
<path d="M92.0002 41.2798C91.0685 42.7282 90.2301 44.2346 89.4902 45.7898C89.1267 46.5519 88.8225 47.3409 88.5802 48.1498C88.3346 48.9783 88.1343 49.8195 87.9802 50.6698C87.7596 49.7973 87.7154 48.8896 87.8502 47.9998C87.9751 47.0962 88.2346 46.2164 88.6202 45.3898C89.001 44.5706 89.4813 43.8015 90.0502 43.0998C90.6005 42.3944 91.2586 41.7802 92.0002 41.2798Z" fill="url(#paint76_linear_161_6)"/>
<path d="M100.1 37.2998C99.2023 39.4127 98.5319 41.6151 98.1001 43.8698C97.8779 44.9853 97.7309 46.1146 97.6601 47.2498C97.5501 48.3898 97.5801 49.5398 97.5501 50.7198C97.1566 49.5991 96.9308 48.4265 96.8801 47.2398C96.8097 46.0478 96.8904 44.8516 97.1201 43.6798C97.3467 42.5071 97.7127 41.3657 98.2101 40.2798C98.68 39.1935 99.3178 38.1879 100.1 37.2998Z" fill="url(#paint77_linear_161_6)"/>
<path d="M107.7 33.5498C107.56 34.8419 107.54 36.1441 107.64 37.4398C107.723 38.7188 107.887 39.9913 108.13 41.2498C108.36 42.5098 108.67 43.7598 109.02 44.9998C109.37 46.2398 109.78 47.4798 110.17 48.7498C109.8 48.2098 109.47 47.6298 109.17 47.0598C108.86 46.4744 108.58 45.8736 108.33 45.2598C107.822 44.0274 107.437 42.7479 107.18 41.4398C106.942 40.1206 106.848 38.7793 106.9 37.4398C106.924 36.1049 107.196 34.7859 107.7 33.5498Z" fill="url(#paint78_linear_161_6)"/>
<path d="M104.26 35.1602C103.451 36.9479 103.067 38.8991 103.14 40.8602C103.186 41.8313 103.306 42.7975 103.5 43.7502C103.59 44.2402 103.73 44.7502 103.83 45.2002C103.93 45.6502 104.11 46.2002 104.21 46.6802C103.907 46.2621 103.626 45.8282 103.37 45.3802C103.137 44.9326 102.93 44.4718 102.75 44.0002C102.394 43.0135 102.192 41.9781 102.15 40.9302C102.117 39.8744 102.272 38.8211 102.61 37.8202C102.915 36.8031 103.484 35.8852 104.26 35.1602Z" fill="url(#paint79_linear_161_6)"/>
<path d="M104.24 35.1102C103.203 35.2894 102.138 35.1928 101.15 34.8302C100.151 34.4856 99.2198 33.9677 98.4001 33.3002C97.6001 32.6402 96.9025 31.865 96.3301 31.0002C96.0531 30.5623 95.8026 30.1081 95.5801 29.6402C95.3901 29.1602 95.2101 28.6402 95.0601 28.1802C95.4101 28.5802 95.7001 28.9902 96.0001 29.3802C96.3001 29.7702 96.6201 30.1602 96.9501 30.5302C97.5917 31.2486 98.287 31.9172 99.0301 32.5302C100.54 33.7871 102.325 34.6709 104.24 35.1102Z" fill="url(#paint80_linear_161_6)"/>
<path d="M115.05 45.2998C114.005 44.7298 113.092 43.9461 112.37 42.9998C111.631 42.0626 111.01 41.0383 110.52 39.9498C110.034 38.8708 109.658 37.7449 109.4 36.5898C109.26 36.0198 109.19 35.4298 109.1 34.8498C109.037 34.2653 109.003 33.6778 109 33.0898C109.22 33.6398 109.39 34.1898 109.57 34.7398L110.15 36.3698C110.56 37.4398 110.94 38.5198 111.43 39.5398C111.894 40.5699 112.418 41.5717 113 42.5398C113.594 43.5228 114.281 44.447 115.05 45.2998Z" fill="url(#paint81_linear_161_6)"/>
<path d="M116.7 39.3302C115.875 39.1106 115.096 38.7448 114.4 38.2502C113.682 37.7802 113.013 37.241 112.4 36.6402C111.205 35.4375 110.267 34.0054 109.64 32.4302C110.28 32.9902 110.85 33.5902 111.42 34.1802L113.12 35.9302C114.29 37.0902 115.44 38.2102 116.7 39.3302Z" fill="url(#paint82_linear_161_6)"/>
<path d="M116 33.7202C115.594 33.7878 115.177 33.7357 114.8 33.5702C114.438 33.4236 114.1 33.2211 113.8 32.9702C113.179 32.4673 112.76 31.7572 112.62 30.9702C112.972 31.1252 113.307 31.3162 113.62 31.5402C113.92 31.7402 114.18 31.9702 114.45 32.1902C114.995 32.6712 115.512 33.182 116 33.7202Z" fill="url(#paint83_linear_161_6)"/>
<path d="M91.8998 41C91.0515 41.303 90.1603 41.4684 89.2598 41.49C88.3559 41.5131 87.4525 41.4258 86.5698 41.23C85.6768 41.0289 84.8201 40.6916 84.0298 40.23C83.2501 39.7815 82.5697 39.1793 82.0298 38.46C82.7986 38.8588 83.5899 39.2128 84.3998 39.52C85.1893 39.8143 85.9978 40.0549 86.8198 40.24C88.4957 40.5984 90.1923 40.8522 91.8998 41Z" fill="url(#paint84_linear_161_6)"/>
<path d="M100 36.9999C98.8129 37.0968 97.6176 37.0022 96.4602 36.7199C95.2947 36.4563 94.1662 36.0499 93.1002 35.5099C92.0185 34.9747 91.0103 34.3025 90.1002 33.5099C89.1905 32.7443 88.3957 31.8519 87.7402 30.8599C88.7402 31.5599 89.6002 32.2799 90.5602 32.8599C91.522 33.4914 92.5242 34.0593 93.5602 34.5599C95.6124 35.6035 97.7717 36.4216 100 36.9999Z" fill="url(#paint85_linear_161_6)"/>
<path d="M108 33.4299C106.681 33.1374 105.429 32.5979 104.31 31.8399C103.18 31.0993 102.14 30.2302 101.21 29.2499C100.303 28.2523 99.5017 27.1631 98.8199 25.9999C98.4772 25.4259 98.1635 24.8352 97.8799 24.2299C97.6199 23.6099 97.3699 22.9899 97.1499 22.3599C97.9299 23.4499 98.6799 24.5299 99.4699 25.5599C100.251 26.6022 101.086 27.6035 101.97 28.5599C102.852 29.5067 103.797 30.3921 104.8 31.2099C105.795 32.0474 106.867 32.7906 108 33.4299Z" fill="url(#paint86_linear_161_6)"/>
<path d="M102.7 20.29C102.798 22.7367 103.447 25.1297 104.6 27.29C105.186 28.3414 105.855 29.3446 106.6 30.29C106.96 30.78 107.39 31.22 107.77 31.71C108.15 32.2 108.61 32.61 109.02 33.1C108.48 32.78 107.95 32.44 107.43 32.1C106.928 31.6877 106.451 31.247 106 30.78C105.105 29.8668 104.341 28.8336 103.73 27.71C103.135 26.5688 102.727 25.34 102.52 24.07C102.288 22.813 102.35 21.5194 102.7 20.29Z" fill="url(#paint87_linear_161_6)"/>
<path d="M108.45 22.6099C108.39 23.4388 108.39 24.2709 108.45 25.0999C108.51 25.9199 108.61 26.7199 108.74 27.5299C108.87 28.3399 109.04 29.1299 109.2 29.9499C109.36 30.7699 109.56 31.5699 109.69 32.4299C109.184 31.7311 108.768 30.9719 108.45 30.1699C108.126 29.368 107.891 28.533 107.75 27.6799C107.612 26.8201 107.588 25.9458 107.68 25.0799C107.742 24.2081 108.006 23.3626 108.45 22.6099Z" fill="url(#paint88_linear_161_6)"/>
<path d="M112.46 26.6099C112.71 27.4062 112.871 28.2279 112.94 29.0599C112.94 29.4599 112.99 29.8599 112.99 30.2799C112.997 30.713 112.957 31.1456 112.87 31.5699C112.325 30.874 112.002 30.0312 111.94 29.1499C111.905 28.7157 111.925 28.279 112 27.8499C112.063 27.4085 112.22 26.9857 112.46 26.6099Z" fill="url(#paint89_linear_161_6)"/>
<path d="M115.43 26.26C115.414 25.5878 115.199 24.9355 114.812 24.3854C114.426 23.8354 113.884 23.4124 113.257 23.1698C112.63 22.9273 111.945 22.8761 111.289 23.0228C110.633 23.1695 110.035 23.5075 109.571 23.994C109.107 24.4805 108.797 25.0937 108.682 25.756C108.566 26.4184 108.649 27.1001 108.921 27.7151C109.193 28.3302 109.641 28.8508 110.208 29.2112C110.776 29.5716 111.438 29.7556 112.11 29.74C112.556 29.7296 112.997 29.6314 113.405 29.4508C113.814 29.2703 114.183 29.011 114.491 28.6879C114.799 28.3647 115.041 27.9839 115.202 27.5674C115.363 27.1508 115.441 26.7065 115.43 26.26Z" fill="#E00000"/>
<g style="mix-blend-mode:screen" opacity="0.56">
<path d="M115.13 26.9102C115.118 26.4021 114.956 25.909 114.663 25.4931C114.371 25.0773 113.962 24.7575 113.488 24.5741C113.014 24.3907 112.496 24.3519 112 24.4627C111.504 24.5735 111.052 24.8289 110.702 25.1965C110.351 25.5642 110.117 26.0276 110.029 26.5283C109.942 27.0289 110.004 27.5443 110.21 28.0092C110.415 28.4741 110.754 28.8677 111.183 29.1402C111.612 29.4127 112.112 29.5519 112.62 29.5402C112.958 29.5324 113.29 29.4582 113.599 29.3218C113.908 29.1854 114.187 28.9895 114.42 28.7452C114.653 28.501 114.836 28.2132 114.958 27.8984C115.079 27.5835 115.138 27.2477 115.13 26.9102Z" fill="#E00000"/>
</g>
<path d="M113.17 28.7001C113.088 28.5979 113.042 28.4712 113.04 28.3401C113.049 28.1951 113.114 28.0592 113.22 27.9601C113.329 27.8808 113.456 27.8293 113.59 27.8101C113.716 27.8007 113.842 27.8178 113.96 27.8601C113.753 27.9215 113.557 28.0161 113.38 28.1401C113.307 28.213 113.25 28.3007 113.214 28.3973C113.178 28.4939 113.163 28.5972 113.17 28.7001Z" fill="#231616"/>
<path d="M119 32.6499C118.984 31.9773 118.769 31.3246 118.382 30.7744C117.995 30.2242 117.453 29.8012 116.825 29.559C116.197 29.3168 115.512 29.2663 114.856 29.4138C114.199 29.5614 113.601 29.9003 113.138 30.3878C112.674 30.8753 112.365 31.4894 112.251 32.1524C112.136 32.8154 112.221 33.4974 112.494 34.1122C112.768 34.727 113.217 35.2469 113.786 35.606C114.355 35.9652 115.018 36.1475 115.69 36.1299C116.137 36.1208 116.577 36.0234 116.986 35.8432C117.394 35.663 117.763 35.4036 118.071 35.08C118.379 34.7565 118.619 34.3751 118.779 33.958C118.938 33.5409 119.014 33.0963 119 32.6499Z" fill="#E00000"/>
<g style="mix-blend-mode:screen" opacity="0.56">
<path d="M118.68 33.2898C118.668 32.7813 118.505 32.2878 118.212 31.8718C117.92 31.4558 117.51 31.1361 117.036 30.953C116.561 30.7699 116.043 30.7318 115.546 30.8434C115.05 30.9551 114.598 31.2114 114.248 31.5801C113.897 31.9488 113.664 32.4132 113.578 32.9144C113.491 33.4157 113.556 33.9313 113.763 34.396C113.97 34.8607 114.31 35.2535 114.74 35.5248C115.17 35.7961 115.671 35.9335 116.18 35.9198C116.517 35.9121 116.849 35.8378 117.157 35.7012C117.466 35.5647 117.744 35.3686 117.976 35.1243C118.209 34.8799 118.39 34.592 118.511 34.2772C118.632 33.9624 118.689 33.6269 118.68 33.2898Z" fill="#E00000"/>
</g>
<path d="M116.72 35.08C116.677 35.031 116.644 34.9739 116.624 34.9121C116.603 34.8503 116.595 34.785 116.6 34.72C116.603 34.6477 116.62 34.5767 116.651 34.5114C116.682 34.446 116.726 34.3877 116.78 34.34C116.886 34.256 117.015 34.2071 117.15 34.2C117.272 34.1703 117.398 34.1703 117.52 34.2C117.31 34.2629 117.111 34.3573 116.93 34.48C116.851 34.5573 116.792 34.6515 116.755 34.7556C116.719 34.8596 116.707 34.9706 116.72 35.08Z" fill="#231616"/>
<path d="M130.22 27.37C130.196 26.4369 129.896 25.5319 129.358 24.7694C128.819 24.0068 128.067 23.421 127.196 23.086C126.325 22.751 125.374 22.6818 124.463 22.8872C123.553 23.0925 122.723 23.5633 122.08 24.2398C121.437 24.9164 121.009 25.7685 120.851 26.6882C120.692 27.608 120.809 28.5542 121.188 29.4073C121.567 30.2604 122.19 30.9819 122.979 31.4808C123.768 31.9797 124.687 32.2334 125.62 32.21C126.24 32.1944 126.851 32.0569 127.418 31.8052C127.984 31.5535 128.496 31.1926 128.923 30.7431C129.35 30.2936 129.685 29.7644 129.907 29.1856C130.13 28.6069 130.236 27.9899 130.22 27.37Z" fill="#E00000"/>
<g style="mix-blend-mode:screen" opacity="0.56">
<path d="M129.81 28.2701C129.794 27.5639 129.569 26.8783 129.163 26.3001C128.757 25.7219 128.189 25.2772 127.53 25.0221C126.871 24.767 126.152 24.7131 125.462 24.8672C124.773 25.0213 124.145 25.3765 123.657 25.8878C123.17 26.399 122.845 27.0435 122.724 27.7394C122.603 28.4354 122.691 29.1516 122.977 29.7975C123.263 30.4433 123.734 30.9898 124.331 31.3676C124.928 31.7455 125.624 31.9378 126.33 31.9201C127.274 31.8939 128.17 31.4956 128.822 30.8119C129.474 30.1282 129.829 29.2146 129.81 28.2701Z" fill="#E00000"/>
</g>
<path d="M127.08 30.7501C126.963 30.6048 126.906 30.4202 126.921 30.2342C126.936 30.0482 127.021 29.875 127.16 29.7501C127.308 29.6368 127.484 29.5644 127.67 29.5401C127.846 29.5281 128.023 29.552 128.19 29.6101C127.902 29.6995 127.629 29.831 127.38 30.0001C127.28 30.0974 127.202 30.2143 127.151 30.3435C127.099 30.4726 127.075 30.6111 127.08 30.7501Z" fill="#231616"/>
<path d="M121.44 38.6998C124.047 38.6998 126.16 36.5865 126.16 33.9798C126.16 31.373 124.047 29.2598 121.44 29.2598C118.833 29.2598 116.72 31.373 116.72 33.9798C116.72 36.5865 118.833 38.6998 121.44 38.6998Z" fill="#E00000"/>
<g style="mix-blend-mode:screen" opacity="0.56">
<path d="M125.74 34.7599C125.724 34.0536 125.499 33.3681 125.093 32.7899C124.687 32.2117 124.119 31.7669 123.46 31.5118C122.801 31.2568 122.082 31.2029 121.392 31.357C120.703 31.5111 120.075 31.8662 119.587 32.3775C119.1 32.8888 118.775 33.5332 118.654 34.2292C118.533 34.9251 118.621 35.6414 118.907 36.2872C119.193 36.9331 119.665 37.4795 120.262 37.8574C120.858 38.2352 121.554 38.4275 122.26 38.4099C122.729 38.3995 123.19 38.2968 123.619 38.1076C124.048 37.9184 124.435 37.6464 124.758 37.3073C125.081 36.9682 125.334 36.5687 125.503 36.1315C125.672 35.6944 125.752 35.2283 125.74 34.7599Z" fill="#E00000"/>
</g>
<path d="M123 37.2498C122.882 37.1056 122.823 36.9218 122.836 36.7358C122.849 36.5499 122.933 36.376 123.07 36.2498C123.221 36.1343 123.401 36.0618 123.59 36.0398C123.764 36.0256 123.939 36.053 124.1 36.1198C123.812 36.2041 123.539 36.3322 123.29 36.4998C123.192 36.5979 123.116 36.7152 123.066 36.8443C123.016 36.9734 122.994 37.1115 123 37.2498Z" fill="#231616"/>
<path d="M125.58 26.1901C125.548 24.9569 125.151 23.7609 124.44 22.7531C123.728 21.7454 122.734 20.9711 121.583 20.5281C120.432 20.0851 119.175 19.9933 117.972 20.2642C116.768 20.5351 115.672 21.1567 114.822 22.0503C113.971 22.9439 113.405 24.0696 113.194 25.285C112.983 26.5004 113.137 27.751 113.637 28.8789C114.136 30.0068 114.959 30.9613 116.001 31.6218C117.043 32.2824 118.257 32.6193 119.49 32.5901C120.31 32.5706 121.119 32.3895 121.869 32.0572C122.619 31.7249 123.297 31.2478 123.863 30.6533C124.428 30.0588 124.871 29.3586 125.166 28.5928C125.46 27.8269 125.601 27.0104 125.58 26.1901Z" fill="#E00000"/>
<g style="mix-blend-mode:screen" opacity="0.56">
<path d="M125 27.37C124.976 26.4369 124.676 25.5319 124.137 24.7694C123.599 24.0068 122.847 23.421 121.976 23.086C121.104 22.751 120.153 22.6818 119.243 22.8872C118.332 23.0925 117.503 23.5633 116.86 24.2398C116.217 24.9164 115.789 25.7685 115.63 26.6882C115.472 27.608 115.589 28.5542 115.968 29.4073C116.347 30.2604 116.97 30.9819 117.759 31.4808C118.548 31.9797 119.467 32.2334 120.4 32.21C121.02 32.1957 121.632 32.0591 122.199 31.8078C122.766 31.5566 123.278 31.1957 123.706 30.746C124.133 30.2962 124.468 29.7665 124.69 29.1871C124.912 28.6078 125.017 27.9902 125 27.37Z" fill="#E00000"/>
</g>
<path d="M121.43 30.6699C121.268 30.4856 121.185 30.2448 121.2 29.9999C121.214 29.7352 121.333 29.487 121.53 29.3099C121.727 29.1576 121.962 29.064 122.21 29.0399C122.44 29.0184 122.673 29.0491 122.89 29.1299C122.68 29.2299 122.48 29.2899 122.29 29.3699C122.117 29.4321 121.957 29.5271 121.82 29.6499C121.683 29.7533 121.582 29.8965 121.53 30.0599C121.472 30.2585 121.439 30.4633 121.43 30.6699Z" fill="#231616"/>
</g>
<defs>
<radialGradient id="paint0_radial_161_6" cx="0" cy="0" r="1" gradientUnits="userSpaceOnUse" gradientTransform="translate(143.16 3.38021) scale(0.419999 0.42)">
<stop stop-color="#008451"/>
<stop offset="0.24" stop-color="#00784A"/>
<stop offset="0.57" stop-color="#006E44"/>
<stop offset="1" stop-color="#006B42"/>
</radialGradient>
<radialGradient id="paint1_radial_161_6" cx="0" cy="0" r="1" gradientUnits="userSpaceOnUse" gradientTransform="translate(130.5 17.9098) scale(13.98)">
<stop stop-color="#008451"/>
<stop offset="0.24" stop-color="#00784A"/>
<stop offset="0.57" stop-color="#006E44"/>
<stop offset="1" stop-color="#006B42"/>
</radialGradient>
<radialGradient id="paint2_radial_161_6" cx="0" cy="0" r="1" gradientUnits="userSpaceOnUse" gradientTransform="translate(133.91 17.5002) scale(12.68)">
<stop stop-color="#008451"/>
<stop offset="0.24" stop-color="#00784A"/>
<stop offset="0.57" stop-color="#006E44"/>
<stop offset="1" stop-color="#006B42"/>
</radialGradient>
<linearGradient id="paint3_linear_161_6" x1="123.06" y1="17.06" x2="141.25" y2="17.06" gradientUnits="userSpaceOnUse">
<stop stop-color="#008451" stop-opacity="0.7"/>
<stop offset="0.74" stop-color="#00965D" stop-opacity="0.57"/>
<stop offset="1" stop-color="#00A064" stop-opacity="0.5"/>
</linearGradient>
<linearGradient id="paint4_linear_161_6" x1="135.13" y1="8.69996" x2="136.94" y2="8.69996" gradientUnits="userSpaceOnUse">
<stop stop-color="#008451" stop-opacity="0.7"/>
<stop offset="0.74" stop-color="#00965D" stop-opacity="0.57"/>
<stop offset="1" stop-color="#00A064" stop-opacity="0.5"/>
</linearGradient>
<linearGradient id="paint5_linear_161_6" x1="128.84" y1="12.7101" x2="132.27" y2="12.7101" gradientUnits="userSpaceOnUse">
<stop stop-color="#008451" stop-opacity="0.7"/>
<stop offset="0.74" stop-color="#00965D" stop-opacity="0.57"/>
<stop offset="1" stop-color="#00A064" stop-opacity="0.5"/>
</linearGradient>
<linearGradient id="paint6_linear_161_6" x1="121.12" y1="17.7198" x2="128.25" y2="17.7198" gradientUnits="userSpaceOnUse">
<stop stop-color="#008451" stop-opacity="0.7"/>
<stop offset="0.74" stop-color="#00965D" stop-opacity="0.57"/>
<stop offset="1" stop-color="#00A064" stop-opacity="0.5"/>
</linearGradient>
<linearGradient id="paint7_linear_161_6" x1="125.72" y1="16.4298" x2="130.16" y2="16.4298" gradientUnits="userSpaceOnUse">
<stop stop-color="#008451" stop-opacity="0.7"/>
<stop offset="0.74" stop-color="#00965D" stop-opacity="0.57"/>
<stop offset="1" stop-color="#00A064" stop-opacity="0.5"/>
</linearGradient>
<linearGradient id="paint8_linear_161_6" x1="129.34" y1="20.7398" x2="138.13" y2="20.7398" gradientUnits="userSpaceOnUse">
<stop stop-color="#008451" stop-opacity="0.7"/>
<stop offset="0.74" stop-color="#00965D" stop-opacity="0.57"/>
<stop offset="1" stop-color="#00A064" stop-opacity="0.5"/>
</linearGradient>
<linearGradient id="paint9_linear_161_6" x1="119.18" y1="19.9698" x2="127.45" y2="19.9698" gradientUnits="userSpaceOnUse">
<stop stop-color="#008451" stop-opacity="0.7"/>
<stop offset="0.74" stop-color="#00965D" stop-opacity="0.57"/>
<stop offset="1" stop-color="#00A064" stop-opacity="0.5"/>
</linearGradient>
<linearGradient id="paint10_linear_161_6" x1="119.99" y1="22.46" x2="127.04" y2="22.46" gradientUnits="userSpaceOnUse">
<stop stop-color="#008451" stop-opacity="0.7"/>
<stop offset="0.74" stop-color="#00965D" stop-opacity="0.57"/>
<stop offset="1" stop-color="#00A064" stop-opacity="0.5"/>
</linearGradient>
<linearGradient id="paint11_linear_161_6" x1="122.11" y1="25.04" x2="125.52" y2="25.04" gradientUnits="userSpaceOnUse">
<stop stop-color="#008451" stop-opacity="0.7"/>
<stop offset="0.74" stop-color="#00965D" stop-opacity="0.57"/>
<stop offset="1" stop-color="#00A064" stop-opacity="0.5"/>
</linearGradient>
<linearGradient id="paint12_linear_161_6" x1="135.69" y1="11.5599" x2="143.46" y2="11.5599" gradientUnits="userSpaceOnUse">
<stop stop-color="#008451" stop-opacity="0.7"/>
<stop offset="0.74" stop-color="#00965D" stop-opacity="0.57"/>
<stop offset="1" stop-color="#00A064" stop-opacity="0.5"/>
</linearGradient>
<linearGradient id="paint13_linear_161_6" x1="131.64" y1="17.2301" x2="142.03" y2="17.2301" gradientUnits="userSpaceOnUse">
<stop stop-color="#008451" stop-opacity="0.7"/>
<stop offset="0.74" stop-color="#00965D" stop-opacity="0.57"/>
<stop offset="1" stop-color="#00A064" stop-opacity="0.5"/>
</linearGradient>
<linearGradient id="paint14_linear_161_6" x1="127.5" y1="24.4499" x2="138.51" y2="24.4499" gradientUnits="userSpaceOnUse">
<stop stop-color="#008451" stop-opacity="0.7"/>
<stop offset="0.74" stop-color="#00965D" stop-opacity="0.57"/>
<stop offset="1" stop-color="#00A064" stop-opacity="0.5"/>
</linearGradient>
<linearGradient id="paint15_linear_161_6" x1="126.92" y1="26.3899" x2="135.63" y2="26.3899" gradientUnits="userSpaceOnUse">
<stop stop-color="#008451" stop-opacity="0.7"/>
<stop offset="0.74" stop-color="#00965D" stop-opacity="0.57"/>
<stop offset="1" stop-color="#00A064" stop-opacity="0.5"/>
</linearGradient>
<linearGradient id="paint16_linear_161_6" x1="126.44" y1="26.83" x2="131.11" y2="26.83" gradientUnits="userSpaceOnUse">
<stop stop-color="#008451" stop-opacity="0.7"/>
<stop offset="0.74" stop-color="#00965D" stop-opacity="0.57"/>
<stop offset="1" stop-color="#00A064" stop-opacity="0.5"/>
</linearGradient>
<linearGradient id="paint17_linear_161_6" x1="124.54" y1="26.8898" x2="127.2" y2="26.8898" gradientUnits="userSpaceOnUse">
<stop stop-color="#008451" stop-opacity="0.7"/>
<stop offset="0.74" stop-color="#00965D" stop-opacity="0.57"/>
<stop offset="1" stop-color="#00A064" stop-opacity="0.5"/>
</linearGradient>
<radialGradient id="paint18_radial_161_6" cx="0" cy="0" r="1" gradientUnits="userSpaceOnUse" gradientTransform="translate(119.79 65.85) scale(0.45)">
<stop stop-color="#008451"/>
<stop offset="0.24" stop-color="#00784A"/>
<stop offset="0.57" stop-color="#006E44"/>
<stop offset="1" stop-color="#006B42"/>
</radialGradient>
<radialGradient id="paint19_radial_161_6" cx="0" cy="0" r="1" gradientUnits="userSpaceOnUse" gradientTransform="translate(119.79 47.9702) scale(15.96 15.96)">
<stop stop-color="#008451"/>
<stop offset="0.24" stop-color="#00784A"/>
<stop offset="0.57" stop-color="#006E44"/>
<stop offset="1" stop-color="#006B42"/>
</radialGradient>
<radialGradient id="paint20_radial_161_6" cx="0" cy="0" r="1" gradientUnits="userSpaceOnUse" gradientTransform="translate(112.51 48.61) scale(13.66 13.66)">
<stop stop-color="#008451"/>
<stop offset="0.24" stop-color="#00784A"/>
<stop offset="0.57" stop-color="#006E44"/>
<stop offset="1" stop-color="#006B42"/>
</radialGradient>
<linearGradient id="paint21_linear_161_6" x1="119.21" y1="46.22" x2="120.25" y2="46.22" gradientUnits="userSpaceOnUse">
<stop stop-color="#008451" stop-opacity="0.7"/>
<stop offset="0.74" stop-color="#00965D" stop-opacity="0.57"/>
<stop offset="1" stop-color="#00A064" stop-opacity="0.5"/>
</linearGradient>
<linearGradient id="paint22_linear_161_6" x1="119.34" y1="55.96" x2="125.46" y2="55.96" gradientUnits="userSpaceOnUse">
<stop stop-color="#008451" stop-opacity="0.7"/>
<stop offset="0.74" stop-color="#00965D" stop-opacity="0.57"/>
<stop offset="1" stop-color="#00A064" stop-opacity="0.5"/>
</linearGradient>
<linearGradient id="paint23_linear_161_6" x1="119.37" y1="48.8002" x2="128.87" y2="48.8002" gradientUnits="userSpaceOnUse">
<stop stop-color="#008451" stop-opacity="0.7"/>
<stop offset="0.74" stop-color="#00965D" stop-opacity="0.57"/>
<stop offset="1" stop-color="#00A064" stop-opacity="0.5"/>
</linearGradient>
<linearGradient id="paint24_linear_161_6" x1="119.45" y1="40.4402" x2="131.86" y2="40.4402" gradientUnits="userSpaceOnUse">
<stop stop-color="#008451" stop-opacity="0.7"/>
<stop offset="0.74" stop-color="#00965D" stop-opacity="0.57"/>
<stop offset="1" stop-color="#00A064" stop-opacity="0.5"/>
</linearGradient>
<linearGradient id="paint25_linear_161_6" x1="119.28" y1="43.7898" x2="128.18" y2="43.7898" gradientUnits="userSpaceOnUse">
<stop stop-color="#008451" stop-opacity="0.7"/>
<stop offset="0.74" stop-color="#00965D" stop-opacity="0.57"/>
<stop offset="1" stop-color="#00A064" stop-opacity="0.5"/>
</linearGradient>
<linearGradient id="paint26_linear_161_6" x1="111.26" y1="43.7998" x2="120.16" y2="43.7998" gradientUnits="userSpaceOnUse">
<stop stop-color="#008451" stop-opacity="0.7"/>
<stop offset="0.74" stop-color="#00965D" stop-opacity="0.57"/>
<stop offset="1" stop-color="#00A064" stop-opacity="0.5"/>
</linearGradient>
<linearGradient id="paint27_linear_161_6" x1="119.78" y1="38.0801" x2="131.34" y2="38.0801" gradientUnits="userSpaceOnUse">
<stop stop-color="#008451" stop-opacity="0.7"/>
<stop offset="0.74" stop-color="#00965D" stop-opacity="0.57"/>
<stop offset="1" stop-color="#00A064" stop-opacity="0.5"/>
</linearGradient>
<linearGradient id="paint28_linear_161_6" x1="119.62" y1="35.33" x2="127.61" y2="35.33" gradientUnits="userSpaceOnUse">
<stop stop-color="#008451" stop-opacity="0.7"/>
<stop offset="0.74" stop-color="#00965D" stop-opacity="0.57"/>
<stop offset="1" stop-color="#00A064" stop-opacity="0.5"/>
</linearGradient>
<linearGradient id="paint29_linear_161_6" x1="119.59" y1="33.3002" x2="123.29" y2="33.3002" gradientUnits="userSpaceOnUse">
<stop stop-color="#008451" stop-opacity="0.7"/>
<stop offset="0.74" stop-color="#00965D" stop-opacity="0.57"/>
<stop offset="1" stop-color="#00A064" stop-opacity="0.5"/>
</linearGradient>
<linearGradient id="paint30_linear_161_6" x1="113.93" y1="55.97" x2="120.04" y2="55.97" gradientUnits="userSpaceOnUse">
<stop stop-color="#008451" stop-opacity="0.7"/>
<stop offset="0.74" stop-color="#00965D" stop-opacity="0.57"/>
<stop offset="1" stop-color="#00A064" stop-opacity="0.5"/>
</linearGradient>
<linearGradient id="paint31_linear_161_6" x1="110.5" y1="48.8202" x2="119.99" y2="48.8202" gradientUnits="userSpaceOnUse">
<stop stop-color="#008451" stop-opacity="0.7"/>
<stop offset="0.74" stop-color="#00965D" stop-opacity="0.57"/>
<stop offset="1" stop-color="#00A064" stop-opacity="0.5"/>
</linearGradient>
<linearGradient id="paint32_linear_161_6" x1="107.78" y1="40.3002" x2="120.19" y2="40.3002" gradientUnits="userSpaceOnUse">
<stop stop-color="#008451" stop-opacity="0.7"/>
<stop offset="0.74" stop-color="#00965D" stop-opacity="0.57"/>
<stop offset="1" stop-color="#00A064" stop-opacity="0.5"/>
</linearGradient>
<linearGradient id="paint33_linear_161_6" x1="107.94" y1="38.3799" x2="120.14" y2="38.3799" gradientUnits="userSpaceOnUse">
<stop stop-color="#008451" stop-opacity="0.7"/>
<stop offset="0.74" stop-color="#00965D" stop-opacity="0.57"/>
<stop offset="1" stop-color="#00A064" stop-opacity="0.5"/>
</linearGradient>
<linearGradient id="paint34_linear_161_6" x1="111.65" y1="35.39" x2="119.71" y2="35.39" gradientUnits="userSpaceOnUse">
<stop stop-color="#008451" stop-opacity="0.7"/>
<stop offset="0.74" stop-color="#00965D" stop-opacity="0.57"/>
<stop offset="1" stop-color="#00A064" stop-opacity="0.5"/>
</linearGradient>
<linearGradient id="paint35_linear_161_6" x1="116.13" y1="33.3" x2="120.31" y2="33.3" gradientUnits="userSpaceOnUse">
<stop stop-color="#008451" stop-opacity="0.7"/>
<stop offset="0.74" stop-color="#00965D" stop-opacity="0.57"/>
<stop offset="1" stop-color="#00A064" stop-opacity="0.5"/>
</linearGradient>
<radialGradient id="paint36_radial_161_6" cx="0" cy="0" r="1" gradientUnits="userSpaceOnUse" gradientTransform="translate(150.25 45.6398) scale(0.429999 0.43)">
<stop stop-color="#008451"/>
<stop offset="0.24" stop-color="#00784A"/>
<stop offset="0.57" stop-color="#006E44"/>
<stop offset="1" stop-color="#006B42"/>
</radialGradient>
<radialGradient id="paint37_radial_161_6" cx="0" cy="0" r="1" gradientUnits="userSpaceOnUse" gradientTransform="translate(135.11 33.9601) scale(14.41 14.41)">
<stop stop-color="#008451"/>
<stop offset="0.24" stop-color="#00784A"/>
<stop offset="0.57" stop-color="#006E44"/>
<stop offset="1" stop-color="#006B42"/>
</radialGradient>
<radialGradient id="paint38_radial_161_6" cx="0" cy="0" r="1" gradientUnits="userSpaceOnUse" gradientTransform="translate(135.56 37.9698) scale(12.91)">
<stop stop-color="#008451"/>
<stop offset="0.24" stop-color="#00784A"/>
<stop offset="0.57" stop-color="#006E44"/>
<stop offset="1" stop-color="#006B42"/>
</radialGradient>
<linearGradient id="paint39_linear_161_6" x1="123.24" y1="35.6898" x2="147.36" y2="35.6898" gradientUnits="userSpaceOnUse">
<stop stop-color="#008451" stop-opacity="0.7"/>
<stop offset="0.74" stop-color="#00965D" stop-opacity="0.57"/>
<stop offset="1" stop-color="#00A064" stop-opacity="0.5"/>
</linearGradient>
<linearGradient id="paint40_linear_161_6" x1="140.2" y1="38.9301" x2="148.22" y2="38.9301" gradientUnits="userSpaceOnUse">
<stop stop-color="#008451" stop-opacity="0.7"/>
<stop offset="0.74" stop-color="#00965D" stop-opacity="0.57"/>
<stop offset="1" stop-color="#00A064" stop-opacity="0.5"/>
</linearGradient>
<linearGradient id="paint41_linear_161_6" x1="134.7" y1="33.6801" x2="144.74" y2="33.6801" gradientUnits="userSpaceOnUse">
<stop stop-color="#008451" stop-opacity="0.7"/>
<stop offset="0.74" stop-color="#00965D" stop-opacity="0.57"/>
<stop offset="1" stop-color="#00A064" stop-opacity="0.5"/>
</linearGradient>
<linearGradient id="paint42_linear_161_6" x1="129.36" y1="28.0499" x2="138.82" y2="28.0499" gradientUnits="userSpaceOnUse">
<stop stop-color="#008451" stop-opacity="0.7"/>
<stop offset="0.74" stop-color="#00965D" stop-opacity="0.57"/>
<stop offset="1" stop-color="#00A064" stop-opacity="0.5"/>
</linearGradient>
<linearGradient id="paint43_linear_161_6" x1="131.7" y1="31.3198" x2="139.7" y2="31.3198" gradientUnits="userSpaceOnUse">
<stop stop-color="#008451" stop-opacity="0.7"/>
<stop offset="0.74" stop-color="#00965D" stop-opacity="0.57"/>
<stop offset="1" stop-color="#00A064" stop-opacity="0.5"/>
</linearGradient>
<linearGradient id="paint44_linear_161_6" x1="130.27" y1="37.6399" x2="133.02" y2="37.6399" gradientUnits="userSpaceOnUse">
<stop stop-color="#008451" stop-opacity="0.7"/>
<stop offset="0.74" stop-color="#00965D" stop-opacity="0.57"/>
<stop offset="1" stop-color="#00A064" stop-opacity="0.5"/>
</linearGradient>
<linearGradient id="paint45_linear_161_6" x1="128.35" y1="26.7798" x2="134.84" y2="26.7798" gradientUnits="userSpaceOnUse">
<stop stop-color="#008451" stop-opacity="0.7"/>
<stop offset="0.74" stop-color="#00965D" stop-opacity="0.57"/>
<stop offset="1" stop-color="#00A064" stop-opacity="0.5"/>
</linearGradient>
<linearGradient id="paint46_linear_161_6" x1="127.54" y1="27.2599" x2="130.35" y2="27.2599" gradientUnits="userSpaceOnUse">
<stop stop-color="#008451" stop-opacity="0.7"/>
<stop offset="0.74" stop-color="#00965D" stop-opacity="0.57"/>
<stop offset="1" stop-color="#00A064" stop-opacity="0.5"/>
</linearGradient>
<linearGradient id="paint47_linear_161_6" x1="125.51" y1="27.88" x2="127.04" y2="27.88" gradientUnits="userSpaceOnUse">
<stop stop-color="#008451" stop-opacity="0.7"/>
<stop offset="0.74" stop-color="#00965D" stop-opacity="0.57"/>
<stop offset="1" stop-color="#00A064" stop-opacity="0.5"/>
</linearGradient>
<linearGradient id="paint48_linear_161_6" x1="139.82" y1="42.8502" x2="142.9" y2="42.8502" gradientUnits="userSpaceOnUse">
<stop stop-color="#008451" stop-opacity="0.7"/>
<stop offset="0.74" stop-color="#00965D" stop-opacity="0.57"/>
<stop offset="1" stop-color="#00A064" stop-opacity="0.5"/>
</linearGradient>
<linearGradient id="paint49_linear_161_6" x1="134.17" y1="40.5299" x2="136.39" y2="40.5299" gradientUnits="userSpaceOnUse">
<stop stop-color="#008451" stop-opacity="0.7"/>
<stop offset="0.74" stop-color="#00965D" stop-opacity="0.57"/>
<stop offset="1" stop-color="#00A064" stop-opacity="0.5"/>
</linearGradient>
<linearGradient id="paint50_linear_161_6" x1="125.74" y1="37.1198" x2="129.9" y2="37.1198" gradientUnits="userSpaceOnUse">
<stop stop-color="#008451" stop-opacity="0.7"/>
<stop offset="0.74" stop-color="#00965D" stop-opacity="0.57"/>
<stop offset="1" stop-color="#00A064" stop-opacity="0.5"/>
</linearGradient>
<linearGradient id="paint51_linear_161_6" x1="122.56" y1="35.4698" x2="129.16" y2="35.4698" gradientUnits="userSpaceOnUse">
<stop stop-color="#008451" stop-opacity="0.7"/>
<stop offset="0.74" stop-color="#00965D" stop-opacity="0.57"/>
<stop offset="1" stop-color="#00A064" stop-opacity="0.5"/>
</linearGradient>
<linearGradient id="paint52_linear_161_6" x1="122.02" y1="33.0801" x2="128.39" y2="33.0801" gradientUnits="userSpaceOnUse">
<stop stop-color="#008451" stop-opacity="0.7"/>
<stop offset="0.74" stop-color="#00965D" stop-opacity="0.57"/>
<stop offset="1" stop-color="#00A064" stop-opacity="0.5"/>
</linearGradient>
<linearGradient id="paint53_linear_161_6" x1="123" y1="30.1601" x2="126.59" y2="30.1601" gradientUnits="userSpaceOnUse">
<stop stop-color="#008451" stop-opacity="0.7"/>
<stop offset="0.74" stop-color="#00965D" stop-opacity="0.57"/>
<stop offset="1" stop-color="#00A064" stop-opacity="0.5"/>
</linearGradient>
<radialGradient id="paint54_radial_161_6" cx="0" cy="0" r="1" gradientUnits="userSpaceOnUse" gradientTransform="translate(96.5601 0.550137) scale(0.42)">
<stop stop-color="#008451"/>
<stop offset="0.24" stop-color="#00784A"/>
<stop offset="0.57" stop-color="#006E44"/>
<stop offset="1" stop-color="#006B42"/>
</radialGradient>
<radialGradient id="paint55_radial_161_6" cx="0" cy="0" r="1" gradientUnits="userSpaceOnUse" gradientTransform="translate(110.44 14.05) scale(14.03)">
<stop stop-color="#008451"/>
<stop offset="0.24" stop-color="#00784A"/>
<stop offset="0.57" stop-color="#006E44"/>
<stop offset="1" stop-color="#006B42"/>
</radialGradient>
<radialGradient id="paint56_radial_161_6" cx="0" cy="0" r="1" gradientUnits="userSpaceOnUse" gradientTransform="translate(110.35 11.12) scale(12.74)">
<stop stop-color="#008451"/>
<stop offset="0.24" stop-color="#00784A"/>
<stop offset="0.57" stop-color="#006E44"/>
<stop offset="1" stop-color="#006B42"/>
</radialGradient>
<linearGradient id="paint57_linear_161_6" x1="98.92" y1="12.6598" x2="119.65" y2="12.6598" gradientUnits="userSpaceOnUse">
<stop stop-color="#008451" stop-opacity="0.7"/>
<stop offset="0.74" stop-color="#00965D" stop-opacity="0.57"/>
<stop offset="1" stop-color="#00A064" stop-opacity="0.5"/>
</linearGradient>
<linearGradient id="paint58_linear_161_6" x1="97.31" y1="7.90981" x2="105.21" y2="7.90981" gradientUnits="userSpaceOnUse">
<stop stop-color="#008451" stop-opacity="0.7"/>
<stop offset="0.74" stop-color="#00965D" stop-opacity="0.57"/>
<stop offset="1" stop-color="#00A064" stop-opacity="0.5"/>
</linearGradient>
<linearGradient id="paint59_linear_161_6" x1="99.6101" y1="13.6302" x2="109.88" y2="13.6302" gradientUnits="userSpaceOnUse">
<stop stop-color="#008451" stop-opacity="0.7"/>
<stop offset="0.74" stop-color="#00965D" stop-opacity="0.57"/>
<stop offset="1" stop-color="#00A064" stop-opacity="0.5"/>
</linearGradient>
<linearGradient id="paint60_linear_161_6" x1="104.04" y1="20.2202" x2="114.25" y2="20.2202" gradientUnits="userSpaceOnUse">
<stop stop-color="#008451" stop-opacity="0.7"/>
<stop offset="0.74" stop-color="#00965D" stop-opacity="0.57"/>
<stop offset="1" stop-color="#00A064" stop-opacity="0.5"/>
</linearGradient>
<linearGradient id="paint61_linear_161_6" x1="103.97" y1="16.6599" x2="112.44" y2="16.6599" gradientUnits="userSpaceOnUse">
<stop stop-color="#008451" stop-opacity="0.7"/>
<stop offset="0.74" stop-color="#00965D" stop-opacity="0.57"/>
<stop offset="1" stop-color="#00A064" stop-opacity="0.5"/>
</linearGradient>
<linearGradient id="paint62_linear_161_6" x1="111.49" y1="11.46" x2="115.14" y2="11.46" gradientUnits="userSpaceOnUse">
<stop stop-color="#008451" stop-opacity="0.7"/>
<stop offset="0.74" stop-color="#00965D" stop-opacity="0.57"/>
<stop offset="1" stop-color="#00A064" stop-opacity="0.5"/>
</linearGradient>
<linearGradient id="paint63_linear_161_6" x1="107.51" y1="21.88" x2="115.14" y2="21.88" gradientUnits="userSpaceOnUse">
<stop stop-color="#008451" stop-opacity="0.7"/>
<stop offset="0.74" stop-color="#00965D" stop-opacity="0.57"/>
<stop offset="1" stop-color="#00A064" stop-opacity="0.5"/>
</linearGradient>
<linearGradient id="paint64_linear_161_6" x1="112.03" y1="21.8498" x2="115.91" y2="21.8498" gradientUnits="userSpaceOnUse">
<stop stop-color="#008451" stop-opacity="0.7"/>
<stop offset="0.74" stop-color="#00965D" stop-opacity="0.57"/>
<stop offset="1" stop-color="#00A064" stop-opacity="0.5"/>
</linearGradient>
<linearGradient id="paint65_linear_161_6" x1="115.7" y1="21.7102" x2="117.65" y2="21.7102" gradientUnits="userSpaceOnUse">
<stop stop-color="#008451" stop-opacity="0.7"/>
<stop offset="0.74" stop-color="#00965D" stop-opacity="0.57"/>
<stop offset="1" stop-color="#00A064" stop-opacity="0.5"/>
</linearGradient>
<linearGradient id="paint66_linear_161_6" x1="103.44" y1="4.76" x2="105.58" y2="4.76" gradientUnits="userSpaceOnUse">
<stop stop-color="#008451" stop-opacity="0.7"/>
<stop offset="0.74" stop-color="#00965D" stop-opacity="0.57"/>
<stop offset="1" stop-color="#00A064" stop-opacity="0.5"/>
</linearGradient>
<linearGradient id="paint67_linear_161_6" x1="108.96" y1="8.06008" x2="111.48" y2="8.06008" gradientUnits="userSpaceOnUse">
<stop stop-color="#008451" stop-opacity="0.7"/>
<stop offset="0.74" stop-color="#00965D" stop-opacity="0.57"/>
<stop offset="1" stop-color="#00A064" stop-opacity="0.5"/>
</linearGradient>
<linearGradient id="paint68_linear_161_6" x1="113.9" y1="12.5499" x2="119.64" y2="12.5499" gradientUnits="userSpaceOnUse">
<stop stop-color="#008451" stop-opacity="0.7"/>
<stop offset="0.74" stop-color="#00965D" stop-opacity="0.57"/>
<stop offset="1" stop-color="#00A064" stop-opacity="0.5"/>
</linearGradient>
<linearGradient id="paint69_linear_161_6" x1="114.41" y1="14.49" x2="122.19" y2="14.49" gradientUnits="userSpaceOnUse">
<stop stop-color="#008451" stop-opacity="0.7"/>
<stop offset="0.74" stop-color="#00965D" stop-opacity="0.57"/>
<stop offset="1" stop-color="#00A064" stop-opacity="0.5"/>
</linearGradient>
<linearGradient id="paint70_linear_161_6" x1="115.17" y1="16.8401" x2="121.98" y2="16.8401" gradientUnits="userSpaceOnUse">
<stop stop-color="#008451" stop-opacity="0.7"/>
<stop offset="0.74" stop-color="#00965D" stop-opacity="0.57"/>
<stop offset="1" stop-color="#00A064" stop-opacity="0.5"/>
</linearGradient>
<linearGradient id="paint71_linear_161_6" x1="116.62" y1="19.7199" x2="120.31" y2="19.7199" gradientUnits="userSpaceOnUse">
<stop stop-color="#008451" stop-opacity="0.7"/>
<stop offset="0.74" stop-color="#00965D" stop-opacity="0.57"/>
<stop offset="1" stop-color="#00A064" stop-opacity="0.5"/>
</linearGradient>
<radialGradient id="paint72_radial_161_6" cx="0" cy="0" r="1" gradientUnits="userSpaceOnUse" gradientTransform="translate(77.71 48.2902) scale(0.57)">
<stop stop-color="#008451"/>
<stop offset="0.24" stop-color="#00784A"/>
<stop offset="0.57" stop-color="#006E44"/>
<stop offset="1" stop-color="#006B42"/>
</radialGradient>
<radialGradient id="paint73_radial_161_6" cx="0" cy="0" r="1" gradientUnits="userSpaceOnUse" gradientTransform="translate(98.2202 35.5802) scale(19.24)">
<stop stop-color="#008451"/>
<stop offset="0.24" stop-color="#00784A"/>
<stop offset="0.57" stop-color="#006E44"/>
<stop offset="1" stop-color="#006B42"/>
</radialGradient>
<radialGradient id="paint74_radial_161_6" cx="0" cy="0" r="1" gradientUnits="userSpaceOnUse" gradientTransform="translate(96.58 32.7299) scale(17.82)">
<stop stop-color="#008451"/>
<stop offset="0.24" stop-color="#00784A"/>
<stop offset="0.57" stop-color="#006E44"/>
<stop offset="1" stop-color="#006B42"/>
</radialGradient>
<linearGradient id="paint75_linear_161_6" x1="82.01" y1="37.6402" x2="116.37" y2="37.6402" gradientUnits="userSpaceOnUse">
<stop stop-color="#008451" stop-opacity="0.7"/>
<stop offset="0.74" stop-color="#00965D" stop-opacity="0.57"/>
<stop offset="1" stop-color="#00A064" stop-opacity="0.5"/>
</linearGradient>
<linearGradient id="paint76_linear_161_6" x1="87.5002" y1="45.9798" x2="92.3902" y2="45.9798" gradientUnits="userSpaceOnUse">
<stop stop-color="#008451" stop-opacity="0.7"/>
<stop offset="0.74" stop-color="#00965D" stop-opacity="0.57"/>
<stop offset="1" stop-color="#00A064" stop-opacity="0.5"/>
</linearGradient>
<linearGradient id="paint77_linear_161_6" x1="96.7101" y1="44.0098" x2="100.51" y2="44.0098" gradientUnits="userSpaceOnUse">
<stop stop-color="#008451" stop-opacity="0.7"/>
<stop offset="0.74" stop-color="#00965D" stop-opacity="0.57"/>
<stop offset="1" stop-color="#00A064" stop-opacity="0.5"/>
</linearGradient>
<linearGradient id="paint78_linear_161_6" x1="106.74" y1="41.1498" x2="110.62" y2="41.1498" gradientUnits="userSpaceOnUse">
<stop stop-color="#008451" stop-opacity="0.7"/>
<stop offset="0.74" stop-color="#00965D" stop-opacity="0.57"/>
<stop offset="1" stop-color="#00A064" stop-opacity="0.5"/>
</linearGradient>
<linearGradient id="paint79_linear_161_6" x1="102.14" y1="40.9202" x2="104.66" y2="40.9202" gradientUnits="userSpaceOnUse">
<stop stop-color="#008451" stop-opacity="0.7"/>
<stop offset="0.74" stop-color="#00965D" stop-opacity="0.57"/>
<stop offset="1" stop-color="#00A064" stop-opacity="0.5"/>
</linearGradient>
<linearGradient id="paint80_linear_161_6" x1="94.6201" y1="31.6702" x2="104.26" y2="31.6702" gradientUnits="userSpaceOnUse">
<stop stop-color="#008451" stop-opacity="0.7"/>
<stop offset="0.74" stop-color="#00965D" stop-opacity="0.57"/>
<stop offset="1" stop-color="#00A064" stop-opacity="0.5"/>
</linearGradient>
<linearGradient id="paint81_linear_161_6" x1="108.5" y1="39.1898" x2="115.32" y2="39.1898" gradientUnits="userSpaceOnUse">
<stop stop-color="#008451" stop-opacity="0.7"/>
<stop offset="0.74" stop-color="#00965D" stop-opacity="0.57"/>
<stop offset="1" stop-color="#00A064" stop-opacity="0.5"/>
</linearGradient>
<linearGradient id="paint82_linear_161_6" x1="109.27" y1="35.8802" x2="116.91" y2="35.8802" gradientUnits="userSpaceOnUse">
<stop stop-color="#008451" stop-opacity="0.7"/>
<stop offset="0.74" stop-color="#00965D" stop-opacity="0.57"/>
<stop offset="1" stop-color="#00A064" stop-opacity="0.5"/>
</linearGradient>
<linearGradient id="paint83_linear_161_6" x1="112.19" y1="32.3702" x2="116.09" y2="32.3702" gradientUnits="userSpaceOnUse">
<stop stop-color="#008451" stop-opacity="0.7"/>
<stop offset="0.74" stop-color="#00965D" stop-opacity="0.57"/>
<stop offset="1" stop-color="#00A064" stop-opacity="0.5"/>
</linearGradient>
<linearGradient id="paint84_linear_161_6" x1="81.6698" y1="39.98" x2="91.9798" y2="39.98" gradientUnits="userSpaceOnUse">
<stop stop-color="#008451" stop-opacity="0.7"/>
<stop offset="0.74" stop-color="#00965D" stop-opacity="0.57"/>
<stop offset="1" stop-color="#00A064" stop-opacity="0.5"/>
</linearGradient>
<linearGradient id="paint85_linear_161_6" x1="87.3602" y1="33.9799" x2="99.9802" y2="33.9799" gradientUnits="userSpaceOnUse">
<stop stop-color="#008451" stop-opacity="0.7"/>
<stop offset="0.74" stop-color="#00965D" stop-opacity="0.57"/>
<stop offset="1" stop-color="#00A064" stop-opacity="0.5"/>
</linearGradient>
<linearGradient id="paint86_linear_161_6" x1="96.7099" y1="27.9099" x2="108.18" y2="27.9099" gradientUnits="userSpaceOnUse">
<stop stop-color="#008451" stop-opacity="0.7"/>
<stop offset="0.74" stop-color="#00965D" stop-opacity="0.57"/>
<stop offset="1" stop-color="#00A064" stop-opacity="0.5"/>
</linearGradient>
<linearGradient id="paint87_linear_161_6" x1="102.11" y1="26.68" x2="109.3" y2="26.68" gradientUnits="userSpaceOnUse">
<stop stop-color="#008451" stop-opacity="0.7"/>
<stop offset="0.74" stop-color="#00965D" stop-opacity="0.57"/>
<stop offset="1" stop-color="#00A064" stop-opacity="0.5"/>
</linearGradient>
<linearGradient id="paint88_linear_161_6" x1="107.55" y1="27.5199" x2="110.14" y2="27.5199" gradientUnits="userSpaceOnUse">
<stop stop-color="#008451" stop-opacity="0.7"/>
<stop offset="0.74" stop-color="#00965D" stop-opacity="0.57"/>
<stop offset="1" stop-color="#00A064" stop-opacity="0.5"/>
</linearGradient>
<linearGradient id="paint89_linear_161_6" x1="111.88" y1="29.0899" x2="113.35" y2="29.0899" gradientUnits="userSpaceOnUse">
<stop stop-color="#008451" stop-opacity="0.7"/>
<stop offset="0.74" stop-color="#00965D" stop-opacity="0.57"/>
<stop offset="1" stop-color="#00A064" stop-opacity="0.5"/>
</linearGradient>
<clipPath id="clip0_161_6">
<rect width="73.75" height="66.49" fill="white" transform="translate(77)"/>
</clipPath>
</defs>
</svg>
