<svg width="239" height="180" viewBox="0 0 239 180" fill="none" xmlns="http://www.w3.org/2000/svg">
<path d="M87.8882 167.52L95.1355 180H108.749L101.512 167.52H87.8882Z" fill="#EAEAEA"/>
<path d="M111.892 167.52L119.14 180H132.753L125.516 167.52H111.892Z" fill="#EAEAEA"/>
<path d="M63.894 167.52L71.1313 180H84.745L77.5077 167.52H63.894Z" fill="#EAEAEA"/>
<path d="M39.8901 167.52L47.1274 180H60.7411L53.5038 167.52H39.8901Z" fill="#EAEAEA"/>
<path d="M27.3574 167.52V180H36.7368L29.4996 167.52H27.3574Z" fill="#EAEAEA"/>
<path d="M135.896 167.52L143.144 180H156.757L149.51 167.52H135.896Z" fill="#EAEAEA"/>
<path d="M215.416 180H217.819V167.52H208.169L215.416 180Z" fill="#EAEAEA"/>
<path d="M183.905 167.52L191.152 180H205.026L197.779 167.52H183.905Z" fill="#EAEAEA"/>
<path d="M159.901 167.52L167.148 180H180.762L173.514 167.52H159.901Z" fill="#EAEAEA"/>
<path d="M173.514 167.52L180.761 180H191.152L183.905 167.52H173.514Z" fill="#EAEAEA"/>
<g style="mix-blend-mode:multiply">
<path d="M173.514 167.52L180.761 180H191.152L183.905 167.52H173.514Z" fill="#E00000"/>
</g>
<path d="M197.779 167.52L205.026 180H215.416L208.169 167.52H197.779Z" fill="#EAEAEA"/>
<g style="mix-blend-mode:multiply">
<path d="M197.779 167.52L205.026 180H215.416L208.169 167.52H197.779Z" fill="#E00000"/>
</g>
<path d="M149.51 167.52L156.758 180H167.148L159.901 167.52H149.51Z" fill="#EAEAEA"/>
<g style="mix-blend-mode:multiply">
<path d="M149.51 167.52L156.758 180H167.148L159.901 167.52H149.51Z" fill="#E00000"/>
</g>
<path d="M125.516 167.52L132.753 180H143.144L135.897 167.52H125.516Z" fill="#EAEAEA"/>
<g style="mix-blend-mode:multiply">
<path d="M125.516 167.52L132.753 180H143.144L135.897 167.52H125.516Z" fill="#E00000"/>
</g>
<path d="M101.512 167.52L108.749 180H119.14L111.892 167.52H101.512Z" fill="#EAEAEA"/>
<g style="mix-blend-mode:multiply">
<path d="M101.512 167.52L108.749 180H119.14L111.892 167.52H101.512Z" fill="#E00000"/>
</g>
<path d="M77.5078 167.52L84.7451 180H95.1355L87.8882 167.52H77.5078Z" fill="#EAEAEA"/>
<g style="mix-blend-mode:multiply">
<path d="M77.5078 167.52L84.7451 180H95.1355L87.8882 167.52H77.5078Z" fill="#E00000"/>
</g>
<path d="M53.5037 167.52L60.7409 180H71.1314L63.8941 167.52H53.5037Z" fill="#EAEAEA"/>
<g style="mix-blend-mode:multiply">
<path d="M53.5037 167.52L60.7409 180H71.1314L63.8941 167.52H53.5037Z" fill="#E00000"/>
</g>
<path d="M29.4995 167.52L36.7368 180H47.1272L39.8899 167.52H29.4995Z" fill="#EAEAEA"/>
<g style="mix-blend-mode:multiply">
<path d="M29.4995 167.52L36.7368 180H47.1272L39.8899 167.52H29.4995Z" fill="#E00000"/>
</g>
<g style="mix-blend-mode:multiply">
<path d="M217.659 167.52H27.1973V172.494H217.659V167.52Z" fill="#EAEAEA"/>
</g>
<path d="M12.4825 58.3984L0 65.6345V79.2558L12.4825 72.0098V58.3984Z" fill="#EAEAEA"/>
<path d="M12.4825 82.3984L0 89.6345V103.246L12.4825 96.0098V82.3984Z" fill="#EAEAEA"/>
<path d="M12.4825 34.3984L0 41.6345V55.2558L12.4825 48.0098V34.3984Z" fill="#EAEAEA"/>
<path d="M14.6647 15.4427C12.4083 14.5674 9.99116 14.1833 7.57452 14.3162C5.15789 14.4491 2.79741 15.0959 0.650653 16.2134C0.257013 17.7858 0.038798 19.3969 0 21.0174L0 31.2559L12.4825 24.0199V22.3184C12.4825 21.778 12.4825 21.0874 12.4825 20.8572C12.4816 20.5215 12.5118 20.1865 12.5726 19.8564C12.6092 19.5166 12.6796 19.1813 12.7828 18.8556C13.1244 17.5823 13.7702 16.4111 14.6647 15.4427Z" fill="#EAEAEA"/>
<path d="M21.0912 12.4804L20.961 0C16.49 0.0484565 12.1501 1.51703 8.5686 4.19349C11.0434 4.78889 13.3723 5.87825 15.4155 7.39616C17.2607 8.78135 18.7753 10.5589 19.8499 12.6005C20.2602 12.5303 20.6751 12.4902 21.0912 12.4804Z" fill="#EAEAEA"/>
<path d="M12.4825 106.398L0 113.634V127.246L12.4825 120.01V106.398Z" fill="#EAEAEA"/>
<path d="M24.7948 180H27.1973V167.52H21.1912H20.4805C20.2453 167.505 20.0112 167.474 19.7798 167.43C19.5485 167.408 19.3202 167.361 19.0991 167.29C19.3036 169.588 20.0147 171.813 21.1812 173.805L24.7948 180Z" fill="#EAEAEA"/>
<path d="M12.4825 154.389L6.23625 158.012C3.99311 159.204 2.00403 160.822 0.380371 162.776C1.00019 166.009 2.36382 169.054 4.36346 171.67C6.3631 174.286 8.94394 176.401 11.9019 177.848C11.2763 175.502 11.1554 173.05 11.547 170.654C11.9387 168.258 12.8341 165.972 14.1742 163.947C13.364 162.87 12.8281 161.613 12.6127 160.284C12.5502 159.954 12.5167 159.619 12.5126 159.283V158.742V154.399L12.4825 154.389Z" fill="#EAEAEA"/>
<path d="M12.4825 130.389L0 137.635V151.246L12.4825 144.01V130.389Z" fill="#EAEAEA"/>
<path d="M12.4825 144.01L0 151.246V158.392C0 158.612 0 158.782 0 159.122L0.100101 160.954L0.370372 162.775C1.99403 160.822 3.98311 159.204 6.22625 158.011L12.4725 154.388L12.4825 144.01Z" fill="#EAEAEA"/>
<g style="mix-blend-mode:multiply">
<path d="M12.4825 144.01L0 151.246V158.392C0 158.612 0 158.782 0 159.122L0.100101 160.954L0.370372 162.775C1.99403 160.822 3.98311 159.204 6.22625 158.011L12.4725 154.388L12.4825 144.01Z" fill="#E00000"/>
</g>
<path d="M14.1743 163.947C12.8343 165.972 11.9388 168.258 11.5472 170.654C11.1555 173.05 11.2764 175.502 11.9021 177.848C14.1068 178.909 16.4765 179.586 18.9091 179.85C19.5197 179.9 20.1303 179.93 20.7409 179.95H21.1814H24.755L21.1313 173.715C19.9648 171.723 19.2537 169.498 19.0492 167.199C17.0903 166.727 15.3628 165.574 14.1743 163.947Z" fill="#EAEAEA"/>
<g style="mix-blend-mode:multiply">
<path d="M14.1743 163.947C12.8343 165.972 11.9388 168.258 11.5472 170.654C11.1555 173.05 11.2764 175.502 11.9021 177.848C14.1068 178.909 16.4765 179.586 18.9091 179.85C19.5197 179.9 20.1303 179.93 20.7409 179.95H21.1814H24.755L21.1313 173.715C19.9648 171.723 19.2537 169.498 19.0492 167.199C17.0903 166.727 15.3628 165.574 14.1743 163.947Z" fill="#E00000"/>
</g>
<path d="M12.4825 120.01L0 127.246V137.634L12.4825 130.388V120.01Z" fill="#EAEAEA"/>
<g style="mix-blend-mode:multiply">
<path d="M12.4825 120.01L0 127.246V137.634L12.4825 130.388V120.01Z" fill="#E00000"/>
</g>
<path d="M12.4825 96.0098L0 103.246V113.634L12.4825 106.398V96.0098Z" fill="#EAEAEA"/>
<g style="mix-blend-mode:multiply">
<path d="M12.4825 96.0098L0 103.246V113.634L12.4825 106.398V96.0098Z" fill="#E00000"/>
</g>
<path d="M12.4825 72.0098L0 79.2558V89.6345L12.4825 82.3984V72.0098Z" fill="#EAEAEA"/>
<g style="mix-blend-mode:multiply">
<path d="M12.4825 72.0098L0 79.2558V89.6345L12.4825 82.3984V72.0098Z" fill="#E00000"/>
</g>
<path d="M12.4825 48.0098L0 55.2558V65.6345L12.4825 58.3984V48.0098Z" fill="#EAEAEA"/>
<g style="mix-blend-mode:multiply">
<path d="M12.4825 48.0098L0 55.2558V65.6345L12.4825 58.3984V48.0098Z" fill="#E00000"/>
</g>
<path d="M12.4825 24.0098L0 31.2558V41.6345L12.4825 34.3984V24.0098Z" fill="#EAEAEA"/>
<g style="mix-blend-mode:multiply">
<path d="M12.4825 24.0098L0 31.2558V41.6345L12.4825 34.3984V24.0098Z" fill="#E00000"/>
</g>
<path d="M19.8499 12.6004C18.7753 10.5588 17.2607 8.78122 15.4155 7.39603C13.3723 5.87812 11.0434 4.78875 8.56859 4.19336C4.56491 7.12597 1.72816 11.3804 0.560547 16.2034C2.71392 15.0786 5.08322 14.4278 7.50912 14.2949C9.93501 14.162 12.3613 14.5499 14.6247 15.4327C15.9664 13.8877 17.8228 12.8814 19.8499 12.6004Z" fill="#EAEAEA"/>
<g style="mix-blend-mode:multiply">
<path d="M19.8499 12.6004C18.7753 10.5588 17.2607 8.78122 15.4155 7.39603C13.3723 5.87812 11.0434 4.78875 8.56859 4.19336C4.56491 7.12597 1.72816 11.3804 0.560547 16.2034C2.71392 15.0786 5.08322 14.4278 7.50912 14.2949C9.93501 14.162 12.3613 14.5499 14.6247 15.4327C15.9664 13.8877 17.8228 12.8814 19.8499 12.6004Z" fill="#E00000"/>
</g>
<g style="mix-blend-mode:multiply">
<path d="M21.1813 12.4802C20.0304 12.483 18.8917 12.7165 17.8326 13.1669C16.7735 13.6173 15.8154 14.2754 15.0151 15.1024C14.1847 15.9338 13.531 16.9245 13.0932 18.0149C12.8793 18.5467 12.7249 19.1005 12.6327 19.6662C12.5709 19.9494 12.534 20.2374 12.5226 20.527V20.9673V158.782C12.5226 158.902 12.5226 158.942 12.5226 159.022V159.453C12.5383 159.742 12.5751 160.03 12.6327 160.313C12.7214 160.882 12.8725 161.439 13.0832 161.975C13.5047 163.054 14.1356 164.04 14.9396 164.875C15.7436 165.71 16.7048 166.377 17.7679 166.839C18.8338 167.297 19.9812 167.535 21.1413 167.539H27.0272V172.544H21.1012C19.2764 172.541 17.4712 172.166 15.7959 171.443C14.1236 170.722 12.6117 169.676 11.3485 168.365C10.0852 167.054 9.09597 165.504 8.43853 163.806C7.78314 162.095 7.46366 160.274 7.49759 158.442V21.5178C7.46309 19.692 7.79027 17.8774 8.46029 16.1786C9.1303 14.4798 10.1299 12.9304 11.4015 11.6195C12.6745 10.3152 14.1954 9.27848 15.8749 8.57036C17.5544 7.86224 19.3586 7.49699 21.1813 7.49609V12.4802Z" fill="#EAEAEA"/>
</g>
<path d="M151.112 12.4804L143.864 0H130.251L137.498 12.4804H151.112Z" fill="#EAEAEA"/>
<path d="M127.108 12.4804L119.86 0H106.247L113.494 12.4804H127.108Z" fill="#EAEAEA"/>
<path d="M175.116 12.4804L167.869 0H154.255L161.502 12.4804H175.116Z" fill="#EAEAEA"/>
<path d="M199.12 12.4804L191.873 0H178.259L185.496 12.4804H199.12Z" fill="#EAEAEA"/>
<path d="M211.643 12.4804V0H202.263L209.5 12.4804H211.643Z" fill="#EAEAEA"/>
<path d="M103.104 12.4804L95.8663 0H82.2427L89.49 12.4804H103.104Z" fill="#EAEAEA"/>
<path d="M23.5936 0H21.1812V12.4804H30.8308L23.5936 0Z" fill="#EAEAEA"/>
<path d="M55.0953 12.4804L47.8581 0H33.9741L41.2214 12.4804H55.0953Z" fill="#EAEAEA"/>
<path d="M79.0995 12.4804L71.8622 0H58.2385L65.4858 12.4804H79.0995Z" fill="#EAEAEA"/>
<path d="M65.4859 12.4804L58.2386 0H47.8582L55.0954 12.4804H65.4859Z" fill="#EAEAEA"/>
<g style="mix-blend-mode:multiply">
<path d="M65.4859 12.4804L58.2386 0H47.8582L55.0954 12.4804H65.4859Z" fill="#E00000"/>
</g>
<path d="M41.2215 12.4804L33.9742 0H23.5938L30.831 12.4804H41.2215Z" fill="#EAEAEA"/>
<g style="mix-blend-mode:multiply">
<path d="M41.2215 12.4804L33.9742 0H23.5938L30.831 12.4804H41.2215Z" fill="#E00000"/>
</g>
<path d="M89.4898 12.4804L82.2425 0H71.8621L79.0993 12.4804H89.4898Z" fill="#EAEAEA"/>
<g style="mix-blend-mode:multiply">
<path d="M89.4898 12.4804L82.2425 0H71.8621L79.0993 12.4804H89.4898Z" fill="#E00000"/>
</g>
<path d="M113.494 12.4804L106.247 0H95.8662L103.103 12.4804H113.494Z" fill="#EAEAEA"/>
<g style="mix-blend-mode:multiply">
<path d="M113.494 12.4804L106.247 0H95.8662L103.103 12.4804H113.494Z" fill="#E00000"/>
</g>
<path d="M137.498 12.4804L130.251 0H119.86L127.108 12.4804H137.498Z" fill="#EAEAEA"/>
<g style="mix-blend-mode:multiply">
<path d="M137.498 12.4804L130.251 0H119.86L127.108 12.4804H137.498Z" fill="#E00000"/>
</g>
<path d="M161.502 12.4804L154.255 0H143.865L151.112 12.4804H161.502Z" fill="#EAEAEA"/>
<g style="mix-blend-mode:multiply">
<path d="M161.502 12.4804L154.255 0H143.865L151.112 12.4804H161.502Z" fill="#E00000"/>
</g>
<path d="M185.496 12.4804L178.259 0H167.869L175.116 12.4804H185.496Z" fill="#EAEAEA"/>
<g style="mix-blend-mode:multiply">
<path d="M185.496 12.4804L178.259 0H167.869L175.116 12.4804H185.496Z" fill="#E00000"/>
</g>
<path d="M209.5 12.4804L202.263 0H191.873L199.12 12.4804H209.5Z" fill="#EAEAEA"/>
<g style="mix-blend-mode:multiply">
<path d="M209.5 12.4804L202.263 0H191.873L199.12 12.4804H209.5Z" fill="#E00000"/>
</g>
<g style="mix-blend-mode:multiply">
<path d="M211.803 7.49609H21.3413V12.4702H211.803V7.49609Z" fill="#EAEAEA"/>
</g>
<path d="M226.528 121.602L239 114.365V100.744L226.528 107.99V121.602Z" fill="#EAEAEA"/>
<path d="M226.528 97.6013L239 90.3652V76.7539L226.528 83.9899V97.6013Z" fill="#EAEAEA"/>
<path d="M226.528 145.602L239 138.365V124.744L226.528 131.99V145.602Z" fill="#EAEAEA"/>
<path d="M224.345 164.557C226.602 165.433 229.019 165.817 231.435 165.684C233.852 165.551 236.213 164.904 238.359 163.787C238.734 162.222 238.935 160.621 238.96 159.013V148.744L226.487 155.99V157.692C226.487 158.232 226.487 158.923 226.487 159.153C226.488 159.488 226.458 159.824 226.397 160.154C226.359 160.492 226.292 160.827 226.197 161.154C225.859 162.42 225.224 163.586 224.345 164.557Z" fill="#EAEAEA"/>
<path d="M217.909 167.52L218.039 179.99C222.512 179.946 226.856 178.481 230.442 175.806C227.963 175.213 225.63 174.124 223.585 172.604C221.74 171.221 220.228 169.443 219.16 167.399C218.747 167.47 218.328 167.51 217.909 167.52Z" fill="#EAEAEA"/>
<path d="M226.528 73.6013L239 66.3652V52.7539L226.528 59.9899V73.6013Z" fill="#EAEAEA"/>
<path d="M214.215 0H211.813V12.4804H217.819H218.519C218.755 12.49 218.99 12.5202 219.22 12.5705C219.452 12.5871 219.681 12.6342 219.901 12.7106C219.696 10.4117 218.985 8.18668 217.819 6.19516L214.215 0Z" fill="#EAEAEA"/>
<path d="M226.527 25.6114L232.764 22.0184C235.007 20.8261 236.996 19.2079 238.62 17.2544C238.004 14.0154 236.642 10.9643 234.642 8.34282C232.643 5.72138 230.06 3.60172 227.098 2.15186C227.718 4.49197 227.836 6.93664 227.444 9.32552C227.052 11.7144 226.16 13.9935 224.826 16.0134C225.642 17.0863 226.178 18.345 226.387 19.6765C226.449 20.0069 226.485 20.3414 226.497 20.6773V21.2177V25.5614L226.527 25.6114Z" fill="#EAEAEA"/>
<path d="M226.528 49.6013L239 42.3653V28.7539L226.528 35.9899V49.6013Z" fill="#EAEAEA"/>
<path d="M226.528 36.0298L239 28.7938V21.6078C239 21.3876 239 21.2174 239 20.8672L238.9 19.0356L238.63 17.2241C237.006 19.1894 235.013 20.8181 232.764 22.0181L226.528 25.6411V36.0298Z" fill="#EAEAEA"/>
<g style="mix-blend-mode:multiply">
<path d="M226.528 36.0298L239 28.7938V21.6078C239 21.3876 239 21.2174 239 20.8672L238.9 19.0356L238.63 17.2241C237.006 19.1894 235.013 20.8181 232.764 22.0181L226.528 25.6411V36.0298Z" fill="#E00000"/>
</g>
<path d="M224.826 16.0131C226.166 13.9882 227.061 11.7022 227.453 9.30594C227.845 6.90968 227.724 4.45761 227.098 2.11152C224.894 1.04924 222.524 0.372232 220.091 0.109849C219.48 0.109849 218.87 0.0297823 218.259 0.00976562H217.819H214.215L217.839 6.24496C219.005 8.23648 219.716 10.4615 219.921 12.7604C221.893 13.2226 223.633 14.3767 224.826 16.0131Z" fill="#EAEAEA"/>
<g style="mix-blend-mode:multiply">
<path d="M224.826 16.0131C226.166 13.9882 227.061 11.7022 227.453 9.30594C227.845 6.90968 227.724 4.45761 227.098 2.11152C224.894 1.04924 222.524 0.372232 220.091 0.109849C219.48 0.109849 218.87 0.0297823 218.259 0.00976562H217.819H214.215L217.839 6.24496C219.005 8.23648 219.716 10.4615 219.921 12.7604C221.893 13.2226 223.633 14.3767 224.826 16.0131Z" fill="#E00000"/>
</g>
<path d="M226.528 59.9899L239 52.7539V42.3652L226.528 49.6013V59.9899Z" fill="#EAEAEA"/>
<g style="mix-blend-mode:multiply">
<path d="M226.528 59.9899L239 52.7539V42.3652L226.528 49.6013V59.9899Z" fill="#E00000"/>
</g>
<path d="M226.528 83.9899L239 76.7539V66.3652L226.528 73.6013V83.9899Z" fill="#EAEAEA"/>
<g style="mix-blend-mode:multiply">
<path d="M226.528 83.9899L239 76.7539V66.3652L226.528 73.6013V83.9899Z" fill="#E00000"/>
</g>
<path d="M226.528 107.99L239 100.744V90.3652L226.528 97.6013V107.99Z" fill="#EAEAEA"/>
<g style="mix-blend-mode:multiply">
<path d="M226.528 107.99L239 100.744V90.3652L226.528 97.6013V107.99Z" fill="#E00000"/>
</g>
<path d="M226.528 131.99L239 124.744V114.365L226.528 121.601V131.99Z" fill="#EAEAEA"/>
<g style="mix-blend-mode:multiply">
<path d="M226.528 131.99L239 124.744V114.365L226.528 121.601V131.99Z" fill="#E00000"/>
</g>
<path d="M226.528 155.99L239 148.744V138.365L226.528 145.601V155.99Z" fill="#EAEAEA"/>
<g style="mix-blend-mode:multiply">
<path d="M226.528 155.99L239 148.744V138.365L226.528 145.601V155.99Z" fill="#E00000"/>
</g>
<path d="M219.16 167.399C220.228 169.443 221.74 171.221 223.585 172.604C225.63 174.124 227.963 175.213 230.441 175.806C234.426 172.865 237.245 168.612 238.399 163.796C236.253 164.914 233.892 165.561 231.476 165.694C229.059 165.826 226.642 165.442 224.385 164.567C223.04 166.107 221.185 167.112 219.16 167.399Z" fill="#EAEAEA"/>
<g style="mix-blend-mode:multiply">
<path d="M219.16 167.399C220.228 169.443 221.74 171.221 223.585 172.604C225.63 174.124 227.963 175.213 230.441 175.806C234.426 172.865 237.245 168.612 238.399 163.796C236.253 164.914 233.892 165.561 231.476 165.694C229.059 165.826 226.642 165.442 224.385 164.567C223.04 166.107 221.185 167.112 219.16 167.399Z" fill="#E00000"/>
</g>
<g style="mix-blend-mode:multiply">
<path d="M217.819 167.519C218.978 167.523 220.126 167.293 221.195 166.843C222.263 166.392 223.229 165.73 224.035 164.897C225.251 163.65 226.067 162.068 226.377 160.353C226.429 160.069 226.466 159.781 226.487 159.493V159.052V21.2375C226.494 21.1576 226.494 21.0773 226.487 20.9973V20.557C226.474 20.2681 226.44 19.9805 226.387 19.6963C226.291 19.1217 226.137 18.5583 225.927 18.0149C225.501 16.9382 224.866 15.9565 224.059 15.1268C223.251 14.2971 222.287 13.6356 221.222 13.1808C220.158 12.7181 219.009 12.4796 217.849 12.4802H211.943V7.47607H217.879C219.719 7.48296 221.539 7.8679 223.224 8.60702C224.897 9.32862 226.409 10.3753 227.674 11.6862C228.939 12.9971 229.931 14.5461 230.592 16.2434C231.239 17.9564 231.555 19.7769 231.523 21.6079V158.482C231.562 160.305 231.238 162.118 230.569 163.814C229.899 165.511 228.898 167.057 227.624 168.361C226.35 169.666 224.828 170.704 223.148 171.413C221.468 172.123 219.663 172.49 217.839 172.494L217.819 167.519Z" fill="#EAEAEA"/>
</g>
</svg>
